<?xml version="1.0" encoding="utf-8"?>
<!-- Generator: Adobe Illustrator 17.1.0, SVG Export Plug-In . SVG Version: 6.00 Build 0)  -->
<!DOCTYPE svg PUBLIC "-//W3C//DTD SVG 1.1//EN" "http://www.w3.org/Graphics/SVG/1.1/DTD/svg11.dtd">
<svg version="1.1" xmlns="http://www.w3.org/2000/svg" xmlns:xlink="http://www.w3.org/1999/xlink" x="0px" y="0px"
	 viewBox="0 0 336.7 296" style="enable-background:new 0 0 336.7 296;" xml:space="preserve">
<style type="text/css">
	.st0{clip-path:url(#SVGID_2_);fill:#FFFFFF;}
	.st1{clip-path:url(#SVGID_4_);fill:#FFFFFF;}
	.st2{clip-path:url(#SVGID_6_);fill:#FFFFFF;}
	.st3{clip-path:url(#SVGID_8_);fill:#FFFFFF;}
	.st4{clip-path:url(#SVGID_10_);}
	.st5{fill:url(#SVGID_11_);}
	.st6{fill:url(#SVGID_12_);}
	.st7{fill:url(#SVGID_13_);}
	.st8{fill:url(#SVGID_14_);}
	.st9{fill:url(#SVGID_15_);}
	.st10{fill:url(#SVGID_16_);}
	.st11{fill:#FFFFFF;}
	.st12{fill:#BAE1F9;}
	.st13{fill:none;stroke:#BAE1F9;stroke-miterlimit:10;}
	.st14{opacity:0.7;clip-path:url(#SVGID_18_);}
	.st15{fill:#1D3160;}
	.st16{opacity:0;clip-path:url(#SVGID_18_);}
	.st17{fill:#DC325A;}
	.st18{clip-path:url(#SVGID_20_);}
	.st19{opacity:0.65;}
	.st20{fill:#999B9E;}
	.st21{opacity:0.65;fill:#999B9E;}
	.st22{fill:none;stroke:#FFFFFF;stroke-miterlimit:10;}
	.st23{clip-path:url(#SVGID_24_);}
	.st24{fill:#16A2E5;}
	.st25{fill:#39A74A;}
	.st26{clip-path:url(#SVGID_24_);fill:#FFFFFF;}
	.st27{fill:#E3E4E4;}
	.st28{clip-path:url(#SVGID_26_);}
	.st29{clip-path:url(#SVGID_26_);fill:#16A2E5;}
	.st30{clip-path:url(#SVGID_26_);fill:#FFFFFF;}
	.st31{clip-path:url(#SVGID_28_);}
	.st32{fill:none;stroke:#E3E4E4;stroke-width:0.7;stroke-miterlimit:10;}
	.st33{fill:#AEB0B2;}
	.st34{fill:none;stroke:#D8D9DA;stroke-miterlimit:10;}
	.st35{fill:#F6F7F7;}
	.st36{fill:#A02C58;}
	.st37{fill:none;stroke:#16A2E5;stroke-width:2;stroke-miterlimit:10;}
	.st38{clip-path:url(#SVGID_30_);}
	.st39{fill:#F6F7F7;stroke:#F6F7F7;stroke-width:2;stroke-miterlimit:10;}
	.st40{fill:#F6F7F7;stroke:#F1F2F2;stroke-width:2;stroke-miterlimit:10;}
	.st41{fill:#85878A;}
	.st42{fill:url(#SVGID_31_);}
	.st43{opacity:0.5;fill:#FFFFFF;}
	.st44{opacity:0.7;}
	.st45{clip-path:url(#SVGID_33_);}
	.st46{opacity:0.1;clip-path:url(#SVGID_33_);fill:#0D1938;}
	.st47{opacity:0.3;}
	.st48{fill:none;stroke:#231F20;stroke-width:2;stroke-linecap:round;stroke-linejoin:round;stroke-miterlimit:10;}
	.st49{fill:#D8D9DA;}
	.st50{fill:url(#SVGID_34_);}
	.st51{fill:url(#SVGID_35_);}
	.st52{fill:url(#SVGID_36_);}
	.st53{fill:url(#SVGID_37_);}
	.st54{fill:url(#SVGID_38_);}
	.st55{fill:url(#SVGID_39_);}
	.st56{opacity:0;fill:#E3F6FF;}
	.st57{clip-path:url(#SVGID_41_);}
	.st58{fill:none;stroke:url(#SVGID_42_);stroke-width:25.2889;stroke-linecap:round;stroke-linejoin:round;stroke-miterlimit:10;}
	.st59{fill:none;stroke:url(#SVGID_43_);stroke-width:25.2889;stroke-linecap:round;stroke-linejoin:round;stroke-miterlimit:10;}
	.st60{fill:none;stroke:url(#SVGID_44_);stroke-width:25.2889;stroke-linecap:round;stroke-linejoin:round;stroke-miterlimit:10;}
	.st61{fill:#F3AA8A;}
	.st62{opacity:0;}
	.st63{fill:none;stroke:#FFFFFF;stroke-width:1.2644;stroke-linecap:round;stroke-linejoin:round;stroke-miterlimit:10;}
	.st64{fill:url(#SVGID_45_);}
	.st65{fill:none;stroke:url(#SVGID_46_);stroke-width:25.2889;stroke-linecap:round;stroke-linejoin:round;stroke-miterlimit:10;}
	.st66{fill:none;stroke:url(#SVGID_47_);stroke-width:25.2889;stroke-linecap:round;stroke-linejoin:round;stroke-miterlimit:10;}
	.st67{fill:url(#SVGID_48_);}
	.st68{fill:url(#SVGID_49_);}
	.st69{fill:none;stroke:url(#SVGID_50_);stroke-width:25.2889;stroke-linecap:round;stroke-linejoin:round;stroke-miterlimit:10;}
	.st70{fill:#9E2C58;}
	.st71{fill:url(#SVGID_51_);}
	.st72{fill:none;stroke:url(#SVGID_52_);stroke-width:25.2889;stroke-linecap:round;stroke-linejoin:round;stroke-miterlimit:10;}
	.st73{fill:url(#SVGID_53_);}
	.st74{fill:url(#SVGID_54_);}
	.st75{fill:url(#SVGID_55_);}
	.st76{fill:url(#SVGID_56_);}
	.st77{fill:url(#SVGID_57_);}
	.st78{fill:url(#SVGID_58_);}
	.st79{fill:url(#SVGID_59_);}
	
		.st80{clip-path:url(#SVGID_61_);fill:none;stroke:url(#SVGID_62_);stroke-width:48.065;stroke-linecap:round;stroke-linejoin:round;stroke-miterlimit:10;}
	.st81{clip-path:url(#SVGID_61_);fill:#F3AA8A;}
	.st82{clip-path:url(#SVGID_61_);fill:#FFFFFF;}
	.st83{opacity:0;clip-path:url(#SVGID_61_);fill:#D8D9DA;}
	
		.st84{clip-path:url(#SVGID_61_);fill:none;stroke:url(#SVGID_63_);stroke-width:2.1459;stroke-linecap:round;stroke-linejoin:round;stroke-miterlimit:10;}
	.st85{clip-path:url(#SVGID_61_);}
	.st86{fill:none;stroke:#D8D9DA;stroke-width:2.1459;stroke-linecap:round;stroke-linejoin:round;stroke-miterlimit:10;}
	.st87{clip-path:url(#SVGID_61_);fill:none;stroke:#39A74A;stroke-width:2.1459;stroke-miterlimit:10;}
	.st88{clip-path:url(#SVGID_61_);fill:#E3F6FF;}
	
		.st89{clip-path:url(#SVGID_65_);fill:none;stroke:url(#SVGID_66_);stroke-width:27.1333;stroke-linecap:round;stroke-linejoin:round;stroke-miterlimit:10;}
	.st90{clip-path:url(#SVGID_65_);fill:#F3AA8A;}
	.st91{clip-path:url(#SVGID_65_);fill:url(#SVGID_67_);}
	.st92{clip-path:url(#SVGID_65_);fill:#1D3160;}
	.st93{clip-path:url(#SVGID_61_);fill:url(#SVGID_68_);}
	.st94{fill:url(#SVGID_69_);}
	.st95{fill:url(#SVGID_70_);}
	.st96{fill:url(#SVGID_71_);}
	.st97{fill:url(#SVGID_72_);}
	.st98{fill:url(#SVGID_73_);}
	.st99{fill:url(#SVGID_74_);}
	.st100{opacity:0;fill:url(#SVGID_75_);}
	.st101{fill:url(#SVGID_76_);}
	.st102{fill:#E3F6FF;}
	.st103{fill:none;stroke:#DC325A;stroke-width:3;stroke-linecap:round;stroke-linejoin:round;stroke-miterlimit:10;}
	.st104{fill:none;stroke:url(#SVGID_77_);stroke-width:12.5181;stroke-linecap:round;stroke-linejoin:round;stroke-miterlimit:10;}
	.st105{fill:url(#SVGID_78_);}
	.st106{fill:url(#SVGID_79_);}
	.st107{fill:none;stroke:url(#SVGID_80_);stroke-width:17.7;stroke-linecap:round;stroke-linejoin:round;stroke-miterlimit:10;}
	.st108{fill:url(#SVGID_81_);}
	.st109{fill:url(#SVGID_82_);}
	.st110{fill:url(#SVGID_83_);}
	.st111{fill:none;stroke:url(#SVGID_84_);stroke-width:12.5181;stroke-linecap:round;stroke-linejoin:round;stroke-miterlimit:10;}
	.st112{fill:url(#SVGID_85_);}
	.st113{fill:url(#SVGID_86_);}
	.st114{fill:url(#SVGID_87_);}
	.st115{fill:url(#SVGID_88_);}
	.st116{fill:url(#SVGID_89_);}
	.st117{fill:url(#SVGID_90_);}
	.st118{fill:url(#SVGID_91_);}
	.st119{fill:url(#SVGID_92_);}
	.st120{opacity:0;fill:url(#SVGID_93_);}
	.st121{fill:url(#SVGID_94_);}
	.st122{fill:none;stroke:url(#SVGID_95_);stroke-width:12.5181;stroke-linecap:round;stroke-linejoin:round;stroke-miterlimit:10;}
	.st123{fill:url(#SVGID_96_);}
	.st124{fill:url(#SVGID_97_);}
	.st125{fill:none;stroke:url(#SVGID_98_);stroke-width:17.7;stroke-linecap:round;stroke-linejoin:round;stroke-miterlimit:10;}
	.st126{fill:url(#SVGID_99_);}
	.st127{fill:url(#SVGID_100_);}
	.st128{fill:url(#SVGID_101_);}
	.st129{fill:none;stroke:url(#SVGID_102_);stroke-width:12.5181;stroke-linecap:round;stroke-linejoin:round;stroke-miterlimit:10;}
	.st130{fill:url(#SVGID_103_);}
	.st131{fill:url(#SVGID_104_);}
	.st132{fill:url(#SVGID_105_);}
	.st133{fill:url(#SVGID_106_);}
	.st134{fill:url(#SVGID_107_);}
	.st135{fill:url(#SVGID_108_);}
	.st136{fill:url(#SVGID_109_);}
	.st137{fill:url(#SVGID_110_);}
	
		.st138{clip-path:url(#SVGID_112_);fill:none;stroke:url(#SVGID_113_);stroke-width:48.065;stroke-linecap:round;stroke-linejoin:round;stroke-miterlimit:10;}
	.st139{clip-path:url(#SVGID_112_);fill:#F3AA8A;}
	.st140{clip-path:url(#SVGID_112_);fill:#FFFFFF;}
	.st141{opacity:0;clip-path:url(#SVGID_112_);fill:#D8D9DA;}
	
		.st142{clip-path:url(#SVGID_112_);fill:none;stroke:url(#SVGID_114_);stroke-width:2.1459;stroke-linecap:round;stroke-linejoin:round;stroke-miterlimit:10;}
	.st143{clip-path:url(#SVGID_112_);}
	.st144{clip-path:url(#SVGID_112_);fill:none;stroke:#39A74A;stroke-width:2.1459;stroke-miterlimit:10;}
	.st145{clip-path:url(#SVGID_112_);fill:#E3F6FF;}
	
		.st146{clip-path:url(#SVGID_116_);fill:none;stroke:url(#SVGID_117_);stroke-width:27.1333;stroke-linecap:round;stroke-linejoin:round;stroke-miterlimit:10;}
	.st147{clip-path:url(#SVGID_116_);fill:#F3AA8A;}
	.st148{clip-path:url(#SVGID_116_);fill:url(#SVGID_118_);}
	.st149{clip-path:url(#SVGID_116_);fill:#1D3160;}
	.st150{clip-path:url(#SVGID_112_);fill:url(#SVGID_119_);}
	.st151{fill:url(#SVGID_120_);}
	.st152{fill:url(#SVGID_121_);}
	.st153{fill:url(#SVGID_122_);}
	.st154{fill:url(#SVGID_123_);}
	.st155{fill:url(#SVGID_124_);}
	.st156{fill:url(#SVGID_125_);}
	.st157{clip-path:url(#SVGID_127_);}
	.st158{fill:none;stroke:url(#SVGID_128_);stroke-width:25.2889;stroke-linecap:round;stroke-linejoin:round;stroke-miterlimit:10;}
	.st159{fill:none;stroke:url(#SVGID_129_);stroke-width:25.2889;stroke-linecap:round;stroke-linejoin:round;stroke-miterlimit:10;}
	.st160{fill:none;stroke:url(#SVGID_130_);stroke-width:25.2889;stroke-linecap:round;stroke-linejoin:round;stroke-miterlimit:10;}
	.st161{fill:url(#SVGID_131_);}
	.st162{fill:none;stroke:url(#SVGID_132_);stroke-width:25.2889;stroke-linecap:round;stroke-linejoin:round;stroke-miterlimit:10;}
	.st163{fill:none;stroke:url(#SVGID_133_);stroke-width:25.2889;stroke-linecap:round;stroke-linejoin:round;stroke-miterlimit:10;}
	.st164{fill:url(#SVGID_134_);}
	.st165{fill:url(#SVGID_135_);}
	.st166{fill:none;stroke:url(#SVGID_136_);stroke-width:25.2889;stroke-linecap:round;stroke-linejoin:round;stroke-miterlimit:10;}
	.st167{fill:url(#SVGID_137_);}
	.st168{fill:none;stroke:url(#SVGID_138_);stroke-width:25.2889;stroke-linecap:round;stroke-linejoin:round;stroke-miterlimit:10;}
	.st169{fill:url(#SVGID_139_);}
	.st170{clip-path:url(#SVGID_141_);}
	.st171{fill:url(#SVGID_142_);}
	.st172{fill:url(#SVGID_143_);}
	.st173{fill:url(#SVGID_144_);}
	.st174{fill:url(#SVGID_145_);}
	.st175{fill:url(#SVGID_146_);}
	.st176{fill:url(#SVGID_147_);}
	.st177{opacity:0.7;clip-path:url(#SVGID_149_);}
	.st178{opacity:0;clip-path:url(#SVGID_149_);}
</style>
<g id="Слой_1">
	<g>
		<g>
			<linearGradient id="SVGID_2_" gradientUnits="userSpaceOnUse" x1="87.3019" y1="105.441" x2="171.843" y2="105.441">
				<stop  offset="0" style="stop-color:#E3F6FF"/>
				<stop  offset="5.666316e-003" style="stop-color:#E3F6FF"/>
				<stop  offset="0.3697" style="stop-color:#CBE9FB"/>
				<stop  offset="0.7099" style="stop-color:#BDE2F8"/>
				<stop  offset="1" style="stop-color:#B8DFF7"/>
			</linearGradient>
			<path style="fill:url(#SVGID_2_);" d="M171.8,105.4c0,10.1-8.2,18.3-18.3,18.3h-48c-10.1,0-18.3-8.2-18.3-18.3l0,0
				c0-10.1,8.2-18.3,18.3-18.3h48C163.7,87.2,171.8,95.3,171.8,105.4L171.8,105.4z"/>
			<linearGradient id="SVGID_4_" gradientUnits="userSpaceOnUse" x1="60.1168" y1="143.8449" x2="257.5277" y2="143.8449">
				<stop  offset="0.3202" style="stop-color:#E3F6FF"/>
				<stop  offset="0.8611" style="stop-color:#C1E4F9"/>
				<stop  offset="1" style="stop-color:#B8DFF7"/>
			</linearGradient>
			<path style="fill:url(#SVGID_4_);" d="M257.5,143.8c0,11.7-9.5,21.2-21.2,21.2H81.4c-11.7,0-21.2-9.5-21.2-21.2l0,0
				c0-11.7,9.5-21.2,21.2-21.2h154.9C248,122.6,257.5,132.1,257.5,143.8L257.5,143.8z"/>
			<linearGradient id="SVGID_6_" gradientUnits="userSpaceOnUse" x1="20.0567" y1="274.7362" x2="171.9838" y2="274.7362">
				<stop  offset="0" style="stop-color:#E3F6FF"/>
				<stop  offset="0.6356" style="stop-color:#C9E8FA"/>
				<stop  offset="1" style="stop-color:#B8DFF7"/>
			</linearGradient>
			<path style="fill:url(#SVGID_6_);" d="M172,274.7c0,11.7-9.5,21.2-21.2,21.2H41.3c-11.7,0-21.2-9.5-21.2-21.2l0,0
				c0-11.7,9.5-21.2,21.2-21.2h109.4C162.5,253.5,172,263,172,274.7L172,274.7z"/>
			<linearGradient id="SVGID_8_" gradientUnits="userSpaceOnUse" x1="2.4506" y1="214.962" x2="224.7592" y2="214.962">
				<stop  offset="0" style="stop-color:#E3F6FF"/>
				<stop  offset="5.666316e-003" style="stop-color:#E3F6FF"/>
				<stop  offset="0.3697" style="stop-color:#CBE9FB"/>
				<stop  offset="0.7099" style="stop-color:#BDE2F8"/>
				<stop  offset="1" style="stop-color:#B8DFF7"/>
			</linearGradient>
			<path style="fill:url(#SVGID_8_);" d="M224.8,215c0,11.7-9.5,21.2-21.2,21.2H23.7c-11.7,0-21.2-9.5-21.2-21.2l0,0
				c0-11.7,9.5-21.2,21.2-21.2h179.8C215.2,193.7,224.8,203.2,224.8,215L224.8,215z"/>
			<linearGradient id="SVGID_10_" gradientUnits="userSpaceOnUse" x1="25.7667" y1="179.7186" x2="280.2677" y2="179.7186">
				<stop  offset="0" style="stop-color:#E3F6FF"/>
				<stop  offset="0.4241" style="stop-color:#D4EEFC"/>
				<stop  offset="1" style="stop-color:#B8DFF7"/>
			</linearGradient>
			<path style="fill:url(#SVGID_10_);" d="M280.3,179.7c0,8.1-6.5,14.6-14.6,14.6H40.4c-8.1,0-14.6-6.5-14.6-14.6l0,0
				c0-8.1,6.5-14.6,14.6-14.6h225.2C273.7,165.1,280.3,171.6,280.3,179.7L280.3,179.7z"/>
			<linearGradient id="SVGID_11_" gradientUnits="userSpaceOnUse" x1="35.2192" y1="245.1642" x2="242.9058" y2="245.1642">
				<stop  offset="0" style="stop-color:#E3F6FF"/>
				<stop  offset="5.666316e-003" style="stop-color:#E3F6FF"/>
				<stop  offset="0.3697" style="stop-color:#CBE9FB"/>
				<stop  offset="0.7099" style="stop-color:#BDE2F8"/>
				<stop  offset="1" style="stop-color:#B8DFF7"/>
			</linearGradient>
			<path class="st5" d="M242.9,245.2c0,4.9-4,9-9,9H44.2c-4.9,0-9-4-9-9l0,0c0-4.9,4-9,9-9h189.8
				C238.9,236.2,242.9,240.2,242.9,245.2L242.9,245.2z"/>
		</g>
		<path class="st56" d="M27.5,193.4c0-56.7,45.9-102.6,102.6-102.6s102.6,45.9,102.6,102.6c0,38.5-21.2,72.1-52.6,89.6
			c-14.8,8.3-31.8,13-50,13c-15.7,0-30.5-3.5-43.8-9.8C51.6,269.8,27.5,234.4,27.5,193.4z"/>
		<g>
			<defs>
				<path id="SVGID_111_" d="M13.4,295.8c0,0-9.9-378.9,46.8-378.9S327.4-37.4,327.4,19.3c0,38.5,24.8,237.8-6.6,255.4
					C306,282.9,130.4,296,112.2,296C96.6,296,13.4,295.8,13.4,295.8z"/>
			</defs>
			<clipPath id="SVGID_12_">
				<use xlink:href="#SVGID_111_"  style="overflow:visible;"/>
			</clipPath>
			
				<linearGradient id="SVGID_13_" gradientUnits="userSpaceOnUse" x1="-127.6326" y1="292.8819" x2="-29.7125" y2="292.8819" gradientTransform="matrix(0.993 0.1177 -0.1177 0.993 168.7304 31.3205)">
				<stop  offset="0" style="stop-color:#1E317E"/>
				<stop  offset="0.1485" style="stop-color:#1E3D88"/>
				<stop  offset="0.419" style="stop-color:#1E5EA2"/>
				<stop  offset="0.7782" style="stop-color:#1E92CC"/>
				<stop  offset="1" style="stop-color:#1EB6E9"/>
			</linearGradient>
			
				<line style="clip-path:url(#SVGID_12_);fill:none;stroke:url(#SVGID_13_);stroke-width:48.065;stroke-linecap:round;stroke-linejoin:round;stroke-miterlimit:10;" x1="24" y1="371.9" x2="88.2" y2="254"/>
			<path style="clip-path:url(#SVGID_12_);fill:#F3AA8A;" d="M90.7,233.1l8.6-49.2c0,0,0.8-9.3,9.4-8.3s34.6,6.8,34.6,6.8
				s7.8,0.6,6.6,10.5s-2.5,21.5-2.5,21.5s-0.5,4.2-4.4,3.7c-4.4-0.5-3.8-4.9-3.8-4.9l1.4-13.7l-30.4,42.4"/>
			<path style="clip-path:url(#SVGID_12_);fill:#FFFFFF;" d="M109.7,265.4l-42.9-22.8l6.3-12.9c2.5-4.7,8.3-6.4,12.9-4l26,13.8
				c4.7,2.5,6.4,8.3,4,12.9L109.7,265.4z"/>
			<path style="opacity:0;clip-path:url(#SVGID_12_);fill:#D8D9DA;" d="M297.4,241.9c0.3,3-1.9,5.8-5,6.1l-164.3,16.4
				c-3,0.3-5.8-1.9-6.1-5L100.1,39.1c-0.3-3,1.9-5.8,5-6.1l164.3-16.4c3-0.3,5.8,1.9,6.1,5L297.4,241.9z"/>
			<path style="clip-path:url(#SVGID_12_);fill:#FFFFFF;" d="M303.5,227.8c0.4,3-1.7,5.8-4.7,6.3l-163.5,23.4
				c-3,0.4-5.8-1.7-6.3-4.7L97.6,33.7c-0.4-3,1.7-5.8,4.7-6.3L265.8,4c3-0.4,5.8,1.7,6.3,4.7L303.5,227.8z"/>
			<linearGradient id="SVGID_14_" gradientUnits="userSpaceOnUse" x1="239.8325" y1="30.0716" x2="239.8325" y2="0.1759">
				<stop  offset="0" style="stop-color:#B8DFF7"/>
				<stop  offset="1" style="stop-color:#1EB6E9"/>
			</linearGradient>
			
				<path style="clip-path:url(#SVGID_12_);fill:none;stroke:url(#SVGID_14_);stroke-width:2.1459;stroke-linecap:round;stroke-linejoin:round;stroke-miterlimit:10;" d="
				M234.3,8.5c0,0-1.9-6.5,3.5-7.2c4.9-0.6,5.2,6,5.2,6l2.8,18.6c0,0,0,2.7-2.2,3.1c-3.2,0.6-3.7-2.3-3.7-2.3L237.4,13"/>
			<g style="clip-path:url(#SVGID_12_);">
				<line class="st86" x1="193.7" y1="47" x2="233.5" y2="41.3"/>
				<line class="st86" x1="200.6" y1="88.7" x2="240.4" y2="83"/>
				<line class="st86" x1="195.9" y1="61.1" x2="248" y2="53.4"/>
				<line class="st86" x1="148.9" y1="219" x2="200.9" y2="211.3"/>
				<line class="st86" x1="210" y1="114.1" x2="262.1" y2="106.4"/>
				<line class="st86" x1="186" y1="119.3" x2="191.6" y2="118.5"/>
				<line class="st86" x1="130.6" y1="127.3" x2="178.1" y2="120.2"/>
				<line class="st86" x1="267.7" y1="126.2" x2="273.3" y2="125.4"/>
				<line class="st86" x1="212.3" y1="134.2" x2="259.8" y2="127.1"/>
				<line class="st86" x1="198" y1="74.5" x2="221.9" y2="71"/>
				<line class="st86" x1="234.3" y1="69.1" x2="258.2" y2="65.6"/>
				<line class="st86" x1="132.5" y1="145.4" x2="156.4" y2="141.9"/>
				<line class="st86" x1="168.7" y1="140" x2="192.6" y2="136.5"/>
			</g>
			<path style="clip-path:url(#SVGID_12_);fill:none;stroke:#39A74A;stroke-width:2.1459;stroke-miterlimit:10;" d="M269.4,185.9
				c0,3.8-3.1,6.9-6.9,6.9h-92.6c-3.8,0-6.9-3.1-6.9-6.9v-22.5c0-3.8,3.1-6.9,6.9-6.9h92.6c3.8,0,6.9,3.1,6.9,6.9V185.9z"/>
			<g style="clip-path:url(#SVGID_12_);">
				<path class="st25" d="M173.2,173.3c0-0.6,0.1-1.1,0.3-1.6s0.5-0.9,0.8-1.3c0.4-0.4,0.8-0.7,1.4-0.9c0.5-0.2,1.2-0.3,1.9-0.3
					c0.7,0,1.4,0.1,1.9,0.3c0.5,0.2,1,0.5,1.4,0.9c0.4,0.4,0.6,0.8,0.8,1.3c0.2,0.5,0.3,1,0.3,1.6c0,0.2,0,0.4,0,0.6
					c0,0.2,0,0.5,0,0.7c0,0.2,0,0.5,0,0.7c0,0.2,0,0.4,0,0.6c0,0.6-0.1,1.1-0.3,1.6c-0.2,0.5-0.5,0.9-0.8,1.3
					c-0.4,0.4-0.8,0.7-1.4,0.9c-0.5,0.2-1.2,0.3-1.9,0.3c-0.7,0-1.4-0.1-1.9-0.3c-0.5-0.2-1-0.5-1.4-0.9c-0.4-0.4-0.6-0.8-0.8-1.3
					s-0.3-1-0.3-1.6c0-0.2,0-0.4,0-0.6c0-0.2,0-0.5,0-0.7c0-0.2,0-0.5,0-0.7C173.2,173.7,173.2,173.5,173.2,173.3z M180,173.4
					c0-0.7-0.3-1.3-0.7-1.7c-0.4-0.4-1-0.6-1.7-0.6c-0.7,0-1.3,0.2-1.7,0.6s-0.7,1-0.7,1.7c0,0.4,0,0.8,0,1.3s0,0.9,0,1.3
					c0,0.7,0.3,1.3,0.7,1.7s1,0.6,1.7,0.6c0.7,0,1.3-0.2,1.7-0.6c0.4-0.4,0.7-0.9,0.7-1.7c0-0.4,0-0.8,0-1.3S180.1,173.8,180,173.4z
					"/>
				<path class="st25" d="M192.8,169.4c0.1,0,0.2,0,0.3,0.1c0.1,0.1,0.1,0.2,0.1,0.3v8.2h0.5c0.1,0,0.2,0,0.3,0.1
					c0.1,0.1,0.1,0.2,0.1,0.3v2.7c0,0.1,0,0.2-0.1,0.3c-0.1,0.1-0.2,0.1-0.3,0.1h-1.2c-0.1,0-0.2,0-0.3-0.1
					c-0.1-0.1-0.1-0.2-0.1-0.3v-1.2H186v1.2c0,0.1,0,0.2-0.1,0.3s-0.2,0.1-0.3,0.1h-1.2c-0.1,0-0.2,0-0.3-0.1s-0.1-0.2-0.1-0.3v-2.7
					c0-0.1,0-0.2,0.1-0.3c0.1-0.1,0.2-0.1,0.3-0.1h0.2c0.4,0,0.7-0.1,0.8-0.4c0.2-0.3,0.3-0.7,0.3-1.3v-6.5c0-0.1,0-0.2,0.1-0.3
					c0.1-0.1,0.2-0.1,0.3-0.1H192.8z M191.2,178v-6.8h-3.6v5.1c0,0.1,0,0.2,0,0.4c0,0.2,0,0.3,0,0.5c0,0.2-0.1,0.3-0.1,0.4
					c0,0.1-0.1,0.3-0.2,0.3H191.2z"/>
				<path class="st25" d="M196.4,173.3c0-0.6,0.1-1.1,0.3-1.6s0.5-0.9,0.8-1.3c0.4-0.4,0.8-0.7,1.4-0.9c0.5-0.2,1.2-0.3,1.9-0.3
					c0.7,0,1.4,0.1,1.9,0.3c0.5,0.2,1,0.5,1.4,0.9c0.4,0.4,0.6,0.8,0.8,1.3c0.2,0.5,0.3,1,0.3,1.6c0,0.2,0,0.4,0,0.6
					c0,0.2,0,0.5,0,0.7c0,0.2,0,0.5,0,0.7c0,0.2,0,0.4,0,0.6c0,0.6-0.1,1.1-0.3,1.6c-0.2,0.5-0.5,0.9-0.8,1.3
					c-0.4,0.4-0.8,0.7-1.4,0.9c-0.5,0.2-1.2,0.3-1.9,0.3c-0.7,0-1.4-0.1-1.9-0.3c-0.5-0.2-1-0.5-1.4-0.9c-0.4-0.4-0.6-0.8-0.8-1.3
					s-0.3-1-0.3-1.6c0-0.2,0-0.4,0-0.6c0-0.2,0-0.5,0-0.7c0-0.2,0-0.5,0-0.7C196.4,173.7,196.4,173.5,196.4,173.3z M203.2,173.4
					c0-0.7-0.3-1.3-0.7-1.7c-0.4-0.4-1-0.6-1.7-0.6c-0.7,0-1.3,0.2-1.7,0.6s-0.7,1-0.7,1.7c0,0.4,0,0.8,0,1.3s0,0.9,0,1.3
					c0,0.7,0.3,1.3,0.7,1.7s1,0.6,1.7,0.6c0.7,0,1.3-0.2,1.7-0.6c0.4-0.4,0.7-0.9,0.7-1.7c0-0.4,0-0.8,0-1.3
					S203.2,173.8,203.2,173.4z"/>
				<path class="st25" d="M208.5,179.9c-0.1,0-0.2,0-0.3-0.1c-0.1-0.1-0.1-0.2-0.1-0.3v-9.7c0-0.1,0-0.2,0.1-0.3
					c0.1-0.1,0.2-0.1,0.3-0.1h6.6c0.1,0,0.2,0,0.3,0.1c0.1,0.1,0.1,0.2,0.1,0.3v1.1c0,0.1,0,0.2-0.1,0.3c-0.1,0.1-0.2,0.1-0.3,0.1
					h-4.9v2.3h2.8c0.5,0,0.9,0.1,1.3,0.2c0.4,0.2,0.7,0.4,1,0.6c0.3,0.3,0.5,0.6,0.6,1c0.2,0.4,0.2,0.8,0.2,1.3
					c0,0.4-0.1,0.9-0.2,1.2c-0.1,0.4-0.3,0.7-0.6,1c-0.3,0.3-0.6,0.5-1,0.7s-0.8,0.2-1.4,0.2H208.5z M210.2,178h2.5
					c0.5,0,0.9-0.1,1.1-0.4c0.2-0.3,0.4-0.6,0.4-0.9c0-0.4-0.1-0.7-0.4-0.9c-0.2-0.3-0.6-0.4-1.1-0.4h-2.5V178z"/>
				<path class="st25" d="M223.2,169.4c1.2,0,2.2,0.3,2.8,0.9c0.7,0.6,1,1.4,1,2.5s-0.3,1.9-1,2.5c-0.7,0.6-1.6,0.9-2.8,0.9h-2.4
					v3.3c0,0.1,0,0.2-0.1,0.3c-0.1,0.1-0.2,0.1-0.3,0.1h-1.2c-0.1,0-0.2,0-0.3-0.1c-0.1-0.1-0.1-0.2-0.1-0.3v-9.7
					c0-0.1,0-0.2,0.1-0.3c0.1-0.1,0.2-0.1,0.3-0.1H223.2z M220.8,174.3h2.3c0.6,0,1-0.1,1.4-0.3c0.3-0.2,0.5-0.6,0.5-1.2
					c0-0.6-0.2-0.9-0.5-1.2c-0.3-0.2-0.8-0.3-1.4-0.3h-2.3V174.3z"/>
				<path class="st25" d="M236.6,178c0.1,0,0.2,0,0.3,0.1c0.1,0.1,0.1,0.2,0.1,0.3v1.1c0,0.1,0,0.2-0.1,0.3
					c-0.1,0.1-0.2,0.1-0.3,0.1H230c-0.1,0-0.2,0-0.3-0.1c-0.1-0.1-0.1-0.2-0.1-0.3v-9.7c0-0.1,0-0.2,0.1-0.3
					c0.1-0.1,0.2-0.1,0.3-0.1h6.5c0.1,0,0.2,0,0.3,0.1c0.1,0.1,0.1,0.2,0.1,0.3v1.1c0,0.1,0,0.2-0.1,0.3c-0.1,0.1-0.2,0.1-0.3,0.1
					h-4.9v2.4h4.5c0.1,0,0.2,0,0.3,0.1c0.1,0.1,0.1,0.2,0.1,0.3v1.1c0,0.1,0,0.2-0.1,0.3c-0.1,0.1-0.2,0.1-0.3,0.1h-4.5v2.5H236.6z"
					/>
				<path class="st25" d="M247.9,169.4c0.1,0,0.2,0,0.3,0.1c0.1,0.1,0.1,0.2,0.1,0.3v9.7c0,0.1,0,0.2-0.1,0.3
					c-0.1,0.1-0.2,0.1-0.3,0.1h-1.2c-0.1,0-0.2,0-0.3-0.1c-0.1-0.1-0.1-0.2-0.1-0.3v-4h-4.5v4c0,0.1,0,0.2-0.1,0.3
					c-0.1,0.1-0.2,0.1-0.3,0.1h-1.2c-0.1,0-0.2,0-0.3-0.1c-0.1-0.1-0.1-0.2-0.1-0.3v-9.7c0-0.1,0-0.2,0.1-0.3
					c0.1-0.1,0.2-0.1,0.3-0.1h1.2c0.1,0,0.2,0,0.3,0.1c0.1,0.1,0.1,0.2,0.1,0.3v3.9h4.5v-3.9c0-0.1,0-0.2,0.1-0.3
					c0.1-0.1,0.2-0.1,0.3-0.1H247.9z"/>
				<path class="st25" d="M251.2,173.3c0-0.6,0.1-1.1,0.3-1.6s0.5-0.9,0.8-1.3c0.4-0.4,0.8-0.7,1.4-0.9c0.5-0.2,1.2-0.3,1.9-0.3
					c0.7,0,1.4,0.1,1.9,0.3c0.5,0.2,1,0.5,1.4,0.9c0.4,0.4,0.6,0.8,0.8,1.3c0.2,0.5,0.3,1,0.3,1.6c0,0.2,0,0.4,0,0.6
					c0,0.2,0,0.5,0,0.7c0,0.2,0,0.5,0,0.7c0,0.2,0,0.4,0,0.6c0,0.6-0.1,1.1-0.3,1.6c-0.2,0.5-0.5,0.9-0.8,1.3
					c-0.4,0.4-0.8,0.7-1.4,0.9c-0.5,0.2-1.2,0.3-1.9,0.3c-0.7,0-1.4-0.1-1.9-0.3c-0.5-0.2-1-0.5-1.4-0.9c-0.4-0.4-0.6-0.8-0.8-1.3
					s-0.3-1-0.3-1.6c0-0.2,0-0.4,0-0.6c0-0.2,0-0.5,0-0.7c0-0.2,0-0.5,0-0.7C251.2,173.7,251.2,173.5,251.2,173.3z M258,173.4
					c0-0.7-0.3-1.3-0.7-1.7c-0.4-0.4-1-0.6-1.7-0.6c-0.7,0-1.3,0.2-1.7,0.6s-0.7,1-0.7,1.7c0,0.4,0,0.8,0,1.3s0,0.9,0,1.3
					c0,0.7,0.3,1.3,0.7,1.7s1,0.6,1.7,0.6c0.7,0,1.3-0.2,1.7-0.6c0.4-0.4,0.7-0.9,0.7-1.7c0-0.4,0-0.8,0-1.3S258.1,173.8,258,173.4z
					"/>
			</g>
			<circle style="clip-path:url(#SVGID_12_);fill:#E3F6FF;" cx="152.2" cy="69.4" r="33.6"/>
			<g style="clip-path:url(#SVGID_12_);">
				<defs>
					<circle id="SVGID_115_" cx="152.2" cy="69.4" r="33.6"/>
				</defs>
				<clipPath id="SVGID_15_">
					<use xlink:href="#SVGID_115_"  style="overflow:visible;"/>
				</clipPath>
				<linearGradient id="SVGID_16_" gradientUnits="userSpaceOnUse" x1="120.8307" y1="99.2247" x2="193.1055" y2="99.2247">
					<stop  offset="0" style="stop-color:#583173"/>
					<stop  offset="0.6392" style="stop-color:#AE3262"/>
					<stop  offset="1" style="stop-color:#DA325A"/>
				</linearGradient>
				
					<path style="clip-path:url(#SVGID_15_);fill:none;stroke:url(#SVGID_16_);stroke-width:27.1333;stroke-linecap:round;stroke-linejoin:round;stroke-miterlimit:10;" d="
					M179.5,106c0,0-4.3-14-5.1-16.5s-3.5-2.4-3.5-2.4L157.8,86l-8.1,1.2l-12.2,4.8c0,0-2.6,0.7-2.7,3.3c-0.1,2.6-0.3,17.2-0.3,17.2
					L179.5,106z"/>
				<path style="clip-path:url(#SVGID_15_);fill:#F3AA8A;" d="M165.6,65.6c0.3,2-1.1,3.8-3.1,4.1l-20.2,2.9c-2,0.3-3.8-1.1-4.1-3.1
					l0,0c-0.3-2,1.1-3.8,3.1-4.1l20.2-2.9C163.5,62.3,165.4,63.7,165.6,65.6L165.6,65.6z"/>
				<path style="clip-path:url(#SVGID_15_);fill:#F3AA8A;" d="M161.3,80.4c0.3,2.2-2.7,4.5-6.8,5.1l0,0c-4.1,0.6-7.6-0.8-8-3
					l-1.2-8.7c-0.3-2.2,2.7-4.5,6.8-5.1l0,0c4.1-0.6,7.6,0.8,8,3L161.3,80.4z"/>
				<linearGradient id="SVGID_18_" gradientUnits="userSpaceOnUse" x1="151.1259" y1="78.5197" x2="151.1259" y2="52.2518">
					<stop  offset="0" style="stop-color:#FACAB3"/>
					<stop  offset="0.7365" style="stop-color:#F5B396"/>
					<stop  offset="1" style="stop-color:#F3AA8A"/>
				</linearGradient>
				<path style="clip-path:url(#SVGID_15_);fill:url(#SVGID_18_);" d="M162.3,66.7c0.8,5.6-3.1,10.9-8.8,11.7l0,0
					c-5.6,0.8-10.9-3.1-11.7-8.8l-2.1-14.5l20.4-2.9L162.3,66.7z"/>
				<path style="clip-path:url(#SVGID_15_);fill:#1D3160;" d="M142.2,55.9l1.2,8.2c0,0,0.3,1.9-2.7,1s-4.9-9.3-1.1-12
					c0,0-2.2-7.5,9.1-9.2c11.3-1.6,12.2-1.7,12.2-1.7s1.3-0.3,1.4,0.9s3.8,10-10.9,12.1C146.8,55.9,142.2,55.9,142.2,55.9z"/>
				<path style="clip-path:url(#SVGID_15_);fill:#1D3160;" d="M158.9,52.9l1.2,8.4c0,0,0.4,1.9,2.4,0.6c2-1.3,1.3-7.7-1.1-11.2"/>
			</g>
			
				<linearGradient id="SVGID_20_" gradientUnits="userSpaceOnUse" x1="-43.5089" y1="171.9827" x2="-8.786830e-002" y2="171.9827" gradientTransform="matrix(0.993 0.1177 -0.1177 0.993 168.7304 31.3205)">
				<stop  offset="0" style="stop-color:#F3AA8A"/>
				<stop  offset="0.1084" style="stop-color:#F5B193"/>
				<stop  offset="0.3778" style="stop-color:#F8BFA5"/>
				<stop  offset="0.6654" style="stop-color:#F9C7B0"/>
				<stop  offset="1" style="stop-color:#FACAB3"/>
			</linearGradient>
			<path style="clip-path:url(#SVGID_12_);fill:url(#SVGID_20_);" d="M107.8,207.4l36.1-36.5c0,0,2.9-3.2,5.7-1.7
				c4,2.1,1.2,6.9,1.2,6.9L130,222.3c0,0-6.8,17-21.8,5.3C96.3,218.4,107.8,207.4,107.8,207.4z"/>
		</g>
	</g>
	<g>
		<g>
			<defs>
				<path id="SVGID_126_" d="M301.3,164c0-83,92-187.6,214.6-187.6c143.4,0,206.2,68.2,206.2,198.6c0,122.4-125,127-156.2,104.5
					c-14.8,8.3-31.8,13-50,13c-15.7,0-30.5-3.5-43.8-9.8C406.9,303.9,301.3,205,301.3,164z"/>
			</defs>
			<clipPath id="SVGID_22_">
				<use xlink:href="#SVGID_126_"  style="overflow:visible;"/>
			</clipPath>
		</g>
	</g>
</g>
<g id="Слой_2">
</g>
<g id="Слой_3">
</g>
<g id="Слой_4">
</g>
<g id="Слой_5">
</g>
</svg>
