<?xml version="1.0" encoding="utf-8"?>
<!-- Generator: Adobe Illustrator 17.1.0, SVG Export Plug-In . SVG Version: 6.00 Build 0)  -->
<!DOCTYPE svg PUBLIC "-//W3C//DTD SVG 1.1//EN" "http://www.w3.org/Graphics/SVG/1.1/DTD/svg11.dtd">
<svg version="1.1" xmlns="http://www.w3.org/2000/svg" xmlns:xlink="http://www.w3.org/1999/xlink" x="0px" y="0px"
	 viewBox="0 0 324.2 295.9" style="enable-background:new 0 0 324.2 295.9;" xml:space="preserve">
<style type="text/css">
	.st0{clip-path:url(#SVGID_2_);fill:#FFFFFF;}
	.st1{clip-path:url(#SVGID_4_);fill:#FFFFFF;}
	.st2{clip-path:url(#SVGID_6_);fill:#FFFFFF;}
	.st3{clip-path:url(#SVGID_8_);fill:#FFFFFF;}
	.st4{clip-path:url(#SVGID_10_);}
	.st5{fill:url(#SVGID_11_);}
	.st6{fill:url(#SVGID_12_);}
	.st7{fill:url(#SVGID_13_);}
	.st8{fill:url(#SVGID_14_);}
	.st9{fill:url(#SVGID_15_);}
	.st10{fill:url(#SVGID_16_);}
	.st11{fill:#FFFFFF;}
	.st12{fill:#BAE1F9;}
	.st13{fill:none;stroke:#BAE1F9;stroke-miterlimit:10;}
	.st14{opacity:0.7;clip-path:url(#SVGID_18_);}
	.st15{fill:#1D3160;}
	.st16{opacity:0;clip-path:url(#SVGID_18_);}
	.st17{fill:#DC325A;}
	.st18{clip-path:url(#SVGID_20_);}
	.st19{opacity:0.65;}
	.st20{fill:#999B9E;}
	.st21{opacity:0.65;fill:#999B9E;}
	.st22{fill:none;stroke:#FFFFFF;stroke-miterlimit:10;}
	.st23{clip-path:url(#SVGID_24_);}
	.st24{fill:#16A2E5;}
	.st25{fill:#39A74A;}
	.st26{clip-path:url(#SVGID_24_);fill:#FFFFFF;}
	.st27{fill:#E3E4E4;}
	.st28{clip-path:url(#SVGID_26_);}
	.st29{clip-path:url(#SVGID_26_);fill:#16A2E5;}
	.st30{clip-path:url(#SVGID_26_);fill:#FFFFFF;}
	.st31{clip-path:url(#SVGID_28_);}
	.st32{fill:none;stroke:#E3E4E4;stroke-width:0.7;stroke-miterlimit:10;}
	.st33{fill:#AEB0B2;}
	.st34{fill:none;stroke:#D8D9DA;stroke-miterlimit:10;}
	.st35{fill:#F6F7F7;}
	.st36{fill:#A02C58;}
	.st37{fill:none;stroke:#16A2E5;stroke-width:2;stroke-miterlimit:10;}
	.st38{clip-path:url(#SVGID_30_);}
	.st39{fill:#F6F7F7;stroke:#F6F7F7;stroke-width:2;stroke-miterlimit:10;}
	.st40{fill:#F6F7F7;stroke:#F1F2F2;stroke-width:2;stroke-miterlimit:10;}
	.st41{fill:#85878A;}
	.st42{fill:url(#SVGID_31_);}
	.st43{opacity:0.5;fill:#FFFFFF;}
	.st44{opacity:0.7;}
	.st45{clip-path:url(#SVGID_33_);}
	.st46{opacity:0.1;clip-path:url(#SVGID_33_);fill:#0D1938;}
	.st47{opacity:0.3;}
	.st48{fill:none;stroke:#231F20;stroke-width:2;stroke-linecap:round;stroke-linejoin:round;stroke-miterlimit:10;}
	.st49{fill:#D8D9DA;}
	.st50{fill:url(#SVGID_34_);}
	.st51{fill:url(#SVGID_35_);}
	.st52{fill:url(#SVGID_36_);}
	.st53{fill:url(#SVGID_37_);}
	.st54{fill:url(#SVGID_38_);}
	.st55{fill:url(#SVGID_39_);}
	.st56{opacity:0;fill:#E3F6FF;}
	.st57{clip-path:url(#SVGID_41_);}
	.st58{fill:none;stroke:url(#SVGID_42_);stroke-width:25.2889;stroke-linecap:round;stroke-linejoin:round;stroke-miterlimit:10;}
	.st59{fill:none;stroke:url(#SVGID_43_);stroke-width:25.2889;stroke-linecap:round;stroke-linejoin:round;stroke-miterlimit:10;}
	.st60{fill:none;stroke:url(#SVGID_44_);stroke-width:25.2889;stroke-linecap:round;stroke-linejoin:round;stroke-miterlimit:10;}
	.st61{fill:#F3AA8A;}
	.st62{opacity:0;}
	.st63{fill:none;stroke:#FFFFFF;stroke-width:1.2644;stroke-linecap:round;stroke-linejoin:round;stroke-miterlimit:10;}
	.st64{fill:url(#SVGID_45_);}
	.st65{fill:none;stroke:url(#SVGID_46_);stroke-width:25.2889;stroke-linecap:round;stroke-linejoin:round;stroke-miterlimit:10;}
	.st66{fill:none;stroke:url(#SVGID_47_);stroke-width:25.2889;stroke-linecap:round;stroke-linejoin:round;stroke-miterlimit:10;}
	.st67{fill:url(#SVGID_48_);}
	.st68{fill:url(#SVGID_49_);}
	.st69{fill:none;stroke:url(#SVGID_50_);stroke-width:25.2889;stroke-linecap:round;stroke-linejoin:round;stroke-miterlimit:10;}
	.st70{fill:#9E2C58;}
	.st71{fill:url(#SVGID_51_);}
	.st72{fill:none;stroke:url(#SVGID_52_);stroke-width:25.2889;stroke-linecap:round;stroke-linejoin:round;stroke-miterlimit:10;}
	.st73{fill:url(#SVGID_53_);}
	.st74{fill:url(#SVGID_54_);}
	.st75{fill:url(#SVGID_55_);}
	.st76{fill:url(#SVGID_56_);}
	.st77{fill:url(#SVGID_57_);}
	.st78{fill:url(#SVGID_58_);}
	.st79{fill:url(#SVGID_59_);}
	
		.st80{clip-path:url(#SVGID_61_);fill:none;stroke:url(#SVGID_62_);stroke-width:48.065;stroke-linecap:round;stroke-linejoin:round;stroke-miterlimit:10;}
	.st81{clip-path:url(#SVGID_61_);fill:#F3AA8A;}
	.st82{clip-path:url(#SVGID_61_);fill:#FFFFFF;}
	.st83{opacity:0;clip-path:url(#SVGID_61_);fill:#D8D9DA;}
	
		.st84{clip-path:url(#SVGID_61_);fill:none;stroke:url(#SVGID_63_);stroke-width:2.1459;stroke-linecap:round;stroke-linejoin:round;stroke-miterlimit:10;}
	.st85{clip-path:url(#SVGID_61_);}
	.st86{fill:none;stroke:#D8D9DA;stroke-width:2.1459;stroke-linecap:round;stroke-linejoin:round;stroke-miterlimit:10;}
	.st87{clip-path:url(#SVGID_61_);fill:none;stroke:#39A74A;stroke-width:2.1459;stroke-miterlimit:10;}
	.st88{clip-path:url(#SVGID_61_);fill:#E3F6FF;}
	
		.st89{clip-path:url(#SVGID_65_);fill:none;stroke:url(#SVGID_66_);stroke-width:27.1333;stroke-linecap:round;stroke-linejoin:round;stroke-miterlimit:10;}
	.st90{clip-path:url(#SVGID_65_);fill:#F3AA8A;}
	.st91{clip-path:url(#SVGID_65_);fill:url(#SVGID_67_);}
	.st92{clip-path:url(#SVGID_65_);fill:#1D3160;}
	.st93{clip-path:url(#SVGID_61_);fill:url(#SVGID_68_);}
	.st94{fill:url(#SVGID_69_);}
	.st95{fill:url(#SVGID_70_);}
	.st96{fill:url(#SVGID_71_);}
	.st97{fill:url(#SVGID_72_);}
	.st98{fill:url(#SVGID_73_);}
	.st99{fill:url(#SVGID_74_);}
	.st100{opacity:0;fill:url(#SVGID_75_);}
	.st101{fill:url(#SVGID_76_);}
	.st102{fill:#E3F6FF;}
	.st103{fill:none;stroke:#DC325A;stroke-width:3;stroke-linecap:round;stroke-linejoin:round;stroke-miterlimit:10;}
	.st104{fill:none;stroke:url(#SVGID_77_);stroke-width:12.5181;stroke-linecap:round;stroke-linejoin:round;stroke-miterlimit:10;}
	.st105{fill:url(#SVGID_78_);}
	.st106{fill:url(#SVGID_79_);}
	.st107{fill:none;stroke:url(#SVGID_80_);stroke-width:17.7;stroke-linecap:round;stroke-linejoin:round;stroke-miterlimit:10;}
	.st108{fill:url(#SVGID_81_);}
	.st109{fill:url(#SVGID_82_);}
	.st110{fill:url(#SVGID_83_);}
	.st111{fill:none;stroke:url(#SVGID_84_);stroke-width:12.5181;stroke-linecap:round;stroke-linejoin:round;stroke-miterlimit:10;}
	.st112{fill:url(#SVGID_85_);}
	.st113{fill:url(#SVGID_86_);}
	.st114{fill:url(#SVGID_87_);}
	.st115{fill:url(#SVGID_88_);}
	.st116{fill:url(#SVGID_89_);}
	.st117{fill:url(#SVGID_90_);}
	.st118{fill:url(#SVGID_91_);}
	.st119{fill:url(#SVGID_92_);}
	.st120{opacity:0;fill:url(#SVGID_93_);}
	.st121{fill:url(#SVGID_94_);}
	.st122{fill:none;stroke:url(#SVGID_95_);stroke-width:12.5181;stroke-linecap:round;stroke-linejoin:round;stroke-miterlimit:10;}
	.st123{fill:url(#SVGID_96_);}
	.st124{fill:url(#SVGID_97_);}
	.st125{fill:none;stroke:url(#SVGID_98_);stroke-width:17.7;stroke-linecap:round;stroke-linejoin:round;stroke-miterlimit:10;}
	.st126{fill:url(#SVGID_99_);}
	.st127{fill:url(#SVGID_100_);}
	.st128{fill:url(#SVGID_101_);}
	.st129{fill:none;stroke:url(#SVGID_102_);stroke-width:12.5181;stroke-linecap:round;stroke-linejoin:round;stroke-miterlimit:10;}
	.st130{fill:url(#SVGID_103_);}
	.st131{fill:url(#SVGID_104_);}
	.st132{fill:url(#SVGID_105_);}
	.st133{fill:url(#SVGID_106_);}
	.st134{fill:url(#SVGID_107_);}
	.st135{fill:url(#SVGID_108_);}
	.st136{fill:url(#SVGID_109_);}
	.st137{fill:url(#SVGID_110_);}
	
		.st138{clip-path:url(#SVGID_112_);fill:none;stroke:url(#SVGID_113_);stroke-width:48.065;stroke-linecap:round;stroke-linejoin:round;stroke-miterlimit:10;}
	.st139{clip-path:url(#SVGID_112_);fill:#F3AA8A;}
	.st140{clip-path:url(#SVGID_112_);fill:#FFFFFF;}
	.st141{opacity:0;clip-path:url(#SVGID_112_);fill:#D8D9DA;}
	
		.st142{clip-path:url(#SVGID_112_);fill:none;stroke:url(#SVGID_114_);stroke-width:2.1459;stroke-linecap:round;stroke-linejoin:round;stroke-miterlimit:10;}
	.st143{clip-path:url(#SVGID_112_);}
	.st144{clip-path:url(#SVGID_112_);fill:none;stroke:#39A74A;stroke-width:2.1459;stroke-miterlimit:10;}
	.st145{clip-path:url(#SVGID_112_);fill:#E3F6FF;}
	
		.st146{clip-path:url(#SVGID_116_);fill:none;stroke:url(#SVGID_117_);stroke-width:27.1333;stroke-linecap:round;stroke-linejoin:round;stroke-miterlimit:10;}
	.st147{clip-path:url(#SVGID_116_);fill:#F3AA8A;}
	.st148{clip-path:url(#SVGID_116_);fill:url(#SVGID_118_);}
	.st149{clip-path:url(#SVGID_116_);fill:#1D3160;}
	.st150{clip-path:url(#SVGID_112_);fill:url(#SVGID_119_);}
	.st151{fill:url(#SVGID_120_);}
	.st152{fill:url(#SVGID_121_);}
	.st153{fill:url(#SVGID_122_);}
	.st154{fill:url(#SVGID_123_);}
	.st155{fill:url(#SVGID_124_);}
	.st156{fill:url(#SVGID_125_);}
	.st157{clip-path:url(#SVGID_127_);}
	.st158{fill:none;stroke:url(#SVGID_128_);stroke-width:25.2889;stroke-linecap:round;stroke-linejoin:round;stroke-miterlimit:10;}
	.st159{fill:none;stroke:url(#SVGID_129_);stroke-width:25.2889;stroke-linecap:round;stroke-linejoin:round;stroke-miterlimit:10;}
	.st160{fill:none;stroke:url(#SVGID_130_);stroke-width:25.2889;stroke-linecap:round;stroke-linejoin:round;stroke-miterlimit:10;}
	.st161{fill:url(#SVGID_131_);}
	.st162{fill:none;stroke:url(#SVGID_132_);stroke-width:25.2889;stroke-linecap:round;stroke-linejoin:round;stroke-miterlimit:10;}
	.st163{fill:none;stroke:url(#SVGID_133_);stroke-width:25.2889;stroke-linecap:round;stroke-linejoin:round;stroke-miterlimit:10;}
	.st164{fill:url(#SVGID_134_);}
	.st165{fill:url(#SVGID_135_);}
	.st166{fill:none;stroke:url(#SVGID_136_);stroke-width:25.2889;stroke-linecap:round;stroke-linejoin:round;stroke-miterlimit:10;}
	.st167{fill:url(#SVGID_137_);}
	.st168{fill:none;stroke:url(#SVGID_138_);stroke-width:25.2889;stroke-linecap:round;stroke-linejoin:round;stroke-miterlimit:10;}
	.st169{fill:url(#SVGID_139_);}
	.st170{clip-path:url(#SVGID_141_);}
	.st171{fill:url(#SVGID_142_);}
	.st172{fill:url(#SVGID_143_);}
	.st173{fill:url(#SVGID_144_);}
	.st174{fill:url(#SVGID_145_);}
	.st175{fill:url(#SVGID_146_);}
	.st176{fill:url(#SVGID_147_);}
	.st177{opacity:0.7;clip-path:url(#SVGID_149_);}
	.st178{opacity:0;clip-path:url(#SVGID_149_);}
</style>
<g id="Слой_1">
	<g>
		<g>
			
				<linearGradient id="SVGID_2_" gradientUnits="userSpaceOnUse" x1="933.2044" y1="2316.467" x2="1145.8625" y2="2316.467" gradientTransform="matrix(-1 0 0 -1 1190.1282 2594.0508)">
				<stop  offset="0" style="stop-color:#E3F6FF"/>
				<stop  offset="5.666316e-003" style="stop-color:#E3F6FF"/>
				<stop  offset="0.3697" style="stop-color:#CBE9FB"/>
				<stop  offset="0.7099" style="stop-color:#BDE2F8"/>
				<stop  offset="1" style="stop-color:#B8DFF7"/>
			</linearGradient>
			<path style="fill:url(#SVGID_2_);" d="M44.3,277.6c0-10.1,8.2-18.3,18.3-18.3h176.1c10.1,0,18.3,8.2,18.3,18.3l0,0
				c0,10.1-8.2,18.3-18.3,18.3H62.5C52.4,295.9,44.3,287.7,44.3,277.6L44.3,277.6z"/>
			
				<linearGradient id="SVGID_4_" gradientUnits="userSpaceOnUse" x1="906.0192" y1="2354.8708" x2="1103.4302" y2="2354.8708" gradientTransform="matrix(-1 0 0 -1 1190.1282 2594.0508)">
				<stop  offset="0.3202" style="stop-color:#E3F6FF"/>
				<stop  offset="0.8611" style="stop-color:#C1E4F9"/>
				<stop  offset="1" style="stop-color:#B8DFF7"/>
			</linearGradient>
			<path style="fill:url(#SVGID_4_);" d="M86.7,239.2c0-11.7,9.5-21.2,21.2-21.2h154.9c11.7,0,21.2,9.5,21.2,21.2l0,0
				c0,11.7-9.5,21.2-21.2,21.2H107.9C96.2,260.4,86.7,250.9,86.7,239.2L86.7,239.2z"/>
			
				<linearGradient id="SVGID_6_" gradientUnits="userSpaceOnUse" x1="865.9592" y1="2485.7622" x2="1017.8862" y2="2485.7622" gradientTransform="matrix(-1 0 0 -1 1190.1282 2594.0508)">
				<stop  offset="0" style="stop-color:#E3F6FF"/>
				<stop  offset="0.6356" style="stop-color:#C9E8FA"/>
				<stop  offset="1" style="stop-color:#B8DFF7"/>
			</linearGradient>
			<path style="fill:url(#SVGID_6_);" d="M172.2,108.3c0-11.7,9.5-21.2,21.2-21.2h109.4c11.7,0,21.2,9.5,21.2,21.2l0,0
				c0,11.7-9.5,21.2-21.2,21.2H193.5C181.8,129.5,172.2,120,172.2,108.3L172.2,108.3z"/>
			
				<linearGradient id="SVGID_8_" gradientUnits="userSpaceOnUse" x1="913.9594" y1="2425.988" x2="1070.6616" y2="2425.988" gradientTransform="matrix(-1 0 0 -1 1190.1282 2594.0508)">
				<stop  offset="0" style="stop-color:#E3F6FF"/>
				<stop  offset="5.666316e-003" style="stop-color:#E3F6FF"/>
				<stop  offset="0.3697" style="stop-color:#CBE9FB"/>
				<stop  offset="0.7099" style="stop-color:#BDE2F8"/>
				<stop  offset="1" style="stop-color:#B8DFF7"/>
			</linearGradient>
			<path style="fill:url(#SVGID_8_);" d="M119.5,168.1c0-11.7,9.5-21.2,21.2-21.2h114.2c11.7,0,21.2,9.5,21.2,21.2l0,0
				c0,11.7-9.5,21.2-21.2,21.2H140.7C129,189.3,119.5,179.8,119.5,168.1L119.5,168.1z"/>
			
				<linearGradient id="SVGID_10_" gradientUnits="userSpaceOnUse" x1="871.6691" y1="2390.7446" x2="1126.1702" y2="2390.7446" gradientTransform="matrix(-1 0 0 -1 1190.1282 2594.0508)">
				<stop  offset="0" style="stop-color:#E3F6FF"/>
				<stop  offset="0.4241" style="stop-color:#D4EEFC"/>
				<stop  offset="1" style="stop-color:#B8DFF7"/>
			</linearGradient>
			<path style="fill:url(#SVGID_10_);" d="M64,203.3c0-8.1,6.5-14.6,14.6-14.6h225.2c8.1,0,14.6,6.5,14.6,14.6l0,0
				c0,8.1-6.5,14.6-14.6,14.6H78.6C70.5,217.9,64,211.4,64,203.3L64,203.3z"/>
			
				<linearGradient id="SVGID_11_" gradientUnits="userSpaceOnUse" x1="900.1235" y1="2456.1904" x2="1088.8082" y2="2456.1904" gradientTransform="matrix(-1 0 0 -1 1190.1282 2594.0508)">
				<stop  offset="0" style="stop-color:#E3F6FF"/>
				<stop  offset="5.666316e-003" style="stop-color:#E3F6FF"/>
				<stop  offset="0.3697" style="stop-color:#CBE9FB"/>
				<stop  offset="0.7099" style="stop-color:#BDE2F8"/>
				<stop  offset="1" style="stop-color:#B8DFF7"/>
			</linearGradient>
			<path class="st5" d="M101.3,137.9c0-4.9,4-9,9-9H281c4.9,0,9,4,9,9l0,0c0,4.9-4,9-9,9H110.3C105.3,146.8,101.3,142.8,101.3,137.9
				L101.3,137.9z"/>
		</g>
		<g>
			<path class="st24" d="M114,20.5c0,6.6-5.4,12-12,12l0,0c-6.6,0-12-5.4-12-12V12c0-6.6,5.4-12,12-12l0,0c6.6,0,12,5.4,12,12V20.5z
				"/>
			<linearGradient id="SVGID_12_" gradientUnits="userSpaceOnUse" x1="2.469927e-006" y1="153.3667" x2="204" y2="153.3667">
				<stop  offset="0" style="stop-color:#B8DFF7"/>
				<stop  offset="1" style="stop-color:#1EB6E9"/>
			</linearGradient>
			<path style="opacity:0;fill:url(#SVGID_12_);" d="M204,275.4c0,3.9-3.1,7-7,7H7c-3.9,0-7-3.1-7-7v-244c0-3.9,3.1-7,7-7h190
				c3.9,0,7,3.1,7,7V275.4z"/>
			<path class="st11" d="M194.2,271.8c0,3.6-2.9,6.5-6.5,6.5H16.4c-3.6,0-6.5-2.9-6.5-6.5v-237c0-3.6,2.9-6.5,6.5-6.5h171.3
				c3.6,0,6.5,2.9,6.5,6.5V271.8z"/>
			<linearGradient id="SVGID_13_" gradientUnits="userSpaceOnUse" x1="60.3333" y1="28.0337" x2="143.3333" y2="28.0337">
				<stop  offset="0" style="stop-color:#1EB6E9"/>
				<stop  offset="0.2218" style="stop-color:#1E92CC"/>
				<stop  offset="0.581" style="stop-color:#1E5EA2"/>
				<stop  offset="0.8515" style="stop-color:#1E3D88"/>
				<stop  offset="1" style="stop-color:#1E317E"/>
			</linearGradient>
			<path class="st7" d="M143.3,38h-83V28c0-5.5,4.5-10,10-10h63c5.5,0,10,4.5,10,10V38z"/>
			<circle class="st11" cx="101.8" cy="11.2" r="5.5"/>
			<line class="st86" x1="66.7" y1="67.4" x2="162.7" y2="67.4"/>
			<line class="st86" x1="66.7" y1="78.4" x2="104" y2="78.4"/>
			<line class="st86" x1="114.7" y1="78.4" x2="142" y2="78.4"/>
			<line class="st86" x1="66.7" y1="89.4" x2="94" y2="89.4"/>
			<line class="st86" x1="104.7" y1="89.4" x2="152" y2="89.4"/>
			<line class="st86" x1="66.7" y1="157.4" x2="162.7" y2="157.4"/>
			<line class="st86" x1="66.7" y1="168.4" x2="104" y2="168.4"/>
			<line class="st86" x1="114.7" y1="168.4" x2="142" y2="168.4"/>
			<line class="st86" x1="66.7" y1="179.4" x2="94" y2="179.4"/>
			<line class="st86" x1="104.7" y1="179.4" x2="152" y2="179.4"/>
			<line class="st86" x1="66.7" y1="112.4" x2="122.7" y2="112.4"/>
			<line class="st86" x1="133.7" y1="112.4" x2="159.7" y2="112.4"/>
			<line class="st86" x1="66.7" y1="123.4" x2="137" y2="123.4"/>
			<line class="st86" x1="66.7" y1="134.4" x2="84" y2="134.4"/>
			<line class="st86" x1="94.7" y1="134.4" x2="152" y2="134.4"/>
			<line class="st86" x1="66.7" y1="202.4" x2="122.7" y2="202.4"/>
			<line class="st86" x1="133.7" y1="202.4" x2="159.7" y2="202.4"/>
			<line class="st86" x1="66.7" y1="213.4" x2="137" y2="213.4"/>
			<line class="st86" x1="66.7" y1="224.4" x2="84" y2="224.4"/>
			<line class="st86" x1="94.7" y1="224.4" x2="152" y2="224.4"/>
			<path class="st102" d="M50,84.4c0,1.8-1.5,3.3-3.3,3.3H34c-1.8,0-3.3-1.5-3.3-3.3V71.7c0-1.8,1.5-3.3,3.3-3.3h12.7
				c1.8,0,3.3,1.5,3.3,3.3V84.4z"/>
			<path class="st102" d="M50,129.7c0,1.8-1.5,3.3-3.3,3.3H34c-1.8,0-3.3-1.5-3.3-3.3V117c0-1.8,1.5-3.3,3.3-3.3h12.7
				c1.8,0,3.3,1.5,3.3,3.3V129.7z"/>
			<path class="st102" d="M50,175.2c0,1.8-1.5,3.3-3.3,3.3H34c-1.8,0-3.3-1.5-3.3-3.3v-12.7c0-1.8,1.5-3.3,3.3-3.3h12.7
				c1.8,0,3.3,1.5,3.3,3.3V175.2z"/>
			<path class="st102" d="M50,220.5c0,1.8-1.5,3.3-3.3,3.3H34c-1.8,0-3.3-1.5-3.3-3.3v-12.7c0-1.8,1.5-3.3,3.3-3.3h12.7
				c1.8,0,3.3,1.5,3.3,3.3V220.5z"/>
			<polyline class="st103" points="34.7,75.4 41.3,81.6 53.4,67 			"/>
			<polyline class="st103" points="34.7,121.5 41.3,127.7 53.4,113.2 			"/>
		</g>
		<g>
			<g>
				
					<linearGradient id="SVGID_14_" gradientUnits="userSpaceOnUse" x1="-616.121" y1="2921.7917" x2="-590.6185" y2="2921.7917" gradientTransform="matrix(-0.582 -0.8132 0.8132 -0.582 -2542.6011 1345.6539)">
					<stop  offset="0" style="stop-color:#1E317E"/>
					<stop  offset="0.1485" style="stop-color:#1E3D88"/>
					<stop  offset="0.419" style="stop-color:#1E5EA2"/>
					<stop  offset="0.7782" style="stop-color:#1E92CC"/>
					<stop  offset="1" style="stop-color:#1EB6E9"/>
				</linearGradient>
				
					<line style="fill:none;stroke:url(#SVGID_14_);stroke-width:12.5181;stroke-linecap:round;stroke-linejoin:round;stroke-miterlimit:10;" x1="201.4" y1="131.5" x2="167.5" y2="139.8"/>
				<path class="st11" d="M165.9,133.7l3.1,12.3l-3.6,1c-1.3,0.3-2.7-0.5-3-1.8l-1.9-7.4c-0.3-1.3,0.5-2.7,1.8-3L165.9,133.7z"/>
			</g>
			<linearGradient id="SVGID_15_" gradientUnits="userSpaceOnUse" x1="224.4169" y1="181.3035" x2="224.4169" y2="99.0096">
				<stop  offset="0" style="stop-color:#1E317E"/>
				<stop  offset="0.1397" style="stop-color:#1D3D89"/>
				<stop  offset="0.3942" style="stop-color:#1B5EA7"/>
				<stop  offset="0.7324" style="stop-color:#1792D7"/>
				<stop  offset="0.8261" style="stop-color:#16A2E5"/>
			</linearGradient>
			<polygon class="st9" points="199,99 256.8,101.1 246,181.3 192.1,176.3 			"/>
			<path class="st24" d="M199,99c1.1-11.7,9.6-11.5,9.6-11.5l18.4-0.3l12.2,1.1l18.1,3.7c0,0,8.4,1.2,7.4,11.8L199,99z"/>
			<path class="st61" d="M238.5,92.1c-0.3,3.2-3.2,5.6-6.4,5.3l0,0c-3.2-0.3-5.6-3.2-5.3-6.4l2.2-24.1c0.3-3.2,3.2-5.6,6.4-5.3l0,0
				c3.2,0.3,5.6,3.2,5.3,6.4L238.5,92.1z"/>
			<linearGradient id="SVGID_16_" gradientUnits="userSpaceOnUse" x1="231.7314" y1="83.1181" x2="231.7314" y2="49.018">
				<stop  offset="0" style="stop-color:#FACAB3"/>
				<stop  offset="0.7365" style="stop-color:#F5B396"/>
				<stop  offset="1" style="stop-color:#F3AA8A"/>
			</linearGradient>
			<path class="st10" d="M240.5,74.5c-0.5,5.2-5.1,9.1-10.3,8.6l0,0c-5.2-0.5-9.1-5.1-8.6-10.3l1.4-15.1c0.5-5.2,5.1-9.1,10.3-8.6
				l0,0c5.2,0.5,9.1,5.1,8.6,10.3L240.5,74.5z"/>
			<linearGradient id="SVGID_18_" gradientUnits="userSpaceOnUse" x1="260.244" y1="146.2307" x2="260.244" y2="94.079">
				<stop  offset="0.2292" style="stop-color:#1E317E"/>
				<stop  offset="0.4532" style="stop-color:#1C549E"/>
				<stop  offset="0.8972" style="stop-color:#16A2E5"/>
			</linearGradient>
			
				<line style="fill:none;stroke:url(#SVGID_18_);stroke-width:17.7;stroke-linecap:round;stroke-linejoin:round;stroke-miterlimit:10;" x1="256.8" y1="102.9" x2="263.7" y2="137.4"/>
			<path class="st15" d="M246.6,175.9l-5.2,119.2h-14l-9.6-93.1c0,0-0.1-2-2-2c-1.8,0-2.8,2.6-2.8,2.6s-20.6,39.2-20.6,92.5h-29.9
				c0,0,0.7-7.1,7.4-7.1c6.6,0,8,0,8,0l-0.1-9.3c0,0-2.7-54.3,14.7-102.7"/>
			<linearGradient id="SVGID_20_" gradientUnits="userSpaceOnUse" x1="162.5676" y1="235.531" x2="246.6229" y2="235.531">
				<stop  offset="0" style="stop-color:#1EB6E9"/>
				<stop  offset="0.1739" style="stop-color:#1EB6E9;stop-opacity:0"/>
			</linearGradient>
			<path style="fill:url(#SVGID_20_);" d="M246.6,175.9l-5.2,119.2h-14l-9.6-93.1c0,0-0.1-2-2-2c-1.8,0-2.8,2.6-2.8,2.6
				s-20.6,39.2-20.6,92.5h-29.9c0,0,0.7-7.1,7.4-7.1c6.6,0,8,0,8,0l-0.1-9.3c0,0-2.7-54.3,14.7-102.7"/>
			<linearGradient id="SVGID_22_" gradientUnits="userSpaceOnUse" x1="220.3246" y1="291.6251" x2="235.5623" y2="291.6251">
				<stop  offset="0" style="stop-color:#1EB6E9"/>
				<stop  offset="0.2218" style="stop-color:#1E92CC"/>
				<stop  offset="0.581" style="stop-color:#1E5EA2"/>
				<stop  offset="0.8515" style="stop-color:#1E3D88"/>
				<stop  offset="1" style="stop-color:#1E317E"/>
			</linearGradient>
			<path style="fill:url(#SVGID_22_);" d="M220.3,295.1c0,0-0.1-7,6.4-7c1.2,0,3.2,0,3.2,0s5.7,0.7,5.7,7H220.3z"/>
			<g>
				<path class="st61" d="M65.4,120.3c-0.3,1.4,1.1,1.6,1.1,1.6l26.6,12.8l3.4-16.9L67,119.2C67,119.2,65.7,118.9,65.4,120.3z"/>
				<path class="st17" d="M72.7,119c-1.5,2.5-1.1,5.4-1.1,5.4l-5.1-2.5c-0.1,0-1.3-0.3-1.1-1.6c0.3-1.3,1.5-1.1,1.6-1.1L72.7,119z"
					/>
				<path class="st17" d="M291.5,158.1l-3.4,16.9l-195-40.2c0,0-1.8-3.6-0.7-8.9c1.2-6,4.1-7.9,4.1-7.9L291.5,158.1z"/>
			</g>
			<linearGradient id="SVGID_24_" gradientUnits="userSpaceOnUse" x1="242.6629" y1="71.8674" x2="242.6629" y2="65.0774">
				<stop  offset="0" style="stop-color:#FACAB3"/>
				<stop  offset="0.7365" style="stop-color:#F5B396"/>
				<stop  offset="1" style="stop-color:#F3AA8A"/>
			</linearGradient>
			<path style="fill:url(#SVGID_24_);" d="M244.6,68.5c0,1.9-1.5,3.4-3.4,3.4h-0.4l0.6-6.8C243.2,65.2,244.6,66.6,244.6,68.5z"/>
			<path class="st15" d="M239.9,77.1c0,0,11.5-0.5,13-9.9c1.5-8.8-3.3-11.2-6.5-14.5c-1.4-1.5-2.3-2.7-3-3.7
				c-1.3-1.8-1.4-2.3-1.2-4.1c0.2-1.9-0.5-2.3-1.6-2.4c-3.8-0.4-8.5-0.6-11.9,1c-5,2.3-7.7,7.5-4.7,13.2c5.3,10,17.1,8,17.1,8
				L239.9,77.1z"/>
			<g>
				
					<linearGradient id="SVGID_26_" gradientUnits="userSpaceOnUse" x1="-1309.3729" y1="2861.4551" x2="-1306.4954" y2="2901.7712" gradientTransform="matrix(-0.8282 -0.5604 0.5604 -0.8282 -2447.8362 1802.4382)">
					<stop  offset="0" style="stop-color:#1EB6E9"/>
					<stop  offset="0.1937" style="stop-color:#1E92CC"/>
					<stop  offset="0.5075" style="stop-color:#1E5EA2"/>
					<stop  offset="0.7438" style="stop-color:#1E3D88"/>
					<stop  offset="0.8735" style="stop-color:#1E317E"/>
				</linearGradient>
				
					<line style="fill:none;stroke:url(#SVGID_26_);stroke-width:12.5181;stroke-linecap:round;stroke-linejoin:round;stroke-miterlimit:10;" x1="263.7" y1="140.4" x2="236.8" y2="157.1"/>
				<path class="st61" d="M235.7,159.6l-6.4,8.7c0,0-1.3,2.1-3.2,0.8c-1.9-1.3-8.7-4.1-8.7-4.1s-1.7-1.1-0.3-3.2
					c1.4-2.1,2.6-3.5,2.6-3.5l3.6,0.6l8.9-3.7"/>
				<path class="st11" d="M233.2,151.9l7.2,10.4l-3,2.2c-1.1,0.8-2.7,0.5-3.5-0.6l-4.4-6.3c-0.8-1.1-0.5-2.7,0.6-3.5L233.2,151.9z"
					/>
				
					<linearGradient id="SVGID_28_" gradientUnits="userSpaceOnUse" x1="-793.4781" y1="2500.425" x2="-782.1695" y2="2500.425" gradientTransform="matrix(-0.4295 -0.9031 0.9031 -0.4295 -2375.4651 523.0919)">
					<stop  offset="0" style="stop-color:#F3AA8A"/>
					<stop  offset="0.1084" style="stop-color:#F5B193"/>
					<stop  offset="0.3778" style="stop-color:#F8BFA5"/>
					<stop  offset="0.6654" style="stop-color:#F9C7B0"/>
					<stop  offset="1" style="stop-color:#FACAB3"/>
				</linearGradient>
				<path style="fill:url(#SVGID_28_);" d="M225.3,163.8l-13.1-2.9c0,0-1.1-0.2-1.2-1c-0.1-1.2,1.3-1.2,1.3-1.2l13.1-1.8
					c0,0,4.7-0.9,4.2,4.1C229.4,164.8,225.3,163.8,225.3,163.8z"/>
			</g>
			<linearGradient id="SVGID_30_" gradientUnits="userSpaceOnUse" x1="146.0282" y1="145.1896" x2="161.0776" y2="145.1896">
				<stop  offset="0" style="stop-color:#F3AA8A"/>
				<stop  offset="0.1084" style="stop-color:#F5B193"/>
				<stop  offset="0.3778" style="stop-color:#F8BFA5"/>
				<stop  offset="0.6654" style="stop-color:#F9C7B0"/>
				<stop  offset="1" style="stop-color:#FACAB3"/>
			</linearGradient>
			<path style="fill:url(#SVGID_30_);" d="M146.2,145.3c1-1.6,2.9-3.9,2.9-3.9s1.3-2.1,3.2-0.8c1.9,1.3,8.2,6.2,8.2,6.2
				s1.2,0.7,0.3,2.2c-0.9,1.4-0.9,1.4-3.1,1.1c-0.9-0.1-7.2-1.9-10.5-2.9C146,146.9,145.9,145.7,146.2,145.3z"/>
			
				<ellipse transform="matrix(0.9829 0.1843 -0.1843 0.9829 35.598 -50.554)" class="st61" cx="289.7" cy="166.2" rx="3.6" ry="8.9"/>
		</g>
	</g>
</g>
<g id="Слой_2">
</g>
<g id="Слой_3">
</g>
<g id="Слой_4">
</g>
<g id="Слой_5">
</g>
</svg>
