<?xml version="1.0" encoding="utf-8"?>
<!-- Generator: Adobe Illustrator 17.1.0, SVG Export Plug-In . SVG Version: 6.00 Build 0)  -->
<!DOCTYPE svg PUBLIC "-//W3C//DTD SVG 1.1//EN" "http://www.w3.org/Graphics/SVG/1.1/DTD/svg11.dtd">
<svg version="1.1" xmlns="http://www.w3.org/2000/svg" xmlns:xlink="http://www.w3.org/1999/xlink" x="0px" y="0px"
	 viewBox="0 0 704.6 331.4" style="enable-background:new 0 0 704.6 331.4;" xml:space="preserve">
<style type="text/css">
	.st0{clip-path:url(#SVGID_2_);fill:#FFFFFF;}
	.st1{clip-path:url(#SVGID_4_);fill:#FFFFFF;}
	.st2{clip-path:url(#SVGID_6_);fill:#FFFFFF;}
	.st3{clip-path:url(#SVGID_8_);fill:#FFFFFF;}
	.st4{clip-path:url(#SVGID_10_);}
	.st5{fill:url(#SVGID_11_);}
	.st6{fill:url(#SVGID_12_);}
	.st7{fill:url(#SVGID_13_);}
	.st8{fill:url(#SVGID_14_);}
	.st9{fill:url(#SVGID_15_);}
	.st10{fill:url(#SVGID_16_);}
	.st11{fill:#FFFFFF;}
	.st12{fill:#BAE1F9;}
	.st13{fill:none;stroke:#BAE1F9;stroke-miterlimit:10;}
	.st14{opacity:0.7;clip-path:url(#SVGID_18_);}
	.st15{fill:#1D3160;}
	.st16{opacity:0;clip-path:url(#SVGID_18_);}
	.st17{fill:#DC325A;}
	.st18{clip-path:url(#SVGID_20_);}
	.st19{opacity:0.65;}
	.st20{fill:#999B9E;}
	.st21{opacity:0.65;fill:#999B9E;}
	.st22{fill:none;stroke:#FFFFFF;stroke-miterlimit:10;}
	.st23{clip-path:url(#SVGID_24_);}
	.st24{fill:#16A2E5;}
	.st25{fill:#39A74A;}
	.st26{clip-path:url(#SVGID_24_);fill:#FFFFFF;}
	.st27{fill:#E3E4E4;}
	.st28{clip-path:url(#SVGID_26_);}
	.st29{clip-path:url(#SVGID_26_);fill:#16A2E5;}
	.st30{clip-path:url(#SVGID_26_);fill:#FFFFFF;}
	.st31{clip-path:url(#SVGID_28_);}
	.st32{fill:none;stroke:#E3E4E4;stroke-width:0.7;stroke-miterlimit:10;}
	.st33{fill:#AEB0B2;}
	.st34{fill:none;stroke:#D8D9DA;stroke-miterlimit:10;}
	.st35{fill:#F6F7F7;}
	.st36{fill:#A02C58;}
	.st37{fill:none;stroke:#16A2E5;stroke-width:2;stroke-miterlimit:10;}
	.st38{clip-path:url(#SVGID_30_);}
	.st39{fill:#F6F7F7;stroke:#F6F7F7;stroke-width:2;stroke-miterlimit:10;}
	.st40{fill:#F6F7F7;stroke:#F1F2F2;stroke-width:2;stroke-miterlimit:10;}
	.st41{fill:#85878A;}
	.st42{fill:url(#SVGID_31_);}
	.st43{opacity:0.5;fill:#FFFFFF;}
	.st44{opacity:0.7;}
	.st45{clip-path:url(#SVGID_33_);}
	.st46{opacity:0.1;clip-path:url(#SVGID_33_);fill:#0D1938;}
	.st47{opacity:0.3;}
	.st48{fill:none;stroke:#231F20;stroke-width:2;stroke-linecap:round;stroke-linejoin:round;stroke-miterlimit:10;}
	.st49{fill:#D8D9DA;}
	.st50{fill:url(#SVGID_34_);}
	.st51{fill:url(#SVGID_35_);}
	.st52{fill:url(#SVGID_36_);}
	.st53{fill:url(#SVGID_37_);}
	.st54{fill:url(#SVGID_38_);}
	.st55{fill:url(#SVGID_39_);}
	.st56{opacity:0;fill:#E3F6FF;}
	.st57{clip-path:url(#SVGID_41_);}
	.st58{fill:none;stroke:url(#SVGID_42_);stroke-width:25.2889;stroke-linecap:round;stroke-linejoin:round;stroke-miterlimit:10;}
	.st59{fill:none;stroke:url(#SVGID_43_);stroke-width:25.2889;stroke-linecap:round;stroke-linejoin:round;stroke-miterlimit:10;}
	.st60{fill:none;stroke:url(#SVGID_44_);stroke-width:25.2889;stroke-linecap:round;stroke-linejoin:round;stroke-miterlimit:10;}
	.st61{fill:#F3AA8A;}
	.st62{opacity:0;}
	.st63{fill:none;stroke:#FFFFFF;stroke-width:1.2644;stroke-linecap:round;stroke-linejoin:round;stroke-miterlimit:10;}
	.st64{fill:url(#SVGID_45_);}
	.st65{fill:none;stroke:url(#SVGID_46_);stroke-width:25.2889;stroke-linecap:round;stroke-linejoin:round;stroke-miterlimit:10;}
	.st66{fill:none;stroke:url(#SVGID_47_);stroke-width:25.2889;stroke-linecap:round;stroke-linejoin:round;stroke-miterlimit:10;}
	.st67{fill:url(#SVGID_48_);}
	.st68{fill:url(#SVGID_49_);}
	.st69{fill:none;stroke:url(#SVGID_50_);stroke-width:25.2889;stroke-linecap:round;stroke-linejoin:round;stroke-miterlimit:10;}
	.st70{fill:#9E2C58;}
	.st71{fill:url(#SVGID_51_);}
	.st72{fill:none;stroke:url(#SVGID_52_);stroke-width:25.2889;stroke-linecap:round;stroke-linejoin:round;stroke-miterlimit:10;}
	.st73{fill:url(#SVGID_53_);}
	.st74{fill:url(#SVGID_54_);}
	.st75{fill:url(#SVGID_55_);}
	.st76{fill:url(#SVGID_56_);}
	.st77{fill:url(#SVGID_57_);}
	.st78{fill:url(#SVGID_58_);}
	.st79{fill:url(#SVGID_59_);}
	
		.st80{clip-path:url(#SVGID_61_);fill:none;stroke:url(#SVGID_62_);stroke-width:48.065;stroke-linecap:round;stroke-linejoin:round;stroke-miterlimit:10;}
	.st81{clip-path:url(#SVGID_61_);fill:#F3AA8A;}
	.st82{clip-path:url(#SVGID_61_);fill:#FFFFFF;}
	.st83{opacity:0;clip-path:url(#SVGID_61_);fill:#D8D9DA;}
	
		.st84{clip-path:url(#SVGID_61_);fill:none;stroke:url(#SVGID_63_);stroke-width:2.1459;stroke-linecap:round;stroke-linejoin:round;stroke-miterlimit:10;}
	.st85{clip-path:url(#SVGID_61_);}
	.st86{fill:none;stroke:#D8D9DA;stroke-width:2.1459;stroke-linecap:round;stroke-linejoin:round;stroke-miterlimit:10;}
	.st87{clip-path:url(#SVGID_61_);fill:none;stroke:#39A74A;stroke-width:2.1459;stroke-miterlimit:10;}
	.st88{clip-path:url(#SVGID_61_);fill:#E3F6FF;}
	
		.st89{clip-path:url(#SVGID_65_);fill:none;stroke:url(#SVGID_66_);stroke-width:27.1333;stroke-linecap:round;stroke-linejoin:round;stroke-miterlimit:10;}
	.st90{clip-path:url(#SVGID_65_);fill:#F3AA8A;}
	.st91{clip-path:url(#SVGID_65_);fill:url(#SVGID_67_);}
	.st92{clip-path:url(#SVGID_65_);fill:#1D3160;}
	.st93{clip-path:url(#SVGID_61_);fill:url(#SVGID_68_);}
	.st94{fill:url(#SVGID_69_);}
	.st95{fill:url(#SVGID_70_);}
	.st96{fill:url(#SVGID_71_);}
	.st97{fill:url(#SVGID_72_);}
	.st98{fill:url(#SVGID_73_);}
	.st99{fill:url(#SVGID_74_);}
	.st100{opacity:0;fill:url(#SVGID_75_);}
	.st101{fill:url(#SVGID_76_);}
	.st102{fill:#E3F6FF;}
	.st103{fill:none;stroke:#DC325A;stroke-width:3;stroke-linecap:round;stroke-linejoin:round;stroke-miterlimit:10;}
	.st104{fill:none;stroke:url(#SVGID_77_);stroke-width:12.5181;stroke-linecap:round;stroke-linejoin:round;stroke-miterlimit:10;}
	.st105{fill:url(#SVGID_78_);}
	.st106{fill:url(#SVGID_79_);}
	.st107{fill:none;stroke:url(#SVGID_80_);stroke-width:17.7;stroke-linecap:round;stroke-linejoin:round;stroke-miterlimit:10;}
	.st108{fill:url(#SVGID_81_);}
	.st109{fill:url(#SVGID_82_);}
	.st110{fill:url(#SVGID_83_);}
	.st111{fill:none;stroke:url(#SVGID_84_);stroke-width:12.5181;stroke-linecap:round;stroke-linejoin:round;stroke-miterlimit:10;}
	.st112{fill:url(#SVGID_85_);}
	.st113{fill:url(#SVGID_86_);}
	.st114{fill:url(#SVGID_87_);}
	.st115{fill:url(#SVGID_88_);}
	.st116{fill:url(#SVGID_89_);}
	.st117{fill:url(#SVGID_90_);}
	.st118{fill:url(#SVGID_91_);}
	.st119{fill:url(#SVGID_92_);}
	.st120{opacity:0;fill:url(#SVGID_93_);}
	.st121{fill:url(#SVGID_94_);}
	.st122{fill:none;stroke:url(#SVGID_95_);stroke-width:12.5181;stroke-linecap:round;stroke-linejoin:round;stroke-miterlimit:10;}
	.st123{fill:url(#SVGID_96_);}
	.st124{fill:url(#SVGID_97_);}
	.st125{fill:none;stroke:url(#SVGID_98_);stroke-width:17.7;stroke-linecap:round;stroke-linejoin:round;stroke-miterlimit:10;}
	.st126{fill:url(#SVGID_99_);}
	.st127{fill:url(#SVGID_100_);}
	.st128{fill:url(#SVGID_101_);}
	.st129{fill:none;stroke:url(#SVGID_102_);stroke-width:12.5181;stroke-linecap:round;stroke-linejoin:round;stroke-miterlimit:10;}
	.st130{fill:url(#SVGID_103_);}
	.st131{fill:url(#SVGID_104_);}
	.st132{fill:url(#SVGID_105_);}
	.st133{fill:url(#SVGID_106_);}
	.st134{fill:url(#SVGID_107_);}
	.st135{fill:url(#SVGID_108_);}
	.st136{fill:url(#SVGID_109_);}
	.st137{fill:url(#SVGID_110_);}
	
		.st138{clip-path:url(#SVGID_112_);fill:none;stroke:url(#SVGID_113_);stroke-width:48.065;stroke-linecap:round;stroke-linejoin:round;stroke-miterlimit:10;}
	.st139{clip-path:url(#SVGID_112_);fill:#F3AA8A;}
	.st140{clip-path:url(#SVGID_112_);fill:#FFFFFF;}
	.st141{opacity:0;clip-path:url(#SVGID_112_);fill:#D8D9DA;}
	
		.st142{clip-path:url(#SVGID_112_);fill:none;stroke:url(#SVGID_114_);stroke-width:2.1459;stroke-linecap:round;stroke-linejoin:round;stroke-miterlimit:10;}
	.st143{clip-path:url(#SVGID_112_);}
	.st144{clip-path:url(#SVGID_112_);fill:none;stroke:#39A74A;stroke-width:2.1459;stroke-miterlimit:10;}
	.st145{clip-path:url(#SVGID_112_);fill:#E3F6FF;}
	
		.st146{clip-path:url(#SVGID_116_);fill:none;stroke:url(#SVGID_117_);stroke-width:27.1333;stroke-linecap:round;stroke-linejoin:round;stroke-miterlimit:10;}
	.st147{clip-path:url(#SVGID_116_);fill:#F3AA8A;}
	.st148{clip-path:url(#SVGID_116_);fill:url(#SVGID_118_);}
	.st149{clip-path:url(#SVGID_116_);fill:#1D3160;}
	.st150{clip-path:url(#SVGID_112_);fill:url(#SVGID_119_);}
	.st151{fill:url(#SVGID_120_);}
	.st152{fill:url(#SVGID_121_);}
	.st153{fill:url(#SVGID_122_);}
	.st154{fill:url(#SVGID_123_);}
	.st155{fill:url(#SVGID_124_);}
	.st156{fill:url(#SVGID_125_);}
	.st157{clip-path:url(#SVGID_127_);}
	.st158{fill:none;stroke:url(#SVGID_128_);stroke-width:25.2889;stroke-linecap:round;stroke-linejoin:round;stroke-miterlimit:10;}
	.st159{fill:none;stroke:url(#SVGID_129_);stroke-width:25.2889;stroke-linecap:round;stroke-linejoin:round;stroke-miterlimit:10;}
	.st160{fill:none;stroke:url(#SVGID_130_);stroke-width:25.2889;stroke-linecap:round;stroke-linejoin:round;stroke-miterlimit:10;}
	.st161{fill:url(#SVGID_131_);}
	.st162{fill:none;stroke:url(#SVGID_132_);stroke-width:25.2889;stroke-linecap:round;stroke-linejoin:round;stroke-miterlimit:10;}
	.st163{fill:none;stroke:url(#SVGID_133_);stroke-width:25.2889;stroke-linecap:round;stroke-linejoin:round;stroke-miterlimit:10;}
	.st164{fill:url(#SVGID_134_);}
	.st165{fill:url(#SVGID_135_);}
	.st166{fill:none;stroke:url(#SVGID_136_);stroke-width:25.2889;stroke-linecap:round;stroke-linejoin:round;stroke-miterlimit:10;}
	.st167{fill:url(#SVGID_137_);}
	.st168{fill:none;stroke:url(#SVGID_138_);stroke-width:25.2889;stroke-linecap:round;stroke-linejoin:round;stroke-miterlimit:10;}
	.st169{fill:url(#SVGID_139_);}
	.st170{clip-path:url(#SVGID_141_);}
	.st171{fill:url(#SVGID_142_);}
	.st172{fill:url(#SVGID_143_);}
	.st173{fill:url(#SVGID_144_);}
	.st174{fill:url(#SVGID_145_);}
	.st175{fill:url(#SVGID_146_);}
	.st176{fill:url(#SVGID_147_);}
	.st177{opacity:0.7;clip-path:url(#SVGID_149_);}
	.st178{opacity:0;clip-path:url(#SVGID_149_);}
	.st179{opacity:0.7;clip-path:url(#SVGID_151_);}
	.st180{opacity:0;clip-path:url(#SVGID_151_);}
</style>
<g id="Слой_1">
	<g>
		<defs>
			<rect id="SVGID_140_" y="-21.3" width="728" height="371"/>
		</defs>
		<clipPath id="SVGID_2_">
			<use xlink:href="#SVGID_140_"  style="overflow:visible;"/>
		</clipPath>
		<g style="clip-path:url(#SVGID_2_);">
			<linearGradient id="SVGID_4_" gradientUnits="userSpaceOnUse" x1="-193.5611" y1="29" x2="655.4388" y2="29">
				<stop  offset="0" style="stop-color:#B8DFF7"/>
				<stop  offset="0.2332" style="stop-color:#1EB6E9"/>
				<stop  offset="0.3095" style="stop-color:#1E92CC"/>
				<stop  offset="0.433" style="stop-color:#1E5EA2"/>
				<stop  offset="0.526" style="stop-color:#1E3D88"/>
				<stop  offset="0.5771" style="stop-color:#1E317E"/>
				<stop  offset="0.6331" style="stop-color:#22317D"/>
				<stop  offset="0.6858" style="stop-color:#2D317B"/>
				<stop  offset="0.7372" style="stop-color:#403177"/>
				<stop  offset="0.7877" style="stop-color:#5B3172"/>
				<stop  offset="0.8377" style="stop-color:#7D326C"/>
				<stop  offset="0.8872" style="stop-color:#A83264"/>
				<stop  offset="0.9355" style="stop-color:#D9325A"/>
				<stop  offset="0.9368" style="stop-color:#DA325A"/>
			</linearGradient>
			<path style="fill:url(#SVGID_4_);" d="M655.4,29c0,16-13,29-29,29h-791c-16,0-29-13-29-29l0,0c0-16,13-29,29-29h791
				C642.5,0,655.4,13,655.4,29L655.4,29z"/>
			<linearGradient id="SVGID_6_" gradientUnits="userSpaceOnUse" x1="-282.5611" y1="89.9427" x2="704.4388" y2="89.9427">
				<stop  offset="0" style="stop-color:#B8DFF7"/>
				<stop  offset="0.2332" style="stop-color:#1EB6E9"/>
				<stop  offset="0.3095" style="stop-color:#1E92CC"/>
				<stop  offset="0.433" style="stop-color:#1E5EA2"/>
				<stop  offset="0.526" style="stop-color:#1E3D88"/>
				<stop  offset="0.5771" style="stop-color:#1E317E"/>
				<stop  offset="0.6331" style="stop-color:#22317D"/>
				<stop  offset="0.6858" style="stop-color:#2D317B"/>
				<stop  offset="0.7372" style="stop-color:#403177"/>
				<stop  offset="0.7877" style="stop-color:#5B3172"/>
				<stop  offset="0.8377" style="stop-color:#7D326C"/>
				<stop  offset="0.8872" style="stop-color:#A83264"/>
				<stop  offset="0.9355" style="stop-color:#D9325A"/>
				<stop  offset="0.9368" style="stop-color:#DA325A"/>
			</linearGradient>
			<path style="fill:url(#SVGID_6_);" d="M704.4,89.9c0,18.6-15.1,33.7-33.7,33.7h-919.6c-18.6,0-33.7-15.1-33.7-33.7l0,0
				c0-18.6,15.1-33.7,33.7-33.7h919.6C689.3,56.2,704.4,71.3,704.4,89.9L704.4,89.9z"/>
			<linearGradient id="SVGID_8_" gradientUnits="userSpaceOnUse" x1="-385.5611" y1="297.6527" x2="601.4388" y2="297.6527">
				<stop  offset="0" style="stop-color:#B8DFF7"/>
				<stop  offset="0.2332" style="stop-color:#1EB6E9"/>
				<stop  offset="0.3095" style="stop-color:#1E92CC"/>
				<stop  offset="0.433" style="stop-color:#1E5EA2"/>
				<stop  offset="0.526" style="stop-color:#1E3D88"/>
				<stop  offset="0.5771" style="stop-color:#1E317E"/>
				<stop  offset="0.6331" style="stop-color:#22317D"/>
				<stop  offset="0.6858" style="stop-color:#2D317B"/>
				<stop  offset="0.7372" style="stop-color:#403177"/>
				<stop  offset="0.7877" style="stop-color:#5B3172"/>
				<stop  offset="0.8377" style="stop-color:#7D326C"/>
				<stop  offset="0.8872" style="stop-color:#A83264"/>
				<stop  offset="0.9355" style="stop-color:#D9325A"/>
				<stop  offset="0.9368" style="stop-color:#DA325A"/>
			</linearGradient>
			<path style="fill:url(#SVGID_8_);" d="M601.4,297.7c0,18.6-15.1,33.7-33.7,33.7h-919.6c-18.6,0-33.7-15.1-33.7-33.7l0,0
				c0-18.6,15.1-33.7,33.7-33.7h919.6C586.3,263.9,601.4,279,601.4,297.7L601.4,297.7z"/>
			<linearGradient id="SVGID_10_" gradientUnits="userSpaceOnUse" x1="-334.5611" y1="202.7977" x2="652.4388" y2="202.7977">
				<stop  offset="0" style="stop-color:#B8DFF7"/>
				<stop  offset="0.2332" style="stop-color:#1EB6E9"/>
				<stop  offset="0.3095" style="stop-color:#1E92CC"/>
				<stop  offset="0.433" style="stop-color:#1E5EA2"/>
				<stop  offset="0.526" style="stop-color:#1E3D88"/>
				<stop  offset="0.5771" style="stop-color:#1E317E"/>
				<stop  offset="0.6331" style="stop-color:#22317D"/>
				<stop  offset="0.6858" style="stop-color:#2D317B"/>
				<stop  offset="0.7372" style="stop-color:#403177"/>
				<stop  offset="0.7877" style="stop-color:#5B3172"/>
				<stop  offset="0.8377" style="stop-color:#7D326C"/>
				<stop  offset="0.8872" style="stop-color:#A83264"/>
				<stop  offset="0.9355" style="stop-color:#D9325A"/>
				<stop  offset="0.9368" style="stop-color:#DA325A"/>
			</linearGradient>
			<path style="fill:url(#SVGID_10_);" d="M652.4,202.8c0,18.6-15.1,33.7-33.7,33.7h-919.6c-18.6,0-33.7-15.1-33.7-33.7l0,0
				c0-18.6,15.1-33.7,33.7-33.7h919.6C637.3,169.1,652.4,184.2,652.4,202.8L652.4,202.8z"/>
			<linearGradient id="SVGID_11_" gradientUnits="userSpaceOnUse" x1="-282.5611" y1="146.8702" x2="591.2355" y2="146.8702">
				<stop  offset="0" style="stop-color:#B8DFF7"/>
				<stop  offset="0.2332" style="stop-color:#1EB6E9"/>
				<stop  offset="0.3095" style="stop-color:#1E92CC"/>
				<stop  offset="0.433" style="stop-color:#1E5EA2"/>
				<stop  offset="0.526" style="stop-color:#1E3D88"/>
				<stop  offset="0.5771" style="stop-color:#1E317E"/>
				<stop  offset="0.6331" style="stop-color:#22317D"/>
				<stop  offset="0.6858" style="stop-color:#2D317B"/>
				<stop  offset="0.7372" style="stop-color:#403177"/>
				<stop  offset="0.7877" style="stop-color:#5B3172"/>
				<stop  offset="0.8377" style="stop-color:#7D326C"/>
				<stop  offset="0.8872" style="stop-color:#A83264"/>
				<stop  offset="0.9355" style="stop-color:#D9325A"/>
				<stop  offset="0.9368" style="stop-color:#DA325A"/>
			</linearGradient>
			<path class="st5" d="M591.2,146.9c0,12.8-10.4,23.2-23.2,23.2h-827.4c-12.8,0-23.2-10.4-23.2-23.2l0,0
				c0-12.8,10.4-23.2,23.2-23.2H568C580.8,123.7,591.2,134,591.2,146.9L591.2,146.9z"/>
			<linearGradient id="SVGID_12_" gradientUnits="userSpaceOnUse" x1="-282.5611" y1="250.7253" x2="681.2355" y2="250.7253">
				<stop  offset="0" style="stop-color:#B8DFF7"/>
				<stop  offset="0.2332" style="stop-color:#1EB6E9"/>
				<stop  offset="0.3095" style="stop-color:#1E92CC"/>
				<stop  offset="0.433" style="stop-color:#1E5EA2"/>
				<stop  offset="0.526" style="stop-color:#1E3D88"/>
				<stop  offset="0.5771" style="stop-color:#1E317E"/>
				<stop  offset="0.6331" style="stop-color:#22317D"/>
				<stop  offset="0.6858" style="stop-color:#2D317B"/>
				<stop  offset="0.7372" style="stop-color:#403177"/>
				<stop  offset="0.7877" style="stop-color:#5B3172"/>
				<stop  offset="0.8377" style="stop-color:#7D326C"/>
				<stop  offset="0.8872" style="stop-color:#A83264"/>
				<stop  offset="0.9355" style="stop-color:#D9325A"/>
				<stop  offset="0.9368" style="stop-color:#DA325A"/>
			</linearGradient>
			<path class="st6" d="M681.2,250.7c0,7.9-6.4,14.2-14.2,14.2h-935.4c-7.9,0-14.2-6.4-14.2-14.2l0,0c0-7.9,6.4-14.2,14.2-14.2H667
				C674.9,236.5,681.2,242.9,681.2,250.7L681.2,250.7z"/>
		</g>
	</g>
	<g>
		<defs>
			<rect id="SVGID_148_" x="-119" y="-435.4" width="387.6" height="414.1"/>
		</defs>
		<clipPath id="SVGID_13_">
			<use xlink:href="#SVGID_148_"  style="overflow:visible;"/>
		</clipPath>
		<g style="clip-path:url(#SVGID_13_);">
			
				<image style="overflow:visible;" width="402" height="525" xlink:href="7C14A105.png"  transform="matrix(0.9999 0 0 0.9999 -142.9738 -407.595)">
			</image>
		</g>
		<g style="opacity:0.7;clip-path:url(#SVGID_13_);">
			<path class="st15" d="M62.7-255.4l3.2-5.6c-0.7-9.1-2.7-15.8-4.2-24.8c-0.1-0.9-0.7-2.1-1.4-2.5c-7.6-4.1-9.3-11.7-11.1-19.1
				c-0.8-3.1-1.6-6.1-2.2-9.2c-1.5-7.5,0.4-9.5,7.8-8.6c0-5.1-0.1-10.1,0-15.2c0.1-6.8,0-13.6,0.7-20.3c1.1-10.5,6.5-18.8,15.2-24.7
				c12.9-8.7,26.7-14.7,42.7-14.9c14.4-0.2,26.1,5.8,36.7,14.7c14.1,12,19.1,27.2,16.2,45.2c-0.5,2.9-0.2,6-0.2,9
				c0,2.9-0.5,5.8,3.9,6.1c0.9,0.1,2.5,2.2,2.4,3.3c-1,9.4-2.2,18.8-3.7,28.1c-0.3,1.8-1.9,3.4-2.9,5.2c-1.2,2.3-3.2,4.5-3.4,6.9
				c-0.6,9.1-5.3,16.2-10.9,22.5c-5.8,6.4-9.6,13.6-9.5,21.9c0,5.5,1.7,11.9,5,16.1c4,5.2,10,9.5,16,12.4
				c14.5,7.1,29.6,12.7,44.1,19.9c7.4,3.7,12.1,10.7,14,19.1c1.4,5.9,2.7,11.8,4.1,17.8c0.3,1.5,0.8,2.9,0.9,4.4
				c1.1,13.9,2.1,27.8,3,41.8c1.4,20.7,2.6,41.5,4.1,62.2c0.4,5.1,2.6,10.1,2.9,15.1c0.4,5.7,0.1,11.5-0.6,17.3
				c-0.4,3.1-0.6,5.5,1.6,8.2c6.4,7.9,8.5,16.9,6.3,27.2c-1.6,7.4-1.7,15.1-2.1,22.7c-0.1,1.8,1.5,3.7,1.9,5.6
				c1.4,5.7,2.8,11.4,3.9,17.2c0.6,2.9,0.5,5.9,0.9,8.9c0.6,5.4,1.8,10.8,2,16.2c0.2,6.6-0.9,7.5-7.5,7.5c-28.7,0-57.3,0-86,0
				c-80.2,0-160.3-0.1-240.5,0.1c-5.9,0-9.4-1.7-12.3-6.9c-6.6-11.9-10.1-24.6-10.7-38.1c-1.4-29.1,3.1-57.4,9.8-85.6
				c1-4,1.3-8.2,2.2-12.3c0.7-3.2,1-6.8,2.8-9.5c5.4-8.4,5.2-18,7.3-27.2c2.8-12.1,1.2-25.3,9.2-36.1c1.8-2.5,1.6-6.4,2.6-9.5
				c2.2-7.1,4.1-14.3,7.2-21.1c2.3-5,4.6-9.5,1.7-15c-0.7-1.4-1.1-3.4-0.8-4.9c2.6-10.3,5.1-20.8,12.4-29.1
				c5.2-5.8,12.4-7.7,19.6-9.2c20.7-4.5,39.5-13.9,59-21.4c11.6-4.5,19.3-13.7,26.5-23.4C55.1-250.9,56.6-254.6,62.7-255.4z"/>
		</g>
		<g style="opacity:0;clip-path:url(#SVGID_13_);">
			<path class="st17" d="M62.7-255.4l3.2-5.6c-0.7-9.1-2.7-15.8-4.2-24.8c-0.1-0.9-0.7-2.1-1.4-2.5c-7.6-4.1-9.3-11.7-11.1-19.1
				c-0.8-3.1-1.6-6.1-2.2-9.2c-1.5-7.5,0.4-9.5,7.8-8.6c0-5.1-0.1-10.1,0-15.2c0.1-6.8,0-13.6,0.7-20.3c1.1-10.5,6.5-18.8,15.2-24.7
				c12.9-8.7,26.7-14.7,42.7-14.9c14.4-0.2,26.1,5.8,36.7,14.7c14.1,12,19.1,27.2,16.2,45.2c-0.5,2.9-0.2,6-0.2,9
				c0,2.9-0.5,5.8,3.9,6.1c0.9,0.1,2.5,2.2,2.4,3.3c-1,9.4-2.2,18.8-3.7,28.1c-0.3,1.8-1.9,3.4-2.9,5.2c-1.2,2.3-3.2,4.5-3.4,6.9
				c-0.6,9.1-5.3,16.2-10.9,22.5c-5.8,6.4-9.6,13.6-9.5,21.9c0,5.5,1.7,11.9,5,16.1c4,5.2,10,9.5,16,12.4
				c14.5,7.1,29.6,12.7,44.1,19.9c7.4,3.7,12.1,10.7,14,19.1c1.4,5.9,2.7,11.8,4.1,17.8c0.3,1.5,0.8,2.9,0.9,4.4
				c1.1,13.9,2.1,27.8,3,41.8c1.4,20.7,2.6,41.5,4.1,62.2c0.4,5.1,2.6,10.1,2.9,15.1c0.4,5.7,0.1,11.5-0.6,17.3
				c-0.4,3.1-0.6,5.5,1.6,8.2c6.4,7.9,8.5,16.9,6.3,27.2c-1.6,7.4-1.7,15.1-2.1,22.7c-0.1,1.8,1.5,3.7,1.9,5.6
				c1.4,5.7,2.8,11.4,3.9,17.2c0.6,2.9,0.5,5.9,0.9,8.9c0.6,5.4,1.8,10.8,2,16.2c0.2,6.6-0.9,7.5-7.5,7.5c-28.7,0-57.3,0-86,0
				c-80.2,0-160.3-0.1-240.5,0.1c-5.9,0-9.4-1.7-12.3-6.9c-6.6-11.9-10.1-24.6-10.7-38.1c-1.4-29.1,3.1-57.4,9.8-85.6
				c1-4,1.3-8.2,2.2-12.3c0.7-3.2,1-6.8,2.8-9.5c5.4-8.4,5.2-18,7.3-27.2c2.8-12.1,1.2-25.3,9.2-36.1c1.8-2.5,1.6-6.4,2.6-9.5
				c2.2-7.1,4.1-14.3,7.2-21.1c2.3-5,4.6-9.5,1.7-15c-0.7-1.4-1.1-3.4-0.8-4.9c2.6-10.3,5.1-20.8,12.4-29.1
				c5.2-5.8,12.4-7.7,19.6-9.2c20.7-4.5,39.5-13.9,59-21.4c11.6-4.5,19.3-13.7,26.5-23.4C55.1-250.9,56.6-254.6,62.7-255.4z"/>
		</g>
	</g>
</g>
<g id="Слой_2">
</g>
<g id="Слой_3">
</g>
<g id="Слой_4">
</g>
<g id="Слой_5">
</g>
</svg>
