<?xml version="1.0" encoding="utf-8"?>
<!-- Generator: Adobe Illustrator 17.1.0, SVG Export Plug-In . SVG Version: 6.00 Build 0)  -->
<!DOCTYPE svg PUBLIC "-//W3C//DTD SVG 1.1//EN" "http://www.w3.org/Graphics/SVG/1.1/DTD/svg11.dtd">
<svg version="1.1" xmlns="http://www.w3.org/2000/svg" xmlns:xlink="http://www.w3.org/1999/xlink" x="0px" y="0px"
	 viewBox="0 0 1472.7 704.5" style="enable-background:new 0 0 1472.7 704.5;" xml:space="preserve">
<style type="text/css">
	.st0{clip-path:url(#SVGID_2_);fill:#FFFFFF;}
	.st1{clip-path:url(#SVGID_4_);fill:#FFFFFF;}
	.st2{clip-path:url(#SVGID_6_);fill:#FFFFFF;}
	.st3{clip-path:url(#SVGID_8_);fill:#FFFFFF;}
	.st4{clip-path:url(#SVGID_10_);}
	.st5{fill:url(#SVGID_11_);}
	.st6{fill:url(#SVGID_12_);}
	.st7{fill:url(#SVGID_13_);}
	.st8{fill:url(#SVGID_14_);}
	.st9{fill:url(#SVGID_15_);}
	.st10{fill:url(#SVGID_16_);}
	.st11{fill:#FFFFFF;}
	.st12{fill:#BAE1F9;}
	.st13{fill:none;stroke:#BAE1F9;stroke-miterlimit:10;}
	.st14{opacity:0.7;clip-path:url(#SVGID_18_);}
	.st15{fill:#1D3160;}
	.st16{opacity:0;clip-path:url(#SVGID_18_);}
	.st17{fill:#DC325A;}
	.st18{clip-path:url(#SVGID_20_);}
	.st19{opacity:0.65;}
	.st20{fill:#999B9E;}
	.st21{opacity:0.65;fill:#999B9E;}
	.st22{fill:none;stroke:#FFFFFF;stroke-miterlimit:10;}
	.st23{clip-path:url(#SVGID_24_);}
	.st24{fill:#16A2E5;}
	.st25{fill:#39A74A;}
	.st26{clip-path:url(#SVGID_24_);fill:#FFFFFF;}
	.st27{fill:#E3E4E4;}
	.st28{clip-path:url(#SVGID_26_);}
	.st29{clip-path:url(#SVGID_26_);fill:#16A2E5;}
	.st30{clip-path:url(#SVGID_26_);fill:#FFFFFF;}
	.st31{clip-path:url(#SVGID_28_);}
	.st32{fill:none;stroke:#E3E4E4;stroke-width:0.7;stroke-miterlimit:10;}
	.st33{fill:#AEB0B2;}
	.st34{fill:none;stroke:#D8D9DA;stroke-miterlimit:10;}
	.st35{fill:#F6F7F7;}
	.st36{fill:#A02C58;}
	.st37{fill:none;stroke:#16A2E5;stroke-width:2;stroke-miterlimit:10;}
	.st38{clip-path:url(#SVGID_30_);}
	.st39{fill:#F6F7F7;stroke:#F6F7F7;stroke-width:2;stroke-miterlimit:10;}
	.st40{fill:#F6F7F7;stroke:#F1F2F2;stroke-width:2;stroke-miterlimit:10;}
	.st41{fill:#85878A;}
	.st42{fill:url(#SVGID_31_);}
	.st43{opacity:0.5;fill:#FFFFFF;}
	.st44{opacity:0.7;}
	.st45{clip-path:url(#SVGID_33_);}
	.st46{opacity:0.1;clip-path:url(#SVGID_33_);fill:#0D1938;}
	.st47{opacity:0.3;}
	.st48{fill:none;stroke:#231F20;stroke-width:2;stroke-linecap:round;stroke-linejoin:round;stroke-miterlimit:10;}
	.st49{fill:#D8D9DA;}
	.st50{fill:url(#SVGID_34_);}
	.st51{fill:url(#SVGID_35_);}
	.st52{fill:url(#SVGID_36_);}
	.st53{fill:url(#SVGID_37_);}
	.st54{fill:url(#SVGID_38_);}
	.st55{fill:url(#SVGID_39_);}
	.st56{opacity:0;fill:#E3F6FF;}
	.st57{clip-path:url(#SVGID_41_);}
	.st58{fill:none;stroke:url(#SVGID_42_);stroke-width:25.2889;stroke-linecap:round;stroke-linejoin:round;stroke-miterlimit:10;}
	.st59{fill:none;stroke:url(#SVGID_43_);stroke-width:25.2889;stroke-linecap:round;stroke-linejoin:round;stroke-miterlimit:10;}
	.st60{fill:none;stroke:url(#SVGID_44_);stroke-width:25.2889;stroke-linecap:round;stroke-linejoin:round;stroke-miterlimit:10;}
	.st61{fill:#F3AA8A;}
	.st62{opacity:0;}
	.st63{fill:none;stroke:#FFFFFF;stroke-width:1.2644;stroke-linecap:round;stroke-linejoin:round;stroke-miterlimit:10;}
	.st64{fill:url(#SVGID_45_);}
	.st65{fill:none;stroke:url(#SVGID_46_);stroke-width:25.2889;stroke-linecap:round;stroke-linejoin:round;stroke-miterlimit:10;}
	.st66{fill:none;stroke:url(#SVGID_47_);stroke-width:25.2889;stroke-linecap:round;stroke-linejoin:round;stroke-miterlimit:10;}
	.st67{fill:url(#SVGID_48_);}
	.st68{fill:url(#SVGID_49_);}
	.st69{fill:none;stroke:url(#SVGID_50_);stroke-width:25.2889;stroke-linecap:round;stroke-linejoin:round;stroke-miterlimit:10;}
	.st70{fill:#9E2C58;}
	.st71{fill:url(#SVGID_51_);}
	.st72{fill:none;stroke:url(#SVGID_52_);stroke-width:25.2889;stroke-linecap:round;stroke-linejoin:round;stroke-miterlimit:10;}
	.st73{fill:url(#SVGID_53_);}
	.st74{fill:url(#SVGID_54_);}
	.st75{fill:url(#SVGID_55_);}
	.st76{fill:url(#SVGID_56_);}
	.st77{fill:url(#SVGID_57_);}
	.st78{fill:url(#SVGID_58_);}
	.st79{fill:url(#SVGID_59_);}
	
		.st80{clip-path:url(#SVGID_61_);fill:none;stroke:url(#SVGID_62_);stroke-width:48.065;stroke-linecap:round;stroke-linejoin:round;stroke-miterlimit:10;}
	.st81{clip-path:url(#SVGID_61_);fill:#F3AA8A;}
	.st82{clip-path:url(#SVGID_61_);fill:#FFFFFF;}
	.st83{opacity:0;clip-path:url(#SVGID_61_);fill:#D8D9DA;}
	
		.st84{clip-path:url(#SVGID_61_);fill:none;stroke:url(#SVGID_63_);stroke-width:2.1459;stroke-linecap:round;stroke-linejoin:round;stroke-miterlimit:10;}
	.st85{clip-path:url(#SVGID_61_);}
	.st86{fill:none;stroke:#D8D9DA;stroke-width:2.1459;stroke-linecap:round;stroke-linejoin:round;stroke-miterlimit:10;}
	.st87{clip-path:url(#SVGID_61_);fill:none;stroke:#39A74A;stroke-width:2.1459;stroke-miterlimit:10;}
	.st88{clip-path:url(#SVGID_61_);fill:#E3F6FF;}
	
		.st89{clip-path:url(#SVGID_65_);fill:none;stroke:url(#SVGID_66_);stroke-width:27.1333;stroke-linecap:round;stroke-linejoin:round;stroke-miterlimit:10;}
	.st90{clip-path:url(#SVGID_65_);fill:#F3AA8A;}
	.st91{clip-path:url(#SVGID_65_);fill:url(#SVGID_67_);}
	.st92{clip-path:url(#SVGID_65_);fill:#1D3160;}
	.st93{clip-path:url(#SVGID_61_);fill:url(#SVGID_68_);}
	.st94{fill:url(#SVGID_69_);}
	.st95{fill:url(#SVGID_70_);}
	.st96{fill:url(#SVGID_71_);}
	.st97{fill:url(#SVGID_72_);}
	.st98{fill:url(#SVGID_73_);}
	.st99{fill:url(#SVGID_74_);}
	.st100{opacity:0;fill:url(#SVGID_75_);}
	.st101{fill:url(#SVGID_76_);}
	.st102{fill:#E3F6FF;}
	.st103{fill:none;stroke:#DC325A;stroke-width:3;stroke-linecap:round;stroke-linejoin:round;stroke-miterlimit:10;}
	.st104{fill:none;stroke:url(#SVGID_77_);stroke-width:12.5181;stroke-linecap:round;stroke-linejoin:round;stroke-miterlimit:10;}
	.st105{fill:url(#SVGID_78_);}
	.st106{fill:url(#SVGID_79_);}
	.st107{fill:none;stroke:url(#SVGID_80_);stroke-width:17.7;stroke-linecap:round;stroke-linejoin:round;stroke-miterlimit:10;}
	.st108{fill:url(#SVGID_81_);}
	.st109{fill:url(#SVGID_82_);}
	.st110{fill:url(#SVGID_83_);}
	.st111{fill:none;stroke:url(#SVGID_84_);stroke-width:12.5181;stroke-linecap:round;stroke-linejoin:round;stroke-miterlimit:10;}
	.st112{fill:url(#SVGID_85_);}
	.st113{fill:url(#SVGID_86_);}
	.st114{fill:url(#SVGID_87_);}
	.st115{fill:url(#SVGID_88_);}
	.st116{fill:url(#SVGID_89_);}
	.st117{fill:url(#SVGID_90_);}
	.st118{fill:url(#SVGID_91_);}
	.st119{fill:url(#SVGID_92_);}
	.st120{opacity:0;fill:url(#SVGID_93_);}
	.st121{fill:url(#SVGID_94_);}
	.st122{fill:none;stroke:url(#SVGID_95_);stroke-width:12.5181;stroke-linecap:round;stroke-linejoin:round;stroke-miterlimit:10;}
	.st123{fill:url(#SVGID_96_);}
	.st124{fill:url(#SVGID_97_);}
	.st125{fill:none;stroke:url(#SVGID_98_);stroke-width:17.7;stroke-linecap:round;stroke-linejoin:round;stroke-miterlimit:10;}
	.st126{fill:url(#SVGID_99_);}
	.st127{fill:url(#SVGID_100_);}
	.st128{fill:url(#SVGID_101_);}
	.st129{fill:none;stroke:url(#SVGID_102_);stroke-width:12.5181;stroke-linecap:round;stroke-linejoin:round;stroke-miterlimit:10;}
	.st130{fill:url(#SVGID_103_);}
	.st131{fill:url(#SVGID_104_);}
	.st132{fill:url(#SVGID_105_);}
	.st133{fill:url(#SVGID_106_);}
	.st134{fill:url(#SVGID_107_);}
	.st135{fill:url(#SVGID_108_);}
	.st136{fill:url(#SVGID_109_);}
	.st137{fill:url(#SVGID_110_);}
	
		.st138{clip-path:url(#SVGID_112_);fill:none;stroke:url(#SVGID_113_);stroke-width:48.065;stroke-linecap:round;stroke-linejoin:round;stroke-miterlimit:10;}
	.st139{clip-path:url(#SVGID_112_);fill:#F3AA8A;}
	.st140{clip-path:url(#SVGID_112_);fill:#FFFFFF;}
	.st141{opacity:0;clip-path:url(#SVGID_112_);fill:#D8D9DA;}
	
		.st142{clip-path:url(#SVGID_112_);fill:none;stroke:url(#SVGID_114_);stroke-width:2.1459;stroke-linecap:round;stroke-linejoin:round;stroke-miterlimit:10;}
	.st143{clip-path:url(#SVGID_112_);}
	.st144{clip-path:url(#SVGID_112_);fill:none;stroke:#39A74A;stroke-width:2.1459;stroke-miterlimit:10;}
	.st145{clip-path:url(#SVGID_112_);fill:#E3F6FF;}
	
		.st146{clip-path:url(#SVGID_116_);fill:none;stroke:url(#SVGID_117_);stroke-width:27.1333;stroke-linecap:round;stroke-linejoin:round;stroke-miterlimit:10;}
	.st147{clip-path:url(#SVGID_116_);fill:#F3AA8A;}
	.st148{clip-path:url(#SVGID_116_);fill:url(#SVGID_118_);}
	.st149{clip-path:url(#SVGID_116_);fill:#1D3160;}
	.st150{clip-path:url(#SVGID_112_);fill:url(#SVGID_119_);}
	.st151{fill:url(#SVGID_120_);}
	.st152{fill:url(#SVGID_121_);}
	.st153{fill:url(#SVGID_122_);}
	.st154{fill:url(#SVGID_123_);}
	.st155{fill:url(#SVGID_124_);}
	.st156{fill:url(#SVGID_125_);}
	.st157{clip-path:url(#SVGID_127_);}
	.st158{fill:none;stroke:url(#SVGID_128_);stroke-width:25.2889;stroke-linecap:round;stroke-linejoin:round;stroke-miterlimit:10;}
	.st159{fill:none;stroke:url(#SVGID_129_);stroke-width:25.2889;stroke-linecap:round;stroke-linejoin:round;stroke-miterlimit:10;}
	.st160{fill:none;stroke:url(#SVGID_130_);stroke-width:25.2889;stroke-linecap:round;stroke-linejoin:round;stroke-miterlimit:10;}
	.st161{fill:url(#SVGID_131_);}
	.st162{fill:none;stroke:url(#SVGID_132_);stroke-width:25.2889;stroke-linecap:round;stroke-linejoin:round;stroke-miterlimit:10;}
	.st163{fill:none;stroke:url(#SVGID_133_);stroke-width:25.2889;stroke-linecap:round;stroke-linejoin:round;stroke-miterlimit:10;}
	.st164{fill:url(#SVGID_134_);}
	.st165{fill:url(#SVGID_135_);}
	.st166{fill:none;stroke:url(#SVGID_136_);stroke-width:25.2889;stroke-linecap:round;stroke-linejoin:round;stroke-miterlimit:10;}
	.st167{fill:url(#SVGID_137_);}
	.st168{fill:none;stroke:url(#SVGID_138_);stroke-width:25.2889;stroke-linecap:round;stroke-linejoin:round;stroke-miterlimit:10;}
	.st169{fill:url(#SVGID_139_);}
	.st170{clip-path:url(#SVGID_141_);}
	.st171{fill:url(#SVGID_142_);}
	.st172{fill:url(#SVGID_143_);}
	.st173{fill:url(#SVGID_144_);}
	.st174{fill:url(#SVGID_145_);}
	.st175{fill:url(#SVGID_146_);}
	.st176{fill:url(#SVGID_147_);}
	.st177{opacity:0.7;clip-path:url(#SVGID_149_);}
	.st178{opacity:0;clip-path:url(#SVGID_149_);}
	.st179{opacity:0.7;clip-path:url(#SVGID_151_);}
	.st180{opacity:0;clip-path:url(#SVGID_151_);}
	.st181{clip-path:url(#SVGID_153_);}
</style>
<g id="Слой_1">
	<rect x="0" y="0" class="st35" width="1472.7" height="704.5"/>
	<g>
		<defs>
			<rect id="SVGID_152_" x="1.1" y="0" width="1471.6" height="702.1"/>
		</defs>
		<clipPath id="SVGID_2_">
			<use xlink:href="#SVGID_152_"  style="overflow:visible;"/>
		</clipPath>
		<g style="clip-path:url(#SVGID_2_);">
			<g>
				<g>
					<path class="st40" d="M1380.9-152.3l32.8,62.9L1355.2,12c-7.3,12.5-20.4,19.4-33.9,19.4c-6.7,0-13.6-1.7-19.8-5.4
						c-18.7-10.9-25-35-14-53.7l94.4-162.7c0-0.1,0.1-0.1,0.1-0.2C1375.3-179.2,1374.4-164.8,1380.9-152.3z"/>
				</g>
				<g>
					<g>
						<g>
							<path class="st40" d="M1260.2-124.5c4.4-2.3,8.9-3.6,13.5-4.2c0.8-0.1,1.5-0.1,2.3-0.2c0.7,0,1.5-0.1,2.2-0.1
								c0.2,0,0.3,0,0.5,0c0.8,0,1.5,0,2.3,0.1c0.8,0.1,1.6,0.1,2.3,0.2c1.7,0.2,3.4,0.5,5,1c0.9,0.3,1.9,0.6,2.8,0.9
								c9.2,3.1,17.2,9.6,22.1,18.9l9.9,19l32.8,62.9c6.5,12.5,5.6,26.9-1.1,38.2c-0.5,0.8-0.9,1.5-1.4,2.3c-1,1.4-2.1,2.8-3.3,4.1
								c-0.6,0.7-1.2,1.3-1.9,1.9c-0.6,0.6-1.3,1.2-2,1.7c-0.1,0.1-0.2,0.2-0.3,0.2c-0.5,0.5-1,0.9-1.6,1.2
								c-0.4,0.3-0.7,0.6-1.1,0.8c-0.4,0.3-0.8,0.6-1.2,0.8c-0.2,0.1-0.4,0.2-0.6,0.4c-0.6,0.4-1.3,0.8-1.9,1.1c0,0-0.1,0.1-0.2,0.1
								c-0.1,0-0.1,0-0.2,0.1c-0.7,0.4-1.4,0.7-2,1c-0.6,0.3-1.1,0.5-1.7,0.7c-0.4,0.2-0.9,0.4-1.4,0.5c-0.3,0.1-0.6,0.2-0.9,0.3
								c-0.4,0.1-0.8,0.2-1.1,0.3c-0.4,0.2-0.9,0.3-1.3,0.4c-3.1,0.8-6.4,1.2-9.5,1.2c-1.7,0-3.4-0.1-5.1-0.3c0,0-0.1,0-0.2,0
								c-0.9-0.1-1.7-0.3-2.6-0.5c-2.5-0.5-4.9-1.2-7.2-2.2c-0.4-0.2-0.7-0.3-1-0.5c-0.6-0.2-1.1-0.5-1.7-0.8
								c-0.8-0.4-1.5-0.8-2.3-1.3c-0.8-0.5-1.5-0.9-2.3-1.4c-1.4-1-2.8-2.1-4.1-3.3c-0.7-0.6-1.3-1.2-1.9-1.9
								c-0.6-0.6-1.2-1.3-1.7-2c-0.1-0.1-0.2-0.2-0.3-0.3c-0.4-0.5-0.8-1-1.2-1.6c-0.3-0.4-0.6-0.7-0.8-1.1
								c-0.3-0.4-0.6-0.8-0.8-1.2c-0.1-0.2-0.3-0.4-0.4-0.6c-0.4-0.6-0.8-1.3-1.1-1.9c0,0-0.1-0.1-0.1-0.2l-0.6-1.1l-9.4-18
								l-32.7-62.8C1233.5-90.8,1241-114.5,1260.2-124.5z"/>
						</g>
					</g>
					<path class="st40" d="M1250.2,26.9c-5.8,3-12,4.5-18.1,4.5c-14.2,0-27.8-7.7-34.8-21.1l-51.7-99.1l36.2-61.7
						c6-10.2,6.8-22.1,3.3-32.5l81.9,157C1276.9-6.9,1269.4,16.8,1250.2,26.9z"/>
					<path class="st40" d="M1023.5-152.3l32.8,62.9L997.7,12c-7.3,12.5-20.4,19.4-33.9,19.4c-6.7,0-13.6-1.7-19.8-5.4
						c-18.7-10.9-25-35-14-53.7l94.4-162.7c0-0.1,0.1-0.1,0.1-0.2C1017.9-179.2,1017-164.8,1023.5-152.3z"/>
				</g>
				<g>
					<g>
						<g>
							<path class="st40" d="M902.9-124.5c4.4-2.3,8.9-3.6,13.5-4.2c0.8-0.1,1.5-0.1,2.3-0.2c0.7,0,1.5-0.1,2.2-0.1
								c0.2,0,0.3,0,0.5,0c0.8,0,1.5,0,2.3,0.1c0.8,0.1,1.6,0.1,2.3,0.2c1.7,0.2,3.4,0.5,5,1c0.9,0.3,1.9,0.6,2.8,0.9
								c9.2,3.1,17.2,9.6,22.1,18.9l9.9,19l32.8,62.9c6.5,12.5,5.6,26.9-1.1,38.2c-0.5,0.8-0.9,1.5-1.4,2.3c-1,1.4-2.1,2.8-3.3,4.1
								c-0.6,0.7-1.2,1.3-1.9,1.9c-0.6,0.6-1.3,1.2-2,1.7c-0.1,0.1-0.2,0.2-0.3,0.2c-0.5,0.5-1,0.9-1.6,1.2
								c-0.4,0.3-0.7,0.6-1.1,0.8c-0.4,0.3-0.8,0.6-1.2,0.8c-0.2,0.1-0.4,0.2-0.6,0.4c-0.6,0.4-1.3,0.8-1.9,1.1c0,0-0.1,0.1-0.2,0.1
								c-0.1,0-0.1,0-0.2,0.1c-0.7,0.4-1.4,0.7-2,1c-0.6,0.3-1.1,0.5-1.7,0.7c-0.4,0.2-0.9,0.4-1.4,0.5c-0.3,0.1-0.6,0.2-0.9,0.3
								c-0.4,0.1-0.8,0.2-1.1,0.3c-0.4,0.2-0.9,0.3-1.3,0.4c-3.1,0.8-6.4,1.2-9.5,1.2c-1.7,0-3.4-0.1-5.1-0.3c0,0-0.1,0-0.2,0
								c-0.9-0.1-1.7-0.3-2.6-0.5c-2.5-0.5-4.9-1.2-7.2-2.2c-0.4-0.2-0.7-0.3-1-0.5c-0.6-0.2-1.1-0.5-1.7-0.8
								c-0.8-0.4-1.5-0.8-2.3-1.3c-0.8-0.5-1.5-0.9-2.3-1.4c-1.4-1-2.8-2.1-4.1-3.3c-0.7-0.6-1.3-1.2-1.9-1.9
								c-0.6-0.6-1.2-1.3-1.7-2c-0.1-0.1-0.2-0.2-0.3-0.3c-0.4-0.5-0.8-1-1.2-1.6c-0.3-0.4-0.6-0.7-0.8-1.1
								c-0.3-0.4-0.6-0.8-0.8-1.2c-0.1-0.2-0.3-0.4-0.4-0.6c-0.4-0.6-0.8-1.3-1.1-1.9c0,0-0.1-0.1-0.1-0.2l-0.6-1.1l-9.4-18
								l-32.7-62.8C876.2-90.8,883.7-114.5,902.9-124.5z"/>
						</g>
					</g>
					<path class="st40" d="M892.9,26.9c-5.8,3-12,4.5-18.1,4.5c-14.2,0-27.8-7.7-34.8-21.1l-51.7-99.1l36.2-61.7
						c6-10.2,6.8-22.1,3.3-32.5l81.9,157C919.5-6.9,912.1,16.8,892.9,26.9z"/>
					<path class="st40" d="M666.2-152.3L699-89.4L640.4,12c-7.3,12.5-20.4,19.4-33.9,19.4c-6.7,0-13.6-1.7-19.8-5.4
						c-18.7-10.9-25-35-14-53.7l94.4-162.7c0-0.1,0.1-0.1,0.1-0.2C660.5-179.2,659.7-164.8,666.2-152.3z"/>
				</g>
				<g>
					<g>
						<g>
							<path class="st40" d="M545.3-124.5c4.4-2.3,8.9-3.6,13.5-4.2c0.8-0.1,1.5-0.1,2.3-0.2c0.7,0,1.5-0.1,2.2-0.1
								c0.2,0,0.3,0,0.5,0c0.8,0,1.5,0,2.3,0.1c0.8,0.1,1.6,0.1,2.3,0.2c1.7,0.2,3.4,0.5,5,1c0.9,0.3,1.9,0.6,2.8,0.9
								c9.2,3.1,17.2,9.6,22.1,18.9l9.9,19l32.8,62.9c6.5,12.5,5.6,26.9-1.1,38.2c-0.5,0.8-0.9,1.5-1.4,2.3c-1,1.4-2.1,2.8-3.3,4.1
								c-0.6,0.7-1.2,1.3-1.9,1.9c-0.6,0.6-1.3,1.2-2,1.7c-0.1,0.1-0.2,0.2-0.3,0.2c-0.5,0.5-1,0.9-1.6,1.2
								c-0.4,0.3-0.7,0.6-1.1,0.8c-0.4,0.3-0.8,0.6-1.2,0.8c-0.2,0.1-0.4,0.2-0.6,0.4c-0.6,0.4-1.3,0.8-1.9,1.1c0,0-0.1,0.1-0.2,0.1
								c-0.1,0-0.1,0-0.2,0.1c-0.7,0.4-1.4,0.7-2,1c-0.6,0.3-1.1,0.5-1.7,0.7c-0.4,0.2-0.9,0.4-1.4,0.5c-0.3,0.1-0.6,0.2-0.9,0.3
								c-0.4,0.1-0.8,0.2-1.1,0.3c-0.4,0.2-0.9,0.3-1.3,0.4c-3.1,0.8-6.4,1.2-9.5,1.2c-1.7,0-3.4-0.1-5.1-0.3c0,0-0.1,0-0.2,0
								c-0.9-0.1-1.7-0.3-2.6-0.5c-2.5-0.5-4.9-1.2-7.2-2.2c-0.4-0.2-0.7-0.3-1-0.5c-0.6-0.2-1.1-0.5-1.7-0.8
								c-0.8-0.4-1.5-0.8-2.3-1.3c-0.8-0.5-1.5-0.9-2.3-1.4c-1.4-1-2.8-2.1-4.1-3.3c-0.7-0.6-1.3-1.2-1.9-1.9
								c-0.6-0.6-1.2-1.3-1.7-2c-0.1-0.1-0.2-0.2-0.3-0.3c-0.4-0.5-0.8-1-1.2-1.6c-0.3-0.4-0.6-0.7-0.8-1.1
								c-0.3-0.4-0.6-0.8-0.8-1.2c-0.1-0.2-0.3-0.4-0.4-0.6c-0.4-0.6-0.8-1.3-1.1-1.9c0,0-0.1-0.1-0.1-0.2l-0.6-1.1l-9.4-18
								l-32.7-62.8C518.7-90.8,526.1-114.5,545.3-124.5z"/>
						</g>
					</g>
					<path class="st40" d="M535.3,26.9c-5.8,3-12,4.5-18.1,4.5c-14.2,0-27.8-7.7-34.8-21.1l-51.7-99.1l36.2-61.7
						c6-10.2,6.8-22.1,3.3-32.5l81.9,157C562-6.9,554.6,16.8,535.3,26.9z"/>
					<path class="st40" d="M308.6-152.3l32.8,62.9L282.9,12c-7.3,12.5-20.4,19.4-33.9,19.4c-6.7,0-13.6-1.7-19.8-5.4
						c-18.7-10.9-25-35-14-53.7l94.4-162.7c0-0.1,0.1-0.1,0.1-0.2C303-179.2,302.1-164.8,308.6-152.3z"/>
				</g>
				<g>
					<g>
						<g>
							<path class="st40" d="M188-124.5c4.4-2.3,8.9-3.6,13.5-4.2c0.8-0.1,1.5-0.1,2.3-0.2c0.7,0,1.5-0.1,2.2-0.1c0.2,0,0.3,0,0.5,0
								c0.8,0,1.5,0,2.3,0.1c0.8,0.1,1.6,0.1,2.3,0.2c1.7,0.2,3.4,0.5,5,1c0.9,0.3,1.9,0.6,2.8,0.9c9.2,3.1,17.2,9.6,22.1,18.9
								l9.9,19l32.8,62.9c6.5,12.5,5.6,26.9-1.1,38.2c-0.5,0.8-0.9,1.5-1.4,2.3c-1,1.4-2.1,2.8-3.3,4.1c-0.6,0.7-1.2,1.3-1.9,1.9
								c-0.6,0.6-1.3,1.2-2,1.7c-0.1,0.1-0.2,0.2-0.3,0.2c-0.5,0.5-1,0.9-1.6,1.2c-0.4,0.3-0.7,0.6-1.1,0.8
								c-0.4,0.3-0.8,0.6-1.2,0.8c-0.2,0.1-0.4,0.2-0.6,0.4c-0.6,0.4-1.3,0.8-1.9,1.1c0,0-0.1,0.1-0.2,0.1c-0.1,0-0.1,0-0.2,0.1
								c-0.7,0.4-1.4,0.7-2,1c-0.6,0.3-1.1,0.5-1.7,0.7c-0.4,0.2-0.9,0.4-1.4,0.5c-0.3,0.1-0.6,0.2-0.9,0.3
								c-0.4,0.1-0.8,0.2-1.1,0.3c-0.4,0.2-0.9,0.3-1.3,0.4c-3.1,0.8-6.4,1.2-9.5,1.2c-1.7,0-3.4-0.1-5.1-0.3c0,0-0.1,0-0.2,0
								c-0.9-0.1-1.7-0.3-2.6-0.5c-2.5-0.5-4.9-1.2-7.2-2.2c-0.4-0.2-0.7-0.3-1-0.5c-0.6-0.2-1.1-0.5-1.7-0.8
								c-0.8-0.4-1.5-0.8-2.3-1.3c-0.8-0.5-1.5-0.9-2.3-1.4c-1.4-1-2.8-2.1-4.1-3.3c-0.7-0.6-1.3-1.2-1.9-1.9
								c-0.6-0.6-1.2-1.3-1.7-2c-0.1-0.1-0.2-0.2-0.3-0.3c-0.4-0.5-0.8-1-1.2-1.6c-0.3-0.4-0.6-0.7-0.8-1.1
								c-0.3-0.4-0.6-0.8-0.8-1.2c-0.1-0.2-0.3-0.4-0.4-0.6c-0.4-0.6-0.8-1.3-1.1-1.9c0,0-0.1-0.1-0.1-0.2l-0.6-1.1l-9.4-18
								l-32.7-62.8C161.3-90.8,168.8-114.5,188-124.5z"/>
						</g>
					</g>
					<path class="st40" d="M178,26.9c-5.8,3-12,4.5-18.1,4.5c-14.2,0-27.8-7.7-34.8-21.1L73.4-88.9l36.2-61.7
						c6-10.2,6.8-22.1,3.3-32.5l81.9,157C204.7-6.9,197.2,16.8,178,26.9z"/>
				</g>
			</g>
			<g>
				<g>
					<g>
						<g>
							<path class="st40" d="M1434,37.8c4.4-2.3,8.9-3.6,13.5-4.2c0.8-0.1,1.5-0.1,2.3-0.2c0.7,0,1.5-0.1,2.2-0.1c0.2,0,0.3,0,0.5,0
								c0.8,0,1.5,0,2.3,0.1c0.8,0.1,1.6,0.1,2.3,0.2c1.7,0.2,3.4,0.5,5,1c0.9,0.3,1.9,0.6,2.8,0.9c9.2,3.1,17.2,9.6,22.1,18.9
								l9.9,19l32.8,62.9c6.5,12.5,5.6,26.9-1.1,38.2c-0.5,0.8-0.9,1.5-1.4,2.3c-1,1.4-2.1,2.8-3.3,4.1c-0.6,0.7-1.2,1.3-1.9,1.9
								c-0.6,0.6-1.3,1.2-2,1.7c-0.1,0.1-0.2,0.2-0.3,0.2c-0.5,0.5-1,0.9-1.6,1.2c-0.4,0.3-0.7,0.6-1.1,0.8
								c-0.4,0.3-0.8,0.6-1.2,0.8c-0.2,0.1-0.4,0.2-0.6,0.4c-0.6,0.4-1.3,0.8-1.9,1.1c0,0-0.1,0.1-0.2,0.1c-0.1,0-0.1,0-0.2,0.1
								c-0.7,0.4-1.4,0.7-2,1c-0.6,0.3-1.1,0.5-1.7,0.7c-0.4,0.2-0.9,0.4-1.4,0.5c-0.3,0.1-0.6,0.2-0.9,0.3
								c-0.4,0.1-0.8,0.2-1.1,0.3c-0.4,0.2-0.9,0.3-1.3,0.4c-3.1,0.8-6.4,1.2-9.5,1.2c-1.7,0-3.4-0.1-5.1-0.3c0,0-0.1,0-0.2,0
								c-0.9-0.1-1.7-0.3-2.6-0.5c-2.5-0.5-4.9-1.2-7.2-2.2c-0.4-0.2-0.7-0.3-1-0.5c-0.6-0.2-1.1-0.5-1.7-0.8
								c-0.8-0.4-1.5-0.8-2.3-1.3c-0.8-0.5-1.5-0.9-2.3-1.4c-1.4-1-2.8-2.1-4.1-3.3c-0.7-0.6-1.3-1.2-1.9-1.9
								c-0.6-0.6-1.2-1.3-1.7-2c-0.1-0.1-0.2-0.2-0.3-0.3c-0.4-0.5-0.8-1-1.2-1.6c-0.3-0.4-0.6-0.7-0.8-1.1
								c-0.3-0.4-0.6-0.8-0.8-1.2c-0.1-0.2-0.3-0.4-0.4-0.6c-0.4-0.6-0.8-1.3-1.1-1.9c0,0-0.1-0.1-0.1-0.2l-0.6-1.1l-9.4-18
								l-32.7-62.8C1407.4,71.5,1414.8,47.8,1434,37.8z"/>
						</g>
					</g>
					<path class="st40" d="M1424,189.2c-5.8,3-12,4.5-18.1,4.5c-14.2,0-27.8-7.7-34.8-21.1l-51.7-99.1l36.2-61.7
						c6-10.2,6.8-22.1,3.3-32.5l81.9,157C1450.7,155.4,1443.3,179.1,1424,189.2z"/>
					<path class="st40" d="M1197.3,10l32.8,62.9l-58.6,101.4c-7.3,12.5-20.4,19.4-33.9,19.4c-6.7,0-13.6-1.7-19.8-5.4
						c-18.7-10.9-25-35-14-53.7L1198.3-28c0-0.1,0.1-0.1,0.1-0.2C1191.7-16.9,1190.8-2.5,1197.3,10z"/>
					<g>
						<g>
							<path class="st40" d="M1293,108.6c-4.4,2.3-8.9,3.6-13.5,4.2c-0.8,0.1-1.5,0.1-2.3,0.2c-0.7,0-1.5,0.1-2.2,0.1
								c-0.2,0-0.3,0-0.5,0c-0.8,0-1.5,0-2.3-0.1c-0.8-0.1-1.6-0.1-2.3-0.2c-1.7-0.2-3.4-0.5-5-1c-0.9-0.3-1.9-0.6-2.8-0.9
								c-9.2-3.1-17.2-9.6-22.1-18.9l-9.9-19L1197.3,10c-6.5-12.5-5.6-26.9,1.1-38.2c0.5-0.8,0.9-1.5,1.4-2.3c1-1.4,2.1-2.8,3.3-4.1
								c0.6-0.7,1.2-1.3,1.9-1.9c0.6-0.6,1.3-1.2,2-1.7c0.1-0.1,0.2-0.2,0.3-0.2c0.5-0.5,1-0.9,1.6-1.2c0.4-0.3,0.7-0.6,1.1-0.8
								c0.4-0.3,0.8-0.6,1.2-0.8c0.2-0.1,0.4-0.2,0.6-0.4c0.6-0.4,1.3-0.8,1.9-1.1c0,0,0.1-0.1,0.2-0.1c0.1,0,0.1,0,0.2-0.1
								c0.7-0.4,1.4-0.7,2-1c0.6-0.3,1.1-0.5,1.7-0.7c0.4-0.2,0.9-0.4,1.4-0.5c0.3-0.1,0.6-0.2,0.9-0.3c0.4-0.1,0.8-0.2,1.1-0.3
								c0.4-0.2,0.9-0.3,1.3-0.4c3.1-0.8,6.4-1.2,9.5-1.2c1.7,0,3.4,0.1,5.1,0.3c0,0,0.1,0,0.2,0c0.9,0.1,1.7,0.3,2.6,0.5
								c2.5,0.5,4.9,1.2,7.2,2.2c0.4,0.2,0.7,0.3,1,0.5c0.6,0.2,1.1,0.5,1.7,0.8c0.8,0.4,1.5,0.8,2.3,1.3c0.8,0.5,1.5,0.9,2.3,1.4
								c1.4,1,2.8,2.1,4.1,3.3c0.7,0.6,1.3,1.2,1.9,1.9c0.6,0.6,1.2,1.3,1.7,2c0.1,0.1,0.2,0.2,0.3,0.3c0.4,0.5,0.8,1,1.2,1.6
								c0.3,0.4,0.6,0.7,0.8,1.1c0.3,0.4,0.6,0.8,0.8,1.2c0.1,0.2,0.3,0.4,0.4,0.6c0.4,0.6,0.8,1.3,1.1,1.9c0,0,0.1,0.1,0.1,0.2
								l0.6,1.1l9.4,18l32.7,62.8C1319.7,74.8,1312.3,98.6,1293,108.6z"/>
						</g>
					</g>
					<path class="st40" d="M1355.5,11.7l-36.2,61.7l-33-63.4c-5.5-10.6-5.7-22.6-1.6-32.8c0,0,0,0,0,0l3-5.2
						c6.9-11.7,18.8-18.5,31.4-19.3c0.7,0,1.5-0.1,2.2-0.1c14.1,0.1,27.6,7.8,34.6,21.1l2.8,5.5l0,0
						C1362.4-10.4,1361.5,1.4,1355.5,11.7z"/>
				</g>
				<g>
					<g>
						<g>
							<path class="st40" d="M1076.6,37.8c4.4-2.3,8.9-3.6,13.5-4.2c0.8-0.1,1.5-0.1,2.3-0.2c0.7,0,1.5-0.1,2.2-0.1
								c0.2,0,0.3,0,0.5,0c0.8,0,1.5,0,2.3,0.1c0.8,0.1,1.6,0.1,2.3,0.2c1.7,0.2,3.4,0.5,5,1c0.9,0.3,1.9,0.6,2.8,0.9
								c9.2,3.1,17.2,9.6,22.1,18.9l9.9,19l32.8,62.9c6.5,12.5,5.6,26.9-1.1,38.2c-0.5,0.8-0.9,1.5-1.4,2.3c-1,1.4-2.1,2.8-3.3,4.1
								c-0.6,0.7-1.2,1.3-1.9,1.9c-0.6,0.6-1.3,1.2-2,1.7c-0.1,0.1-0.2,0.2-0.3,0.2c-0.5,0.5-1,0.9-1.6,1.2
								c-0.4,0.3-0.7,0.6-1.1,0.8c-0.4,0.3-0.8,0.6-1.2,0.8c-0.2,0.1-0.4,0.2-0.6,0.4c-0.6,0.4-1.3,0.8-1.9,1.1c0,0-0.1,0.1-0.2,0.1
								c-0.1,0-0.1,0-0.2,0.1c-0.7,0.4-1.4,0.7-2,1c-0.6,0.3-1.1,0.5-1.7,0.7c-0.4,0.2-0.9,0.4-1.4,0.5c-0.3,0.1-0.6,0.2-0.9,0.3
								c-0.4,0.1-0.8,0.2-1.1,0.3c-0.4,0.2-0.9,0.3-1.3,0.4c-3.1,0.8-6.4,1.2-9.5,1.2c-1.7,0-3.4-0.1-5.1-0.3c0,0-0.1,0-0.2,0
								c-0.9-0.1-1.7-0.3-2.6-0.5c-2.5-0.5-4.9-1.2-7.2-2.2c-0.4-0.2-0.7-0.3-1-0.5c-0.6-0.2-1.1-0.5-1.7-0.8
								c-0.8-0.4-1.5-0.8-2.3-1.3c-0.8-0.5-1.5-0.9-2.3-1.4c-1.4-1-2.8-2.1-4.1-3.3c-0.7-0.6-1.3-1.2-1.9-1.9
								c-0.6-0.6-1.2-1.3-1.7-2c-0.1-0.1-0.2-0.2-0.3-0.3c-0.4-0.5-0.8-1-1.2-1.6c-0.3-0.4-0.6-0.7-0.8-1.1
								c-0.3-0.4-0.6-0.8-0.8-1.2c-0.1-0.2-0.3-0.4-0.4-0.6c-0.4-0.6-0.8-1.3-1.1-1.9c0,0-0.1-0.1-0.1-0.2l-0.6-1.1l-9.4-18
								L1060,90.7C1049.9,71.5,1057.4,47.8,1076.6,37.8z"/>
						</g>
					</g>
					<path class="st40" d="M1066.6,189.2c-5.8,3-12,4.5-18.1,4.5c-14.2,0-27.8-7.7-34.8-21.1l-51.7-99.1l36.2-61.7
						c6-10.2,6.8-22.1,3.3-32.5l81.9,157C1093.3,155.4,1085.8,179.1,1066.6,189.2z"/>
					<path class="st40" d="M839.9,10l32.8,62.9l-58.6,101.4c-7.3,12.5-20.4,19.4-33.9,19.4c-6.7,0-13.6-1.7-19.8-5.4
						c-18.7-10.9-25-35-14-53.7L840.8-28c0-0.1,0.1-0.1,0.1-0.2C834.3-16.9,833.4-2.5,839.9,10z"/>
					<g>
						<g>
							<path class="st40" d="M935.6,108.6c-4.4,2.3-8.9,3.6-13.5,4.2c-0.8,0.1-1.5,0.1-2.3,0.2c-0.7,0-1.5,0.1-2.2,0.1
								c-0.2,0-0.3,0-0.5,0c-0.8,0-1.5,0-2.3-0.1c-0.8-0.1-1.6-0.1-2.3-0.2c-1.7-0.2-3.4-0.5-5-1c-0.9-0.3-1.9-0.6-2.8-0.9
								c-9.2-3.1-17.2-9.6-22.1-18.9l-9.9-19L839.9,10c-6.5-12.5-5.6-26.9,1.1-38.2c0.5-0.8,0.9-1.5,1.4-2.3c1-1.4,2.1-2.8,3.3-4.1
								c0.6-0.7,1.2-1.3,1.9-1.9c0.6-0.6,1.3-1.2,2-1.7c0.1-0.1,0.2-0.2,0.3-0.2c0.5-0.5,1-0.9,1.6-1.2c0.4-0.3,0.7-0.6,1.1-0.8
								c0.4-0.3,0.8-0.6,1.2-0.8c0.2-0.1,0.4-0.2,0.6-0.4c0.6-0.4,1.3-0.8,1.9-1.1c0,0,0.1-0.1,0.2-0.1c0.1,0,0.1,0,0.2-0.1
								c0.7-0.4,1.4-0.7,2-1c0.6-0.3,1.1-0.5,1.7-0.7c0.4-0.2,0.9-0.4,1.4-0.5c0.3-0.1,0.6-0.2,0.9-0.3c0.4-0.1,0.8-0.2,1.1-0.3
								c0.4-0.2,0.9-0.3,1.3-0.4c3.1-0.8,6.4-1.2,9.5-1.2c1.7,0,3.4,0.1,5.1,0.3c0,0,0.1,0,0.2,0c0.9,0.1,1.7,0.3,2.6,0.5
								c2.5,0.5,4.9,1.2,7.2,2.2c0.4,0.2,0.7,0.3,1,0.5c0.6,0.2,1.1,0.5,1.7,0.8c0.8,0.4,1.5,0.8,2.3,1.3c0.8,0.5,1.5,0.9,2.3,1.4
								c1.4,1,2.8,2.1,4.1,3.3c0.7,0.6,1.3,1.2,1.9,1.9c0.6,0.6,1.2,1.3,1.7,2c0.1,0.1,0.2,0.2,0.3,0.3c0.4,0.5,0.8,1,1.2,1.6
								c0.3,0.4,0.6,0.7,0.8,1.1c0.3,0.4,0.6,0.8,0.8,1.2c0.1,0.2,0.3,0.4,0.4,0.6c0.4,0.6,0.8,1.3,1.1,1.9c0,0,0.1,0.1,0.1,0.2
								l0.6,1.1l9.4,18l32.7,62.8C962.3,74.8,954.8,98.6,935.6,108.6z"/>
						</g>
					</g>
					<path class="st40" d="M998.1,11.7l-36.2,61.7l-33-63.4c-5.5-10.6-5.7-22.6-1.6-32.8c0,0,0,0,0,0l3-5.2
						c6.9-11.7,18.8-18.5,31.4-19.3c0.7,0,1.5-0.1,2.2-0.1c14.1,0.1,27.6,7.8,34.6,21.1l2.8,5.5l0,0
						C1004.9-10.4,1004.1,1.4,998.1,11.7z"/>
				</g>
				<g>
					<g>
						<g>
							<path class="st40" d="M719.3,37.8c4.4-2.3,8.9-3.6,13.5-4.2c0.8-0.1,1.5-0.1,2.3-0.2c0.7,0,1.5-0.1,2.2-0.1
								c0.2,0,0.3,0,0.5,0c0.8,0,1.5,0,2.3,0.1c0.8,0.1,1.6,0.1,2.3,0.2c1.7,0.2,3.4,0.5,5,1c0.9,0.3,1.9,0.6,2.8,0.9
								c9.2,3.1,17.2,9.6,22.1,18.9l9.9,19l32.8,62.9c6.5,12.5,5.6,26.9-1.1,38.2c-0.5,0.8-0.9,1.5-1.4,2.3c-1,1.4-2.1,2.8-3.3,4.1
								c-0.6,0.7-1.2,1.3-1.9,1.9c-0.6,0.6-1.3,1.2-2,1.7c-0.1,0.1-0.2,0.2-0.3,0.2c-0.5,0.5-1,0.9-1.6,1.2
								c-0.4,0.3-0.7,0.6-1.1,0.8c-0.4,0.3-0.8,0.6-1.2,0.8c-0.2,0.1-0.4,0.2-0.6,0.4c-0.6,0.4-1.3,0.8-1.9,1.1c0,0-0.1,0.1-0.2,0.1
								c-0.1,0-0.1,0-0.2,0.1c-0.7,0.4-1.4,0.7-2,1c-0.6,0.3-1.1,0.5-1.7,0.7c-0.4,0.2-0.9,0.4-1.4,0.5c-0.3,0.1-0.6,0.2-0.9,0.3
								c-0.4,0.1-0.8,0.2-1.1,0.3c-0.4,0.2-0.9,0.3-1.3,0.4c-3.1,0.8-6.4,1.2-9.5,1.2c-1.7,0-3.4-0.1-5.1-0.3c0,0-0.1,0-0.2,0
								c-0.9-0.1-1.7-0.3-2.6-0.5c-2.5-0.5-4.9-1.2-7.2-2.2c-0.4-0.2-0.7-0.3-1-0.5c-0.6-0.2-1.1-0.5-1.7-0.8
								c-0.8-0.4-1.5-0.8-2.3-1.3c-0.8-0.5-1.5-0.9-2.3-1.4c-1.4-1-2.8-2.1-4.1-3.3c-0.7-0.6-1.3-1.2-1.9-1.9
								c-0.6-0.6-1.2-1.3-1.7-2c-0.1-0.1-0.2-0.2-0.3-0.3c-0.4-0.5-0.8-1-1.2-1.6c-0.3-0.4-0.6-0.7-0.8-1.1
								c-0.3-0.4-0.6-0.8-0.8-1.2c-0.1-0.2-0.3-0.4-0.4-0.6c-0.4-0.6-0.8-1.3-1.1-1.9c0,0-0.1-0.1-0.1-0.2l-0.6-1.1l-9.4-18
								l-32.7-62.8C692.6,71.5,700.1,47.8,719.3,37.8z"/>
						</g>
					</g>
					<path class="st40" d="M709.3,189.2c-5.8,3-12,4.5-18.1,4.5c-14.2,0-27.8-7.7-34.8-21.1l-51.7-99.1l36.2-61.7
						c6-10.2,6.8-22.1,3.3-32.5l81.9,157C736,155.4,728.5,179.1,709.3,189.2z"/>
					<path class="st40" d="M482.6,10l32.8,62.9l-58.6,101.4c-7.3,12.5-20.4,19.4-33.9,19.4c-6.7,0-13.6-1.7-19.8-5.4
						c-18.7-10.9-25-35-14-53.7L483.5-28c0-0.1,0.1-0.1,0.1-0.2C477-16.9,476.1-2.5,482.6,10z"/>
					<g>
						<g>
							<path class="st40" d="M578.3,108.6c-4.4,2.3-8.9,3.6-13.5,4.2c-0.8,0.1-1.5,0.1-2.3,0.2c-0.7,0-1.5,0.1-2.2,0.1
								c-0.2,0-0.3,0-0.5,0c-0.8,0-1.5,0-2.3-0.1c-0.8-0.1-1.6-0.1-2.3-0.2c-1.7-0.2-3.4-0.5-5-1c-0.9-0.3-1.9-0.6-2.8-0.9
								c-9.2-3.1-17.2-9.6-22.1-18.9l-9.9-19L482.6,10c-6.5-12.5-5.6-26.9,1.1-38.2c0.5-0.8,0.9-1.5,1.4-2.3c1-1.4,2.1-2.8,3.3-4.1
								c0.6-0.7,1.2-1.3,1.9-1.9c0.6-0.6,1.3-1.2,2-1.7c0.1-0.1,0.2-0.2,0.3-0.2c0.5-0.5,1-0.9,1.6-1.2c0.4-0.3,0.7-0.6,1.1-0.8
								c0.4-0.3,0.8-0.6,1.2-0.8c0.2-0.1,0.4-0.2,0.6-0.4c0.6-0.4,1.3-0.8,1.9-1.1c0,0,0.1-0.1,0.2-0.1c0.1,0,0.1,0,0.2-0.1
								c0.7-0.4,1.4-0.7,2-1c0.6-0.3,1.1-0.5,1.7-0.7c0.4-0.2,0.9-0.4,1.4-0.5c0.3-0.1,0.6-0.2,0.9-0.3c0.4-0.1,0.8-0.2,1.1-0.3
								c0.4-0.2,0.9-0.3,1.3-0.4c3.1-0.8,6.4-1.2,9.5-1.2c1.7,0,3.4,0.1,5.1,0.3c0,0,0.1,0,0.2,0c0.9,0.1,1.7,0.3,2.6,0.5
								c2.5,0.5,4.9,1.2,7.2,2.2c0.4,0.2,0.7,0.3,1,0.5c0.6,0.2,1.1,0.5,1.7,0.8c0.8,0.4,1.5,0.8,2.3,1.3c0.8,0.5,1.5,0.9,2.3,1.4
								c1.4,1,2.8,2.1,4.1,3.3c0.7,0.6,1.3,1.2,1.9,1.9c0.6,0.6,1.2,1.3,1.7,2c0.1,0.1,0.2,0.2,0.3,0.3c0.4,0.5,0.8,1,1.2,1.6
								c0.3,0.4,0.6,0.7,0.8,1.1c0.3,0.4,0.6,0.8,0.8,1.2c0.1,0.2,0.3,0.4,0.4,0.6c0.4,0.6,0.8,1.3,1.1,1.9c0,0,0.1,0.1,0.1,0.2
								l0.6,1.1l9.4,18L595,55.6C605,74.8,597.5,98.6,578.3,108.6z"/>
						</g>
					</g>
					<path class="st40" d="M640.8,11.7l-36.2,61.7l-33-63.4c-5.5-10.6-5.7-22.6-1.6-32.8c0,0,0,0,0,0l3-5.2
						c6.9-11.7,18.8-18.5,31.4-19.3c0.7,0,1.5-0.1,2.2-0.1c14.1,0.1,27.6,7.8,34.6,21.1l2.8,5.5l0,0
						C647.6-10.4,646.8,1.4,640.8,11.7z"/>
				</g>
				<g>
					<g>
						<g>
							<path class="st40" d="M361.8,37.8c4.4-2.3,8.9-3.6,13.5-4.2c0.8-0.1,1.5-0.1,2.3-0.2c0.7,0,1.5-0.1,2.2-0.1
								c0.2,0,0.3,0,0.5,0c0.8,0,1.5,0,2.3,0.1c0.8,0.1,1.6,0.1,2.3,0.2c1.7,0.2,3.4,0.5,5,1c0.9,0.3,1.9,0.6,2.8,0.9
								c9.2,3.1,17.2,9.6,22.1,18.9l9.9,19l32.8,62.9c6.5,12.5,5.6,26.9-1.1,38.2c-0.5,0.8-0.9,1.5-1.4,2.3c-1,1.4-2.1,2.8-3.3,4.1
								c-0.6,0.7-1.2,1.3-1.9,1.9c-0.6,0.6-1.3,1.2-2,1.7c-0.1,0.1-0.2,0.2-0.3,0.2c-0.5,0.5-1,0.9-1.6,1.2
								c-0.4,0.3-0.7,0.6-1.1,0.8c-0.4,0.3-0.8,0.6-1.2,0.8c-0.2,0.1-0.4,0.2-0.6,0.4c-0.6,0.4-1.3,0.8-1.9,1.1c0,0-0.1,0.1-0.2,0.1
								c-0.1,0-0.1,0-0.2,0.1c-0.7,0.4-1.4,0.7-2,1c-0.6,0.3-1.1,0.5-1.7,0.7c-0.4,0.2-0.9,0.4-1.4,0.5c-0.3,0.1-0.6,0.2-0.9,0.3
								c-0.4,0.1-0.8,0.2-1.1,0.3c-0.4,0.2-0.9,0.3-1.3,0.4c-3.1,0.8-6.4,1.2-9.5,1.2c-1.7,0-3.4-0.1-5.1-0.3c0,0-0.1,0-0.2,0
								c-0.9-0.1-1.7-0.3-2.6-0.5c-2.5-0.5-4.9-1.2-7.2-2.2c-0.4-0.2-0.7-0.3-1-0.5c-0.6-0.2-1.1-0.5-1.7-0.8
								c-0.8-0.4-1.5-0.8-2.3-1.3c-0.8-0.5-1.5-0.9-2.3-1.4c-1.4-1-2.8-2.1-4.1-3.3c-0.7-0.6-1.3-1.2-1.9-1.9
								c-0.6-0.6-1.2-1.3-1.7-2c-0.1-0.1-0.2-0.2-0.3-0.3c-0.4-0.5-0.8-1-1.2-1.6c-0.3-0.4-0.6-0.7-0.8-1.1
								c-0.3-0.4-0.6-0.8-0.8-1.2c-0.1-0.2-0.3-0.4-0.4-0.6c-0.4-0.6-0.8-1.3-1.1-1.9c0,0-0.1-0.1-0.1-0.2l-0.6-1.1l-9.4-18
								l-32.7-62.8C335.1,71.5,342.5,47.8,361.8,37.8z"/>
						</g>
					</g>
					<path class="st40" d="M351.8,189.2c-5.8,3-12,4.5-18.1,4.5c-14.2,0-27.8-7.7-34.8-21.1l-51.7-99.1l36.2-61.7
						c6-10.2,6.8-22.1,3.3-32.5l81.9,157C378.4,155.4,371,179.1,351.8,189.2z"/>
					<path class="st40" d="M125.1,10l32.8,62.9L99.3,174.4c-7.3,12.5-20.4,19.4-33.9,19.4c-6.7,0-13.6-1.7-19.8-5.4
						c-18.7-10.9-25-35-14-53.7L126-28c0-0.1,0.1-0.1,0.1-0.2C119.4-16.9,118.5-2.5,125.1,10z"/>
					<g>
						<g>
							<path class="st40" d="M220.8,108.6c-4.4,2.3-8.9,3.6-13.5,4.2c-0.8,0.1-1.5,0.1-2.3,0.2c-0.7,0-1.5,0.1-2.2,0.1
								c-0.2,0-0.3,0-0.5,0c-0.8,0-1.5,0-2.3-0.1c-0.8-0.1-1.6-0.1-2.3-0.2c-1.7-0.2-3.4-0.5-5-1c-0.9-0.3-1.9-0.6-2.8-0.9
								c-9.2-3.1-17.2-9.6-22.1-18.9l-9.9-19L125.1,10c-6.5-12.5-5.6-26.9,1.1-38.2c0.5-0.8,0.9-1.5,1.4-2.3c1-1.4,2.1-2.8,3.3-4.1
								c0.6-0.7,1.2-1.3,1.9-1.9c0.6-0.6,1.3-1.2,2-1.7c0.1-0.1,0.2-0.2,0.3-0.2c0.5-0.5,1-0.9,1.6-1.2c0.4-0.3,0.7-0.6,1.1-0.8
								c0.4-0.3,0.8-0.6,1.2-0.8c0.2-0.1,0.4-0.2,0.6-0.4c0.6-0.4,1.3-0.8,1.9-1.1c0,0,0.1-0.1,0.2-0.1c0.1,0,0.1,0,0.2-0.1
								c0.7-0.4,1.4-0.7,2-1c0.6-0.3,1.1-0.5,1.7-0.7c0.4-0.2,0.9-0.4,1.4-0.5c0.3-0.1,0.6-0.2,0.9-0.3c0.4-0.1,0.8-0.2,1.1-0.3
								c0.4-0.2,0.9-0.3,1.3-0.4c3.1-0.8,6.4-1.2,9.5-1.2c1.7,0,3.4,0.1,5.1,0.3c0,0,0.1,0,0.2,0c0.9,0.1,1.7,0.3,2.6,0.5
								c2.5,0.5,4.9,1.2,7.2,2.2c0.4,0.2,0.7,0.3,1,0.5c0.6,0.2,1.1,0.5,1.7,0.8c0.8,0.4,1.5,0.8,2.3,1.3c0.8,0.5,1.5,0.9,2.3,1.4
								c1.4,1,2.8,2.1,4.1,3.3c0.7,0.6,1.3,1.2,1.9,1.9c0.6,0.6,1.2,1.3,1.7,2c0.1,0.1,0.2,0.2,0.3,0.3c0.4,0.5,0.8,1,1.2,1.6
								c0.3,0.4,0.6,0.7,0.8,1.1c0.3,0.4,0.6,0.8,0.8,1.2c0.1,0.2,0.3,0.4,0.4,0.6c0.4,0.6,0.8,1.3,1.1,1.9c0,0,0.1,0.1,0.1,0.2
								l0.6,1.1l9.4,18l32.7,62.8C247.4,74.8,240,98.6,220.8,108.6z"/>
						</g>
					</g>
					<path class="st40" d="M283.3,11.7l-36.2,61.7L214,10c-5.5-10.6-5.7-22.6-1.6-32.8c0,0,0,0,0,0l3-5.2
						c6.9-11.7,18.8-18.5,31.4-19.3c0.7,0,1.5-0.1,2.2-0.1c14.1,0.1,27.6,7.8,34.6,21.1l2.8,5.5l0,0
						C290.1-10.4,289.3,1.4,283.3,11.7z"/>
				</g>
				<g>
					<g>
						<g>
							<path class="st40" d="M4.4,37.8c4.4-2.3,8.9-3.6,13.5-4.2c0.8-0.1,1.5-0.1,2.3-0.2c0.7,0,1.5-0.1,2.2-0.1c0.2,0,0.3,0,0.5,0
								c0.8,0,1.5,0,2.3,0.1c0.8,0.1,1.6,0.1,2.3,0.2c1.7,0.2,3.4,0.5,5,1c0.9,0.3,1.9,0.6,2.8,0.9c9.2,3.1,17.2,9.6,22.1,18.9
								l9.9,19l32.8,62.9c6.5,12.5,5.6,26.9-1.1,38.2c-0.5,0.8-0.9,1.5-1.4,2.3c-1,1.4-2.1,2.8-3.3,4.1c-0.6,0.7-1.2,1.3-1.9,1.9
								c-0.6,0.6-1.3,1.2-2,1.7c-0.1,0.1-0.2,0.2-0.3,0.2c-0.5,0.5-1,0.9-1.6,1.2c-0.4,0.3-0.7,0.6-1.1,0.8
								c-0.4,0.3-0.8,0.6-1.2,0.8c-0.2,0.1-0.4,0.2-0.6,0.4c-0.6,0.4-1.3,0.8-1.9,1.1c0,0-0.1,0.1-0.2,0.1c-0.1,0-0.1,0-0.2,0.1
								c-0.7,0.4-1.4,0.7-2,1c-0.6,0.3-1.1,0.5-1.7,0.7c-0.4,0.2-0.9,0.4-1.4,0.5c-0.3,0.1-0.6,0.2-0.9,0.3
								c-0.4,0.1-0.8,0.2-1.1,0.3c-0.4,0.2-0.9,0.3-1.3,0.4c-3.1,0.8-6.4,1.2-9.5,1.2c-1.7,0-3.4-0.1-5.1-0.3c0,0-0.1,0-0.2,0
								c-0.9-0.1-1.7-0.3-2.6-0.5c-2.5-0.5-4.9-1.2-7.2-2.2c-0.4-0.2-0.7-0.3-1-0.5c-0.6-0.2-1.1-0.5-1.7-0.8
								c-0.8-0.4-1.5-0.8-2.3-1.3c-0.8-0.5-1.5-0.9-2.3-1.4c-1.4-1-2.8-2.1-4.1-3.3c-0.7-0.6-1.3-1.2-1.9-1.9
								c-0.6-0.6-1.2-1.3-1.7-2c-0.1-0.1-0.2-0.2-0.3-0.3c-0.4-0.5-0.8-1-1.2-1.6c-0.3-0.4-0.6-0.7-0.8-1.1
								c-0.3-0.4-0.6-0.8-0.8-1.2c-0.1-0.2-0.3-0.4-0.4-0.6c-0.4-0.6-0.8-1.3-1.1-1.9c0,0-0.1-0.1-0.1-0.2l-0.6-1.1l-9.4-18
								l-32.7-62.8C-22.2,71.5-14.8,47.8,4.4,37.8z"/>
						</g>
					</g>
					<path class="st40" d="M-5.6,189.2c-5.8,3-12,4.5-18.1,4.5c-14.2,0-27.8-7.7-34.8-21.1l-51.7-99.1l36.2-61.7
						c6-10.2,6.8-22.1,3.3-32.5l81.9,157C21.1,155.4,13.7,179.1-5.6,189.2z"/>
				</g>
			</g>
			<g>
				<g>
					<path class="st40" d="M1370.8,172.1l32.8,62.9l-58.6,101.4c-7.3,12.5-20.4,19.4-33.9,19.4c-6.7,0-13.6-1.7-19.8-5.4
						c-18.7-10.9-25-35-14-53.7l94.4-162.7c0-0.1,0.1-0.1,0.1-0.2C1365.2,145.2,1364.3,159.6,1370.8,172.1z"/>
					<g>
						<g>
							<path class="st40" d="M1466.5,270.7c-4.4,2.3-8.9,3.6-13.5,4.2c-0.8,0.1-1.5,0.1-2.3,0.2c-0.7,0-1.5,0.1-2.2,0.1
								c-0.2,0-0.3,0-0.5,0c-0.8,0-1.5,0-2.3-0.1c-0.8-0.1-1.6-0.1-2.3-0.2c-1.7-0.2-3.4-0.5-5-1c-0.9-0.3-1.9-0.6-2.8-0.9
								c-9.2-3.1-17.2-9.6-22.1-18.9l-9.9-19l-32.8-62.9c-6.5-12.5-5.6-26.9,1.1-38.2c0.5-0.8,0.9-1.5,1.4-2.3
								c1-1.4,2.1-2.8,3.3-4.1c0.6-0.7,1.2-1.3,1.9-1.9c0.6-0.6,1.3-1.2,2-1.7c0.1-0.1,0.2-0.2,0.3-0.2c0.5-0.5,1-0.9,1.6-1.2
								c0.4-0.3,0.7-0.6,1.1-0.8c0.4-0.3,0.8-0.6,1.2-0.8c0.2-0.1,0.4-0.2,0.6-0.4c0.6-0.4,1.3-0.8,1.9-1.1c0,0,0.1-0.1,0.2-0.1
								c0.1,0,0.1,0,0.2-0.1c0.7-0.4,1.4-0.7,2-1c0.6-0.3,1.1-0.5,1.7-0.7c0.4-0.2,0.9-0.4,1.4-0.5c0.3-0.1,0.6-0.2,0.9-0.3
								c0.4-0.1,0.8-0.2,1.1-0.3c0.4-0.2,0.9-0.3,1.3-0.4c3.1-0.8,6.4-1.2,9.5-1.2c1.7,0,3.4,0.1,5.1,0.3c0,0,0.1,0,0.2,0
								c0.9,0.1,1.7,0.3,2.6,0.5c2.5,0.5,4.9,1.2,7.2,2.2c0.4,0.2,0.7,0.3,1,0.5c0.6,0.2,1.1,0.5,1.7,0.8c0.8,0.4,1.5,0.8,2.3,1.3
								c0.8,0.5,1.5,0.9,2.3,1.4c1.4,1,2.8,2.1,4.1,3.3c0.7,0.6,1.3,1.2,1.9,1.9c0.6,0.6,1.2,1.3,1.7,2c0.1,0.1,0.2,0.2,0.3,0.3
								c0.4,0.5,0.8,1,1.2,1.6c0.3,0.4,0.6,0.7,0.8,1.1c0.3,0.4,0.6,0.8,0.8,1.2c0.1,0.2,0.3,0.4,0.4,0.6c0.4,0.6,0.8,1.3,1.1,1.9
								c0,0,0.1,0.1,0.1,0.2l0.6,1.1l9.4,18l32.7,62.8C1493.2,237,1485.8,260.7,1466.5,270.7z"/>
						</g>
					</g>
					<path class="st40" d="M1529,173.8l-36.2,61.7l-33-63.4c-5.5-10.6-5.7-22.6-1.6-32.8c0,0,0,0,0,0l3-5.2
						c6.9-11.7,18.8-18.5,31.4-19.3c0.7,0,1.5-0.1,2.2-0.1c14.1,0.1,27.6,7.8,34.6,21.1l2.8,5.5l0,0
						C1535.9,151.7,1535,163.6,1529,173.8z"/>
				</g>
				<g>
					<g>
						<g>
							<path class="st40" d="M1250.1,199.9c4.4-2.3,8.9-3.6,13.5-4.2c0.8-0.1,1.5-0.1,2.3-0.2c0.7,0,1.5-0.1,2.2-0.1
								c0.2,0,0.3,0,0.5,0c0.8,0,1.5,0,2.3,0.1c0.8,0.1,1.6,0.1,2.3,0.2c1.7,0.2,3.4,0.5,5,1c0.9,0.3,1.9,0.6,2.8,0.9
								c9.2,3.1,17.2,9.6,22.1,18.9l9.9,19l32.8,62.9c6.5,12.5,5.6,26.9-1.1,38.2c-0.5,0.8-0.9,1.5-1.4,2.3c-1,1.4-2.1,2.8-3.3,4.1
								c-0.6,0.7-1.2,1.3-1.9,1.9c-0.6,0.6-1.3,1.2-2,1.7c-0.1,0.1-0.2,0.2-0.3,0.2c-0.5,0.5-1,0.9-1.6,1.2
								c-0.4,0.3-0.7,0.6-1.1,0.8c-0.4,0.3-0.8,0.6-1.2,0.8c-0.2,0.1-0.4,0.2-0.6,0.4c-0.6,0.4-1.3,0.8-1.9,1.1c0,0-0.1,0.1-0.2,0.1
								c-0.1,0-0.1,0-0.2,0.1c-0.7,0.4-1.4,0.7-2,1c-0.6,0.3-1.1,0.5-1.7,0.7c-0.4,0.2-0.9,0.4-1.4,0.5c-0.3,0.1-0.6,0.2-0.9,0.3
								c-0.4,0.1-0.8,0.2-1.1,0.3c-0.4,0.2-0.9,0.3-1.3,0.4c-3.1,0.8-6.4,1.2-9.5,1.2c-1.7,0-3.4-0.1-5.1-0.3c0,0-0.1,0-0.2,0
								c-0.9-0.1-1.7-0.3-2.6-0.5c-2.5-0.5-4.9-1.2-7.2-2.2c-0.4-0.2-0.7-0.3-1-0.5c-0.6-0.2-1.1-0.5-1.7-0.8
								c-0.8-0.4-1.5-0.8-2.3-1.3c-0.8-0.5-1.5-0.9-2.3-1.4c-1.4-1-2.8-2.1-4.1-3.3c-0.7-0.6-1.3-1.2-1.9-1.9
								c-0.6-0.6-1.2-1.3-1.7-2c-0.1-0.1-0.2-0.2-0.3-0.3c-0.4-0.5-0.8-1-1.2-1.6c-0.3-0.4-0.6-0.7-0.8-1.1
								c-0.3-0.4-0.6-0.8-0.8-1.2c-0.1-0.2-0.3-0.4-0.4-0.6c-0.4-0.6-0.8-1.3-1.1-1.9c0,0-0.1-0.1-0.1-0.2l-0.6-1.1l-9.4-18
								l-32.7-62.8C1223.4,233.7,1230.9,209.9,1250.1,199.9z"/>
						</g>
					</g>
					<path class="st40" d="M1240.1,351.3c-5.8,3-12,4.5-18.1,4.5c-14.2,0-27.8-7.7-34.8-21.1l-51.7-99.1l36.2-61.7
						c6-10.2,6.8-22.1,3.3-32.5l81.9,157C1266.8,317.6,1259.3,341.3,1240.1,351.3z"/>
					<path class="st40" d="M1013.4,172.1l32.8,62.9l-58.6,101.4c-7.3,12.5-20.4,19.4-33.9,19.4c-6.7,0-13.6-1.7-19.8-5.4
						c-18.7-10.9-25-35-14-53.7l94.4-162.7c0-0.1,0.1-0.1,0.1-0.2C1007.8,145.2,1006.9,159.6,1013.4,172.1z"/>
					<g>
						<g>
							<path class="st40" d="M1109.1,270.7c-4.4,2.3-8.9,3.6-13.5,4.2c-0.8,0.1-1.5,0.1-2.3,0.2c-0.7,0-1.5,0.1-2.2,0.1
								c-0.2,0-0.3,0-0.5,0c-0.8,0-1.5,0-2.3-0.1c-0.8-0.1-1.6-0.1-2.3-0.2c-1.7-0.2-3.4-0.5-5-1c-0.9-0.3-1.9-0.6-2.8-0.9
								c-9.2-3.1-17.2-9.6-22.1-18.9l-9.9-19l-32.8-62.9c-6.5-12.5-5.6-26.9,1.1-38.2c0.5-0.8,0.9-1.5,1.4-2.3
								c1-1.4,2.1-2.8,3.3-4.1c0.6-0.7,1.2-1.3,1.9-1.9c0.6-0.6,1.3-1.2,2-1.7c0.1-0.1,0.2-0.2,0.3-0.2c0.5-0.5,1-0.9,1.6-1.2
								c0.4-0.3,0.7-0.6,1.1-0.8c0.4-0.3,0.8-0.6,1.2-0.8c0.2-0.1,0.4-0.2,0.6-0.4c0.6-0.4,1.3-0.8,1.9-1.1c0,0,0.1-0.1,0.2-0.1
								c0.1,0,0.1,0,0.2-0.1c0.7-0.4,1.4-0.7,2-1c0.6-0.3,1.1-0.5,1.7-0.7c0.4-0.2,0.9-0.4,1.4-0.5c0.3-0.1,0.6-0.2,0.9-0.3
								c0.4-0.1,0.8-0.2,1.1-0.3c0.4-0.2,0.9-0.3,1.3-0.4c3.1-0.8,6.4-1.2,9.5-1.2c1.7,0,3.4,0.1,5.1,0.3c0,0,0.1,0,0.2,0
								c0.9,0.1,1.7,0.3,2.6,0.5c2.5,0.5,4.9,1.2,7.2,2.2c0.4,0.2,0.7,0.3,1,0.5c0.6,0.2,1.1,0.5,1.7,0.8c0.8,0.4,1.5,0.8,2.3,1.3
								c0.8,0.5,1.5,0.9,2.3,1.4c1.4,1,2.8,2.1,4.1,3.3c0.7,0.6,1.3,1.2,1.9,1.9c0.6,0.6,1.2,1.3,1.7,2c0.1,0.1,0.2,0.2,0.3,0.3
								c0.4,0.5,0.8,1,1.2,1.6c0.3,0.4,0.6,0.7,0.8,1.1c0.3,0.4,0.6,0.8,0.8,1.2c0.1,0.2,0.3,0.4,0.4,0.6c0.4,0.6,0.8,1.3,1.1,1.9
								c0,0,0.1,0.1,0.1,0.2l0.6,1.1l9.4,18l32.7,62.8C1135.8,237,1128.3,260.7,1109.1,270.7z"/>
						</g>
					</g>
					<path class="st40" d="M1171.6,173.8l-36.2,61.7l-33-63.4c-5.5-10.6-5.7-22.6-1.6-32.8c0,0,0,0,0,0l3-5.2
						c6.9-11.7,18.8-18.5,31.4-19.3c0.7,0,1.5-0.1,2.2-0.1c14.1,0.1,27.6,7.8,34.6,21.1l2.8,5.5l0,0
						C1178.4,151.7,1177.6,163.6,1171.6,173.8z"/>
				</g>
				<g>
					<g>
						<g>
							<path class="st40" d="M892.8,199.9c4.4-2.3,8.9-3.6,13.5-4.2c0.8-0.1,1.5-0.1,2.3-0.2c0.7,0,1.5-0.1,2.2-0.1
								c0.2,0,0.3,0,0.5,0c0.8,0,1.5,0,2.3,0.1c0.8,0.1,1.6,0.1,2.3,0.2c1.7,0.2,3.4,0.5,5,1c0.9,0.3,1.9,0.6,2.8,0.9
								c9.2,3.1,17.2,9.6,22.1,18.9l9.9,19l32.8,62.9c6.5,12.5,5.6,26.9-1.1,38.2c-0.5,0.8-0.9,1.5-1.4,2.3c-1,1.4-2.1,2.8-3.3,4.1
								c-0.6,0.7-1.2,1.3-1.9,1.9c-0.6,0.6-1.3,1.2-2,1.7c-0.1,0.1-0.2,0.2-0.3,0.2c-0.5,0.5-1,0.9-1.6,1.2
								c-0.4,0.3-0.7,0.6-1.1,0.8c-0.4,0.3-0.8,0.6-1.2,0.8c-0.2,0.1-0.4,0.2-0.6,0.4c-0.6,0.4-1.3,0.8-1.9,1.1c0,0-0.1,0.1-0.2,0.1
								c-0.1,0-0.1,0-0.2,0.1c-0.7,0.4-1.4,0.7-2,1c-0.6,0.3-1.1,0.5-1.7,0.7c-0.4,0.2-0.9,0.4-1.4,0.5c-0.3,0.1-0.6,0.2-0.9,0.3
								c-0.4,0.1-0.8,0.2-1.1,0.3c-0.4,0.2-0.9,0.3-1.3,0.4c-3.1,0.8-6.4,1.2-9.5,1.2c-1.7,0-3.4-0.1-5.1-0.3c0,0-0.1,0-0.2,0
								c-0.9-0.1-1.7-0.3-2.6-0.5c-2.5-0.5-4.9-1.2-7.2-2.2c-0.4-0.2-0.7-0.3-1-0.5c-0.6-0.2-1.1-0.5-1.7-0.8
								c-0.8-0.4-1.5-0.8-2.3-1.3c-0.8-0.5-1.5-0.9-2.3-1.4c-1.4-1-2.8-2.1-4.1-3.3c-0.7-0.6-1.3-1.2-1.9-1.9
								c-0.6-0.6-1.2-1.3-1.7-2c-0.1-0.1-0.2-0.2-0.3-0.3c-0.4-0.5-0.8-1-1.2-1.6c-0.3-0.4-0.6-0.7-0.8-1.1
								c-0.3-0.4-0.6-0.8-0.8-1.2c-0.1-0.2-0.3-0.4-0.4-0.6c-0.4-0.6-0.8-1.3-1.1-1.9c0,0-0.1-0.1-0.1-0.2l-0.6-1.1l-9.4-18
								l-32.7-62.8C866.1,233.7,873.6,209.9,892.8,199.9z"/>
						</g>
					</g>
					<path class="st40" d="M882.8,351.3c-5.8,3-12,4.5-18.1,4.5c-14.2,0-27.8-7.7-34.8-21.1l-51.7-99.1l36.2-61.7
						c6-10.2,6.8-22.1,3.3-32.5l81.9,157C909.5,317.6,902,341.3,882.8,351.3z"/>
					<path class="st40" d="M656.1,172.1l32.8,62.9l-58.6,101.4c-7.3,12.5-20.4,19.4-33.9,19.4c-6.7,0-13.6-1.7-19.8-5.4
						c-18.7-10.9-25-35-14-53.7L657,134.1c0-0.1,0.1-0.1,0.1-0.2C650.5,145.2,649.6,159.6,656.1,172.1z"/>
					<g>
						<g>
							<path class="st40" d="M751.8,270.7c-4.4,2.3-8.9,3.6-13.5,4.2c-0.8,0.1-1.5,0.1-2.3,0.2c-0.7,0-1.5,0.1-2.2,0.1
								c-0.2,0-0.3,0-0.5,0c-0.8,0-1.5,0-2.3-0.1c-0.8-0.1-1.6-0.1-2.3-0.2c-1.7-0.2-3.4-0.5-5-1c-0.9-0.3-1.9-0.6-2.8-0.9
								c-9.2-3.1-17.2-9.6-22.1-18.9l-9.9-19l-32.8-62.9c-6.5-12.5-5.6-26.9,1.1-38.2c0.5-0.8,0.9-1.5,1.4-2.3
								c1-1.4,2.1-2.8,3.3-4.1c0.6-0.7,1.2-1.3,1.9-1.9c0.6-0.6,1.3-1.2,2-1.7c0.1-0.1,0.2-0.2,0.3-0.2c0.5-0.5,1-0.9,1.6-1.2
								c0.4-0.3,0.7-0.6,1.1-0.8c0.4-0.3,0.8-0.6,1.2-0.8c0.2-0.1,0.4-0.2,0.6-0.4c0.6-0.4,1.3-0.8,1.9-1.1c0,0,0.1-0.1,0.2-0.1
								c0.1,0,0.1,0,0.2-0.1c0.7-0.4,1.4-0.7,2-1c0.6-0.3,1.1-0.5,1.7-0.7c0.4-0.2,0.9-0.4,1.4-0.5c0.3-0.1,0.6-0.2,0.9-0.3
								c0.4-0.1,0.8-0.2,1.1-0.3c0.4-0.2,0.9-0.3,1.3-0.4c3.1-0.8,6.4-1.2,9.5-1.2c1.7,0,3.4,0.1,5.1,0.3c0,0,0.1,0,0.2,0
								c0.9,0.1,1.7,0.3,2.6,0.5c2.5,0.5,4.9,1.2,7.2,2.2c0.4,0.2,0.7,0.3,1,0.5c0.6,0.2,1.1,0.5,1.7,0.8c0.8,0.4,1.5,0.8,2.3,1.3
								c0.8,0.5,1.5,0.9,2.3,1.4c1.4,1,2.8,2.1,4.1,3.3c0.7,0.6,1.3,1.2,1.9,1.9c0.6,0.6,1.2,1.3,1.7,2c0.1,0.1,0.2,0.2,0.3,0.3
								c0.4,0.5,0.8,1,1.2,1.6c0.3,0.4,0.6,0.7,0.8,1.1c0.3,0.4,0.6,0.8,0.8,1.2c0.1,0.2,0.3,0.4,0.4,0.6c0.4,0.6,0.8,1.3,1.1,1.9
								c0,0,0.1,0.1,0.1,0.2l0.6,1.1l9.4,18l32.7,62.8C778.5,237,771,260.7,751.8,270.7z"/>
						</g>
					</g>
					<path class="st40" d="M814.3,173.8l-36.2,61.7l-33-63.4c-5.5-10.6-5.7-22.6-1.6-32.8c0,0,0,0,0,0l3-5.2
						c6.9-11.7,18.8-18.5,31.4-19.3c0.7,0,1.5-0.1,2.2-0.1c14.1,0.1,27.6,7.8,34.6,21.1l2.8,5.5l0,0
						C821.1,151.7,820.3,163.6,814.3,173.8z"/>
				</g>
				<g>
					<g>
						<g>
							<path class="st40" d="M535.2,199.9c4.4-2.3,8.9-3.6,13.5-4.2c0.8-0.1,1.5-0.1,2.3-0.2c0.7,0,1.5-0.1,2.2-0.1
								c0.2,0,0.3,0,0.5,0c0.8,0,1.5,0,2.3,0.1c0.8,0.1,1.6,0.1,2.3,0.2c1.7,0.2,3.4,0.5,5,1c0.9,0.3,1.9,0.6,2.8,0.9
								c9.2,3.1,17.2,9.6,22.1,18.9l9.9,19l32.8,62.9c6.5,12.5,5.6,26.9-1.1,38.2c-0.5,0.8-0.9,1.5-1.4,2.3c-1,1.4-2.1,2.8-3.3,4.1
								c-0.6,0.7-1.2,1.3-1.9,1.9c-0.6,0.6-1.3,1.2-2,1.7c-0.1,0.1-0.2,0.2-0.3,0.2c-0.5,0.5-1,0.9-1.6,1.2
								c-0.4,0.3-0.7,0.6-1.1,0.8c-0.4,0.3-0.8,0.6-1.2,0.8c-0.2,0.1-0.4,0.2-0.6,0.4c-0.6,0.4-1.3,0.8-1.9,1.1c0,0-0.1,0.1-0.2,0.1
								c-0.1,0-0.1,0-0.2,0.1c-0.7,0.4-1.4,0.7-2,1c-0.6,0.3-1.1,0.5-1.7,0.7c-0.4,0.2-0.9,0.4-1.4,0.5c-0.3,0.1-0.6,0.2-0.9,0.3
								c-0.4,0.1-0.8,0.2-1.1,0.3c-0.4,0.2-0.9,0.3-1.3,0.4c-3.1,0.8-6.4,1.2-9.5,1.2c-1.7,0-3.4-0.1-5.1-0.3c0,0-0.1,0-0.2,0
								c-0.9-0.1-1.7-0.3-2.6-0.5c-2.5-0.5-4.9-1.2-7.2-2.2c-0.4-0.2-0.7-0.3-1-0.5c-0.6-0.2-1.1-0.5-1.7-0.8
								c-0.8-0.4-1.5-0.8-2.3-1.3c-0.8-0.5-1.5-0.9-2.3-1.4c-1.4-1-2.8-2.1-4.1-3.3c-0.7-0.6-1.3-1.2-1.9-1.9
								c-0.6-0.6-1.2-1.3-1.7-2c-0.1-0.1-0.2-0.2-0.3-0.3c-0.4-0.5-0.8-1-1.2-1.6c-0.3-0.4-0.6-0.7-0.8-1.1
								c-0.3-0.4-0.6-0.8-0.8-1.2c-0.1-0.2-0.3-0.4-0.4-0.6c-0.4-0.6-0.8-1.3-1.1-1.9c0,0-0.1-0.1-0.1-0.2l-0.6-1.1l-9.4-18
								l-32.7-62.8C508.6,233.7,516,209.9,535.2,199.9z"/>
						</g>
					</g>
					<path class="st40" d="M525.3,351.3c-5.8,3-12,4.5-18.1,4.5c-14.2,0-27.8-7.7-34.8-21.1l-51.7-99.1l36.2-61.7
						c6-10.2,6.8-22.1,3.3-32.5l81.9,157C551.9,317.6,544.5,341.3,525.3,351.3z"/>
					<path class="st40" d="M298.6,172.1l32.8,62.9l-58.6,101.4c-7.3,12.5-20.4,19.4-33.9,19.4c-6.7,0-13.6-1.7-19.8-5.4
						c-18.7-10.9-25-35-14-53.7l94.4-162.7c0-0.1,0.1-0.1,0.1-0.2C292.9,145.2,292,159.6,298.6,172.1z"/>
					<g>
						<g>
							<path class="st40" d="M394.3,270.7c-4.4,2.3-8.9,3.6-13.5,4.2c-0.8,0.1-1.5,0.1-2.3,0.2c-0.7,0-1.5,0.1-2.2,0.1
								c-0.2,0-0.3,0-0.5,0c-0.8,0-1.5,0-2.3-0.1c-0.8-0.1-1.6-0.1-2.3-0.2c-1.7-0.2-3.4-0.5-5-1c-0.9-0.3-1.9-0.6-2.8-0.9
								c-9.2-3.1-17.2-9.6-22.1-18.9l-9.9-19l-32.8-62.9c-6.5-12.5-5.6-26.9,1.1-38.2c0.5-0.8,0.9-1.5,1.4-2.3
								c1-1.4,2.1-2.8,3.3-4.1c0.6-0.7,1.2-1.3,1.9-1.9c0.6-0.6,1.3-1.2,2-1.7c0.1-0.1,0.2-0.2,0.3-0.2c0.5-0.5,1-0.9,1.6-1.2
								c0.4-0.3,0.7-0.6,1.1-0.8c0.4-0.3,0.8-0.6,1.2-0.8c0.2-0.1,0.4-0.2,0.6-0.4c0.6-0.4,1.3-0.8,1.9-1.1c0,0,0.1-0.1,0.2-0.1
								c0.1,0,0.1,0,0.2-0.1c0.7-0.4,1.4-0.7,2-1c0.6-0.3,1.1-0.5,1.7-0.7c0.4-0.2,0.9-0.4,1.4-0.5c0.3-0.1,0.6-0.2,0.9-0.3
								c0.4-0.1,0.8-0.2,1.1-0.3c0.4-0.2,0.9-0.3,1.3-0.4c3.1-0.8,6.4-1.2,9.5-1.2c1.7,0,3.4,0.1,5.1,0.3c0,0,0.1,0,0.2,0
								c0.9,0.1,1.7,0.3,2.6,0.5c2.5,0.5,4.9,1.2,7.2,2.2c0.4,0.2,0.7,0.3,1,0.5c0.6,0.2,1.1,0.5,1.7,0.8c0.8,0.4,1.5,0.8,2.3,1.3
								c0.8,0.5,1.5,0.9,2.3,1.4c1.4,1,2.8,2.1,4.1,3.3c0.7,0.6,1.3,1.2,1.9,1.9c0.6,0.6,1.2,1.3,1.7,2c0.1,0.1,0.2,0.2,0.3,0.3
								c0.4,0.5,0.8,1,1.2,1.6c0.3,0.4,0.6,0.7,0.8,1.1c0.3,0.4,0.6,0.8,0.8,1.2c0.1,0.2,0.3,0.4,0.4,0.6c0.4,0.6,0.8,1.3,1.1,1.9
								c0,0,0.1,0.1,0.1,0.2l0.6,1.1l9.4,18l32.7,62.8C420.9,237,413.5,260.7,394.3,270.7z"/>
						</g>
					</g>
					<path class="st40" d="M456.8,173.8l-36.2,61.7l-33-63.4c-5.5-10.6-5.7-22.6-1.6-32.8c0,0,0,0,0,0l3-5.2
						c6.9-11.7,18.8-18.5,31.4-19.3c0.7,0,1.5-0.1,2.2-0.1c14.1,0.1,27.6,7.8,34.6,21.1l2.8,5.5l0,0
						C463.6,151.7,462.8,163.6,456.8,173.8z"/>
				</g>
				<g>
					<g>
						<g>
							<path class="st40" d="M177.9,199.9c4.4-2.3,8.9-3.6,13.5-4.2c0.8-0.1,1.5-0.1,2.3-0.2c0.7,0,1.5-0.1,2.2-0.1
								c0.2,0,0.3,0,0.5,0c0.8,0,1.5,0,2.3,0.1c0.8,0.1,1.6,0.1,2.3,0.2c1.7,0.2,3.4,0.5,5,1c0.9,0.3,1.9,0.6,2.8,0.9
								c9.2,3.1,17.2,9.6,22.1,18.9l9.9,19l32.8,62.9c6.5,12.5,5.6,26.9-1.1,38.2c-0.5,0.8-0.9,1.5-1.4,2.3c-1,1.4-2.1,2.8-3.3,4.1
								c-0.6,0.7-1.2,1.3-1.9,1.9c-0.6,0.6-1.3,1.2-2,1.7c-0.1,0.1-0.2,0.2-0.3,0.2c-0.5,0.5-1,0.9-1.6,1.2
								c-0.4,0.3-0.7,0.6-1.1,0.8c-0.4,0.3-0.8,0.6-1.2,0.8c-0.2,0.1-0.4,0.2-0.6,0.4c-0.6,0.4-1.3,0.8-1.9,1.1c0,0-0.1,0.1-0.2,0.1
								c-0.1,0-0.1,0-0.2,0.1c-0.7,0.4-1.4,0.7-2,1c-0.6,0.3-1.1,0.5-1.7,0.7c-0.4,0.2-0.9,0.4-1.4,0.5c-0.3,0.1-0.6,0.2-0.9,0.3
								c-0.4,0.1-0.8,0.2-1.1,0.3c-0.4,0.2-0.9,0.3-1.3,0.4c-3.1,0.8-6.4,1.2-9.5,1.2c-1.7,0-3.4-0.1-5.1-0.3c0,0-0.1,0-0.2,0
								c-0.9-0.1-1.7-0.3-2.6-0.5c-2.5-0.5-4.9-1.2-7.2-2.2c-0.4-0.2-0.7-0.3-1-0.5c-0.6-0.2-1.1-0.5-1.7-0.8
								c-0.8-0.4-1.5-0.8-2.3-1.3c-0.8-0.5-1.5-0.9-2.3-1.4c-1.4-1-2.8-2.1-4.1-3.3c-0.7-0.6-1.3-1.2-1.9-1.9
								c-0.6-0.6-1.2-1.3-1.7-2c-0.1-0.1-0.2-0.2-0.3-0.3c-0.4-0.5-0.8-1-1.2-1.6c-0.3-0.4-0.6-0.7-0.8-1.1
								c-0.3-0.4-0.6-0.8-0.8-1.2c-0.1-0.2-0.3-0.4-0.4-0.6c-0.4-0.6-0.8-1.3-1.1-1.9c0,0-0.1-0.1-0.1-0.2l-0.6-1.1l-9.4-18
								l-32.7-62.8C151.3,233.7,158.7,209.9,177.9,199.9z"/>
						</g>
					</g>
					<path class="st40" d="M167.9,351.3c-5.8,3-12,4.5-18.1,4.5c-14.2,0-27.8-7.7-34.8-21.1l-51.7-99.1l36.2-61.7
						c6-10.2,6.8-22.1,3.3-32.5l81.9,157C194.6,317.6,187.1,341.3,167.9,351.3z"/>
					<g>
						<g>
							<path class="st40" d="M36.9,270.7c-4.4,2.3-8.9,3.6-13.5,4.2c-0.8,0.1-1.5,0.1-2.3,0.2c-0.7,0-1.5,0.1-2.2,0.1
								c-0.2,0-0.3,0-0.5,0c-0.8,0-1.5,0-2.3-0.1c-0.8-0.1-1.6-0.1-2.3-0.2c-1.7-0.2-3.4-0.5-5-1C7.9,273.6,7,273.3,6,273
								c-9.2-3.1-17.2-9.6-22.1-18.9l-9.9-19l-32.8-62.9c-6.5-12.5-5.6-26.9,1.1-38.2c0.5-0.8,0.9-1.5,1.4-2.3
								c1-1.4,2.1-2.8,3.3-4.1c0.6-0.7,1.2-1.3,1.9-1.9c0.6-0.6,1.3-1.2,2-1.7c0.1-0.1,0.2-0.2,0.3-0.2c0.5-0.5,1-0.9,1.6-1.2
								c0.4-0.3,0.7-0.6,1.1-0.8c0.4-0.3,0.8-0.6,1.2-0.8c0.2-0.1,0.4-0.2,0.6-0.4c0.6-0.4,1.3-0.8,1.9-1.1c0,0,0.1-0.1,0.2-0.1
								c0.1,0,0.1,0,0.2-0.1c0.7-0.4,1.4-0.7,2-1c0.6-0.3,1.1-0.5,1.7-0.7c0.4-0.2,0.9-0.4,1.4-0.5c0.3-0.1,0.6-0.2,0.9-0.3
								c0.4-0.1,0.8-0.2,1.1-0.3c0.4-0.2,0.9-0.3,1.3-0.4c3.1-0.8,6.4-1.2,9.5-1.2c1.7,0,3.4,0.1,5.1,0.3c0,0,0.1,0,0.2,0
								c0.9,0.1,1.7,0.3,2.6,0.5c2.5,0.5,4.9,1.2,7.2,2.2c0.4,0.2,0.7,0.3,1,0.5c0.6,0.2,1.1,0.5,1.7,0.8c0.8,0.4,1.5,0.8,2.3,1.3
								c0.8,0.5,1.5,0.9,2.3,1.4c1.4,1,2.8,2.1,4.1,3.3c0.7,0.6,1.3,1.2,1.9,1.9c0.6,0.6,1.2,1.3,1.7,2c0.1,0.1,0.2,0.2,0.3,0.3
								c0.4,0.5,0.8,1,1.2,1.6c0.3,0.4,0.6,0.7,0.8,1.1c0.3,0.4,0.6,0.8,0.8,1.2c0.1,0.2,0.3,0.4,0.4,0.6c0.4,0.6,0.8,1.3,1.1,1.9
								c0,0,0.1,0.1,0.1,0.2l0.6,1.1l9.4,18l32.7,62.8C63.6,237,56.2,260.7,36.9,270.7z"/>
						</g>
					</g>
					<path class="st40" d="M99.4,173.8l-36.2,61.7l-33-63.4c-5.5-10.6-5.7-22.6-1.6-32.8c0,0,0,0,0,0l3-5.2
						c6.9-11.7,18.8-18.5,31.4-19.3c0.7,0,1.5-0.1,2.2-0.1c14.1,0.1,27.6,7.8,34.6,21.1l2.8,5.5l0,0
						C106.3,151.7,105.4,163.6,99.4,173.8z"/>
				</g>
			</g>
			<g>
				<g>
					<g>
						<g>
							<path class="st40" d="M1423.6,362.2c4.4-2.3,8.9-3.6,13.5-4.2c0.8-0.1,1.5-0.1,2.3-0.2c0.7,0,1.5-0.1,2.2-0.1
								c0.2,0,0.3,0,0.5,0c0.8,0,1.5,0,2.3,0.1c0.8,0.1,1.6,0.1,2.3,0.2c1.7,0.2,3.4,0.5,5,1c0.9,0.3,1.9,0.6,2.8,0.9
								c9.2,3.1,17.2,9.6,22.1,18.9l9.9,19l32.8,62.9c6.5,12.5,5.6,26.9-1.1,38.2c-0.5,0.8-0.9,1.5-1.4,2.3c-1,1.4-2.1,2.8-3.3,4.1
								c-0.6,0.7-1.2,1.3-1.9,1.9c-0.6,0.6-1.3,1.2-2,1.7c-0.1,0.1-0.2,0.2-0.3,0.2c-0.5,0.5-1,0.9-1.6,1.2
								c-0.4,0.3-0.7,0.6-1.1,0.8c-0.4,0.3-0.8,0.6-1.2,0.8c-0.2,0.1-0.4,0.2-0.6,0.4c-0.6,0.4-1.3,0.8-1.9,1.1c0,0-0.1,0.1-0.2,0.1
								c-0.1,0-0.1,0-0.2,0.1c-0.7,0.4-1.4,0.7-2,1c-0.6,0.3-1.1,0.5-1.7,0.7c-0.4,0.2-0.9,0.4-1.4,0.5c-0.3,0.1-0.6,0.2-0.9,0.3
								c-0.4,0.1-0.8,0.2-1.1,0.3c-0.4,0.2-0.9,0.3-1.3,0.4c-3.1,0.8-6.4,1.2-9.5,1.2c-1.7,0-3.4-0.1-5.1-0.3c0,0-0.1,0-0.2,0
								c-0.9-0.1-1.7-0.3-2.6-0.5c-2.5-0.5-4.9-1.2-7.2-2.2c-0.4-0.2-0.7-0.3-1-0.5c-0.6-0.2-1.1-0.5-1.7-0.8
								c-0.8-0.4-1.5-0.8-2.3-1.3c-0.8-0.5-1.5-0.9-2.3-1.4c-1.4-1-2.8-2.1-4.1-3.3c-0.7-0.6-1.3-1.2-1.9-1.9
								c-0.6-0.6-1.2-1.3-1.7-2c-0.1-0.1-0.2-0.2-0.3-0.3c-0.4-0.5-0.8-1-1.2-1.6c-0.3-0.4-0.6-0.7-0.8-1.1
								c-0.3-0.4-0.6-0.8-0.8-1.2c-0.1-0.2-0.3-0.4-0.4-0.6c-0.4-0.6-0.8-1.3-1.1-1.9c0,0-0.1-0.1-0.1-0.2l-0.6-1.1l-9.4-18
								l-32.7-62.8C1396.9,396,1404.4,372.2,1423.6,362.2z"/>
						</g>
					</g>
					<path class="st40" d="M1413.6,513.6c-5.8,3-12,4.5-18.1,4.5c-14.2,0-27.8-7.7-34.8-21.1l-51.7-99.1l36.2-61.7
						c6-10.2,6.8-22.1,3.3-32.5l81.9,157C1440.3,479.9,1432.8,503.6,1413.6,513.6z"/>
					<path class="st40" d="M1186.9,334.4l32.8,62.9l-58.6,101.4c-7.3,12.5-20.4,19.4-33.9,19.4c-6.7,0-13.6-1.7-19.8-5.4
						c-18.7-10.9-25-35-14-53.7l94.4-162.7c0-0.1,0.1-0.1,0.1-0.2C1181.3,307.5,1180.4,321.9,1186.9,334.4z"/>
					<g>
						<g>
							<path class="st40" d="M1282.6,433c-4.4,2.3-8.9,3.6-13.5,4.2c-0.8,0.1-1.5,0.1-2.3,0.2c-0.7,0-1.5,0.1-2.2,0.1
								c-0.2,0-0.3,0-0.5,0c-0.8,0-1.5,0-2.3-0.1c-0.8-0.1-1.6-0.1-2.3-0.2c-1.7-0.2-3.4-0.5-5-1c-0.9-0.3-1.9-0.6-2.8-0.9
								c-9.2-3.1-17.2-9.6-22.1-18.9l-9.9-19l-32.8-62.9c-6.5-12.5-5.6-26.9,1.1-38.2c0.5-0.8,0.9-1.5,1.4-2.3
								c1-1.4,2.1-2.8,3.3-4.1c0.6-0.7,1.2-1.3,1.9-1.9c0.6-0.6,1.3-1.2,2-1.7c0.1-0.1,0.2-0.2,0.3-0.2c0.5-0.5,1-0.9,1.6-1.2
								c0.4-0.3,0.7-0.6,1.1-0.8c0.4-0.3,0.8-0.6,1.2-0.8c0.2-0.1,0.4-0.2,0.6-0.4c0.6-0.4,1.3-0.8,1.9-1.1c0,0,0.1-0.1,0.2-0.1
								c0.1,0,0.1,0,0.2-0.1c0.7-0.4,1.4-0.7,2-1c0.6-0.3,1.1-0.5,1.7-0.7c0.4-0.2,0.9-0.4,1.4-0.5c0.3-0.1,0.6-0.2,0.9-0.3
								c0.4-0.1,0.8-0.2,1.1-0.3c0.4-0.2,0.9-0.3,1.3-0.4c3.1-0.8,6.4-1.2,9.5-1.2c1.7,0,3.4,0.1,5.1,0.3c0,0,0.1,0,0.2,0
								c0.9,0.1,1.7,0.3,2.6,0.5c2.5,0.5,4.9,1.2,7.2,2.2c0.4,0.2,0.7,0.3,1,0.5c0.6,0.2,1.1,0.5,1.7,0.8c0.8,0.4,1.5,0.8,2.3,1.3
								c0.8,0.5,1.5,0.9,2.3,1.4c1.4,1,2.8,2.1,4.1,3.3c0.7,0.6,1.3,1.2,1.9,1.9c0.6,0.6,1.2,1.3,1.7,2c0.1,0.1,0.2,0.2,0.3,0.3
								c0.4,0.5,0.8,1,1.2,1.6c0.3,0.4,0.6,0.7,0.8,1.1c0.3,0.4,0.6,0.8,0.8,1.2c0.1,0.2,0.3,0.4,0.4,0.6c0.4,0.6,0.8,1.3,1.1,1.9
								c0,0,0.1,0.1,0.1,0.2l0.6,1.1l9.4,18l32.7,62.8C1309.3,399.3,1301.8,423,1282.6,433z"/>
						</g>
					</g>
					<path class="st40" d="M1345.1,336.1l-36.2,61.7l-33-63.4c-5.5-10.6-5.7-22.6-1.6-32.8c0,0,0,0,0,0l3-5.2
						c6.9-11.7,18.8-18.5,31.4-19.3c0.7,0,1.5-0.1,2.2-0.1c14.1,0.1,27.6,7.8,34.6,21.1l2.8,5.5l0,0
						C1351.9,314.1,1351.1,325.9,1345.1,336.1z"/>
				</g>
				<g>
					<g>
						<g>
							<path class="st40" d="M1066.2,362.2c4.4-2.3,8.9-3.6,13.5-4.2c0.8-0.1,1.5-0.1,2.3-0.2c0.7,0,1.5-0.1,2.2-0.1
								c0.2,0,0.3,0,0.5,0c0.8,0,1.5,0,2.3,0.1c0.8,0.1,1.6,0.1,2.3,0.2c1.7,0.2,3.4,0.5,5,1c0.9,0.3,1.9,0.6,2.8,0.9
								c9.2,3.1,17.2,9.6,22.1,18.9l9.9,19l32.8,62.9c6.5,12.5,5.6,26.9-1.1,38.2c-0.5,0.8-0.9,1.5-1.4,2.3c-1,1.4-2.1,2.8-3.3,4.1
								c-0.6,0.7-1.2,1.3-1.9,1.9c-0.6,0.6-1.3,1.2-2,1.7c-0.1,0.1-0.2,0.2-0.3,0.2c-0.5,0.5-1,0.9-1.6,1.2
								c-0.4,0.3-0.7,0.6-1.1,0.8c-0.4,0.3-0.8,0.6-1.2,0.8c-0.2,0.1-0.4,0.2-0.6,0.4c-0.6,0.4-1.3,0.8-1.9,1.1c0,0-0.1,0.1-0.2,0.1
								c-0.1,0-0.1,0-0.2,0.1c-0.7,0.4-1.4,0.7-2,1c-0.6,0.3-1.1,0.5-1.7,0.7c-0.4,0.2-0.9,0.4-1.4,0.5c-0.3,0.1-0.6,0.2-0.9,0.3
								c-0.4,0.1-0.8,0.2-1.1,0.3c-0.4,0.2-0.9,0.3-1.3,0.4c-3.1,0.8-6.4,1.2-9.5,1.2c-1.7,0-3.4-0.1-5.1-0.3c0,0-0.1,0-0.2,0
								c-0.9-0.1-1.7-0.3-2.6-0.5c-2.5-0.5-4.9-1.2-7.2-2.2c-0.4-0.2-0.7-0.3-1-0.5c-0.6-0.2-1.1-0.5-1.7-0.8
								c-0.8-0.4-1.5-0.8-2.3-1.3c-0.8-0.5-1.5-0.9-2.3-1.4c-1.4-1-2.8-2.1-4.1-3.3c-0.7-0.6-1.3-1.2-1.9-1.9
								c-0.6-0.6-1.2-1.3-1.7-2c-0.1-0.1-0.2-0.2-0.3-0.3c-0.4-0.5-0.8-1-1.2-1.6c-0.3-0.4-0.6-0.7-0.8-1.1
								c-0.3-0.4-0.6-0.8-0.8-1.2c-0.1-0.2-0.3-0.4-0.4-0.6c-0.4-0.6-0.8-1.3-1.1-1.9c0,0-0.1-0.1-0.1-0.2l-0.6-1.1l-9.4-18
								l-32.7-62.8C1039.5,396,1046.9,372.2,1066.2,362.2z"/>
						</g>
					</g>
					<path class="st40" d="M1056.2,513.6c-5.8,3-12,4.5-18.1,4.5c-14.2,0-27.8-7.7-34.8-21.1l-51.7-99.1l36.2-61.7
						c6-10.2,6.8-22.1,3.3-32.5l81.9,157C1082.8,479.9,1075.4,503.6,1056.2,513.6z"/>
					<path class="st40" d="M829.5,334.4l32.8,62.9l-58.6,101.4c-7.3,12.5-20.4,19.4-33.9,19.4c-6.7,0-13.6-1.7-19.8-5.4
						c-18.7-10.9-25-35-14-53.7l94.4-162.7c0-0.1,0.1-0.1,0.1-0.2C823.8,307.5,822.9,321.9,829.5,334.4z"/>
					<g>
						<g>
							<path class="st40" d="M925.2,433c-4.4,2.3-8.9,3.6-13.5,4.2c-0.8,0.1-1.5,0.1-2.3,0.2c-0.7,0-1.5,0.1-2.2,0.1
								c-0.2,0-0.3,0-0.5,0c-0.8,0-1.5,0-2.3-0.1c-0.8-0.1-1.6-0.1-2.3-0.2c-1.7-0.2-3.4-0.5-5-1c-0.9-0.3-1.9-0.6-2.8-0.9
								c-9.2-3.1-17.2-9.6-22.1-18.9l-9.9-19l-32.8-62.9c-6.5-12.5-5.6-26.9,1.1-38.2c0.5-0.8,0.9-1.5,1.4-2.3
								c1-1.4,2.1-2.8,3.3-4.1c0.6-0.7,1.2-1.3,1.9-1.9c0.6-0.6,1.3-1.2,2-1.7c0.1-0.1,0.2-0.2,0.3-0.2c0.5-0.5,1-0.9,1.6-1.2
								c0.4-0.3,0.7-0.6,1.1-0.8c0.4-0.3,0.8-0.6,1.2-0.8c0.2-0.1,0.4-0.2,0.6-0.4c0.6-0.4,1.3-0.8,1.9-1.1c0,0,0.1-0.1,0.2-0.1
								c0.1,0,0.1,0,0.2-0.1c0.7-0.4,1.4-0.7,2-1c0.6-0.3,1.1-0.5,1.7-0.7c0.4-0.2,0.9-0.4,1.4-0.5c0.3-0.1,0.6-0.2,0.9-0.3
								c0.4-0.1,0.8-0.2,1.1-0.3c0.4-0.2,0.9-0.3,1.3-0.4c3.1-0.8,6.4-1.2,9.5-1.2c1.7,0,3.4,0.1,5.1,0.3c0,0,0.1,0,0.2,0
								c0.9,0.1,1.7,0.3,2.6,0.5c2.5,0.5,4.9,1.2,7.2,2.2c0.4,0.2,0.7,0.3,1,0.5c0.6,0.2,1.1,0.5,1.7,0.8c0.8,0.4,1.5,0.8,2.3,1.3
								c0.8,0.5,1.5,0.9,2.3,1.4c1.4,1,2.8,2.1,4.1,3.3c0.7,0.6,1.3,1.2,1.9,1.9c0.6,0.6,1.2,1.3,1.7,2c0.1,0.1,0.2,0.2,0.3,0.3
								c0.4,0.5,0.8,1,1.2,1.6c0.3,0.4,0.6,0.7,0.8,1.1c0.3,0.4,0.6,0.8,0.8,1.2c0.1,0.2,0.3,0.4,0.4,0.6c0.4,0.6,0.8,1.3,1.1,1.9
								c0,0,0.1,0.1,0.1,0.2l0.6,1.1l9.4,18l32.7,62.8C951.8,399.3,944.4,423,925.2,433z"/>
						</g>
					</g>
					<path class="st40" d="M987.7,336.1l-36.2,61.7l-33-63.4c-5.5-10.6-5.7-22.6-1.6-32.8c0,0,0,0,0,0l3-5.2
						c6.9-11.7,18.8-18.5,31.4-19.3c0.7,0,1.5-0.1,2.2-0.1c14.1,0.1,27.6,7.8,34.6,21.1l2.8,5.5l0,0
						C994.5,314.1,993.7,325.9,987.7,336.1z"/>
				</g>
				<g>
					<g>
						<g>
							<path class="st40" d="M708.8,362.2c4.4-2.3,8.9-3.6,13.5-4.2c0.8-0.1,1.5-0.1,2.3-0.2c0.7,0,1.5-0.1,2.2-0.1
								c0.2,0,0.3,0,0.5,0c0.8,0,1.5,0,2.3,0.1c0.8,0.1,1.6,0.1,2.3,0.2c1.7,0.2,3.4,0.5,5,1c0.9,0.3,1.9,0.6,2.8,0.9
								c9.2,3.1,17.2,9.6,22.1,18.9l9.9,19l32.8,62.9c6.5,12.5,5.6,26.9-1.1,38.2c-0.5,0.8-0.9,1.5-1.4,2.3c-1,1.4-2.1,2.8-3.3,4.1
								c-0.6,0.7-1.2,1.3-1.9,1.9c-0.6,0.6-1.3,1.2-2,1.7c-0.1,0.1-0.2,0.2-0.3,0.2c-0.5,0.5-1,0.9-1.6,1.2
								c-0.4,0.3-0.7,0.6-1.1,0.8c-0.4,0.3-0.8,0.6-1.2,0.8c-0.2,0.1-0.4,0.2-0.6,0.4c-0.6,0.4-1.3,0.8-1.9,1.1c0,0-0.1,0.1-0.2,0.1
								c-0.1,0-0.1,0-0.2,0.1c-0.7,0.4-1.4,0.7-2,1c-0.6,0.3-1.1,0.5-1.7,0.7c-0.4,0.2-0.9,0.4-1.4,0.5c-0.3,0.1-0.6,0.2-0.9,0.3
								c-0.4,0.1-0.8,0.2-1.1,0.3c-0.4,0.2-0.9,0.3-1.3,0.4c-3.1,0.8-6.4,1.2-9.5,1.2c-1.7,0-3.4-0.1-5.1-0.3c0,0-0.1,0-0.2,0
								c-0.9-0.1-1.7-0.3-2.6-0.5c-2.5-0.5-4.9-1.2-7.2-2.2c-0.4-0.2-0.7-0.3-1-0.5c-0.6-0.2-1.1-0.5-1.7-0.8
								c-0.8-0.4-1.5-0.8-2.3-1.3c-0.8-0.5-1.5-0.9-2.3-1.4c-1.4-1-2.8-2.1-4.1-3.3c-0.7-0.6-1.3-1.2-1.9-1.9
								c-0.6-0.6-1.2-1.3-1.7-2c-0.1-0.1-0.2-0.2-0.3-0.3c-0.4-0.5-0.8-1-1.2-1.6c-0.3-0.4-0.6-0.7-0.8-1.1
								c-0.3-0.4-0.6-0.8-0.8-1.2c-0.1-0.2-0.3-0.4-0.4-0.6c-0.4-0.6-0.8-1.3-1.1-1.9c0,0-0.1-0.1-0.1-0.2l-0.6-1.1l-9.4-18
								l-32.7-62.8C682.2,396,689.6,372.2,708.8,362.2z"/>
						</g>
					</g>
					<path class="st40" d="M698.8,513.6c-5.8,3-12,4.5-18.1,4.5c-14.2,0-27.8-7.7-34.8-21.1l-51.7-99.1l36.2-61.7
						c6-10.2,6.8-22.1,3.3-32.5l81.9,157C725.5,479.9,718.1,503.6,698.8,513.6z"/>
					<path class="st40" d="M472.1,334.4l32.8,62.9l-58.6,101.4c-7.3,12.5-20.4,19.4-33.9,19.4c-6.7,0-13.6-1.7-19.8-5.4
						c-18.7-10.9-25-35-14-53.7l94.4-162.7c0-0.1,0.1-0.1,0.1-0.2C466.5,307.5,465.6,321.9,472.1,334.4z"/>
					<g>
						<g>
							<path class="st40" d="M567.8,433c-4.4,2.3-8.9,3.6-13.5,4.2c-0.8,0.1-1.5,0.1-2.3,0.2c-0.7,0-1.5,0.1-2.2,0.1
								c-0.2,0-0.3,0-0.5,0c-0.8,0-1.5,0-2.3-0.1c-0.8-0.1-1.6-0.1-2.3-0.2c-1.7-0.2-3.4-0.5-5-1c-0.9-0.3-1.9-0.6-2.8-0.9
								c-9.2-3.1-17.2-9.6-22.1-18.9l-9.9-19l-32.8-62.9c-6.5-12.5-5.6-26.9,1.1-38.2c0.5-0.8,0.9-1.5,1.4-2.3
								c1-1.4,2.1-2.8,3.3-4.1c0.6-0.7,1.2-1.3,1.9-1.9c0.6-0.6,1.3-1.2,2-1.7c0.1-0.1,0.2-0.2,0.3-0.2c0.5-0.5,1-0.9,1.6-1.2
								c0.4-0.3,0.7-0.6,1.1-0.8c0.4-0.3,0.8-0.6,1.2-0.8c0.2-0.1,0.4-0.2,0.6-0.4c0.6-0.4,1.3-0.8,1.9-1.1c0,0,0.1-0.1,0.2-0.1
								c0.1,0,0.1,0,0.2-0.1c0.7-0.4,1.4-0.7,2-1c0.6-0.3,1.1-0.5,1.7-0.7c0.4-0.2,0.9-0.4,1.4-0.5c0.3-0.1,0.6-0.2,0.9-0.3
								c0.4-0.1,0.8-0.2,1.1-0.3c0.4-0.2,0.9-0.3,1.3-0.4c3.1-0.8,6.4-1.2,9.5-1.2c1.7,0,3.4,0.1,5.1,0.3c0,0,0.1,0,0.2,0
								c0.9,0.1,1.7,0.3,2.6,0.5c2.5,0.5,4.9,1.2,7.2,2.2c0.4,0.2,0.7,0.3,1,0.5c0.6,0.2,1.1,0.5,1.7,0.8c0.8,0.4,1.5,0.8,2.3,1.3
								c0.8,0.5,1.5,0.9,2.3,1.4c1.4,1,2.8,2.1,4.1,3.3c0.7,0.6,1.3,1.2,1.9,1.9c0.6,0.6,1.2,1.3,1.7,2c0.1,0.1,0.2,0.2,0.3,0.3
								c0.4,0.5,0.8,1,1.2,1.6c0.3,0.4,0.6,0.7,0.8,1.1c0.3,0.4,0.6,0.8,0.8,1.2c0.1,0.2,0.3,0.4,0.4,0.6c0.4,0.6,0.8,1.3,1.1,1.9
								c0,0,0.1,0.1,0.1,0.2l0.6,1.1l9.4,18l32.7,62.8C594.5,399.3,587.1,423,567.8,433z"/>
						</g>
					</g>
					<path class="st40" d="M630.3,336.1l-36.2,61.7l-33-63.4c-5.5-10.6-5.7-22.6-1.6-32.8c0,0,0,0,0,0l3-5.2
						c6.9-11.7,18.8-18.5,31.4-19.3c0.7,0,1.5-0.1,2.2-0.1c14.1,0.1,27.6,7.8,34.6,21.1l2.8,5.5l0,0
						C637.2,314.1,636.3,325.9,630.3,336.1z"/>
				</g>
				<g>
					<g>
						<g>
							<path class="st40" d="M351.3,362.2c4.4-2.3,8.9-3.6,13.5-4.2c0.8-0.1,1.5-0.1,2.3-0.2c0.7,0,1.5-0.1,2.2-0.1
								c0.2,0,0.3,0,0.5,0c0.8,0,1.5,0,2.3,0.1c0.8,0.1,1.6,0.1,2.3,0.2c1.7,0.2,3.4,0.5,5,1c0.9,0.3,1.9,0.6,2.8,0.9
								c9.2,3.1,17.2,9.6,22.1,18.9l9.9,19l32.8,62.9c6.5,12.5,5.6,26.9-1.1,38.2c-0.5,0.8-0.9,1.5-1.4,2.3c-1,1.4-2.1,2.8-3.3,4.1
								c-0.6,0.7-1.2,1.3-1.9,1.9c-0.6,0.6-1.3,1.2-2,1.7c-0.1,0.1-0.2,0.2-0.3,0.2c-0.5,0.5-1,0.9-1.6,1.2
								c-0.4,0.3-0.7,0.6-1.1,0.8c-0.4,0.3-0.8,0.6-1.2,0.8c-0.2,0.1-0.4,0.2-0.6,0.4c-0.6,0.4-1.3,0.8-1.9,1.1c0,0-0.1,0.1-0.2,0.1
								c-0.1,0-0.1,0-0.2,0.1c-0.7,0.4-1.4,0.7-2,1c-0.6,0.3-1.1,0.5-1.7,0.7c-0.4,0.2-0.9,0.4-1.4,0.5c-0.3,0.1-0.6,0.2-0.9,0.3
								c-0.4,0.1-0.8,0.2-1.1,0.3c-0.4,0.2-0.9,0.3-1.3,0.4c-3.1,0.8-6.4,1.2-9.5,1.2c-1.7,0-3.4-0.1-5.1-0.3c0,0-0.1,0-0.2,0
								c-0.9-0.1-1.7-0.3-2.6-0.5c-2.5-0.5-4.9-1.2-7.2-2.2c-0.4-0.2-0.7-0.3-1-0.5c-0.6-0.2-1.1-0.5-1.7-0.8
								c-0.8-0.4-1.5-0.8-2.3-1.3c-0.8-0.5-1.5-0.9-2.3-1.4c-1.4-1-2.8-2.1-4.1-3.3c-0.7-0.6-1.3-1.2-1.9-1.9
								c-0.6-0.6-1.2-1.3-1.7-2c-0.1-0.1-0.2-0.2-0.3-0.3c-0.4-0.5-0.8-1-1.2-1.6c-0.3-0.4-0.6-0.7-0.8-1.1
								c-0.3-0.4-0.6-0.8-0.8-1.2c-0.1-0.2-0.3-0.4-0.4-0.6c-0.4-0.6-0.8-1.3-1.1-1.9c0,0-0.1-0.1-0.1-0.2l-0.6-1.1l-9.4-18
								l-32.7-62.8C324.6,396,332.1,372.2,351.3,362.2z"/>
						</g>
					</g>
					<path class="st40" d="M341.3,513.6c-5.8,3-12,4.5-18.1,4.5c-14.2,0-27.8-7.7-34.8-21.1l-51.7-99.1l36.2-61.7
						c6-10.2,6.8-22.1,3.3-32.5l81.9,157C368,479.9,360.5,503.6,341.3,513.6z"/>
					<path class="st40" d="M114.6,334.4l32.8,62.9L88.9,498.8c-7.3,12.5-20.4,19.4-33.9,19.4c-6.7,0-13.6-1.7-19.8-5.4
						c-18.7-10.9-25-35-14-53.7l94.4-162.7c0-0.1,0.1-0.1,0.1-0.2C109,307.5,108.1,321.9,114.6,334.4z"/>
					<g>
						<g>
							<path class="st40" d="M210.3,433c-4.4,2.3-8.9,3.6-13.5,4.2c-0.8,0.1-1.5,0.1-2.3,0.2c-0.7,0-1.5,0.1-2.2,0.1
								c-0.2,0-0.3,0-0.5,0c-0.8,0-1.5,0-2.3-0.1c-0.8-0.1-1.6-0.1-2.3-0.2c-1.7-0.2-3.4-0.5-5-1c-0.9-0.3-1.9-0.6-2.8-0.9
								c-9.2-3.1-17.2-9.6-22.1-18.9l-9.9-19l-32.8-62.9c-6.5-12.5-5.6-26.9,1.1-38.2c0.5-0.8,0.9-1.5,1.4-2.3
								c1-1.4,2.1-2.8,3.3-4.1c0.6-0.7,1.2-1.3,1.9-1.9c0.6-0.6,1.3-1.2,2-1.7c0.1-0.1,0.2-0.2,0.3-0.2c0.5-0.5,1-0.9,1.6-1.2
								c0.4-0.3,0.7-0.6,1.1-0.8c0.4-0.3,0.8-0.6,1.2-0.8c0.2-0.1,0.4-0.2,0.6-0.4c0.6-0.4,1.3-0.8,1.9-1.1c0,0,0.1-0.1,0.2-0.1
								c0.1,0,0.1,0,0.2-0.1c0.7-0.4,1.4-0.7,2-1c0.6-0.3,1.1-0.5,1.7-0.7c0.4-0.2,0.9-0.4,1.4-0.5c0.3-0.1,0.6-0.2,0.9-0.3
								c0.4-0.1,0.8-0.2,1.1-0.3c0.4-0.2,0.9-0.3,1.3-0.4c3.1-0.8,6.4-1.2,9.5-1.2c1.7,0,3.4,0.1,5.1,0.3c0,0,0.1,0,0.2,0
								c0.9,0.1,1.7,0.3,2.6,0.5c2.5,0.5,4.9,1.2,7.2,2.2c0.4,0.2,0.7,0.3,1,0.5c0.6,0.2,1.1,0.5,1.7,0.8c0.8,0.4,1.5,0.8,2.3,1.3
								c0.8,0.5,1.5,0.9,2.3,1.4c1.4,1,2.8,2.1,4.1,3.3c0.7,0.6,1.3,1.2,1.9,1.9c0.6,0.6,1.2,1.3,1.7,2c0.1,0.1,0.2,0.2,0.3,0.3
								c0.4,0.5,0.8,1,1.2,1.6c0.3,0.4,0.6,0.7,0.8,1.1c0.3,0.4,0.6,0.8,0.8,1.2c0.1,0.2,0.3,0.4,0.4,0.6c0.4,0.6,0.8,1.3,1.1,1.9
								c0,0,0.1,0.1,0.1,0.2l0.6,1.1l9.4,18l32.7,62.8C237,399.3,229.5,423,210.3,433z"/>
						</g>
					</g>
					<path class="st40" d="M272.8,336.1l-36.2,61.7l-33-63.4c-5.5-10.6-5.7-22.6-1.6-32.8c0,0,0,0,0,0l3-5.2
						c6.9-11.7,18.8-18.5,31.4-19.3c0.7,0,1.5-0.1,2.2-0.1c14.1,0.1,27.6,7.8,34.6,21.1l2.8,5.5l0,0
						C279.6,314.1,278.8,325.9,272.8,336.1z"/>
				</g>
				<g>
					<g>
						<g>
							<path class="st40" d="M-6,362.2c4.4-2.3,8.9-3.6,13.5-4.2c0.8-0.1,1.5-0.1,2.3-0.2c0.7,0,1.5-0.1,2.2-0.1c0.2,0,0.3,0,0.5,0
								c0.8,0,1.5,0,2.3,0.1c0.8,0.1,1.6,0.1,2.3,0.2c1.7,0.2,3.4,0.5,5,1c0.9,0.3,1.9,0.6,2.8,0.9c9.2,3.1,17.2,9.6,22.1,18.9
								l9.9,19l32.8,62.9c6.5,12.5,5.6,26.9-1.1,38.2c-0.5,0.8-0.9,1.5-1.4,2.3c-1,1.4-2.1,2.8-3.3,4.1c-0.6,0.7-1.2,1.3-1.9,1.9
								c-0.6,0.6-1.3,1.2-2,1.7c-0.1,0.1-0.2,0.2-0.3,0.2c-0.5,0.5-1,0.9-1.6,1.2c-0.4,0.3-0.7,0.6-1.1,0.8
								c-0.4,0.3-0.8,0.6-1.2,0.8c-0.2,0.1-0.4,0.2-0.6,0.4c-0.6,0.4-1.3,0.8-1.9,1.1c0,0-0.1,0.1-0.2,0.1c-0.1,0-0.1,0-0.2,0.1
								c-0.7,0.4-1.4,0.7-2,1c-0.6,0.3-1.1,0.5-1.7,0.7c-0.4,0.2-0.9,0.4-1.4,0.5c-0.3,0.1-0.6,0.2-0.9,0.3
								c-0.4,0.1-0.8,0.2-1.1,0.3c-0.4,0.2-0.9,0.3-1.3,0.4c-3.1,0.8-6.4,1.2-9.5,1.2c-1.7,0-3.4-0.1-5.1-0.3c0,0-0.1,0-0.2,0
								c-0.9-0.1-1.7-0.3-2.6-0.5c-2.5-0.5-4.9-1.2-7.2-2.2c-0.4-0.2-0.7-0.3-1-0.5c-0.6-0.2-1.1-0.5-1.7-0.8
								c-0.8-0.4-1.5-0.8-2.3-1.3c-0.8-0.5-1.5-0.9-2.3-1.4c-1.4-1-2.8-2.1-4.1-3.3c-0.7-0.6-1.3-1.2-1.9-1.9
								c-0.6-0.6-1.2-1.3-1.7-2c-0.1-0.1-0.2-0.2-0.3-0.3c-0.4-0.5-0.8-1-1.2-1.6c-0.3-0.4-0.6-0.7-0.8-1.1
								c-0.3-0.4-0.6-0.8-0.8-1.2c-0.1-0.2-0.3-0.4-0.4-0.6c-0.4-0.6-0.8-1.3-1.1-1.9c0,0-0.1-0.1-0.1-0.2l-0.6-1.1l-9.4-18
								l-32.7-62.8C-32.7,396-25.2,372.2-6,362.2z"/>
						</g>
					</g>
					<path class="st40" d="M-16,513.6c-5.8,3-12,4.5-18.1,4.5c-14.2,0-27.8-7.7-34.8-21.1l-51.7-99.1l36.2-61.7
						c6-10.2,6.8-22.1,3.3-32.5l81.9,157C10.7,479.9,3.2,503.6-16,513.6z"/>
				</g>
			</g>
			<g>
				<g>
					<path class="st40" d="M1360.4,496.6l32.8,62.9l-58.6,101.4c-7.3,12.5-20.4,19.4-33.9,19.4c-6.7,0-13.6-1.7-19.8-5.4
						c-18.7-10.9-25-35-14-53.7l94.4-162.7c0-0.1,0.1-0.1,0.1-0.2C1354.7,469.7,1353.9,484.1,1360.4,496.6z"/>
					<g>
						<g>
							<path class="st40" d="M1456.1,595.2c-4.4,2.3-8.9,3.6-13.5,4.2c-0.8,0.1-1.5,0.1-2.3,0.2c-0.7,0-1.5,0.1-2.2,0.1
								c-0.2,0-0.3,0-0.5,0c-0.8,0-1.5,0-2.3-0.1c-0.8-0.1-1.6-0.1-2.3-0.2c-1.7-0.2-3.4-0.5-5-1c-0.9-0.3-1.9-0.6-2.8-0.9
								c-9.2-3.1-17.2-9.6-22.1-18.9l-9.9-19l-32.8-62.9c-6.5-12.5-5.6-26.9,1.1-38.2c0.5-0.8,0.9-1.5,1.4-2.3
								c1-1.4,2.1-2.8,3.3-4.1c0.6-0.7,1.2-1.3,1.9-1.9c0.6-0.6,1.3-1.2,2-1.7c0.1-0.1,0.2-0.2,0.3-0.2c0.5-0.5,1-0.9,1.6-1.2
								c0.4-0.3,0.7-0.6,1.1-0.8c0.4-0.3,0.8-0.6,1.2-0.8c0.2-0.1,0.4-0.2,0.6-0.4c0.6-0.4,1.3-0.8,1.9-1.1c0,0,0.1-0.1,0.2-0.1
								c0.1,0,0.1,0,0.2-0.1c0.7-0.4,1.4-0.7,2-1c0.6-0.3,1.1-0.5,1.7-0.7c0.4-0.2,0.9-0.4,1.4-0.5c0.3-0.1,0.6-0.2,0.9-0.3
								c0.4-0.1,0.8-0.2,1.1-0.3c0.4-0.2,0.9-0.3,1.3-0.4c3.1-0.8,6.4-1.2,9.5-1.2c1.7,0,3.4,0.1,5.1,0.3c0,0,0.1,0,0.2,0
								c0.9,0.1,1.7,0.3,2.6,0.5c2.5,0.5,4.9,1.2,7.2,2.2c0.4,0.2,0.7,0.3,1,0.5c0.6,0.2,1.1,0.5,1.7,0.8c0.8,0.4,1.5,0.8,2.3,1.3
								c0.8,0.5,1.5,0.9,2.3,1.4c1.4,1,2.8,2.1,4.1,3.3c0.7,0.6,1.3,1.2,1.9,1.9c0.6,0.6,1.2,1.3,1.7,2c0.1,0.1,0.2,0.2,0.3,0.3
								c0.4,0.5,0.8,1,1.2,1.6c0.3,0.4,0.6,0.7,0.8,1.1c0.3,0.4,0.6,0.8,0.8,1.2c0.1,0.2,0.3,0.4,0.4,0.6c0.4,0.6,0.8,1.3,1.1,1.9
								c0,0,0.1,0.1,0.1,0.2l0.6,1.1l9.4,18l32.7,62.8C1482.8,561.4,1475.3,585.1,1456.1,595.2z"/>
						</g>
					</g>
					<path class="st40" d="M1518.6,498.3l-36.2,61.7l-33-63.4c-5.5-10.6-5.7-22.6-1.6-32.8c0,0,0,0,0,0l3-5.2
						c6.9-11.7,18.8-18.5,31.4-19.3c0.7,0,1.5-0.1,2.2-0.1c14.1,0.1,27.6,7.8,34.6,21.1l2.8,5.5l0,0
						C1525.4,476.2,1524.6,488,1518.6,498.3z"/>
				</g>
				<g>
					<g>
						<g>
							<path class="st40" d="M1239.6,524.3c4.4-2.3,8.9-3.6,13.5-4.2c0.8-0.1,1.5-0.1,2.3-0.2c0.7,0,1.5-0.1,2.2-0.1
								c0.2,0,0.3,0,0.5,0c0.8,0,1.5,0,2.3,0.1c0.8,0.1,1.6,0.1,2.3,0.2c1.7,0.2,3.4,0.5,5,1c0.9,0.3,1.9,0.6,2.8,0.9
								c9.2,3.1,17.2,9.6,22.1,18.9l9.9,19l32.8,62.9c6.5,12.5,5.6,26.9-1.1,38.2c-0.5,0.8-0.9,1.5-1.4,2.3c-1,1.4-2.1,2.8-3.3,4.1
								c-0.6,0.7-1.2,1.3-1.9,1.9c-0.6,0.6-1.3,1.2-2,1.7c-0.1,0.1-0.2,0.2-0.3,0.2c-0.5,0.5-1,0.9-1.6,1.2
								c-0.4,0.3-0.7,0.6-1.1,0.8c-0.4,0.3-0.8,0.6-1.2,0.8c-0.2,0.1-0.4,0.2-0.6,0.4c-0.6,0.4-1.3,0.8-1.9,1.1c0,0-0.1,0.1-0.2,0.1
								c-0.1,0-0.1,0-0.2,0.1c-0.7,0.4-1.4,0.7-2,1c-0.6,0.3-1.1,0.5-1.7,0.7c-0.4,0.2-0.9,0.4-1.4,0.5c-0.3,0.1-0.6,0.2-0.9,0.3
								c-0.4,0.1-0.8,0.2-1.1,0.3c-0.4,0.2-0.9,0.3-1.3,0.4c-3.1,0.8-6.4,1.2-9.5,1.2c-1.7,0-3.4-0.1-5.1-0.3c0,0-0.1,0-0.2,0
								c-0.9-0.1-1.7-0.3-2.6-0.5c-2.5-0.5-4.9-1.2-7.2-2.2c-0.4-0.2-0.7-0.3-1-0.5c-0.6-0.2-1.1-0.5-1.7-0.8
								c-0.8-0.4-1.5-0.8-2.3-1.3c-0.8-0.5-1.5-0.9-2.3-1.4c-1.4-1-2.8-2.1-4.1-3.3c-0.7-0.6-1.3-1.2-1.9-1.9
								c-0.6-0.6-1.2-1.3-1.7-2c-0.1-0.1-0.2-0.2-0.3-0.3c-0.4-0.5-0.8-1-1.2-1.6c-0.3-0.4-0.6-0.7-0.8-1.1
								c-0.3-0.4-0.6-0.8-0.8-1.2c-0.1-0.2-0.3-0.4-0.4-0.6c-0.4-0.6-0.8-1.3-1.1-1.9c0,0-0.1-0.1-0.1-0.2l-0.6-1.1l-9.4-18
								l-32.7-62.8C1213,558.1,1220.4,534.4,1239.6,524.3z"/>
						</g>
					</g>
					<path class="st40" d="M1229.7,675.8c-5.8,3-12,4.5-18.1,4.5c-14.2,0-27.8-7.7-34.8-21.1L1125,560l36.2-61.7
						c6-10.2,6.8-22.1,3.3-32.5l81.9,157C1256.3,642,1248.9,665.7,1229.7,675.8z"/>
					<path class="st40" d="M1003,496.6l32.8,62.9l-58.6,101.4c-7.3,12.5-20.4,19.4-33.9,19.4c-6.7,0-13.6-1.7-19.8-5.4
						c-18.7-10.9-25-35-14-53.7l94.4-162.7c0-0.1,0.1-0.1,0.1-0.2C997.3,469.7,996.4,484.1,1003,496.6z"/>
					<g>
						<g>
							<path class="st40" d="M1098.7,595.2c-4.4,2.3-8.9,3.6-13.5,4.2c-0.8,0.1-1.5,0.1-2.3,0.2c-0.7,0-1.5,0.1-2.2,0.1
								c-0.2,0-0.3,0-0.5,0c-0.8,0-1.5,0-2.3-0.1c-0.8-0.1-1.6-0.1-2.3-0.2c-1.7-0.2-3.4-0.5-5-1c-0.9-0.3-1.9-0.6-2.8-0.9
								c-9.2-3.1-17.2-9.6-22.1-18.9l-9.9-19l-32.8-62.9c-6.5-12.5-5.6-26.9,1.1-38.2c0.5-0.8,0.9-1.5,1.4-2.3
								c1-1.4,2.1-2.8,3.3-4.1c0.6-0.7,1.2-1.3,1.9-1.9c0.6-0.6,1.3-1.2,2-1.7c0.1-0.1,0.2-0.2,0.3-0.2c0.5-0.5,1-0.9,1.6-1.2
								c0.4-0.3,0.7-0.6,1.1-0.8c0.4-0.3,0.8-0.6,1.2-0.8c0.2-0.1,0.4-0.2,0.6-0.4c0.6-0.4,1.3-0.8,1.9-1.1c0,0,0.1-0.1,0.2-0.1
								c0.1,0,0.1,0,0.2-0.1c0.7-0.4,1.4-0.7,2-1c0.6-0.3,1.1-0.5,1.7-0.7c0.4-0.2,0.9-0.4,1.4-0.5c0.3-0.1,0.6-0.2,0.9-0.3
								c0.4-0.1,0.8-0.2,1.1-0.3c0.4-0.2,0.9-0.3,1.3-0.4c3.1-0.8,6.4-1.2,9.5-1.2c1.7,0,3.4,0.1,5.1,0.3c0,0,0.1,0,0.2,0
								c0.9,0.1,1.7,0.3,2.6,0.5c2.5,0.5,4.9,1.2,7.2,2.2c0.4,0.2,0.7,0.3,1,0.5c0.6,0.2,1.1,0.5,1.7,0.8c0.8,0.4,1.5,0.8,2.3,1.3
								c0.8,0.5,1.5,0.9,2.3,1.4c1.4,1,2.8,2.1,4.1,3.3c0.7,0.6,1.3,1.2,1.9,1.9c0.6,0.6,1.2,1.3,1.7,2c0.1,0.1,0.2,0.2,0.3,0.3
								c0.4,0.5,0.8,1,1.2,1.6c0.3,0.4,0.6,0.7,0.8,1.1c0.3,0.4,0.6,0.8,0.8,1.2c0.1,0.2,0.3,0.4,0.4,0.6c0.4,0.6,0.8,1.3,1.1,1.9
								c0,0,0.1,0.1,0.1,0.2l0.6,1.1l9.4,18l32.7,62.8C1125.3,561.4,1117.9,585.1,1098.7,595.2z"/>
						</g>
					</g>
					<path class="st40" d="M1161.2,498.3L1125,560l-33-63.4c-5.5-10.6-5.7-22.6-1.6-32.8c0,0,0,0,0,0l3-5.2
						c6.9-11.7,18.8-18.5,31.4-19.3c0.7,0,1.5-0.1,2.2-0.1c14.1,0.1,27.6,7.8,34.6,21.1l2.8,5.5l0,0
						C1168,476.2,1167.2,488,1161.2,498.3z"/>
				</g>
				<g>
					<g>
						<g>
							<path class="st40" d="M882.3,524.3c4.4-2.3,8.9-3.6,13.5-4.2c0.8-0.1,1.5-0.1,2.3-0.2c0.7,0,1.5-0.1,2.2-0.1
								c0.2,0,0.3,0,0.5,0c0.8,0,1.5,0,2.3,0.1c0.8,0.1,1.6,0.1,2.3,0.2c1.7,0.2,3.4,0.5,5,1c0.9,0.3,1.9,0.6,2.8,0.9
								c9.2,3.1,17.2,9.6,22.1,18.9l9.9,19L978,623c6.5,12.5,5.6,26.9-1.1,38.2c-0.5,0.8-0.9,1.5-1.4,2.3c-1,1.4-2.1,2.8-3.3,4.1
								c-0.6,0.7-1.2,1.3-1.9,1.9c-0.6,0.6-1.3,1.2-2,1.7c-0.1,0.1-0.2,0.2-0.3,0.2c-0.5,0.5-1,0.9-1.6,1.2
								c-0.4,0.3-0.7,0.6-1.1,0.8c-0.4,0.3-0.8,0.6-1.2,0.8c-0.2,0.1-0.4,0.2-0.6,0.4c-0.6,0.4-1.3,0.8-1.9,1.1c0,0-0.1,0.1-0.2,0.1
								c-0.1,0-0.1,0-0.2,0.1c-0.7,0.4-1.4,0.7-2,1c-0.6,0.3-1.1,0.5-1.7,0.7c-0.4,0.2-0.9,0.4-1.4,0.5c-0.3,0.1-0.6,0.2-0.9,0.3
								c-0.4,0.1-0.8,0.2-1.1,0.3c-0.4,0.2-0.9,0.3-1.3,0.4c-3.1,0.8-6.4,1.2-9.5,1.2c-1.7,0-3.4-0.1-5.1-0.3c0,0-0.1,0-0.2,0
								c-0.9-0.1-1.7-0.3-2.6-0.5c-2.5-0.5-4.9-1.2-7.2-2.2c-0.4-0.2-0.7-0.3-1-0.5c-0.6-0.2-1.1-0.5-1.7-0.8
								c-0.8-0.4-1.5-0.8-2.3-1.3c-0.8-0.5-1.5-0.9-2.3-1.4c-1.4-1-2.8-2.1-4.1-3.3c-0.7-0.6-1.3-1.2-1.9-1.9
								c-0.6-0.6-1.2-1.3-1.7-2c-0.1-0.1-0.2-0.2-0.3-0.3c-0.4-0.5-0.8-1-1.2-1.6c-0.3-0.4-0.6-0.7-0.8-1.1
								c-0.3-0.4-0.6-0.8-0.8-1.2c-0.1-0.2-0.3-0.4-0.4-0.6c-0.4-0.6-0.8-1.3-1.1-1.9c0,0-0.1-0.1-0.1-0.2l-0.6-1.1l-9.4-18
								l-32.7-62.8C855.7,558.1,863.1,534.4,882.3,524.3z"/>
						</g>
					</g>
					<path class="st40" d="M872.3,675.8c-5.8,3-12,4.5-18.1,4.5c-14.2,0-27.8-7.7-34.8-21.1L767.7,560l36.2-61.7
						c6-10.2,6.8-22.1,3.3-32.5l81.9,157C899,642,891.5,665.7,872.3,675.8z"/>
					<path class="st40" d="M645.6,496.6l32.8,62.9l-58.6,101.4c-7.3,12.5-20.4,19.4-33.9,19.4c-6.7,0-13.6-1.7-19.8-5.4
						c-18.7-10.9-25-35-14-53.7l94.4-162.7c0-0.1,0.1-0.1,0.1-0.2C640,469.7,639.1,484.1,645.6,496.6z"/>
					<g>
						<g>
							<path class="st40" d="M741.3,595.2c-4.4,2.3-8.9,3.6-13.5,4.2c-0.8,0.1-1.5,0.1-2.3,0.2c-0.7,0-1.5,0.1-2.2,0.1
								c-0.2,0-0.3,0-0.5,0c-0.8,0-1.5,0-2.3-0.1c-0.8-0.1-1.6-0.1-2.3-0.2c-1.7-0.2-3.4-0.5-5-1c-0.9-0.3-1.9-0.6-2.8-0.9
								c-9.2-3.1-17.2-9.6-22.1-18.9l-9.9-19l-32.8-62.9c-6.5-12.5-5.6-26.9,1.1-38.2c0.5-0.8,0.9-1.5,1.4-2.3
								c1-1.4,2.1-2.8,3.3-4.1c0.6-0.7,1.2-1.3,1.9-1.9c0.6-0.6,1.3-1.2,2-1.7c0.1-0.1,0.2-0.2,0.3-0.2c0.5-0.5,1-0.9,1.6-1.2
								c0.4-0.3,0.7-0.6,1.1-0.8c0.4-0.3,0.8-0.6,1.2-0.8c0.2-0.1,0.4-0.2,0.6-0.4c0.6-0.4,1.3-0.8,1.9-1.1c0,0,0.1-0.1,0.2-0.1
								c0.1,0,0.1,0,0.2-0.1c0.7-0.4,1.4-0.7,2-1c0.6-0.3,1.1-0.5,1.7-0.7c0.4-0.2,0.9-0.4,1.4-0.5c0.3-0.1,0.6-0.2,0.9-0.3
								c0.4-0.1,0.8-0.2,1.1-0.3c0.4-0.2,0.9-0.3,1.3-0.4c3.1-0.8,6.4-1.2,9.5-1.2c1.7,0,3.4,0.1,5.1,0.3c0,0,0.1,0,0.2,0
								c0.9,0.1,1.7,0.3,2.6,0.5c2.5,0.5,4.9,1.2,7.2,2.2c0.4,0.2,0.7,0.3,1,0.5c0.6,0.2,1.1,0.5,1.7,0.8c0.8,0.4,1.5,0.8,2.3,1.3
								c0.8,0.5,1.5,0.9,2.3,1.4c1.4,1,2.8,2.1,4.1,3.3c0.7,0.6,1.3,1.2,1.9,1.9c0.6,0.6,1.2,1.3,1.7,2c0.1,0.1,0.2,0.2,0.3,0.3
								c0.4,0.5,0.8,1,1.2,1.6c0.3,0.4,0.6,0.7,0.8,1.1c0.3,0.4,0.6,0.8,0.8,1.2c0.1,0.2,0.3,0.4,0.4,0.6c0.4,0.6,0.8,1.3,1.1,1.9
								c0,0,0.1,0.1,0.1,0.2l0.6,1.1l9.4,18l32.7,62.8C768,561.4,760.6,585.1,741.3,595.2z"/>
						</g>
					</g>
					<path class="st40" d="M803.8,498.3L767.7,560l-33-63.4c-5.5-10.6-5.7-22.6-1.6-32.8c0,0,0,0,0,0l3-5.2
						c6.9-11.7,18.8-18.5,31.4-19.3c0.7,0,1.5-0.1,2.2-0.1c14.1,0.1,27.6,7.8,34.6,21.1l2.8,5.5l0,0
						C810.7,476.2,809.8,488,803.8,498.3z"/>
				</g>
				<g>
					<g>
						<g>
							<path class="st40" d="M524.8,524.3c4.4-2.3,8.9-3.6,13.5-4.2c0.8-0.1,1.5-0.1,2.3-0.2c0.7,0,1.5-0.1,2.2-0.1
								c0.2,0,0.3,0,0.5,0c0.8,0,1.5,0,2.3,0.1c0.8,0.1,1.6,0.1,2.3,0.2c1.7,0.2,3.4,0.5,5,1c0.9,0.3,1.9,0.6,2.8,0.9
								c9.2,3.1,17.2,9.6,22.1,18.9l9.9,19l32.8,62.9c6.5,12.5,5.6,26.9-1.1,38.2c-0.5,0.8-0.9,1.5-1.4,2.3c-1,1.4-2.1,2.8-3.3,4.1
								c-0.6,0.7-1.2,1.3-1.9,1.9c-0.6,0.6-1.3,1.2-2,1.7c-0.1,0.1-0.2,0.2-0.3,0.2c-0.5,0.5-1,0.9-1.6,1.2
								c-0.4,0.3-0.7,0.6-1.1,0.8c-0.4,0.3-0.8,0.6-1.2,0.8c-0.2,0.1-0.4,0.2-0.6,0.4c-0.6,0.4-1.3,0.8-1.9,1.1c0,0-0.1,0.1-0.2,0.1
								c-0.1,0-0.1,0-0.2,0.1c-0.7,0.4-1.4,0.7-2,1c-0.6,0.3-1.1,0.5-1.7,0.7c-0.4,0.2-0.9,0.4-1.4,0.5c-0.3,0.1-0.6,0.2-0.9,0.3
								c-0.4,0.1-0.8,0.2-1.1,0.3c-0.4,0.2-0.9,0.3-1.3,0.4c-3.1,0.8-6.4,1.2-9.5,1.2c-1.7,0-3.4-0.1-5.1-0.3c0,0-0.1,0-0.2,0
								c-0.9-0.1-1.7-0.3-2.6-0.5c-2.5-0.5-4.9-1.2-7.2-2.2c-0.4-0.2-0.7-0.3-1-0.5c-0.6-0.2-1.1-0.5-1.7-0.8
								c-0.8-0.4-1.5-0.8-2.3-1.3c-0.8-0.5-1.5-0.9-2.3-1.4c-1.4-1-2.8-2.1-4.1-3.3c-0.7-0.6-1.3-1.2-1.9-1.9
								c-0.6-0.6-1.2-1.3-1.7-2c-0.1-0.1-0.2-0.2-0.3-0.3c-0.4-0.5-0.8-1-1.2-1.6c-0.3-0.4-0.6-0.7-0.8-1.1
								c-0.3-0.4-0.6-0.8-0.8-1.2c-0.1-0.2-0.3-0.4-0.4-0.6c-0.4-0.6-0.8-1.3-1.1-1.9c0,0-0.1-0.1-0.1-0.2l-0.6-1.1l-9.4-18
								l-32.7-62.8C498.1,558.1,505.6,534.4,524.8,524.3z"/>
						</g>
					</g>
					<path class="st40" d="M514.8,675.8c-5.8,3-12,4.5-18.1,4.5c-14.2,0-27.8-7.7-34.8-21.1L410.1,560l36.2-61.7
						c6-10.2,6.8-22.1,3.3-32.5l81.9,157C541.5,642,534,665.7,514.8,675.8z"/>
					<path class="st40" d="M288.1,496.6l32.8,62.9l-58.6,101.4c-7.3,12.5-20.4,19.4-33.9,19.4c-6.7,0-13.6-1.7-19.8-5.4
						c-18.7-10.9-25-35-14-53.7L289,458.6c0-0.1,0.1-0.1,0.1-0.2C282.5,469.7,281.6,484.1,288.1,496.6z"/>
					<g>
						<g>
							<path class="st40" d="M383.8,595.2c-4.4,2.3-8.9,3.6-13.5,4.2c-0.8,0.1-1.5,0.1-2.3,0.2c-0.7,0-1.5,0.1-2.2,0.1
								c-0.2,0-0.3,0-0.5,0c-0.8,0-1.5,0-2.3-0.1c-0.8-0.1-1.6-0.1-2.3-0.2c-1.7-0.2-3.4-0.5-5-1c-0.9-0.3-1.9-0.6-2.8-0.9
								c-9.2-3.1-17.2-9.6-22.1-18.9l-9.9-19l-32.8-62.9c-6.5-12.5-5.6-26.9,1.1-38.2c0.5-0.8,0.9-1.5,1.4-2.3
								c1-1.4,2.1-2.8,3.3-4.1c0.6-0.7,1.2-1.3,1.9-1.9c0.6-0.6,1.3-1.2,2-1.7c0.1-0.1,0.2-0.2,0.3-0.2c0.5-0.5,1-0.9,1.6-1.2
								c0.4-0.3,0.7-0.6,1.1-0.8c0.4-0.3,0.8-0.6,1.2-0.8c0.2-0.1,0.4-0.2,0.6-0.4c0.6-0.4,1.3-0.8,1.9-1.1c0,0,0.1-0.1,0.2-0.1
								c0.1,0,0.1,0,0.2-0.1c0.7-0.4,1.4-0.7,2-1c0.6-0.3,1.1-0.5,1.7-0.7c0.4-0.2,0.9-0.4,1.4-0.5c0.3-0.1,0.6-0.2,0.9-0.3
								c0.4-0.1,0.8-0.2,1.1-0.3c0.4-0.2,0.9-0.3,1.3-0.4c3.1-0.8,6.4-1.2,9.5-1.2c1.7,0,3.4,0.1,5.1,0.3c0,0,0.1,0,0.2,0
								c0.9,0.1,1.7,0.3,2.6,0.5c2.5,0.5,4.9,1.2,7.2,2.2c0.4,0.2,0.7,0.3,1,0.5c0.6,0.2,1.1,0.5,1.7,0.8c0.8,0.4,1.5,0.8,2.3,1.3
								c0.8,0.5,1.5,0.9,2.3,1.4c1.4,1,2.8,2.1,4.1,3.3c0.7,0.6,1.3,1.2,1.9,1.9c0.6,0.6,1.2,1.3,1.7,2c0.1,0.1,0.2,0.2,0.3,0.3
								c0.4,0.5,0.8,1,1.2,1.6c0.3,0.4,0.6,0.7,0.8,1.1c0.3,0.4,0.6,0.8,0.8,1.2c0.1,0.2,0.3,0.4,0.4,0.6c0.4,0.6,0.8,1.3,1.1,1.9
								c0,0,0.1,0.1,0.1,0.2l0.6,1.1l9.4,18l32.7,62.8C410.5,561.4,403,585.1,383.8,595.2z"/>
						</g>
					</g>
					<path class="st40" d="M446.3,498.3L410.1,560l-33-63.4c-5.5-10.6-5.7-22.6-1.6-32.8c0,0,0,0,0,0l3-5.2
						c6.9-11.7,18.8-18.5,31.4-19.3c0.7,0,1.5-0.1,2.2-0.1c14.1,0.1,27.6,7.8,34.6,21.1l2.8,5.5l0,0
						C453.1,476.2,452.3,488,446.3,498.3z"/>
				</g>
				<g>
					<g>
						<g>
							<path class="st40" d="M167.5,524.3c4.4-2.3,8.9-3.6,13.5-4.2c0.8-0.1,1.5-0.1,2.3-0.2c0.7,0,1.5-0.1,2.2-0.1
								c0.2,0,0.3,0,0.5,0c0.8,0,1.5,0,2.3,0.1c0.8,0.1,1.6,0.1,2.3,0.2c1.7,0.2,3.4,0.5,5,1c0.9,0.3,1.9,0.6,2.8,0.9
								c9.2,3.1,17.2,9.6,22.1,18.9l9.9,19l32.8,62.9c6.5,12.5,5.6,26.9-1.1,38.2c-0.5,0.8-0.9,1.5-1.4,2.3c-1,1.4-2.1,2.8-3.3,4.1
								c-0.6,0.7-1.2,1.3-1.9,1.9c-0.6,0.6-1.3,1.2-2,1.7c-0.1,0.1-0.2,0.2-0.3,0.2c-0.5,0.5-1,0.9-1.6,1.2
								c-0.4,0.3-0.7,0.6-1.1,0.8c-0.4,0.3-0.8,0.6-1.2,0.8c-0.2,0.1-0.4,0.2-0.6,0.4c-0.6,0.4-1.3,0.8-1.9,1.1c0,0-0.1,0.1-0.2,0.1
								c-0.1,0-0.1,0-0.2,0.1c-0.7,0.4-1.4,0.7-2,1c-0.6,0.3-1.1,0.5-1.7,0.7c-0.4,0.2-0.9,0.4-1.4,0.5c-0.3,0.1-0.6,0.2-0.9,0.3
								c-0.4,0.1-0.8,0.2-1.1,0.3c-0.4,0.2-0.9,0.3-1.3,0.4c-3.1,0.8-6.4,1.2-9.5,1.2c-1.7,0-3.4-0.1-5.1-0.3c0,0-0.1,0-0.2,0
								c-0.9-0.1-1.7-0.3-2.6-0.5c-2.5-0.5-4.9-1.2-7.2-2.2c-0.4-0.2-0.7-0.3-1-0.5c-0.6-0.2-1.1-0.5-1.7-0.8
								c-0.8-0.4-1.5-0.8-2.3-1.3c-0.8-0.5-1.5-0.9-2.3-1.4c-1.4-1-2.8-2.1-4.1-3.3c-0.7-0.6-1.3-1.2-1.9-1.9
								c-0.6-0.6-1.2-1.3-1.7-2c-0.1-0.1-0.2-0.2-0.3-0.3c-0.4-0.5-0.8-1-1.2-1.6c-0.3-0.4-0.6-0.7-0.8-1.1
								c-0.3-0.4-0.6-0.8-0.8-1.2c-0.1-0.2-0.3-0.4-0.4-0.6c-0.4-0.6-0.8-1.3-1.1-1.9c0,0-0.1-0.1-0.1-0.2l-0.6-1.1l-9.4-18
								l-32.7-62.8C140.8,558.1,148.3,534.4,167.5,524.3z"/>
						</g>
					</g>
					<path class="st40" d="M157.5,675.8c-5.8,3-12,4.5-18.1,4.5c-14.2,0-27.8-7.7-34.8-21.1L52.8,560L89,498.3
						c6-10.2,6.8-22.1,3.3-32.5l81.9,157C184.1,642,176.7,665.7,157.5,675.8z"/>
					<g>
						<g>
							<path class="st40" d="M26.5,595.2c-4.4,2.3-8.9,3.6-13.5,4.2c-0.8,0.1-1.5,0.1-2.3,0.2c-0.7,0-1.5,0.1-2.2,0.1
								c-0.2,0-0.3,0-0.5,0c-0.8,0-1.5,0-2.3-0.1c-0.8-0.1-1.6-0.1-2.3-0.2c-1.7-0.2-3.4-0.5-5-1c-0.9-0.3-1.9-0.6-2.8-0.9
								c-9.2-3.1-17.2-9.6-22.1-18.9l-9.9-19l-32.8-62.9c-6.5-12.5-5.6-26.9,1.1-38.2c0.5-0.8,0.9-1.5,1.4-2.3
								c1-1.4,2.1-2.8,3.3-4.1c0.6-0.7,1.2-1.3,1.9-1.9c0.6-0.6,1.3-1.2,2-1.7c0.1-0.1,0.2-0.2,0.3-0.2c0.5-0.5,1-0.9,1.6-1.2
								c0.4-0.3,0.7-0.6,1.1-0.8c0.4-0.3,0.8-0.6,1.2-0.8c0.2-0.1,0.4-0.2,0.6-0.4c0.6-0.4,1.3-0.8,1.9-1.1c0,0,0.1-0.1,0.2-0.1
								c0.1,0,0.1,0,0.2-0.1c0.7-0.4,1.4-0.7,2-1c0.6-0.3,1.1-0.5,1.7-0.7c0.4-0.2,0.9-0.4,1.4-0.5c0.3-0.1,0.6-0.2,0.9-0.3
								c0.4-0.1,0.8-0.2,1.1-0.3c0.4-0.2,0.9-0.3,1.3-0.4c3.1-0.8,6.4-1.2,9.5-1.2c1.7,0,3.4,0.1,5.1,0.3c0,0,0.1,0,0.2,0
								c0.9,0.1,1.7,0.3,2.6,0.5c2.5,0.5,4.9,1.2,7.2,2.2c0.4,0.2,0.7,0.3,1,0.5c0.6,0.2,1.1,0.5,1.7,0.8c0.8,0.4,1.5,0.8,2.3,1.3
								c0.8,0.5,1.5,0.9,2.3,1.4c1.4,1,2.8,2.1,4.1,3.3c0.7,0.6,1.3,1.2,1.9,1.9c0.6,0.6,1.2,1.3,1.7,2c0.1,0.1,0.2,0.2,0.3,0.3
								c0.4,0.5,0.8,1,1.2,1.6c0.3,0.4,0.6,0.7,0.8,1.1c0.3,0.4,0.6,0.8,0.8,1.2c0.1,0.2,0.3,0.4,0.4,0.6c0.4,0.6,0.8,1.3,1.1,1.9
								c0,0,0.1,0.1,0.1,0.2l0.6,1.1l9.4,18l32.7,62.8C53.2,561.4,45.7,585.1,26.5,595.2z"/>
						</g>
					</g>
					<path class="st40" d="M89,498.3L52.8,560l-33-63.4C14.2,486,14,474,18.2,463.8c0,0,0,0,0,0l3-5.2c6.9-11.7,18.8-18.5,31.4-19.3
						c0.7,0,1.5-0.1,2.2-0.1c14.1,0.1,27.6,7.8,34.6,21.1l2.8,5.5l0,0C95.8,476.2,95,488,89,498.3z"/>
				</g>
			</g>
			<g>
				<g>
					<g>
						<g>
							<path class="st40" d="M1413.5,686.7c4.4-2.3,8.9-3.6,13.5-4.2c0.8-0.1,1.5-0.1,2.3-0.2c0.7,0,1.5-0.1,2.2-0.1
								c0.2,0,0.3,0,0.5,0c0.8,0,1.5,0,2.3,0.1c0.8,0.1,1.6,0.1,2.3,0.2c1.7,0.2,3.4,0.5,5,1c0.9,0.3,1.9,0.6,2.8,0.9
								c9.2,3.1,17.2,9.6,22.1,18.9l9.9,19l32.8,62.9c6.5,12.5,5.6,26.9-1.1,38.2c-0.5,0.8-0.9,1.5-1.4,2.3c-1,1.4-2.1,2.8-3.3,4.1
								c-0.6,0.7-1.2,1.3-1.9,1.9c-0.6,0.6-1.3,1.2-2,1.7c-0.1,0.1-0.2,0.2-0.3,0.2c-0.5,0.5-1,0.9-1.6,1.2
								c-0.4,0.3-0.7,0.6-1.1,0.8c-0.4,0.3-0.8,0.6-1.2,0.8c-0.2,0.1-0.4,0.2-0.6,0.4c-0.6,0.4-1.3,0.8-1.9,1.1c0,0-0.1,0.1-0.2,0.1
								c-0.1,0-0.1,0-0.2,0.1c-0.7,0.4-1.4,0.7-2,1c-0.6,0.3-1.1,0.5-1.7,0.7c-0.4,0.2-0.9,0.4-1.4,0.5c-0.3,0.1-0.6,0.2-0.9,0.3
								c-0.4,0.1-0.8,0.2-1.1,0.3c-0.4,0.2-0.9,0.3-1.3,0.4c-3.1,0.8-6.4,1.2-9.5,1.2c-1.7,0-3.4-0.1-5.1-0.3c0,0-0.1,0-0.2,0
								c-0.9-0.1-1.7-0.3-2.6-0.5c-2.5-0.5-4.9-1.2-7.2-2.2c-0.4-0.2-0.7-0.3-1-0.5c-0.6-0.2-1.1-0.5-1.7-0.8
								c-0.8-0.4-1.5-0.8-2.3-1.3c-0.8-0.5-1.5-0.9-2.3-1.4c-1.4-1-2.8-2.1-4.1-3.3c-0.7-0.6-1.3-1.2-1.9-1.9
								c-0.6-0.6-1.2-1.3-1.7-2c-0.1-0.1-0.2-0.2-0.3-0.3c-0.4-0.5-0.8-1-1.2-1.6c-0.3-0.4-0.6-0.7-0.8-1.1
								c-0.3-0.4-0.6-0.8-0.8-1.2c-0.1-0.2-0.3-0.4-0.4-0.6c-0.4-0.6-0.8-1.3-1.1-1.9c0,0-0.1-0.1-0.1-0.2l-0.6-1.1l-9.4-18
								l-32.7-62.8C1386.8,720.4,1394.3,696.7,1413.5,686.7z"/>
						</g>
					</g>
					<path class="st40" d="M1403.5,838.1c-5.8,3-12,4.5-18.1,4.5c-14.2,0-27.8-7.7-34.8-21.1l-51.7-99.1l36.2-61.7
						c6-10.2,6.8-22.1,3.3-32.5l81.9,157C1430.2,804.3,1422.7,828,1403.5,838.1z"/>
					<path class="st40" d="M1176.8,658.9l32.8,62.9L1151,823.2c-7.3,12.5-20.4,19.4-33.9,19.4c-6.7,0-13.6-1.7-19.8-5.4
						c-18.7-10.9-25-35-14-53.7l94.4-162.7c0-0.1,0.1-0.1,0.1-0.2C1171.2,632,1170.3,646.4,1176.8,658.9z"/>
					<g>
						<g>
							<path class="st40" d="M1272.5,757.5c-4.4,2.3-8.9,3.6-13.5,4.2c-0.8,0.1-1.5,0.1-2.3,0.2c-0.7,0-1.5,0.1-2.2,0.1
								c-0.2,0-0.3,0-0.5,0c-0.8,0-1.5,0-2.3-0.1c-0.8-0.1-1.6-0.1-2.3-0.2c-1.7-0.2-3.4-0.5-5-1c-0.9-0.3-1.9-0.6-2.8-0.9
								c-9.2-3.1-17.2-9.6-22.1-18.9l-9.9-19l-32.8-62.9c-6.5-12.5-5.6-26.9,1.1-38.2c0.5-0.8,0.9-1.5,1.4-2.3
								c1-1.4,2.1-2.8,3.3-4.1c0.6-0.7,1.2-1.3,1.9-1.9c0.6-0.6,1.3-1.2,2-1.7c0.1-0.1,0.2-0.2,0.3-0.2c0.5-0.5,1-0.9,1.6-1.2
								c0.4-0.3,0.7-0.6,1.1-0.8c0.4-0.3,0.8-0.6,1.2-0.8c0.2-0.1,0.4-0.2,0.6-0.4c0.6-0.4,1.3-0.8,1.9-1.1c0,0,0.1-0.1,0.2-0.1
								c0.1,0,0.1,0,0.2-0.1c0.7-0.4,1.4-0.7,2-1c0.6-0.3,1.1-0.5,1.7-0.7c0.4-0.2,0.9-0.4,1.4-0.5c0.3-0.1,0.6-0.2,0.9-0.3
								c0.4-0.1,0.8-0.2,1.1-0.3c0.4-0.2,0.9-0.3,1.3-0.4c3.1-0.8,6.4-1.2,9.5-1.2c1.7,0,3.4,0.1,5.1,0.3c0,0,0.1,0,0.2,0
								c0.9,0.1,1.7,0.3,2.6,0.5c2.5,0.5,4.9,1.2,7.2,2.2c0.4,0.2,0.7,0.3,1,0.5c0.6,0.2,1.1,0.5,1.7,0.8c0.8,0.4,1.5,0.8,2.3,1.3
								c0.8,0.5,1.5,0.9,2.3,1.4c1.4,1,2.8,2.1,4.1,3.3c0.7,0.6,1.3,1.2,1.9,1.9c0.6,0.6,1.2,1.3,1.7,2c0.1,0.1,0.2,0.2,0.3,0.3
								c0.4,0.5,0.8,1,1.2,1.6c0.3,0.4,0.6,0.7,0.8,1.1c0.3,0.4,0.6,0.8,0.8,1.2c0.1,0.2,0.3,0.4,0.4,0.6c0.4,0.6,0.8,1.3,1.1,1.9
								c0,0,0.1,0.1,0.1,0.2l0.6,1.1l9.4,18l32.7,62.8C1299.2,723.7,1291.7,747.4,1272.5,757.5z"/>
						</g>
					</g>
					<path class="st40" d="M1335,660.6l-36.2,61.7l-33-63.4c-5.5-10.6-5.7-22.6-1.6-32.8c0,0,0,0,0,0l3-5.2
						c6.9-11.7,18.8-18.5,31.4-19.3c0.7,0,1.5-0.1,2.2-0.1c14.1,0.1,27.6,7.8,34.6,21.1l2.8,5.5l0,0
						C1341.8,638.5,1341,650.3,1335,660.6z"/>
				</g>
				<g>
					<g>
						<g>
							<path class="st40" d="M1056.1,686.7c4.4-2.3,8.9-3.6,13.5-4.2c0.8-0.1,1.5-0.1,2.3-0.2c0.7,0,1.5-0.1,2.2-0.1
								c0.2,0,0.3,0,0.5,0c0.8,0,1.5,0,2.3,0.1c0.8,0.1,1.6,0.1,2.3,0.2c1.7,0.2,3.4,0.5,5,1c0.9,0.3,1.9,0.6,2.8,0.9
								c9.2,3.1,17.2,9.6,22.1,18.9l9.9,19l32.8,62.9c6.5,12.5,5.6,26.9-1.1,38.2c-0.5,0.8-0.9,1.5-1.4,2.3c-1,1.4-2.1,2.8-3.3,4.1
								c-0.6,0.7-1.2,1.3-1.9,1.9c-0.6,0.6-1.3,1.2-2,1.7c-0.1,0.1-0.2,0.2-0.3,0.2c-0.5,0.5-1,0.9-1.6,1.2
								c-0.4,0.3-0.7,0.6-1.1,0.8c-0.4,0.3-0.8,0.6-1.2,0.8c-0.2,0.1-0.4,0.2-0.6,0.4c-0.6,0.4-1.3,0.8-1.9,1.1c0,0-0.1,0.1-0.2,0.1
								c-0.1,0-0.1,0-0.2,0.1c-0.7,0.4-1.4,0.7-2,1c-0.6,0.3-1.1,0.5-1.7,0.7c-0.4,0.2-0.9,0.4-1.4,0.5c-0.3,0.1-0.6,0.2-0.9,0.3
								c-0.4,0.1-0.8,0.2-1.1,0.3c-0.4,0.2-0.9,0.3-1.3,0.4c-3.1,0.8-6.4,1.2-9.5,1.2c-1.7,0-3.4-0.1-5.1-0.3c0,0-0.1,0-0.2,0
								c-0.9-0.1-1.7-0.3-2.6-0.5c-2.5-0.5-4.9-1.2-7.2-2.2c-0.4-0.2-0.7-0.3-1-0.5c-0.6-0.2-1.1-0.5-1.7-0.8
								c-0.8-0.4-1.5-0.8-2.3-1.3c-0.8-0.5-1.5-0.9-2.3-1.4c-1.4-1-2.8-2.1-4.1-3.3c-0.7-0.6-1.3-1.2-1.9-1.9
								c-0.6-0.6-1.2-1.3-1.7-2c-0.1-0.1-0.2-0.2-0.3-0.3c-0.4-0.5-0.8-1-1.2-1.6c-0.3-0.4-0.6-0.7-0.8-1.1
								c-0.3-0.4-0.6-0.8-0.8-1.2c-0.1-0.2-0.3-0.4-0.4-0.6c-0.4-0.6-0.8-1.3-1.1-1.9c0,0-0.1-0.1-0.1-0.2l-0.6-1.1l-9.4-18
								l-32.7-62.8C1029.4,720.4,1036.8,696.7,1056.1,686.7z"/>
						</g>
					</g>
					<path class="st40" d="M1046.1,838.1c-5.8,3-12,4.5-18.1,4.5c-14.2,0-27.8-7.7-34.8-21.1l-51.7-99.1l36.2-61.7
						c6-10.2,6.8-22.1,3.3-32.5l81.9,157C1072.7,804.3,1065.3,828,1046.1,838.1z"/>
					<path class="st40" d="M819.4,658.9l32.8,62.9l-58.6,101.4c-7.3,12.5-20.4,19.4-33.9,19.4c-6.7,0-13.6-1.7-19.8-5.4
						c-18.7-10.9-25-35-14-53.7l94.4-162.7c0-0.1,0.1-0.1,0.1-0.2C813.7,632,812.8,646.4,819.4,658.9z"/>
					<g>
						<g>
							<path class="st40" d="M915.1,757.5c-4.4,2.3-8.9,3.6-13.5,4.2c-0.8,0.1-1.5,0.1-2.3,0.2c-0.7,0-1.5,0.1-2.2,0.1
								c-0.2,0-0.3,0-0.5,0c-0.8,0-1.5,0-2.3-0.1c-0.8-0.1-1.6-0.1-2.3-0.2c-1.7-0.2-3.4-0.5-5-1c-0.9-0.3-1.9-0.6-2.8-0.9
								c-9.2-3.1-17.2-9.6-22.1-18.9l-9.9-19l-32.8-62.9c-6.5-12.5-5.6-26.9,1.1-38.2c0.5-0.8,0.9-1.5,1.4-2.3
								c1-1.4,2.1-2.8,3.3-4.1c0.6-0.7,1.2-1.3,1.9-1.9c0.6-0.6,1.3-1.2,2-1.7c0.1-0.1,0.2-0.2,0.3-0.2c0.5-0.5,1-0.9,1.6-1.2
								c0.4-0.3,0.7-0.6,1.1-0.8c0.4-0.3,0.8-0.6,1.2-0.8c0.2-0.1,0.4-0.2,0.6-0.4c0.6-0.4,1.3-0.8,1.9-1.1c0,0,0.1-0.1,0.2-0.1
								c0.1,0,0.1,0,0.2-0.1c0.7-0.4,1.4-0.7,2-1c0.6-0.3,1.1-0.5,1.7-0.7c0.4-0.2,0.9-0.4,1.4-0.5c0.3-0.1,0.6-0.2,0.9-0.3
								c0.4-0.1,0.8-0.2,1.1-0.3c0.4-0.2,0.9-0.3,1.3-0.4c3.1-0.8,6.4-1.2,9.5-1.2c1.7,0,3.4,0.1,5.1,0.3c0,0,0.1,0,0.2,0
								c0.9,0.1,1.7,0.3,2.6,0.5c2.5,0.5,4.9,1.2,7.2,2.2c0.4,0.2,0.7,0.3,1,0.5c0.6,0.2,1.1,0.5,1.7,0.8c0.8,0.4,1.5,0.8,2.3,1.3
								c0.8,0.5,1.5,0.9,2.3,1.4c1.4,1,2.8,2.1,4.1,3.3c0.7,0.6,1.3,1.2,1.9,1.9c0.6,0.6,1.2,1.3,1.7,2c0.1,0.1,0.2,0.2,0.3,0.3
								c0.4,0.5,0.8,1,1.2,1.6c0.3,0.4,0.6,0.7,0.8,1.1c0.3,0.4,0.6,0.8,0.8,1.2c0.1,0.2,0.3,0.4,0.4,0.6c0.4,0.6,0.8,1.3,1.1,1.9
								c0,0,0.1,0.1,0.1,0.2l0.6,1.1l9.4,18l32.7,62.8C941.7,723.7,934.3,747.4,915.1,757.5z"/>
						</g>
					</g>
					<path class="st40" d="M977.6,660.6l-36.2,61.7l-33-63.4c-5.5-10.6-5.7-22.6-1.6-32.8c0,0,0,0,0,0l3-5.2
						c6.9-11.7,18.8-18.5,31.4-19.3c0.7,0,1.5-0.1,2.2-0.1c14.1,0.1,27.6,7.8,34.6,21.1l2.8,5.5l0,0
						C984.4,638.5,983.6,650.3,977.6,660.6z"/>
				</g>
				<g>
					<g>
						<g>
							<path class="st40" d="M698.7,686.7c4.4-2.3,8.9-3.6,13.5-4.2c0.8-0.1,1.5-0.1,2.3-0.2c0.7,0,1.5-0.1,2.2-0.1
								c0.2,0,0.3,0,0.5,0c0.8,0,1.5,0,2.3,0.1c0.8,0.1,1.6,0.1,2.3,0.2c1.7,0.2,3.4,0.5,5,1c0.9,0.3,1.9,0.6,2.8,0.9
								c9.2,3.1,17.2,9.6,22.1,18.9l9.9,19l32.8,62.9c6.5,12.5,5.6,26.9-1.1,38.2c-0.5,0.8-0.9,1.5-1.4,2.3c-1,1.4-2.1,2.8-3.3,4.1
								c-0.6,0.7-1.2,1.3-1.9,1.9c-0.6,0.6-1.3,1.2-2,1.7c-0.1,0.1-0.2,0.2-0.3,0.2c-0.5,0.5-1,0.9-1.6,1.2
								c-0.4,0.3-0.7,0.6-1.1,0.8c-0.4,0.3-0.8,0.6-1.2,0.8c-0.2,0.1-0.4,0.2-0.6,0.4c-0.6,0.4-1.3,0.8-1.9,1.1c0,0-0.1,0.1-0.2,0.1
								c-0.1,0-0.1,0-0.2,0.1c-0.7,0.4-1.4,0.7-2,1c-0.6,0.3-1.1,0.5-1.7,0.7c-0.4,0.2-0.9,0.4-1.4,0.5c-0.3,0.1-0.6,0.2-0.9,0.3
								c-0.4,0.1-0.8,0.2-1.1,0.3c-0.4,0.2-0.9,0.3-1.3,0.4c-3.1,0.8-6.4,1.2-9.5,1.2c-1.7,0-3.4-0.1-5.1-0.3c0,0-0.1,0-0.2,0
								c-0.9-0.1-1.7-0.3-2.6-0.5c-2.5-0.5-4.9-1.2-7.2-2.2c-0.4-0.2-0.7-0.3-1-0.5c-0.6-0.2-1.1-0.5-1.7-0.8
								c-0.8-0.4-1.5-0.8-2.3-1.3c-0.8-0.5-1.5-0.9-2.3-1.4c-1.4-1-2.8-2.1-4.1-3.3c-0.7-0.6-1.3-1.2-1.9-1.9
								c-0.6-0.6-1.2-1.3-1.7-2c-0.1-0.1-0.2-0.2-0.3-0.3c-0.4-0.5-0.8-1-1.2-1.6c-0.3-0.4-0.6-0.7-0.8-1.1
								c-0.3-0.4-0.6-0.8-0.8-1.2c-0.1-0.2-0.3-0.4-0.4-0.6c-0.4-0.6-0.8-1.3-1.1-1.9c0,0-0.1-0.1-0.1-0.2l-0.6-1.1l-9.4-18
								l-32.7-62.8C672.1,720.4,679.5,696.7,698.7,686.7z"/>
						</g>
					</g>
					<path class="st40" d="M688.7,838.1c-5.8,3-12,4.5-18.1,4.5c-14.2,0-27.8-7.7-34.8-21.1l-51.7-99.1l36.2-61.7
						c6-10.2,6.8-22.1,3.3-32.5l81.9,157C715.4,804.3,708,828,688.7,838.1z"/>
					<path class="st40" d="M462,658.9l32.8,62.9l-58.6,101.4c-7.3,12.5-20.4,19.4-33.9,19.4c-6.7,0-13.6-1.7-19.8-5.4
						c-18.7-10.9-25-35-14-53.7L463,620.9c0-0.1,0.1-0.1,0.1-0.2C456.4,632,455.5,646.4,462,658.9z"/>
					<g>
						<g>
							<path class="st40" d="M557.8,757.5c-4.4,2.3-8.9,3.6-13.5,4.2c-0.8,0.1-1.5,0.1-2.3,0.2c-0.7,0-1.5,0.1-2.2,0.1
								c-0.2,0-0.3,0-0.5,0c-0.8,0-1.5,0-2.3-0.1c-0.8-0.1-1.6-0.1-2.3-0.2c-1.7-0.2-3.4-0.5-5-1c-0.9-0.3-1.9-0.6-2.8-0.9
								c-9.2-3.1-17.2-9.6-22.1-18.9l-9.9-19L462,658.9c-6.5-12.5-5.6-26.9,1.1-38.2c0.5-0.8,0.9-1.5,1.4-2.3c1-1.4,2.1-2.8,3.3-4.1
								c0.6-0.7,1.2-1.3,1.9-1.9c0.6-0.6,1.3-1.2,2-1.7c0.1-0.1,0.2-0.2,0.3-0.2c0.5-0.5,1-0.9,1.6-1.2c0.4-0.3,0.7-0.6,1.1-0.8
								c0.4-0.3,0.8-0.6,1.2-0.8c0.2-0.1,0.4-0.2,0.6-0.4c0.6-0.4,1.3-0.8,1.9-1.1c0,0,0.1-0.1,0.2-0.1c0.1,0,0.1,0,0.2-0.1
								c0.7-0.4,1.4-0.7,2-1c0.6-0.3,1.1-0.5,1.7-0.7c0.4-0.2,0.9-0.4,1.4-0.5c0.3-0.1,0.6-0.2,0.9-0.3c0.4-0.1,0.8-0.2,1.1-0.3
								c0.4-0.2,0.9-0.3,1.3-0.4c3.1-0.8,6.4-1.2,9.5-1.2c1.7,0,3.4,0.1,5.1,0.3c0,0,0.1,0,0.2,0c0.9,0.1,1.7,0.3,2.6,0.5
								c2.5,0.5,4.9,1.2,7.2,2.2c0.4,0.2,0.7,0.3,1,0.5c0.6,0.2,1.1,0.5,1.7,0.8c0.8,0.4,1.5,0.8,2.3,1.3c0.8,0.5,1.5,0.9,2.3,1.4
								c1.4,1,2.8,2.1,4.1,3.3c0.7,0.6,1.3,1.2,1.9,1.9c0.6,0.6,1.2,1.3,1.7,2c0.1,0.1,0.2,0.2,0.3,0.3c0.4,0.5,0.8,1,1.2,1.6
								c0.3,0.4,0.6,0.7,0.8,1.1c0.3,0.4,0.6,0.8,0.8,1.2c0.1,0.2,0.3,0.4,0.4,0.6c0.4,0.6,0.8,1.3,1.1,1.9c0,0,0.1,0.1,0.1,0.2
								l0.6,1.1l9.4,18l32.7,62.8C584.4,723.7,577,747.4,557.8,757.5z"/>
						</g>
					</g>
					<path class="st40" d="M620.2,660.6l-36.2,61.7l-33-63.4c-5.5-10.6-5.7-22.6-1.6-32.8c0,0,0,0,0,0l3-5.2
						c6.9-11.7,18.8-18.5,31.4-19.3c0.7,0,1.5-0.1,2.2-0.1c14.1,0.1,27.6,7.8,34.6,21.1l2.8,5.5l0,0
						C627.1,638.5,626.3,650.3,620.2,660.6z"/>
				</g>
				<g>
					<g>
						<g>
							<path class="st40" d="M341.2,686.7c4.4-2.3,8.9-3.6,13.5-4.2c0.8-0.1,1.5-0.1,2.3-0.2c0.7,0,1.5-0.1,2.2-0.1
								c0.2,0,0.3,0,0.5,0c0.8,0,1.5,0,2.3,0.1c0.8,0.1,1.6,0.1,2.3,0.2c1.7,0.2,3.4,0.5,5,1c0.9,0.3,1.9,0.6,2.8,0.9
								c9.2,3.1,17.2,9.6,22.1,18.9l9.9,19l32.8,62.9c6.5,12.5,5.6,26.9-1.1,38.2c-0.5,0.8-0.9,1.5-1.4,2.3c-1,1.4-2.1,2.8-3.3,4.1
								c-0.6,0.7-1.2,1.3-1.9,1.9c-0.6,0.6-1.3,1.2-2,1.7c-0.1,0.1-0.2,0.2-0.3,0.2c-0.5,0.5-1,0.9-1.6,1.2
								c-0.4,0.3-0.7,0.6-1.1,0.8c-0.4,0.3-0.8,0.6-1.2,0.8c-0.2,0.1-0.4,0.2-0.6,0.4c-0.6,0.4-1.3,0.8-1.9,1.1c0,0-0.1,0.1-0.2,0.1
								c-0.1,0-0.1,0-0.2,0.1c-0.7,0.4-1.4,0.7-2,1c-0.6,0.3-1.1,0.5-1.7,0.7c-0.4,0.2-0.9,0.4-1.4,0.5c-0.3,0.1-0.6,0.2-0.9,0.3
								c-0.4,0.1-0.8,0.2-1.1,0.3c-0.4,0.2-0.9,0.3-1.3,0.4c-3.1,0.8-6.4,1.2-9.5,1.2c-1.7,0-3.4-0.1-5.1-0.3c0,0-0.1,0-0.2,0
								c-0.9-0.1-1.7-0.3-2.6-0.5c-2.5-0.5-4.9-1.2-7.2-2.2c-0.4-0.2-0.7-0.3-1-0.5c-0.6-0.2-1.1-0.5-1.7-0.8
								c-0.8-0.4-1.5-0.8-2.3-1.3c-0.8-0.5-1.5-0.9-2.3-1.4c-1.4-1-2.8-2.1-4.1-3.3c-0.7-0.6-1.3-1.2-1.9-1.9
								c-0.6-0.6-1.2-1.3-1.7-2c-0.1-0.1-0.2-0.2-0.3-0.3c-0.4-0.5-0.8-1-1.2-1.6c-0.3-0.4-0.6-0.7-0.8-1.1
								c-0.3-0.4-0.6-0.8-0.8-1.2c-0.1-0.2-0.3-0.4-0.4-0.6c-0.4-0.6-0.8-1.3-1.1-1.9c0,0-0.1-0.1-0.1-0.2l-0.6-1.1l-9.4-18
								l-32.7-62.8C314.5,720.4,322,696.7,341.2,686.7z"/>
						</g>
					</g>
					<path class="st40" d="M331.2,838.1c-5.8,3-12,4.5-18.1,4.5c-14.2,0-27.8-7.7-34.8-21.1l-51.7-99.1l36.2-61.7
						c6-10.2,6.8-22.1,3.3-32.5l81.9,157C357.9,804.3,350.4,828,331.2,838.1z"/>
					<path class="st40" d="M104.5,658.9l32.8,62.9L78.8,823.2c-7.3,12.5-20.4,19.4-33.9,19.4c-6.7,0-13.6-1.7-19.8-5.4
						c-18.7-10.9-25-35-14-53.7l94.4-162.7c0-0.1,0.1-0.1,0.1-0.2C98.9,632,98,646.4,104.5,658.9z"/>
					<g>
						<g>
							<path class="st40" d="M200.2,757.5c-4.4,2.3-8.9,3.6-13.5,4.2c-0.8,0.1-1.5,0.1-2.3,0.2c-0.7,0-1.5,0.1-2.2,0.1
								c-0.2,0-0.3,0-0.5,0c-0.8,0-1.5,0-2.3-0.1c-0.8-0.1-1.6-0.1-2.3-0.2c-1.7-0.2-3.4-0.5-5-1c-0.9-0.3-1.9-0.6-2.8-0.9
								c-9.2-3.1-17.2-9.6-22.1-18.9l-9.9-19l-32.8-62.9c-6.5-12.5-5.6-26.9,1.1-38.2c0.5-0.8,0.9-1.5,1.4-2.3
								c1-1.4,2.1-2.8,3.3-4.1c0.6-0.7,1.2-1.3,1.9-1.9c0.6-0.6,1.3-1.2,2-1.7c0.1-0.1,0.2-0.2,0.3-0.2c0.5-0.5,1-0.9,1.6-1.2
								c0.4-0.3,0.7-0.6,1.1-0.8c0.4-0.3,0.8-0.6,1.2-0.8c0.2-0.1,0.4-0.2,0.6-0.4c0.6-0.4,1.3-0.8,1.9-1.1c0,0,0.1-0.1,0.2-0.1
								c0.1,0,0.1,0,0.2-0.1c0.7-0.4,1.4-0.7,2-1c0.6-0.3,1.1-0.5,1.7-0.7c0.4-0.2,0.9-0.4,1.4-0.5c0.3-0.1,0.6-0.2,0.9-0.3
								c0.4-0.1,0.8-0.2,1.1-0.3c0.4-0.2,0.9-0.3,1.3-0.4c3.1-0.8,6.4-1.2,9.5-1.2c1.7,0,3.4,0.1,5.1,0.3c0,0,0.1,0,0.2,0
								c0.9,0.1,1.7,0.3,2.6,0.5c2.5,0.5,4.9,1.2,7.2,2.2c0.4,0.2,0.7,0.3,1,0.5c0.6,0.2,1.1,0.5,1.7,0.8c0.8,0.4,1.5,0.8,2.3,1.3
								c0.8,0.5,1.5,0.9,2.3,1.4c1.4,1,2.8,2.1,4.1,3.3c0.7,0.6,1.3,1.2,1.9,1.9c0.6,0.6,1.2,1.3,1.7,2c0.1,0.1,0.2,0.2,0.3,0.3
								c0.4,0.5,0.8,1,1.2,1.6c0.3,0.4,0.6,0.7,0.8,1.1c0.3,0.4,0.6,0.8,0.8,1.2c0.1,0.2,0.3,0.4,0.4,0.6c0.4,0.6,0.8,1.3,1.1,1.9
								c0,0,0.1,0.1,0.1,0.2l0.6,1.1l9.4,18l32.7,62.8C226.9,723.7,219.4,747.4,200.2,757.5z"/>
						</g>
					</g>
					<path class="st40" d="M262.7,660.6l-36.2,61.7l-33-63.4c-5.5-10.6-5.7-22.6-1.6-32.8c0,0,0,0,0,0l3-5.2
						c6.9-11.7,18.8-18.5,31.4-19.3c0.7,0,1.5-0.1,2.2-0.1c14.1,0.1,27.6,7.8,34.6,21.1l2.8,5.5l0,0
						C269.5,638.5,268.7,650.3,262.7,660.6z"/>
				</g>
				<g>
					<g>
						<g>
							<path class="st40" d="M-16.1,686.7c4.4-2.3,8.9-3.6,13.5-4.2c0.8-0.1,1.5-0.1,2.3-0.2c0.7,0,1.5-0.1,2.2-0.1
								c0.2,0,0.3,0,0.5,0c0.8,0,1.5,0,2.3,0.1c0.8,0.1,1.6,0.1,2.3,0.2c1.7,0.2,3.4,0.5,5,1c0.9,0.3,1.9,0.6,2.8,0.9
								c9.2,3.1,17.2,9.6,22.1,18.9l9.9,19l32.8,62.9c6.5,12.5,5.6,26.9-1.1,38.2c-0.5,0.8-0.9,1.5-1.4,2.3c-1,1.4-2.1,2.8-3.3,4.1
								c-0.6,0.7-1.2,1.3-1.9,1.9c-0.6,0.6-1.3,1.2-2,1.7c-0.1,0.1-0.2,0.2-0.3,0.2c-0.5,0.5-1,0.9-1.6,1.2
								c-0.4,0.3-0.7,0.6-1.1,0.8c-0.4,0.3-0.8,0.6-1.2,0.8c-0.2,0.1-0.4,0.2-0.6,0.4c-0.6,0.4-1.3,0.8-1.9,1.1c0,0-0.1,0.1-0.2,0.1
								c-0.1,0-0.1,0-0.2,0.1c-0.7,0.4-1.4,0.7-2,1c-0.6,0.3-1.1,0.5-1.7,0.7c-0.4,0.2-0.9,0.4-1.4,0.5c-0.3,0.1-0.6,0.2-0.9,0.3
								c-0.4,0.1-0.8,0.2-1.1,0.3c-0.4,0.2-0.9,0.3-1.3,0.4c-3.1,0.8-6.4,1.2-9.5,1.2c-1.7,0-3.4-0.1-5.1-0.3c0,0-0.1,0-0.2,0
								c-0.9-0.1-1.7-0.3-2.6-0.5c-2.5-0.5-4.9-1.2-7.2-2.2c-0.4-0.2-0.7-0.3-1-0.5c-0.6-0.2-1.1-0.5-1.7-0.8
								c-0.8-0.4-1.5-0.8-2.3-1.3c-0.8-0.5-1.5-0.9-2.3-1.4c-1.4-1-2.8-2.1-4.1-3.3c-0.7-0.6-1.3-1.2-1.9-1.9
								c-0.6-0.6-1.2-1.3-1.7-2c-0.1-0.1-0.2-0.2-0.3-0.3c-0.4-0.5-0.8-1-1.2-1.6c-0.3-0.4-0.6-0.7-0.8-1.1
								c-0.3-0.4-0.6-0.8-0.8-1.2c-0.1-0.2-0.3-0.4-0.4-0.6c-0.4-0.6-0.8-1.3-1.1-1.9c0,0-0.1-0.1-0.1-0.2l-0.6-1.1l-9.4-18
								l-32.7-62.8C-42.8,720.4-35.3,696.7-16.1,686.7z"/>
						</g>
					</g>
				</g>
			</g>
		</g>
	</g>
</g>
<g id="Слой_2">
</g>
<g id="Слой_3">
</g>
<g id="Слой_4">
</g>
<g id="Слой_5">
</g>
</svg>
