<?xml version="1.0" encoding="utf-8"?>
<!-- Generator: Adobe Illustrator 17.1.0, SVG Export Plug-In . SVG Version: 6.00 Build 0)  -->
<!DOCTYPE svg PUBLIC "-//W3C//DTD SVG 1.1//EN" "http://www.w3.org/Graphics/SVG/1.1/DTD/svg11.dtd">
<svg version="1.1" xmlns="http://www.w3.org/2000/svg" xmlns:xlink="http://www.w3.org/1999/xlink" x="0px" y="0px"
	 viewBox="0 0 131.9 42.5" enable-background="new 0 0 131.9 42.5" xml:space="preserve">
<g id="Слой_5">
	<g>
		<g>
			<g>
				<g>
					<path fill="#BAE1F9" d="M73.6,42.5c-1.7,0-3.5-0.4-5.1-1.4c-5-2.8-6.8-9.2-3.9-14.2L76.9,5.3c2.8-5,9.2-6.8,14.2-3.9
						c5,2.8,6.8,9.2,3.9,14.2L82.7,37.3C80.8,40.6,77.2,42.5,73.6,42.5z"/>
				</g>
			</g>
			<path fill="#BAE1F9" d="M106.8,37c1.6-3,1.7-6.6,0-9.8l-6-11.3l8.8,16.1L106.8,37z"/>
			<path fill="#BAE1F9" d="M100.4,5.5c-1.5,2.9-1.7,6.4-0.2,9.6l-2.5-4.7L100.4,5.5z"/>
			<path fill="#16A2E5" d="M106.8,37l-0.1,0.1c-0.1,0.1-0.1,0.2-0.2,0.3c-0.1,0.2-0.2,0.4-0.4,0.6c-0.1,0.2-0.2,0.3-0.4,0.5
				c-0.1,0.1-0.1,0.2-0.2,0.2c-0.1,0.1-0.1,0.1-0.2,0.2c-0.1,0.1-0.1,0.1-0.2,0.2c-0.1,0.1-0.2,0.2-0.2,0.3
				c-0.1,0.1-0.2,0.2-0.3,0.2c-0.5,0.5-1,0.9-1.6,1.2c-0.2,0.1-0.4,0.3-0.6,0.4c-0.3,0.2-0.6,0.3-0.9,0.4c-0.1,0-0.2,0.1-0.3,0.1
				c-0.2,0.1-0.5,0.2-0.7,0.2c-0.1,0-0.2,0.1-0.3,0.1c0,0,0,0-0.1,0c-0.1,0-0.2,0-0.3,0.1c-0.1,0-0.2,0.1-0.3,0.1
				c-0.2,0-0.4,0.1-0.7,0.1c-0.2,0-0.5,0.1-0.7,0.1c-0.2,0-0.5,0-0.7,0c-0.2,0-0.4,0-0.7,0c-0.1,0-0.2,0-0.3,0c-0.1,0-0.2,0-0.4,0
				c-0.1,0-0.2,0-0.3,0c-0.1,0-0.2,0-0.3-0.1c-0.1,0-0.2,0-0.3-0.1c-0.3-0.1-0.6-0.1-0.8-0.2c-0.1,0-0.2-0.1-0.3-0.1
				c-0.1,0-0.2-0.1-0.3-0.1c-0.1,0-0.2-0.1-0.3-0.1c-0.1,0-0.2-0.1-0.3-0.1c-0.2-0.1-0.4-0.2-0.5-0.3c0,0,0,0-0.1,0
				c-0.9-0.5-1.7-1.1-2.4-1.9c-0.1-0.1-0.2-0.2-0.2-0.3c-0.1-0.1-0.2-0.2-0.2-0.3c-0.1-0.1-0.2-0.2-0.2-0.3
				c-0.1-0.1-0.1-0.2-0.2-0.3c-0.1-0.1-0.1-0.2-0.2-0.3c-0.1-0.1-0.2-0.2-0.2-0.4c-0.1-0.2-0.3-0.4-0.4-0.6
				c-0.1-0.1-0.1-0.2-0.2-0.3c-1.5-2.9-1.5-6.5,0.2-9.6l1.2-2.2l6.1-11l2-3.6l2.5,4.7l0.5,0.9l6.2,11.2
				C108.6,30.4,108.3,34.1,106.8,37z"/>
			<g>
				<g>
					<path fill="#16A2E5" d="M97.7,10.3l-2,3.6l-6.1,11l-1.2,2.2c-1.7,3.1-1.7,6.7-0.2,9.6L85.7,32l-8.9-16.6
						c-1.7-3.2-1.6-6.9,0-9.9c0.1-0.1,0.1-0.2,0.2-0.3c0.1-0.2,0.2-0.3,0.3-0.5c0.1-0.1,0.1-0.2,0.2-0.3c0.1-0.1,0.1-0.2,0.2-0.3
						c0.1-0.1,0.1-0.2,0.2-0.3C78,3.7,78,3.6,78.1,3.5c0.1-0.1,0.2-0.2,0.2-0.3c0.1-0.1,0.2-0.2,0.2-0.3c0.1-0.1,0.2-0.2,0.3-0.2
						c0.1-0.1,0.2-0.2,0.3-0.2c0.1-0.1,0.1-0.1,0.2-0.2c0.1-0.1,0.3-0.2,0.4-0.4C79.9,2,80,1.9,80.1,1.8c0.1-0.1,0.2-0.1,0.3-0.2
						c0.1-0.1,0.2-0.1,0.3-0.2c0.1-0.1,0.2-0.1,0.3-0.2c0.2-0.1,0.4-0.2,0.7-0.3c0.1-0.1,0.3-0.1,0.4-0.2c0.1,0,0.1,0,0.2-0.1
						c0.2-0.1,0.4-0.1,0.6-0.2c0.1,0,0.2-0.1,0.3-0.1c0.1,0,0.2-0.1,0.3-0.1c0.1,0,0.2,0,0.3-0.1c0.1,0,0.2,0,0.3-0.1
						c0.1,0,0.2,0,0.3,0c0.1,0,0.2,0,0.3,0c0.1,0,0.1,0,0.2,0c0.1,0,0.1,0,0.2,0c0.3,0,0.7,0,1,0c0.1,0,0.2,0,0.3,0
						c0.5,0,0.9,0.1,1.4,0.2c0.1,0,0.3,0.1,0.4,0.1l0.3,0.1c0.1,0,0.2,0.1,0.3,0.1c0.1,0,0.2,0.1,0.3,0.1c0.2,0.1,0.4,0.1,0.5,0.2
						c0.1,0,0.2,0.1,0.3,0.1c0.2,0.1,0.4,0.2,0.6,0.3c0.1,0.1,0.2,0.1,0.3,0.2c0.2,0.1,0.4,0.2,0.6,0.4c0.1,0.1,0.2,0.1,0.3,0.2
						c0.1,0.1,0.2,0.1,0.3,0.2c0.1,0.1,0.2,0.1,0.3,0.2c0.2,0.1,0.4,0.3,0.5,0.5c0.1,0.1,0.2,0.2,0.3,0.2c0.1,0.1,0.2,0.2,0.2,0.3
						c0.1,0.1,0.2,0.2,0.2,0.3c0.1,0.1,0.1,0.2,0.2,0.2c0.2,0.2,0.3,0.4,0.5,0.6c0.1,0.1,0.1,0.2,0.2,0.2c0.1,0.1,0.1,0.2,0.2,0.3
						c0.1,0.1,0.1,0.2,0.2,0.3c0,0.1,0.1,0.1,0.1,0.2L97.7,10.3z"/>
				</g>
			</g>
			<path fill="#DC325A" d="M126.5,41.3c-1.6,0.9-3.3,1.3-5,1.3c-3.7,0-7.2-2-9.1-5.4l-2.8-5.1l9.1-16.6c1.8-3.2,1.7-6.9,0.1-9.9
				l11.8,21.6C133.4,32.2,131.5,38.5,126.5,41.3z"/>
			<path fill="#A02C58" d="M118.7,15.4L109.5,32l-8.8-16.1l-0.5-0.9c-1.6-3.1-1.4-6.7,0.2-9.6l0.1-0.1c0,0,0,0,0,0
				c0.1-0.1,0.1-0.2,0.2-0.3c0.1-0.1,0.2-0.2,0.2-0.4c0.1-0.1,0.1-0.2,0.2-0.3c0.1-0.1,0.2-0.2,0.2-0.3c0.1-0.1,0.1-0.2,0.2-0.2
				c0.1-0.1,0.2-0.3,0.3-0.4c0.1-0.1,0.1-0.2,0.2-0.2c0.1-0.1,0.2-0.2,0.3-0.3c0.1-0.1,0.1-0.1,0.2-0.2c0.1-0.1,0.2-0.2,0.3-0.2
				c0.1-0.1,0.2-0.2,0.3-0.2c0.9-0.7,1.8-1.2,2.8-1.6c0.2-0.1,0.4-0.2,0.6-0.2c0.1,0,0.3-0.1,0.4-0.1c0.2-0.1,0.4-0.1,0.6-0.1
				c0.1,0,0.2,0,0.3-0.1c0.1,0,0.2,0,0.3-0.1c0.2,0,0.5-0.1,0.7-0.1c0.4,0,0.7,0,1.1,0c0.1,0,0.2,0,0.3,0c0.2,0,0.5,0,0.7,0.1
				c0.1,0,0.2,0,0.4,0.1c0.1,0,0.2,0,0.3,0.1c0.1,0,0.2,0,0.3,0.1c0.1,0,0.2,0.1,0.3,0.1c0.1,0,0.2,0.1,0.3,0.1
				c0.1,0,0.2,0.1,0.3,0.1c0.1,0,0.2,0.1,0.3,0.1c0.1,0,0.2,0.1,0.3,0.1c0.4,0.1,0.7,0.3,1.1,0.5c0.2,0.1,0.4,0.2,0.6,0.4
				c0.1,0.1,0.2,0.1,0.3,0.2c0.1,0.1,0.2,0.2,0.3,0.2c0.1,0.1,0.2,0.1,0.2,0.2c0.1,0.1,0.2,0.1,0.3,0.2c0.1,0.1,0.2,0.1,0.3,0.2
				c0.1,0.1,0.2,0.2,0.3,0.2c0.1,0.1,0.1,0.1,0.2,0.2c0,0,0.1,0.1,0.1,0.1c0.1,0.1,0.1,0.2,0.2,0.3c0.1,0.1,0.1,0.2,0.2,0.3
				c0.1,0.1,0.1,0.2,0.2,0.3c0.1,0.1,0.1,0.2,0.2,0.3c0.1,0.2,0.3,0.4,0.4,0.6c0.1,0.1,0.1,0.2,0.2,0.3c0,0,0.1,0.1,0.1,0.1
				C120.3,8.5,120.4,12.2,118.7,15.4z"/>
		</g>
		<g>
			<path d="M9.8,28.4V15.6c0-0.2,0.1-0.3,0.2-0.4c0.1-0.1,0.3-0.2,0.4-0.2h1.9c0.2,0,0.3,0.1,0.4,0.2c0.1,0.1,0.2,0.3,0.2,0.4v12.8
				H14c0.2,0,0.3,0.1,0.4,0.2c0.1,0.1,0.2,0.3,0.2,0.4v4.2c0,0.2-0.1,0.3-0.2,0.4c-0.1,0.1-0.3,0.2-0.4,0.2h-1.8
				c-0.2,0-0.3-0.1-0.4-0.2c-0.1-0.1-0.2-0.3-0.2-0.4v-1.9h-11c-0.2,0-0.3-0.1-0.4-0.2C0.1,31.1,0,30.9,0,30.7V15.6
				c0-0.2,0.1-0.3,0.2-0.4C0.3,15,0.5,15,0.6,15h1.9C2.7,15,2.8,15,3,15.2c0.1,0.1,0.2,0.3,0.2,0.4v12.8H9.8z"/>
			<path d="M27.2,26.2c0-0.2,0.1-0.4,0.2-0.5c0.1-0.1,0.3-0.2,0.4-0.2h1.9c0.2,0,0.3,0.1,0.5,0.2c0.1,0.1,0.2,0.3,0.2,0.5
				c0,0.6-0.2,1.3-0.5,1.9c-0.3,0.6-0.7,1.2-1.3,1.7s-1.3,0.9-2.1,1.3c-0.9,0.3-1.9,0.5-3.1,0.5c-1.1,0-2-0.2-2.9-0.5
				c-0.8-0.3-1.5-0.8-2.1-1.3c-0.6-0.6-1-1.3-1.3-2c-0.3-0.8-0.5-1.7-0.6-2.6c0-0.6,0-1.2,0-2c0-0.7,0-1.4,0-2
				c0.1-0.9,0.3-1.8,0.6-2.6c0.3-0.8,0.8-1.5,1.3-2c0.6-0.6,1.3-1,2.1-1.3c0.8-0.3,1.8-0.5,2.9-0.5c1.2,0,2.3,0.2,3.1,0.5
				c0.9,0.3,1.6,0.7,2.1,1.3c0.6,0.5,1,1.1,1.3,1.7c0.3,0.6,0.4,1.3,0.5,1.9c0,0.2,0,0.3-0.2,0.5c-0.1,0.1-0.3,0.2-0.5,0.2h-1.9
				c-0.2,0-0.3-0.1-0.4-0.2c-0.1-0.1-0.2-0.3-0.3-0.5c0-0.3-0.2-0.6-0.3-0.9c-0.2-0.3-0.4-0.6-0.7-0.8c-0.3-0.2-0.7-0.4-1.1-0.6
				c-0.5-0.1-1-0.2-1.6-0.2c-0.6,0-1.1,0.1-1.6,0.3c-0.5,0.2-0.8,0.4-1.1,0.7c-0.3,0.3-0.5,0.7-0.7,1.1c-0.2,0.4-0.3,0.9-0.3,1.4
				c0,0.6,0,1.2,0,2c0,0.7,0,1.4,0,2c0,0.5,0.1,1,0.3,1.4c0.2,0.4,0.4,0.8,0.7,1.1c0.3,0.3,0.7,0.6,1.1,0.7c0.5,0.2,1,0.3,1.6,0.3
				c0.6,0,1.1-0.1,1.6-0.2c0.5-0.1,0.8-0.3,1.1-0.6s0.5-0.5,0.7-0.8C27.1,26.8,27.2,26.5,27.2,26.2z"/>
			<path d="M40.8,23.3l4.4-7.7c0.1-0.1,0.2-0.2,0.3-0.4c0.1-0.2,0.4-0.3,0.7-0.3h1.6c0.2,0,0.3,0.1,0.4,0.2c0.1,0.1,0.2,0.3,0.2,0.4
				v15.1c0,0.2-0.1,0.3-0.2,0.4c-0.1,0.1-0.3,0.2-0.4,0.2H46c-0.2,0-0.3-0.1-0.4-0.2c-0.1-0.1-0.2-0.3-0.2-0.4v-9.2l-3,5.3
				c-0.1,0.1-0.2,0.3-0.3,0.4c-0.1,0.1-0.3,0.2-0.5,0.2h-1.2c-0.2,0-0.4-0.1-0.5-0.2c-0.1-0.1-0.2-0.3-0.3-0.4l-3-5.3v9.2
				c0,0.2-0.1,0.3-0.2,0.4c-0.1,0.1-0.3,0.2-0.4,0.2h-1.9c-0.2,0-0.3-0.1-0.4-0.2c-0.1-0.1-0.2-0.3-0.2-0.4V15.6
				c0-0.2,0.1-0.3,0.2-0.4c0.1-0.1,0.3-0.2,0.4-0.2h1.6c0.3,0,0.5,0.1,0.7,0.3c0.1,0.2,0.3,0.3,0.3,0.4L40.8,23.3z"/>
		</g>
	</g>
</g>
</svg>
