<?xml version="1.0" encoding="utf-8"?>
<!-- Generator: Adobe Illustrator 22.0.1, SVG Export Plug-In . SVG Version: 6.00 Build 0)  -->
<svg version="1.1" xmlns="http://www.w3.org/2000/svg" xmlns:xlink="http://www.w3.org/1999/xlink" x="0px" y="0px"
	 viewBox="0 0 130 80.8" style="enable-background:new 0 0 130 80.8;" xml:space="preserve">
<style type="text/css">
	.st0{fill:#D8D9DA;}
	.st1{fill:#C3C5C6;}
	.st2{fill:#FFFFFF;}
	.st3{fill:url(#SVGID_1_);}
	.st4{opacity:7.000000e-02;}
	.st5{clip-path:url(#SVGID_3_);}
	.st6{fill:#FFFFFF;stroke:#231F20;stroke-width:0.9591;stroke-miterlimit:10;}
	.st7{fill:#BAE1F9;}
	.st8{fill:#16A2E5;}
	.st9{fill:#DC325A;}
	.st10{fill:#A02C58;}
	.st11{opacity:0.2;fill:none;stroke:#BAE1F9;stroke-width:2;stroke-miterlimit:10;}
	.st12{fill:none;stroke:#BAE1F9;stroke-width:2;stroke-miterlimit:10;}
	.st13{fill:none;stroke:#BAE1F9;stroke-miterlimit:10;}
	.st14{fill:url(#SVGID_4_);}
	.st15{clip-path:url(#SVGID_6_);}
	.st16{fill:#FFFFFF;stroke:#231F20;stroke-width:1.0534;stroke-miterlimit:10;}
	.st17{fill:#575756;}
	.st18{fill:none;stroke:#16A2E5;stroke-width:2;stroke-miterlimit:10;}
	.st19{clip-path:url(#SVGID_8_);}
	.st20{clip-path:url(#SVGID_10_);}
	.st21{opacity:0.3;clip-path:url(#SVGID_8_);fill:#0D1938;}
	.st22{fill:#AEB0B2;}
	.st23{opacity:5.000000e-02;fill:none;stroke:#231F20;stroke-width:2;stroke-miterlimit:10;}
	.st24{opacity:0.3;}
	.st25{fill:none;stroke:#231F20;stroke-width:2;stroke-miterlimit:10;}
	.st26{fill:none;stroke:#D8D9DA;stroke-miterlimit:10;}
	.st27{fill:url(#SVGID_12_);}
	.st28{fill:url(#SVGID_14_);}
	.st29{fill:url(#SVGID_16_);}
	.st30{fill:url(#SVGID_17_);}
	.st31{fill:url(#SVGID_18_);}
	.st32{fill:url(#SVGID_20_);}
	.st33{opacity:0;fill:#E3F6FF;}
	.st34{clip-path:url(#SVGID_22_);}
	.st35{fill:none;stroke:url(#SVGID_24_);stroke-width:18.2996;stroke-linecap:round;stroke-linejoin:round;stroke-miterlimit:10;}
	.st36{fill:none;stroke:url(#SVGID_25_);stroke-width:18.2996;stroke-linecap:round;stroke-linejoin:round;stroke-miterlimit:10;}
	.st37{fill:none;stroke:url(#SVGID_26_);stroke-width:18.2996;stroke-linecap:round;stroke-linejoin:round;stroke-miterlimit:10;}
	.st38{fill:#F3AA8A;}
	.st39{opacity:0;}
	.st40{fill:none;stroke:#FFFFFF;stroke-width:0.915;stroke-linecap:round;stroke-linejoin:round;stroke-miterlimit:10;}
	.st41{fill:url(#SVGID_27_);}
	.st42{fill:none;stroke:url(#SVGID_28_);stroke-width:18.2996;stroke-linecap:round;stroke-linejoin:round;stroke-miterlimit:10;}
	.st43{fill:none;stroke:url(#SVGID_29_);stroke-width:18.2996;stroke-linecap:round;stroke-linejoin:round;stroke-miterlimit:10;}
	.st44{fill:url(#SVGID_30_);}
	.st45{fill:url(#SVGID_31_);}
	.st46{fill:none;stroke:url(#SVGID_32_);stroke-width:18.2996;stroke-linecap:round;stroke-linejoin:round;stroke-miterlimit:10;}
	.st47{fill:#9E2C58;}
	.st48{fill:url(#SVGID_33_);}
	.st49{fill:none;stroke:url(#SVGID_34_);stroke-width:18.2996;stroke-linecap:round;stroke-linejoin:round;stroke-miterlimit:10;}
	.st50{fill:#1D3160;}
	.st51{fill:url(#SVGID_35_);}
	.st52{fill:#F6F7F7;}
	.st53{opacity:0.5;}
	.st54{clip-path:url(#SVGID_37_);}
	.st55{fill:#F6F7F7;stroke:#F1F2F2;stroke-miterlimit:10;}
	.st56{fill:#FFFFFF;stroke:#F1F2F2;stroke-miterlimit:10;}
	.st57{opacity:0.65;}
	.st58{fill:#999B9E;}
	.st59{fill:url(#SVGID_38_);}
	.st60{clip-path:url(#SVGID_40_);}
	.st61{fill:#FFFFFF;stroke:#231F20;stroke-miterlimit:10;}
	.st62{fill:url(#SVGID_41_);}
	.st63{clip-path:url(#SVGID_43_);}
	.st64{fill:#FFFFFF;stroke:#231F20;stroke-width:1.167;stroke-miterlimit:10;}
	.st65{clip-path:url(#SVGID_45_);}
	.st66{clip-path:url(#SVGID_47_);}
	.st67{clip-path:url(#SVGID_51_);}
	.st68{clip-path:url(#SVGID_53_);}
	.st69{clip-path:url(#SVGID_55_);}
	.st70{clip-path:url(#SVGID_55_);fill:#FFFFFF;}
	.st71{opacity:0.3;clip-path:url(#SVGID_55_);fill:#0D1938;}
	.st72{fill:url(#SVGID_56_);}
	.st73{fill:url(#SVGID_57_);}
	.st74{fill:url(#SVGID_58_);}
	.st75{fill:url(#SVGID_59_);}
	.st76{fill:url(#SVGID_60_);}
	.st77{fill:url(#SVGID_61_);}
	.st78{clip-path:url(#SVGID_63_);}
	.st79{fill:none;stroke:url(#SVGID_64_);stroke-width:19.0235;stroke-linecap:round;stroke-linejoin:round;stroke-miterlimit:10;}
	.st80{fill:none;stroke:url(#SVGID_65_);stroke-width:19.0235;stroke-linecap:round;stroke-linejoin:round;stroke-miterlimit:10;}
	.st81{fill:none;stroke:url(#SVGID_66_);stroke-width:19.0235;stroke-linecap:round;stroke-linejoin:round;stroke-miterlimit:10;}
	.st82{fill:none;stroke:#FFFFFF;stroke-width:0.9512;stroke-linecap:round;stroke-linejoin:round;stroke-miterlimit:10;}
	.st83{fill:url(#SVGID_67_);}
	.st84{fill:none;stroke:url(#SVGID_68_);stroke-width:19.0235;stroke-linecap:round;stroke-linejoin:round;stroke-miterlimit:10;}
	.st85{fill:none;stroke:url(#SVGID_69_);stroke-width:19.0235;stroke-linecap:round;stroke-linejoin:round;stroke-miterlimit:10;}
	.st86{fill:url(#SVGID_70_);}
	.st87{fill:url(#SVGID_71_);}
	.st88{fill:none;stroke:url(#SVGID_72_);stroke-width:19.0235;stroke-linecap:round;stroke-linejoin:round;stroke-miterlimit:10;}
	.st89{fill:url(#SVGID_73_);}
	.st90{fill:none;stroke:url(#SVGID_74_);stroke-width:19.0235;stroke-linecap:round;stroke-linejoin:round;stroke-miterlimit:10;}
	.st91{fill:url(#SVGID_75_);}
	.st92{fill:url(#SVGID_76_);}
	.st93{fill:url(#SVGID_77_);}
	.st94{fill:url(#SVGID_78_);}
	.st95{fill:url(#SVGID_79_);}
	.st96{fill:url(#SVGID_80_);}
	.st97{fill:url(#SVGID_81_);}
	.st98{clip-path:url(#SVGID_83_);}
	.st99{fill:none;stroke:url(#SVGID_84_);stroke-width:19.0235;stroke-linecap:round;stroke-linejoin:round;stroke-miterlimit:10;}
	.st100{fill:none;stroke:url(#SVGID_85_);stroke-width:19.0235;stroke-linecap:round;stroke-linejoin:round;stroke-miterlimit:10;}
	.st101{fill:none;stroke:url(#SVGID_86_);stroke-width:19.0235;stroke-linecap:round;stroke-linejoin:round;stroke-miterlimit:10;}
	.st102{fill:url(#SVGID_87_);}
	.st103{fill:none;stroke:url(#SVGID_88_);stroke-width:19.0235;stroke-linecap:round;stroke-linejoin:round;stroke-miterlimit:10;}
	.st104{fill:none;stroke:url(#SVGID_89_);stroke-width:19.0235;stroke-linecap:round;stroke-linejoin:round;stroke-miterlimit:10;}
	.st105{fill:url(#SVGID_90_);}
	.st106{fill:url(#SVGID_91_);}
	.st107{fill:none;stroke:url(#SVGID_92_);stroke-width:19.0235;stroke-linecap:round;stroke-linejoin:round;stroke-miterlimit:10;}
	.st108{fill:url(#SVGID_93_);}
	.st109{fill:none;stroke:url(#SVGID_94_);stroke-width:19.0235;stroke-linecap:round;stroke-linejoin:round;stroke-miterlimit:10;}
	.st110{fill:url(#SVGID_95_);}
	.st111{clip-path:url(#SVGID_97_);}
	.st112{clip-path:url(#SVGID_99_);}
	.st113{fill:url(#SVGID_100_);}
	.st114{fill:url(#SVGID_101_);}
	.st115{fill:url(#SVGID_102_);}
	.st116{fill:url(#SVGID_103_);}
	.st117{fill:url(#SVGID_104_);}
	.st118{fill:url(#SVGID_105_);}
	.st119{opacity:0.7;clip-path:url(#SVGID_107_);}
	.st120{opacity:0;clip-path:url(#SVGID_107_);}
	.st121{fill:#B0DDF4;}
	.st122{fill:url(#SVGID_108_);}
	.st123{fill:url(#SVGID_109_);}
	.st124{fill:url(#SVGID_110_);}
	.st125{fill:url(#SVGID_111_);}
	.st126{fill:url(#SVGID_112_);}
	.st127{fill:url(#SVGID_113_);}
	
		.st128{clip-path:url(#SVGID_115_);fill:none;stroke:url(#SVGID_116_);stroke-width:36.3629;stroke-linecap:round;stroke-linejoin:round;stroke-miterlimit:10;}
	.st129{clip-path:url(#SVGID_115_);fill:#F3AA8A;}
	.st130{clip-path:url(#SVGID_115_);fill:#FFFFFF;}
	.st131{opacity:0;clip-path:url(#SVGID_115_);fill:#D8D9DA;}
	.st132{clip-path:url(#SVGID_115_);fill:#FFFFFF;stroke:#EDEDED;stroke-miterlimit:10;}
	
		.st133{clip-path:url(#SVGID_115_);fill:none;stroke:url(#SVGID_117_);stroke-width:1.6234;stroke-linecap:round;stroke-linejoin:round;stroke-miterlimit:10;}
	.st134{clip-path:url(#SVGID_115_);}
	.st135{fill:none;stroke:#D8D9DA;stroke-width:1.6234;stroke-linecap:round;stroke-linejoin:round;stroke-miterlimit:10;}
	.st136{clip-path:url(#SVGID_115_);fill:none;stroke:#39A74A;stroke-width:1.6234;stroke-miterlimit:10;}
	.st137{fill:#39A74A;}
	.st138{clip-path:url(#SVGID_115_);fill:#E3F6FF;}
	
		.st139{clip-path:url(#SVGID_119_);fill:none;stroke:url(#SVGID_120_);stroke-width:20.5274;stroke-linecap:round;stroke-linejoin:round;stroke-miterlimit:10;}
	.st140{clip-path:url(#SVGID_119_);fill:#F3AA8A;}
	.st141{clip-path:url(#SVGID_119_);fill:url(#SVGID_121_);}
	.st142{clip-path:url(#SVGID_119_);fill:#1D3160;}
	.st143{clip-path:url(#SVGID_115_);fill:url(#SVGID_122_);}
	.st144{fill:url(#SVGID_123_);}
	.st145{fill:url(#SVGID_124_);}
	.st146{fill:url(#SVGID_125_);}
	.st147{fill:url(#SVGID_126_);}
	.st148{fill:url(#SVGID_127_);}
	.st149{fill:url(#SVGID_128_);}
	.st150{opacity:0;fill:url(#SVGID_129_);}
	.st151{fill:#FFFFFF;stroke:#EDEDED;stroke-miterlimit:10;}
	.st152{fill:url(#SVGID_130_);}
	.st153{fill:#E3F6FF;}
	.st154{fill:none;stroke:#DC325A;stroke-width:2.2696;stroke-linecap:round;stroke-linejoin:round;stroke-miterlimit:10;}
	.st155{fill:none;stroke:url(#SVGID_131_);stroke-width:9.4704;stroke-linecap:round;stroke-linejoin:round;stroke-miterlimit:10;}
	.st156{fill:url(#SVGID_132_);}
	.st157{fill:url(#SVGID_133_);}
	.st158{fill:none;stroke:url(#SVGID_134_);stroke-width:13.3907;stroke-linecap:round;stroke-linejoin:round;stroke-miterlimit:10;}
	.st159{fill:url(#SVGID_135_);}
	.st160{fill:url(#SVGID_136_);}
	.st161{fill:url(#SVGID_137_);}
	.st162{fill:none;stroke:url(#SVGID_138_);stroke-width:9.4704;stroke-linecap:round;stroke-linejoin:round;stroke-miterlimit:10;}
	.st163{fill:url(#SVGID_139_);}
	.st164{fill:url(#SVGID_140_);}
	.st165{opacity:0.65;fill:#999B9E;}
	.st166{fill:none;stroke:#FFFFFF;stroke-miterlimit:10;}
	.st167{fill:#85878A;}
	.st168{opacity:0.7;}
	.st169{clip-path:url(#SVGID_142_);}
	.st170{clip-path:url(#SVGID_144_);}
	.st171{clip-path:url(#SVGID_148_);}
	.st172{clip-path:url(#SVGID_150_);}
	.st173{fill:url(#SVGID_151_);}
	.st174{fill:url(#SVGID_152_);}
	.st175{fill:url(#SVGID_153_);}
	.st176{fill:url(#SVGID_154_);}
	.st177{fill:url(#SVGID_155_);}
	.st178{fill:url(#SVGID_156_);}
	.st179{opacity:0.7;clip-path:url(#SVGID_158_);}
	.st180{opacity:0;clip-path:url(#SVGID_158_);}
	.st181{clip-path:url(#SVGID_160_);}
	.st182{clip-path:url(#SVGID_162_);}
	.st183{clip-path:url(#SVGID_166_);}
	.st184{fill:#F6F7F7;stroke:#F1F2F2;stroke-width:1.163;stroke-miterlimit:10;}
	.st185{fill:#FFFFFF;stroke:#F1F2F2;stroke-width:1.163;stroke-miterlimit:10;}
	.st186{clip-path:url(#SVGID_168_);}
	.st187{clip-path:url(#SVGID_170_);}
	.st188{fill:url(#SVGID_171_);}
	.st189{fill:url(#SVGID_172_);}
	.st190{fill:url(#SVGID_173_);}
	.st191{fill:url(#SVGID_174_);}
	.st192{fill:url(#SVGID_175_);}
	.st193{fill:url(#SVGID_176_);}
	.st194{opacity:0.7;clip-path:url(#SVGID_178_);}
	.st195{opacity:0;clip-path:url(#SVGID_178_);}
	.st196{fill:none;stroke:#FFFFFF;stroke-width:1.163;stroke-miterlimit:10;}
	.st197{fill:none;stroke:#16A2E5;stroke-width:2.334;stroke-miterlimit:10;}
	.st198{clip-path:url(#SVGID_180_);}
	.st199{clip-path:url(#SVGID_182_);}
	.st200{clip-path:url(#SVGID_182_);fill:#FFFFFF;}
	.st201{opacity:0.3;clip-path:url(#SVGID_182_);fill:#0D1938;}
	.st202{fill:url(#SVGID_183_);}
	.st203{fill:url(#SVGID_184_);}
	.st204{fill:url(#SVGID_185_);}
	.st205{fill:url(#SVGID_186_);}
	.st206{fill:url(#SVGID_187_);}
	.st207{fill:url(#SVGID_188_);}
	.st208{clip-path:url(#SVGID_190_);}
	.st209{fill:none;stroke:url(#SVGID_191_);stroke-width:22.2004;stroke-linecap:round;stroke-linejoin:round;stroke-miterlimit:10;}
	.st210{fill:none;stroke:url(#SVGID_192_);stroke-width:22.2004;stroke-linecap:round;stroke-linejoin:round;stroke-miterlimit:10;}
	.st211{fill:none;stroke:url(#SVGID_193_);stroke-width:22.2004;stroke-linecap:round;stroke-linejoin:round;stroke-miterlimit:10;}
	.st212{fill:none;stroke:#FFFFFF;stroke-width:1.11;stroke-linecap:round;stroke-linejoin:round;stroke-miterlimit:10;}
	.st213{fill:url(#SVGID_194_);}
	.st214{fill:none;stroke:url(#SVGID_195_);stroke-width:22.2004;stroke-linecap:round;stroke-linejoin:round;stroke-miterlimit:10;}
	.st215{fill:none;stroke:url(#SVGID_196_);stroke-width:22.2004;stroke-linecap:round;stroke-linejoin:round;stroke-miterlimit:10;}
	.st216{fill:url(#SVGID_197_);}
	.st217{fill:url(#SVGID_198_);}
	.st218{fill:none;stroke:url(#SVGID_199_);stroke-width:22.2004;stroke-linecap:round;stroke-linejoin:round;stroke-miterlimit:10;}
	.st219{fill:url(#SVGID_200_);}
	.st220{fill:none;stroke:url(#SVGID_201_);stroke-width:22.2004;stroke-linecap:round;stroke-linejoin:round;stroke-miterlimit:10;}
	.st221{fill:url(#SVGID_202_);}
	.st222{fill:url(#SVGID_203_);}
	.st223{clip-path:url(#SVGID_205_);}
	.st224{fill:#FFFFFF;stroke:#231F20;stroke-width:1.2831;stroke-miterlimit:10;}
	.st225{clip-path:url(#SVGID_207_);}
	.st226{clip-path:url(#SVGID_209_);}
	.st227{clip-path:url(#SVGID_213_);}
	.st228{fill:#F6F7F7;stroke:#F1F2F2;stroke-width:1.2787;stroke-miterlimit:10;}
	.st229{fill:#FFFFFF;stroke:#F1F2F2;stroke-width:1.2787;stroke-miterlimit:10;}
	.st230{clip-path:url(#SVGID_215_);}
	.st231{clip-path:url(#SVGID_217_);}
	.st232{fill:url(#SVGID_218_);}
	.st233{fill:url(#SVGID_219_);}
	.st234{fill:url(#SVGID_220_);}
	.st235{fill:url(#SVGID_221_);}
	.st236{fill:url(#SVGID_222_);}
	.st237{fill:url(#SVGID_223_);}
	.st238{opacity:0.7;clip-path:url(#SVGID_225_);}
	.st239{opacity:0;clip-path:url(#SVGID_225_);}
	.st240{fill:none;stroke:#FFFFFF;stroke-width:1.2208;stroke-miterlimit:10;}
	.st241{fill:none;stroke:#16A2E5;stroke-width:2.5662;stroke-miterlimit:10;}
	.st242{clip-path:url(#SVGID_227_);}
	.st243{clip-path:url(#SVGID_229_);}
	.st244{clip-path:url(#SVGID_229_);fill:#FFFFFF;}
	.st245{opacity:0.3;clip-path:url(#SVGID_229_);fill:#0D1938;}
	.st246{fill:url(#SVGID_230_);}
	.st247{fill:url(#SVGID_231_);}
	.st248{fill:url(#SVGID_232_);}
	.st249{fill:url(#SVGID_233_);}
	.st250{fill:url(#SVGID_234_);}
	.st251{fill:url(#SVGID_235_);}
	.st252{clip-path:url(#SVGID_237_);}
	.st253{fill:none;stroke:url(#SVGID_238_);stroke-width:24.4087;stroke-linecap:round;stroke-linejoin:round;stroke-miterlimit:10;}
	.st254{fill:none;stroke:url(#SVGID_239_);stroke-width:24.4087;stroke-linecap:round;stroke-linejoin:round;stroke-miterlimit:10;}
	.st255{fill:none;stroke:url(#SVGID_240_);stroke-width:24.4087;stroke-linecap:round;stroke-linejoin:round;stroke-miterlimit:10;}
	.st256{fill:none;stroke:#FFFFFF;stroke-width:1.2204;stroke-linecap:round;stroke-linejoin:round;stroke-miterlimit:10;}
	.st257{fill:url(#SVGID_241_);}
	.st258{fill:none;stroke:url(#SVGID_242_);stroke-width:24.4087;stroke-linecap:round;stroke-linejoin:round;stroke-miterlimit:10;}
	.st259{fill:none;stroke:url(#SVGID_243_);stroke-width:24.4087;stroke-linecap:round;stroke-linejoin:round;stroke-miterlimit:10;}
	.st260{fill:url(#SVGID_244_);}
	.st261{fill:url(#SVGID_245_);}
	.st262{fill:none;stroke:url(#SVGID_246_);stroke-width:24.4087;stroke-linecap:round;stroke-linejoin:round;stroke-miterlimit:10;}
	.st263{fill:url(#SVGID_247_);}
	.st264{fill:none;stroke:url(#SVGID_248_);stroke-width:24.4087;stroke-linecap:round;stroke-linejoin:round;stroke-miterlimit:10;}
	.st265{fill:url(#SVGID_249_);}
	.st266{fill:url(#SVGID_250_);}
	.st267{clip-path:url(#SVGID_252_);}
	.st268{fill:#FFFFFF;stroke:#231F20;stroke-width:1.4926;stroke-miterlimit:10;}
	.st269{fill:none;stroke:#16A2E5;stroke-width:2.3265;stroke-miterlimit:10;}
	.st270{clip-path:url(#SVGID_254_);}
	.st271{clip-path:url(#SVGID_256_);}
	.st272{clip-path:url(#SVGID_260_);}
	.st273{fill:#F6F7F7;stroke:#F1F2F2;stroke-width:1.4875;stroke-miterlimit:10;}
	.st274{fill:#FFFFFF;stroke:#F1F2F2;stroke-width:1.4875;stroke-miterlimit:10;}
	.st275{clip-path:url(#SVGID_262_);}
	.st276{clip-path:url(#SVGID_264_);}
	.st277{fill:url(#SVGID_265_);}
	.st278{fill:url(#SVGID_266_);}
	.st279{fill:url(#SVGID_267_);}
	.st280{fill:url(#SVGID_268_);}
	.st281{fill:url(#SVGID_269_);}
	.st282{fill:url(#SVGID_270_);}
	.st283{opacity:0.7;clip-path:url(#SVGID_272_);}
	.st284{opacity:0;clip-path:url(#SVGID_272_);}
	.st285{fill:none;stroke:#FFFFFF;stroke-width:1.3986;stroke-miterlimit:10;}
	.st286{fill:none;stroke:#16A2E5;stroke-width:2.9851;stroke-miterlimit:10;}
	.st287{clip-path:url(#SVGID_274_);}
	.st288{clip-path:url(#SVGID_276_);}
	.st289{clip-path:url(#SVGID_276_);fill:#FFFFFF;}
	.st290{opacity:0.3;clip-path:url(#SVGID_276_);fill:#0D1938;}
	.st291{fill:url(#SVGID_277_);}
	.st292{fill:url(#SVGID_278_);}
	.st293{fill:url(#SVGID_279_);}
	.st294{fill:url(#SVGID_280_);}
	.st295{fill:url(#SVGID_281_);}
	.st296{fill:url(#SVGID_282_);}
	.st297{clip-path:url(#SVGID_284_);}
	.st298{fill:none;stroke:url(#SVGID_285_);stroke-width:28.3939;stroke-linecap:round;stroke-linejoin:round;stroke-miterlimit:10;}
	.st299{fill:none;stroke:url(#SVGID_286_);stroke-width:28.3939;stroke-linecap:round;stroke-linejoin:round;stroke-miterlimit:10;}
	.st300{fill:none;stroke:url(#SVGID_287_);stroke-width:28.3939;stroke-linecap:round;stroke-linejoin:round;stroke-miterlimit:10;}
	.st301{fill:none;stroke:#FFFFFF;stroke-width:1.4197;stroke-linecap:round;stroke-linejoin:round;stroke-miterlimit:10;}
	.st302{fill:url(#SVGID_288_);}
	.st303{fill:none;stroke:url(#SVGID_289_);stroke-width:28.3939;stroke-linecap:round;stroke-linejoin:round;stroke-miterlimit:10;}
	.st304{fill:none;stroke:url(#SVGID_290_);stroke-width:28.3939;stroke-linecap:round;stroke-linejoin:round;stroke-miterlimit:10;}
	.st305{fill:url(#SVGID_291_);}
	.st306{fill:url(#SVGID_292_);}
	.st307{fill:none;stroke:url(#SVGID_293_);stroke-width:28.3939;stroke-linecap:round;stroke-linejoin:round;stroke-miterlimit:10;}
	.st308{fill:url(#SVGID_294_);}
	.st309{fill:none;stroke:url(#SVGID_295_);stroke-width:28.3939;stroke-linecap:round;stroke-linejoin:round;stroke-miterlimit:10;}
	.st310{fill:url(#SVGID_296_);}
	.st311{clip-path:url(#SVGID_298_);}
	.st312{fill:#F6F7F7;stroke:#F1F2F2;stroke-width:1.0993;stroke-miterlimit:10;}
	.st313{fill:#FFFFFF;stroke:#F1F2F2;stroke-width:1.0993;stroke-miterlimit:10;}
	.st314{clip-path:url(#SVGID_300_);}
	.st315{clip-path:url(#SVGID_302_);}
	.st316{clip-path:url(#SVGID_306_);}
	.st317{clip-path:url(#SVGID_308_);}
	.st318{fill:url(#SVGID_309_);}
	.st319{fill:url(#SVGID_310_);}
	.st320{fill:url(#SVGID_311_);}
	.st321{fill:url(#SVGID_312_);}
	.st322{fill:url(#SVGID_313_);}
	.st323{fill:url(#SVGID_314_);}
	.st324{opacity:0.7;clip-path:url(#SVGID_316_);}
	.st325{opacity:0;clip-path:url(#SVGID_316_);}
	.st326{fill:none;stroke:#FFFFFF;stroke-width:1.0993;stroke-miterlimit:10;}
	.st327{clip-path:url(#SVGID_318_);}
	.st328{clip-path:url(#SVGID_320_);}
	.st329{opacity:0.3;clip-path:url(#SVGID_318_);fill:#0D1938;}
	.st330{fill:url(#SVGID_321_);}
	.st331{fill:url(#SVGID_322_);}
	.st332{fill:url(#SVGID_323_);}
	.st333{fill:url(#SVGID_324_);}
	.st334{fill:url(#SVGID_325_);}
	.st335{fill:url(#SVGID_326_);}
	.st336{clip-path:url(#SVGID_328_);}
	.st337{fill:none;stroke:url(#SVGID_329_);stroke-width:20.0993;stroke-linecap:round;stroke-linejoin:round;stroke-miterlimit:10;}
	.st338{fill:none;stroke:url(#SVGID_330_);stroke-width:20.0993;stroke-linecap:round;stroke-linejoin:round;stroke-miterlimit:10;}
	.st339{fill:none;stroke:url(#SVGID_331_);stroke-width:20.0993;stroke-linecap:round;stroke-linejoin:round;stroke-miterlimit:10;}
	.st340{fill:none;stroke:#FFFFFF;stroke-width:1.005;stroke-linecap:round;stroke-linejoin:round;stroke-miterlimit:10;}
	.st341{fill:url(#SVGID_332_);}
	.st342{fill:none;stroke:url(#SVGID_333_);stroke-width:20.0993;stroke-linecap:round;stroke-linejoin:round;stroke-miterlimit:10;}
	.st343{fill:none;stroke:url(#SVGID_334_);stroke-width:20.0993;stroke-linecap:round;stroke-linejoin:round;stroke-miterlimit:10;}
	.st344{fill:url(#SVGID_335_);}
	.st345{fill:url(#SVGID_336_);}
	.st346{fill:none;stroke:url(#SVGID_337_);stroke-width:20.0993;stroke-linecap:round;stroke-linejoin:round;stroke-miterlimit:10;}
	.st347{fill:url(#SVGID_338_);}
	.st348{fill:none;stroke:url(#SVGID_339_);stroke-width:20.0993;stroke-linecap:round;stroke-linejoin:round;stroke-miterlimit:10;}
	.st349{fill:url(#SVGID_340_);}
	.st350{fill:url(#SVGID_341_);}
	.st351{clip-path:url(#SVGID_343_);}
	.st352{fill:#FFFFFF;stroke:#231F20;stroke-width:1.1642;stroke-miterlimit:10;}
	.st353{clip-path:url(#SVGID_345_);}
	.st354{fill:#F6F7F7;stroke:#F1F2F2;stroke-width:1.215;stroke-miterlimit:10;}
	.st355{fill:#FFFFFF;stroke:#F1F2F2;stroke-width:1.215;stroke-miterlimit:10;}
	.st356{clip-path:url(#SVGID_347_);}
	.st357{clip-path:url(#SVGID_349_);}
	.st358{clip-path:url(#SVGID_353_);}
	.st359{clip-path:url(#SVGID_355_);}
	.st360{fill:url(#SVGID_356_);}
	.st361{fill:url(#SVGID_357_);}
	.st362{fill:url(#SVGID_358_);}
	.st363{fill:url(#SVGID_359_);}
	.st364{fill:url(#SVGID_360_);}
	.st365{fill:url(#SVGID_361_);}
	.st366{opacity:0.7;clip-path:url(#SVGID_363_);}
	.st367{opacity:0;clip-path:url(#SVGID_363_);}
	.st368{fill:none;stroke:#FFFFFF;stroke-width:1.1937;stroke-miterlimit:10;}
	.st369{clip-path:url(#SVGID_365_);}
	.st370{clip-path:url(#SVGID_367_);}
	.st371{opacity:0.3;clip-path:url(#SVGID_365_);fill:#0D1938;}
	.st372{fill:url(#SVGID_368_);}
	.st373{fill:url(#SVGID_369_);}
	.st374{fill:url(#SVGID_370_);}
	.st375{fill:url(#SVGID_371_);}
	.st376{fill:url(#SVGID_372_);}
	.st377{fill:url(#SVGID_373_);}
	.st378{clip-path:url(#SVGID_375_);}
	.st379{fill:none;stroke:url(#SVGID_376_);stroke-width:22.214;stroke-linecap:round;stroke-linejoin:round;stroke-miterlimit:10;}
	.st380{fill:none;stroke:url(#SVGID_377_);stroke-width:22.214;stroke-linecap:round;stroke-linejoin:round;stroke-miterlimit:10;}
	.st381{fill:none;stroke:url(#SVGID_378_);stroke-width:22.214;stroke-linecap:round;stroke-linejoin:round;stroke-miterlimit:10;}
	.st382{fill:none;stroke:#FFFFFF;stroke-width:1.1107;stroke-linecap:round;stroke-linejoin:round;stroke-miterlimit:10;}
	.st383{fill:url(#SVGID_379_);}
	.st384{fill:none;stroke:url(#SVGID_380_);stroke-width:22.214;stroke-linecap:round;stroke-linejoin:round;stroke-miterlimit:10;}
	.st385{fill:none;stroke:url(#SVGID_381_);stroke-width:22.214;stroke-linecap:round;stroke-linejoin:round;stroke-miterlimit:10;}
	.st386{fill:url(#SVGID_382_);}
	.st387{fill:url(#SVGID_383_);}
	.st388{fill:none;stroke:url(#SVGID_384_);stroke-width:22.214;stroke-linecap:round;stroke-linejoin:round;stroke-miterlimit:10;}
	.st389{fill:url(#SVGID_385_);}
	.st390{fill:none;stroke:url(#SVGID_386_);stroke-width:22.214;stroke-linecap:round;stroke-linejoin:round;stroke-miterlimit:10;}
	.st391{fill:url(#SVGID_387_);}
	.st392{fill:url(#SVGID_388_);}
	.st393{clip-path:url(#SVGID_390_);}
	.st394{fill:#FFFFFF;stroke:#231F20;stroke-width:1.3999;stroke-miterlimit:10;}
	.st395{fill:none;stroke:#16A2E5;stroke-width:2.2544;stroke-miterlimit:10;}
	.st396{clip-path:url(#SVGID_392_);}
	.st397{fill:#F6F7F7;stroke:#F1F2F2;stroke-width:1.4609;stroke-miterlimit:10;}
	.st398{fill:#FFFFFF;stroke:#F1F2F2;stroke-width:1.4609;stroke-miterlimit:10;}
	.st399{clip-path:url(#SVGID_394_);}
	.st400{clip-path:url(#SVGID_396_);}
	.st401{clip-path:url(#SVGID_400_);}
	.st402{clip-path:url(#SVGID_402_);}
	.st403{fill:url(#SVGID_403_);}
	.st404{fill:url(#SVGID_404_);}
	.st405{fill:url(#SVGID_405_);}
	.st406{fill:url(#SVGID_406_);}
	.st407{fill:url(#SVGID_407_);}
	.st408{fill:url(#SVGID_408_);}
	.st409{opacity:0.7;clip-path:url(#SVGID_410_);}
	.st410{opacity:0;clip-path:url(#SVGID_410_);}
	.st411{fill:none;stroke:#FFFFFF;stroke-width:1.3333;stroke-miterlimit:10;}
	.st412{clip-path:url(#SVGID_412_);}
	.st413{clip-path:url(#SVGID_414_);}
	.st414{opacity:0.3;clip-path:url(#SVGID_412_);fill:#0D1938;}
	.st415{fill:url(#SVGID_415_);}
	.st416{fill:url(#SVGID_416_);}
	.st417{fill:url(#SVGID_417_);}
	.st418{fill:url(#SVGID_418_);}
	.st419{fill:url(#SVGID_419_);}
	.st420{fill:url(#SVGID_420_);}
	.st421{clip-path:url(#SVGID_422_);}
	.st422{fill:none;stroke:url(#SVGID_423_);stroke-width:26.7115;stroke-linecap:round;stroke-linejoin:round;stroke-miterlimit:10;}
	.st423{fill:none;stroke:url(#SVGID_424_);stroke-width:26.7115;stroke-linecap:round;stroke-linejoin:round;stroke-miterlimit:10;}
	.st424{fill:none;stroke:url(#SVGID_425_);stroke-width:26.7115;stroke-linecap:round;stroke-linejoin:round;stroke-miterlimit:10;}
	.st425{fill:none;stroke:#FFFFFF;stroke-width:1.3356;stroke-linecap:round;stroke-linejoin:round;stroke-miterlimit:10;}
	.st426{fill:url(#SVGID_426_);}
	.st427{fill:none;stroke:url(#SVGID_427_);stroke-width:26.7115;stroke-linecap:round;stroke-linejoin:round;stroke-miterlimit:10;}
	.st428{fill:none;stroke:url(#SVGID_428_);stroke-width:26.7115;stroke-linecap:round;stroke-linejoin:round;stroke-miterlimit:10;}
	.st429{fill:url(#SVGID_429_);}
	.st430{fill:url(#SVGID_430_);}
	.st431{fill:none;stroke:url(#SVGID_431_);stroke-width:26.7115;stroke-linecap:round;stroke-linejoin:round;stroke-miterlimit:10;}
	.st432{fill:url(#SVGID_432_);}
	.st433{fill:none;stroke:url(#SVGID_433_);stroke-width:26.7115;stroke-linecap:round;stroke-linejoin:round;stroke-miterlimit:10;}
	.st434{fill:url(#SVGID_434_);}
	.st435{clip-path:url(#SVGID_435_);}
	.st436{clip-path:url(#SVGID_436_);}
	.st437{fill:url(#SVGID_437_);}
	.st438{fill:url(#SVGID_438_);}
	.st439{fill:url(#SVGID_439_);}
	.st440{fill:url(#SVGID_440_);}
	.st441{fill:url(#SVGID_441_);}
	.st442{fill:url(#SVGID_442_);}
	.st443{opacity:0.7;clip-path:url(#SVGID_443_);}
	.st444{opacity:0;clip-path:url(#SVGID_443_);}
	.st445{clip-path:url(#SVGID_444_);}
	.st446{fill:url(#SVGID_445_);}
	.st447{fill:url(#SVGID_446_);}
	.st448{fill:url(#SVGID_447_);}
	.st449{fill:url(#SVGID_448_);}
	.st450{fill:url(#SVGID_449_);}
	.st451{fill:url(#SVGID_450_);}
	.st452{opacity:0.7;clip-path:url(#SVGID_451_);}
	.st453{opacity:0;clip-path:url(#SVGID_451_);}
	.st454{fill:url(#SVGID_452_);}
	.st455{clip-path:url(#SVGID_454_);}
	.st456{fill:url(#SVGID_455_);}
	.st457{clip-path:url(#SVGID_457_);}
</style>
<g id="Слой_1">
	<g class="st4">
		<defs>
			<path id="SVGID_5_" class="st4" d="M671,519.6c0,19-15.5,34.5-34.5,34.5H-29.2c-19,0-34.5-15.5-34.5-34.5V251.3
				c0-19,15.5-34.5,34.5-34.5h665.7c19,0,34.5,15.5,34.5,34.5V519.6z"/>
		</defs>
		<clipPath id="SVGID_1_">
			<use xlink:href="#SVGID_5_"  style="overflow:visible;"/>
		</clipPath>
		<g style="clip-path:url(#SVGID_1_);">
			<path class="st16" d="M89.2-39l18.8,36l-33.5,58C70.3,62.1,62.8,66,55.1,66c-3.8,0-7.8-1-11.3-3.1c-10.7-6.3-14.3-20-8-30.7
				l54-93c0,0,0.1-0.1,0.1-0.1C86-54.4,85.4-46.2,89.2-39z"/>
			<g>
				<g>
					<path class="st16" d="M143.9,17.3c-2.5,1.3-5.1,2.1-7.7,2.4c-0.4,0.1-0.9,0.1-1.3,0.1c-0.4,0-0.8,0-1.3,0c-0.1,0-0.2,0-0.3,0
						c-0.4,0-0.9,0-1.3,0c-0.4,0-0.9-0.1-1.3-0.1c-1-0.1-1.9-0.3-2.9-0.6c-0.5-0.1-1.1-0.3-1.6-0.5c-5.2-1.8-9.8-5.5-12.6-10.8
						l-5.7-10.9L89.2-39c-3.7-7.1-3.2-15.4,0.6-21.9c0.3-0.4,0.5-0.9,0.8-1.3c0.6-0.8,1.2-1.6,1.9-2.4c0.3-0.4,0.7-0.7,1.1-1.1
						c0.4-0.3,0.7-0.7,1.1-1c0.1-0.1,0.1-0.1,0.2-0.1c0.3-0.3,0.6-0.5,0.9-0.7c0.2-0.2,0.4-0.3,0.6-0.4c0.2-0.2,0.5-0.3,0.7-0.5
						c0.1-0.1,0.2-0.1,0.3-0.2c0.4-0.2,0.7-0.4,1.1-0.6c0,0,0.1,0,0.1-0.1c0,0,0.1,0,0.1,0c0.4-0.2,0.8-0.4,1.2-0.6
						c0.3-0.1,0.6-0.3,1-0.4c0.3-0.1,0.5-0.2,0.8-0.3c0.2-0.1,0.3-0.1,0.5-0.2c0.2-0.1,0.4-0.1,0.7-0.2c0.2-0.1,0.5-0.2,0.8-0.2
						c1.8-0.5,3.6-0.7,5.4-0.7c1,0,1.9,0.1,2.9,0.2c0,0,0.1,0,0.1,0c0.5,0.1,1,0.2,1.5,0.3c1.4,0.3,2.8,0.7,4.1,1.3
						c0.2,0.1,0.4,0.2,0.6,0.3c0.3,0.1,0.6,0.3,1,0.4c0.4,0.2,0.9,0.5,1.3,0.7c0.4,0.3,0.9,0.5,1.3,0.8c0.8,0.6,1.6,1.2,2.4,1.9
						c0.4,0.3,0.7,0.7,1.1,1.1c0.3,0.4,0.7,0.7,1,1.1c0.1,0.1,0.1,0.1,0.2,0.2c0.2,0.3,0.5,0.6,0.7,0.9c0.2,0.2,0.3,0.4,0.4,0.6
						c0.2,0.2,0.3,0.5,0.5,0.7c0.1,0.1,0.1,0.2,0.2,0.3c0.2,0.4,0.4,0.7,0.6,1.1c0,0,0,0.1,0.1,0.1l0.3,0.7l5.4,10.3l18.7,35.9
						C159.1-2,154.9,11.6,143.9,17.3z"/>
				</g>
			</g>
			<g>
				<g>
					<path class="st16" d="M20.2-23.2c2.5-1.3,5.1-2.1,7.7-2.4c0.4-0.1,0.9-0.1,1.3-0.1c0.4,0,0.8,0,1.3,0c0.1,0,0.2,0,0.3,0
						c0.4,0,0.9,0,1.3,0c0.4,0,0.9,0.1,1.3,0.1c1,0.1,1.9,0.3,2.9,0.6c0.5,0.1,1.1,0.3,1.6,0.5c5.2,1.8,9.8,5.5,12.6,10.8l5.7,10.9
						l18.8,36c3.7,7.1,3.2,15.4-0.6,21.9c-0.3,0.4-0.5,0.9-0.8,1.3c-0.6,0.8-1.2,1.6-1.9,2.4c-0.3,0.4-0.7,0.7-1.1,1.1
						c-0.4,0.3-0.7,0.7-1.1,1c-0.1,0.1-0.1,0.1-0.2,0.1c-0.3,0.3-0.6,0.5-0.9,0.7c-0.2,0.2-0.4,0.3-0.6,0.4
						c-0.2,0.2-0.5,0.3-0.7,0.5c-0.1,0.1-0.2,0.1-0.3,0.2c-0.4,0.2-0.7,0.4-1.1,0.6c0,0-0.1,0-0.1,0.1c0,0-0.1,0-0.1,0
						c-0.4,0.2-0.8,0.4-1.2,0.6c-0.3,0.1-0.6,0.3-1,0.4c-0.3,0.1-0.5,0.2-0.8,0.3c-0.2,0.1-0.3,0.1-0.5,0.2
						c-0.2,0.1-0.4,0.1-0.7,0.2c-0.2,0.1-0.5,0.2-0.8,0.2C58.7,65.8,56.8,66,55,66c-1,0-1.9-0.1-2.9-0.2c0,0-0.1,0-0.1,0
						c-0.5-0.1-1-0.2-1.5-0.3c-1.4-0.3-2.8-0.7-4.1-1.3c-0.2-0.1-0.4-0.2-0.6-0.3c-0.3-0.1-0.6-0.3-1-0.4c-0.4-0.2-0.9-0.5-1.3-0.7
						c-0.4-0.3-0.9-0.5-1.3-0.8c-0.8-0.6-1.6-1.2-2.4-1.9c-0.4-0.3-0.7-0.7-1.1-1.1c-0.3-0.4-0.7-0.7-1-1.1
						c-0.1-0.1-0.1-0.1-0.2-0.2c-0.2-0.3-0.5-0.6-0.7-0.9c-0.2-0.2-0.3-0.4-0.4-0.6c-0.2-0.2-0.3-0.5-0.5-0.7
						c-0.1-0.1-0.1-0.2-0.2-0.3c-0.2-0.4-0.4-0.7-0.6-1.1c0,0,0-0.1-0.1-0.1l-0.3-0.7L29.4,43L10.7,7.1C5-3.9,9.2-17.4,20.2-23.2z"
						/>
				</g>
			</g>
			<path class="st16" d="M14.5,63.4c-3.3,1.7-6.9,2.6-10.4,2.6c-8.1,0-15.9-4.4-19.9-12.1L-45.3-2.8l20.7-35.3
				c3.4-5.9,3.9-12.6,1.9-18.6L24,33.1C29.8,44.1,25.5,57.6,14.5,63.4z"/>
			<g>
				<g>
					<path class="st16" d="M119.5,69.6c2.5-1.3,5.1-2.1,7.7-2.4c0.4-0.1,0.9-0.1,1.3-0.1c0.4,0,0.8,0,1.3,0c0.1,0,0.2,0,0.3,0
						c0.4,0,0.9,0,1.3,0c0.4,0,0.9,0.1,1.3,0.1c1,0.1,1.9,0.3,2.9,0.6c0.5,0.1,1.1,0.3,1.6,0.5c5.2,1.8,9.8,5.5,12.6,10.8l5.7,10.9
						l18.8,36c3.7,7.1,3.2,15.4-0.6,21.9c-0.3,0.4-0.5,0.9-0.8,1.3c-0.6,0.8-1.2,1.6-1.9,2.4c-0.3,0.4-0.7,0.7-1.1,1.1
						c-0.4,0.3-0.7,0.7-1.1,1c-0.1,0.1-0.1,0.1-0.2,0.1c-0.3,0.3-0.6,0.5-0.9,0.7c-0.2,0.2-0.4,0.3-0.6,0.4
						c-0.2,0.2-0.5,0.3-0.7,0.5c-0.1,0.1-0.2,0.1-0.3,0.2c-0.4,0.2-0.7,0.4-1.1,0.6c0,0-0.1,0-0.1,0.1c0,0-0.1,0-0.1,0
						c-0.4,0.2-0.8,0.4-1.2,0.6c-0.3,0.1-0.6,0.3-1,0.4c-0.3,0.1-0.5,0.2-0.8,0.3c-0.2,0.1-0.3,0.1-0.5,0.2
						c-0.2,0.1-0.4,0.1-0.7,0.2c-0.2,0.1-0.5,0.2-0.8,0.2c-1.8,0.5-3.6,0.7-5.4,0.7c-1,0-1.9-0.1-2.9-0.2c0,0-0.1,0-0.1,0
						c-0.5-0.1-1-0.2-1.5-0.3c-1.4-0.3-2.8-0.7-4.1-1.3c-0.2-0.1-0.4-0.2-0.6-0.3c-0.3-0.1-0.6-0.3-1-0.4c-0.4-0.2-0.9-0.5-1.3-0.7
						c-0.4-0.3-0.9-0.5-1.3-0.8c-0.8-0.6-1.6-1.2-2.4-1.9c-0.4-0.3-0.7-0.7-1.1-1.1c-0.3-0.4-0.7-0.7-1-1.1
						c-0.1-0.1-0.1-0.1-0.2-0.2c-0.2-0.3-0.5-0.6-0.7-0.9c-0.2-0.2-0.3-0.4-0.4-0.6c-0.2-0.2-0.3-0.5-0.5-0.7
						c-0.1-0.1-0.1-0.2-0.2-0.3c-0.2-0.4-0.4-0.7-0.6-1.1c0,0,0-0.1-0.1-0.1l-0.3-0.7l-5.4-10.3L110,99.9
						C104.3,88.9,108.6,75.4,119.5,69.6z"/>
				</g>
			</g>
			<path class="st16" d="M113.8,156.2c-3.3,1.7-6.9,2.6-10.4,2.6c-8.1,0-15.9-4.4-19.9-12.1L54,90l20.7-35.3
				c3.4-5.9,3.9-12.6,1.9-18.6l46.8,89.8C129.1,136.9,124.8,150.4,113.8,156.2z"/>
			<path class="st16" d="M-15.8,53.7L3,89.7l-33.5,58c-4.2,7.1-11.7,11.1-19.4,11.1c-3.8,0-7.8-1-11.3-3.1c-10.7-6.3-14.3-20-8-30.7
				l54-93c0,0,0.1-0.1,0.1-0.1C-19,38.4-19.5,46.6-15.8,53.7z"/>
			<g>
				<g>
					<path class="st16" d="M38.9,110.1c-2.5,1.3-5.1,2.1-7.7,2.4c-0.4,0.1-0.9,0.1-1.3,0.1c-0.4,0-0.8,0-1.3,0c-0.1,0-0.2,0-0.3,0
						c-0.4,0-0.9,0-1.3,0c-0.4,0-0.9-0.1-1.3-0.1c-1-0.1-1.9-0.3-2.9-0.6c-0.5-0.1-1.1-0.3-1.6-0.5c-5.2-1.8-9.8-5.5-12.6-10.8
						L3,89.7l-18.8-36c-3.7-7.1-3.2-15.4,0.6-21.9c0.3-0.4,0.5-0.9,0.8-1.3c0.6-0.8,1.2-1.6,1.9-2.4c0.3-0.4,0.7-0.7,1.1-1.1
						c0.4-0.3,0.7-0.7,1.1-1c0.1-0.1,0.1-0.1,0.2-0.1c0.3-0.3,0.6-0.5,0.9-0.7c0.2-0.2,0.4-0.3,0.6-0.4c0.2-0.2,0.5-0.3,0.7-0.5
						c0.1-0.1,0.2-0.1,0.3-0.2c0.4-0.2,0.7-0.4,1.1-0.6c0,0,0.1,0,0.1-0.1c0,0,0.1,0,0.1,0c0.4-0.2,0.8-0.4,1.2-0.6
						c0.3-0.1,0.6-0.3,1-0.4c0.3-0.1,0.5-0.2,0.8-0.3C-3,22.1-2.9,22-2.7,22c0.2-0.1,0.4-0.1,0.7-0.2c0.2-0.1,0.5-0.2,0.8-0.2
						c1.8-0.5,3.6-0.7,5.4-0.7c1,0,1.9,0.1,2.9,0.2c0,0,0.1,0,0.1,0c0.5,0.1,1,0.2,1.5,0.3c1.4,0.3,2.8,0.7,4.1,1.3
						c0.2,0.1,0.4,0.2,0.6,0.3c0.3,0.1,0.6,0.3,1,0.4c0.4,0.2,0.9,0.5,1.3,0.7c0.4,0.3,0.9,0.5,1.3,0.8c0.8,0.6,1.6,1.2,2.4,1.9
						c0.4,0.3,0.7,0.7,1.1,1.1c0.3,0.4,0.7,0.7,1,1.1c0.1,0.1,0.1,0.1,0.2,0.2c0.2,0.3,0.5,0.6,0.7,0.9c0.2,0.2,0.3,0.4,0.4,0.6
						c0.2,0.2,0.3,0.5,0.5,0.7c0.1,0.1,0.1,0.2,0.2,0.3c0.2,0.4,0.4,0.7,0.6,1.1c0,0,0,0.1,0.1,0.1l0.3,0.7L29.8,44l18.7,35.9
						C54.2,90.8,49.9,104.4,38.9,110.1z"/>
				</g>
			</g>
			<path class="st16" d="M74.7,54.7L54,90L35.1,53.7c-3.2-6.1-3.3-12.9-0.9-18.8c0,0,0,0,0,0l1.7-2.9c3.9-6.7,10.8-10.6,18-11.1
				c0.4,0,0.8,0,1.3,0c8,0.1,15.8,4.4,19.8,12.1l1.6,3.1l0,0C78.6,42.1,78.1,48.9,74.7,54.7z"/>
		</g>
	</g>
	<g>
		<g>
			<g>
				<g>
					<path class="st7" d="M72.6,41.9c-1.7,0-3.5-0.4-5-1.3c-4.9-2.8-6.7-9-3.9-14L75.8,5.2c2.8-4.9,9-6.7,14-3.9
						c4.9,2.8,6.7,9,3.9,14L81.5,36.7C79.6,40,76.2,41.9,72.6,41.9z"/>
				</g>
			</g>
			<path class="st8" d="M105.3,36.5l-0.1,0.1c-0.1,0.1-0.1,0.2-0.2,0.3c-0.1,0.2-0.2,0.4-0.4,0.6c-0.1,0.2-0.2,0.3-0.4,0.5
				c-0.1,0.1-0.1,0.2-0.2,0.2c-0.1,0.1-0.1,0.1-0.2,0.2c-0.1,0.1-0.1,0.1-0.2,0.2c-0.1,0.1-0.2,0.2-0.2,0.3
				c-0.1,0.1-0.2,0.2-0.2,0.2c-0.5,0.5-1,0.9-1.6,1.2c-0.2,0.1-0.4,0.3-0.6,0.4c-0.3,0.2-0.6,0.3-0.9,0.4c-0.1,0-0.2,0.1-0.3,0.1
				c-0.2,0.1-0.5,0.2-0.7,0.2c-0.1,0-0.2,0.1-0.3,0.1c0,0,0,0-0.1,0c-0.1,0-0.2,0-0.3,0.1c-0.1,0-0.2,0.1-0.3,0.1
				c-0.2,0-0.4,0.1-0.7,0.1c-0.2,0-0.4,0.1-0.7,0.1c-0.2,0-0.5,0-0.7,0c-0.2,0-0.4,0-0.7,0c-0.1,0-0.2,0-0.3,0c-0.1,0-0.2,0-0.4,0
				c-0.1,0-0.2,0-0.3,0c-0.1,0-0.2,0-0.3-0.1c-0.1,0-0.2,0-0.3-0.1c-0.3-0.1-0.5-0.1-0.8-0.2c-0.1,0-0.2-0.1-0.3-0.1
				c-0.1,0-0.2-0.1-0.3-0.1c-0.1,0-0.2-0.1-0.3-0.1c-0.1,0-0.2-0.1-0.3-0.1c-0.2-0.1-0.4-0.2-0.5-0.3c0,0,0,0-0.1,0
				c-0.9-0.5-1.7-1.1-2.4-1.8c-0.1-0.1-0.2-0.2-0.2-0.3c-0.1-0.1-0.2-0.2-0.2-0.3c-0.1-0.1-0.2-0.2-0.2-0.3
				c-0.1-0.1-0.1-0.2-0.2-0.3c-0.1-0.1-0.1-0.2-0.2-0.2c-0.1-0.1-0.2-0.2-0.2-0.3c-0.1-0.2-0.3-0.4-0.4-0.6
				c-0.1-0.1-0.1-0.2-0.2-0.3c-1.4-2.9-1.5-6.4,0.2-9.5l1.2-2.1l6-10.9l1.9-3.5l2.5,4.6l0.5,0.9l6.1,11.1
				C107.1,29.9,106.8,33.5,105.3,36.5z"/>
			<g>
				<g>
					<path class="st8" d="M96.3,10.2l-1.9,3.5l-6,10.9l-1.2,2.1c-1.7,3.1-1.6,6.6-0.2,9.5l-2.5-4.7l-8.8-16.4
						c-1.7-3.2-1.6-6.8,0-9.7c0.1-0.1,0.1-0.2,0.2-0.3c0.1-0.2,0.2-0.3,0.3-0.5c0.1-0.1,0.1-0.2,0.2-0.3c0.1-0.1,0.1-0.2,0.2-0.3
						c0.1-0.1,0.1-0.2,0.2-0.3C76.9,3.7,77,3.6,77,3.5c0.1-0.1,0.2-0.2,0.2-0.3c0.1-0.1,0.2-0.2,0.2-0.2c0.1-0.1,0.2-0.2,0.2-0.2
						c0.1-0.1,0.2-0.2,0.3-0.2c0.1-0.1,0.1-0.1,0.2-0.2c0.1-0.1,0.3-0.2,0.4-0.3c0.1-0.1,0.2-0.1,0.3-0.2c0.1-0.1,0.2-0.1,0.3-0.2
						c0.1-0.1,0.2-0.1,0.3-0.2c0.1-0.1,0.2-0.1,0.3-0.2c0.2-0.1,0.4-0.2,0.7-0.3c0.1-0.1,0.3-0.1,0.4-0.2c0.1,0,0.1,0,0.2-0.1
						c0.2-0.1,0.4-0.1,0.6-0.2c0.1,0,0.2-0.1,0.3-0.1c0.1,0,0.2-0.1,0.3-0.1c0.1,0,0.2,0,0.3-0.1c0.1,0,0.2,0,0.3-0.1
						c0.1,0,0.2,0,0.3,0c0.1,0,0.2,0,0.3,0c0.1,0,0.1,0,0.2,0c0.1,0,0.1,0,0.2,0c0.3,0,0.7,0,1,0c0.1,0,0.2,0,0.3,0
						c0.5,0,0.9,0.1,1.4,0.2c0.1,0,0.3,0.1,0.4,0.1l0.3,0.1c0.1,0,0.2,0.1,0.3,0.1c0.1,0,0.2,0.1,0.3,0.1c0.2,0.1,0.4,0.1,0.5,0.2
						c0.1,0,0.2,0.1,0.3,0.1c0.2,0.1,0.4,0.2,0.6,0.3c0.1,0.1,0.2,0.1,0.3,0.2c0.2,0.1,0.4,0.2,0.6,0.4c0.1,0.1,0.2,0.1,0.3,0.2
						C90.8,2,90.9,2,91,2.1c0.1,0.1,0.2,0.1,0.3,0.2c0.2,0.1,0.4,0.3,0.5,0.5C91.8,2.9,91.9,2.9,92,3s0.2,0.2,0.2,0.2
						c0.1,0.1,0.2,0.2,0.2,0.3c0.1,0.1,0.1,0.2,0.2,0.2C92.8,4,93,4.2,93.1,4.4c0.1,0.1,0.1,0.2,0.2,0.2c0.1,0.1,0.1,0.2,0.2,0.3
						c0.1,0.1,0.1,0.2,0.2,0.3c0,0.1,0.1,0.1,0.1,0.2L96.3,10.2z"/>
				</g>
			</g>
			<path class="st9" d="M124.7,40.6c-1.6,0.9-3.3,1.3-4.9,1.3c-3.6,0-7.1-1.9-9-5.3l-2.8-5l9-16.3c1.7-3.1,1.6-6.8,0.1-9.7
				l11.7,21.3C131.4,31.7,129.6,37.9,124.7,40.6z"/>
			<path class="st10" d="M117,15.2l-9,16.3l-8.7-15.8l-0.5-0.9c-1.5-3.1-1.4-6.6,0.2-9.4L99,5.3c0,0,0,0,0,0
				c0.1-0.1,0.1-0.2,0.2-0.3c0.1-0.1,0.2-0.2,0.2-0.4c0.1-0.1,0.1-0.2,0.2-0.2c0.1-0.1,0.2-0.2,0.2-0.3c0.1-0.1,0.1-0.2,0.2-0.2
				c0.1-0.1,0.2-0.3,0.3-0.4c0.1-0.1,0.1-0.2,0.2-0.2c0.1-0.1,0.2-0.2,0.3-0.3c0.1-0.1,0.1-0.1,0.2-0.2c0.1-0.1,0.2-0.2,0.3-0.2
				c0.1-0.1,0.2-0.2,0.3-0.2c0.8-0.7,1.8-1.2,2.8-1.6c0.2-0.1,0.4-0.2,0.6-0.2c0.1,0,0.2-0.1,0.4-0.1c0.2-0.1,0.4-0.1,0.6-0.1
				c0.1,0,0.2,0,0.3-0.1c0.1,0,0.2,0,0.3-0.1c0.2,0,0.4-0.1,0.7-0.1c0.4,0,0.7,0,1,0c0.1,0,0.2,0,0.3,0c0.2,0,0.5,0,0.7,0.1
				c0.1,0,0.2,0,0.4,0.1c0.1,0,0.2,0,0.3,0.1c0.1,0,0.2,0,0.3,0.1c0.1,0,0.2,0.1,0.3,0.1c0.1,0,0.2,0.1,0.3,0.1
				c0.1,0,0.2,0.1,0.3,0.1c0.1,0,0.2,0.1,0.3,0.1c0.1,0,0.2,0.1,0.3,0.1c0.4,0.1,0.7,0.3,1,0.5c0.2,0.1,0.4,0.2,0.6,0.4
				c0.1,0.1,0.2,0.1,0.3,0.2c0.1,0.1,0.2,0.2,0.3,0.2c0.1,0.1,0.2,0.1,0.2,0.2c0.1,0.1,0.2,0.1,0.3,0.2c0.1,0.1,0.2,0.1,0.3,0.2
				c0.1,0.1,0.2,0.2,0.3,0.2c0.1,0.1,0.1,0.1,0.2,0.2c0,0,0.1,0.1,0.1,0.1c0.1,0.1,0.1,0.2,0.2,0.3c0.1,0.1,0.1,0.2,0.2,0.3
				c0.1,0.1,0.1,0.2,0.2,0.3c0.1,0.1,0.1,0.2,0.2,0.3c0.1,0.2,0.3,0.4,0.4,0.6c0.1,0.1,0.1,0.2,0.2,0.3c0,0,0.1,0.1,0.1,0.1
				C118.6,8.4,118.7,12.1,117,15.2z"/>
		</g>
		<g>
			<g>
				<path class="st7" d="M0.7,51.9c-0.2,0-0.3-0.1-0.3-0.3v-8.1c0-0.2,0.1-0.3,0.3-0.3H1c0.2,0,0.3,0.1,0.3,0.3v7.7H6v-7.7
					c0-0.2,0.1-0.3,0.3-0.3h0.2c0.2,0,0.3,0.1,0.3,0.3v7.7h0.2c0.2,0,0.3,0.1,0.3,0.3V53c0,0.2-0.1,0.3-0.3,0.3H6.8
					c-0.2,0-0.3-0.1-0.3-0.3v-1.1H0.7z"/>
				<path class="st7" d="M8.7,48.2c0-0.4,0.1-0.8,0.3-1.2c0.1-0.4,0.3-0.7,0.5-0.9c0.2-0.2,0.5-0.4,0.8-0.6s0.7-0.2,1.1-0.2
					c0.9,0,1.5,0.3,2,0.8c0.5,0.6,0.7,1.3,0.7,2.3v0.2c0,0.1,0,0.1-0.1,0.2C14,49,13.9,49,13.8,49H9.4v0.1c0,0.3,0.1,0.6,0.2,0.8
					c0.1,0.3,0.2,0.5,0.4,0.7c0.2,0.2,0.4,0.4,0.6,0.5c0.2,0.1,0.5,0.2,0.8,0.2c0.3,0,0.5,0,0.7-0.1c0.2-0.1,0.4-0.1,0.5-0.2
					c0.1-0.1,0.3-0.2,0.3-0.3c0.1-0.1,0.1-0.2,0.2-0.2c0.1-0.1,0.1-0.2,0.2-0.2c0,0,0.1,0,0.2,0h0.2c0.1,0,0.1,0,0.2,0.1
					c0.1,0,0.1,0.1,0.1,0.2c0,0.1-0.1,0.3-0.2,0.4c-0.1,0.2-0.3,0.3-0.5,0.5c-0.2,0.2-0.5,0.3-0.8,0.4C12.1,52,11.8,52,11.4,52
					c-0.4,0-0.8-0.1-1.1-0.2c-0.3-0.1-0.6-0.3-0.8-0.6C9.2,51,9,50.7,8.9,50.3c-0.1-0.4-0.2-0.7-0.3-1.2c0-0.1,0-0.3,0-0.5
					S8.6,48.3,8.7,48.2z M9.4,48.3h3.9v0c0-0.3,0-0.6-0.1-0.9c-0.1-0.3-0.2-0.5-0.4-0.7c-0.2-0.2-0.4-0.4-0.6-0.5
					c-0.2-0.1-0.5-0.2-0.8-0.2c-0.3,0-0.6,0.1-0.8,0.2c-0.2,0.1-0.4,0.3-0.6,0.5c-0.2,0.2-0.3,0.4-0.4,0.7
					C9.5,47.7,9.4,47.9,9.4,48.3L9.4,48.3z"/>
				<path class="st7" d="M16.5,48.2h3.9v-2.5c0-0.2,0.1-0.3,0.3-0.3h0.2c0.2,0,0.3,0.1,0.3,0.3v5.9c0,0.2-0.1,0.3-0.3,0.3h-0.2
					c-0.2,0-0.3-0.1-0.3-0.3V49h-3.9v2.7c0,0.2-0.1,0.3-0.3,0.3H16c-0.2,0-0.3-0.1-0.3-0.3v-5.9c0-0.2,0.1-0.3,0.3-0.3h0.2
					c0.2,0,0.3,0.1,0.3,0.3V48.2z"/>
				<path class="st7" d="M24.8,51.6v-5.4h-2.3c-0.2,0-0.3-0.1-0.3-0.3v-0.2c0-0.2,0.1-0.3,0.3-0.3h5.3c0.2,0,0.3,0.1,0.3,0.3v0.2
					c0,0.2-0.1,0.3-0.3,0.3h-2.3v5.4c0,0.2-0.1,0.3-0.3,0.3h-0.2C24.9,51.9,24.8,51.8,24.8,51.6z"/>
				<path class="st7" d="M32.1,52c-0.5,0-0.9-0.1-1.3-0.3c-0.3-0.2-0.6-0.4-0.8-0.7V54c0,0.2-0.1,0.3-0.3,0.3h-0.2
					c-0.2,0-0.3-0.1-0.3-0.3v-8.2c0-0.2,0.1-0.3,0.3-0.3h0.2c0.2,0,0.3,0.1,0.3,0.3v0.6c0.2-0.3,0.5-0.5,0.8-0.7
					c0.3-0.2,0.8-0.3,1.3-0.3c0.5,0,0.9,0.1,1.2,0.3c0.3,0.2,0.6,0.4,0.8,0.7c0.2,0.3,0.4,0.6,0.5,0.9c0.1,0.4,0.2,0.7,0.2,1.1
					c0,0.1,0,0.3,0,0.4c0,0.1,0,0.3,0,0.4c0,0.4-0.1,0.7-0.2,1.1c-0.1,0.4-0.2,0.7-0.5,0.9c-0.2,0.3-0.5,0.5-0.8,0.7
					C33,51.9,32.6,52,32.1,52z M30,48.2c0,0.1,0,0.3,0,0.5c0,0.2,0,0.4,0,0.5c0,0.2,0.1,0.5,0.1,0.7c0.1,0.3,0.2,0.5,0.4,0.7
					c0.2,0.2,0.4,0.4,0.6,0.5c0.2,0.1,0.5,0.2,0.9,0.2c0.4,0,0.7-0.1,0.9-0.2c0.2-0.1,0.4-0.3,0.6-0.5c0.2-0.2,0.3-0.5,0.3-0.7
					C34,49.6,34,49.3,34,49c0-0.2,0-0.5,0-0.7c0-0.3-0.1-0.6-0.1-0.9c-0.1-0.3-0.2-0.5-0.3-0.7c-0.2-0.2-0.4-0.4-0.6-0.5
					c-0.2-0.1-0.5-0.2-0.9-0.2c-0.4,0-0.7,0.1-0.9,0.2c-0.2,0.1-0.5,0.3-0.6,0.5s-0.3,0.4-0.4,0.7C30.1,47.7,30,48,30,48.2z"/>
				<path class="st7" d="M0.8,61.5c0,0.1,0,0.3,0,0.4c0,0.2,0,0.3,0,0.4c0,0.8,0.2,1.3,0.6,1.7c0.4,0.3,0.8,0.5,1.4,0.5
					c0.4,0,0.8-0.1,1.1-0.3c0.3-0.2,0.5-0.5,0.7-1c0-0.1,0.1-0.2,0.1-0.2c0,0,0.1-0.1,0.2-0.1H5c0.1,0,0.1,0,0.2,0.1
					c0.1,0,0.1,0.1,0.1,0.2c0,0.2-0.1,0.5-0.2,0.7c-0.1,0.2-0.3,0.4-0.5,0.6c-0.2,0.2-0.5,0.4-0.8,0.5c-0.3,0.1-0.7,0.2-1.1,0.2
					c-0.9,0-1.5-0.3-2-0.8C0.3,64,0,63.3,0,62.4c0-0.1,0-0.3,0-0.5c0-0.2,0-0.4,0-0.5c0-0.9,0.3-1.6,0.7-2.1c0.5-0.5,1.1-0.8,2-0.8
					c0.4,0,0.8,0.1,1.1,0.2c0.3,0.1,0.6,0.3,0.8,0.5c0.2,0.2,0.4,0.4,0.5,0.6c0.1,0.2,0.2,0.5,0.2,0.7c0,0.1,0,0.1-0.1,0.2
					c-0.1,0-0.1,0.1-0.2,0.1H4.9c-0.1,0-0.2,0-0.2-0.1c0,0-0.1-0.1-0.1-0.2c-0.2-0.5-0.4-0.8-0.7-1c-0.3-0.2-0.7-0.3-1.1-0.3
					c-0.6,0-1,0.2-1.4,0.5C1,60.2,0.8,60.7,0.8,61.5z"/>
				<path class="st7" d="M9.4,58.6c0.4,0,0.8,0.1,1.2,0.2c0.3,0.1,0.6,0.3,0.8,0.6c0.2,0.3,0.4,0.6,0.5,0.9c0.1,0.3,0.2,0.7,0.2,1.1
					c0,0.1,0,0.1,0,0.2c0,0.1,0,0.2,0,0.3c0,0.1,0,0.2,0,0.3c0,0.1,0,0.2,0,0.2c0,0.4-0.1,0.8-0.2,1.1c-0.1,0.3-0.3,0.6-0.5,0.9
					c-0.2,0.3-0.5,0.4-0.8,0.6c-0.3,0.1-0.7,0.2-1.2,0.2c-0.4,0-0.8-0.1-1.2-0.2c-0.3-0.1-0.6-0.3-0.8-0.6S7,63.9,6.8,63.6
					c-0.1-0.3-0.2-0.7-0.2-1.1c0-0.1,0-0.1,0-0.2c0-0.1,0-0.2,0-0.3c0-0.1,0-0.2,0-0.3c0-0.1,0-0.2,0-0.2c0-0.4,0.1-0.8,0.2-1.1
					C7,60,7.1,59.7,7.4,59.4c0.2-0.3,0.5-0.4,0.8-0.6C8.6,58.7,9,58.6,9.4,58.6z M11.4,61.5c0-0.7-0.2-1.2-0.6-1.6
					c-0.4-0.4-0.8-0.6-1.4-0.6c-0.6,0-1,0.2-1.4,0.6c-0.4,0.4-0.6,0.9-0.6,1.6c0,0.1,0,0.3,0,0.5c0,0.2,0,0.3,0,0.5
					c0,0.7,0.2,1.2,0.6,1.6c0.4,0.4,0.8,0.6,1.4,0.6c0.6,0,1-0.2,1.4-0.6c0.4-0.4,0.6-0.9,0.6-1.6c0-0.1,0-0.3,0-0.5
					C11.4,61.8,11.4,61.6,11.4,61.5z"/>
				<path class="st7" d="M18.6,66.3c0,0.2-0.1,0.3-0.3,0.3h-0.2c-0.2,0-0.3-0.1-0.3-0.3v-1.1h-4v1.1c0,0.2-0.1,0.3-0.3,0.3h-0.2
					c-0.2,0-0.3-0.1-0.3-0.3v-1.5c0-0.2,0.1-0.3,0.3-0.3h0.2c0.1,0,0.3,0,0.4-0.1c0.1,0,0.2-0.1,0.3-0.2c0.1-0.1,0.1-0.2,0.1-0.4
					c0-0.1,0-0.3,0-0.6V59c0-0.2,0.1-0.3,0.3-0.3h3.2c0.2,0,0.3,0.1,0.3,0.3v5.4h0.2c0.2,0,0.3,0.1,0.3,0.3V66.3z M15.1,63.6
					c0,0.1,0,0.3,0,0.4c0,0.1,0,0.2-0.1,0.3c0,0.1-0.1,0.1-0.1,0.2h2.4v-5h-2.2V63.6z"/>
				<path class="st7" d="M19.9,61.4c0-0.4,0.1-0.8,0.3-1.2c0.1-0.4,0.3-0.7,0.5-0.9c0.2-0.2,0.5-0.4,0.8-0.6
					c0.3-0.1,0.7-0.2,1.1-0.2c0.9,0,1.5,0.3,2,0.8c0.5,0.6,0.7,1.3,0.7,2.3V62c0,0.1,0,0.1-0.1,0.2c-0.1,0-0.1,0.1-0.2,0.1h-4.4v0.1
					c0,0.3,0.1,0.6,0.2,0.8c0.1,0.3,0.2,0.5,0.4,0.7c0.2,0.2,0.4,0.4,0.6,0.5c0.2,0.1,0.5,0.2,0.8,0.2c0.3,0,0.5,0,0.7-0.1
					c0.2-0.1,0.4-0.1,0.5-0.2c0.1-0.1,0.3-0.2,0.3-0.3c0.1-0.1,0.1-0.2,0.2-0.2c0.1-0.1,0.1-0.2,0.2-0.2c0,0,0.1,0,0.2,0h0.2
					c0.1,0,0.1,0,0.2,0.1c0.1,0,0.1,0.1,0.1,0.2c0,0.1-0.1,0.3-0.2,0.4c-0.1,0.2-0.3,0.3-0.5,0.5c-0.2,0.2-0.5,0.3-0.8,0.4
					c-0.3,0.1-0.7,0.2-1.1,0.2c-0.4,0-0.8-0.1-1.1-0.2c-0.3-0.1-0.6-0.3-0.8-0.6c-0.2-0.3-0.4-0.6-0.6-0.9c-0.1-0.4-0.2-0.7-0.3-1.2
					c0-0.1,0-0.3,0-0.5C19.9,61.7,19.9,61.6,19.9,61.4z M20.6,61.6h3.9v0c0-0.3,0-0.6-0.1-0.9c-0.1-0.3-0.2-0.5-0.4-0.7
					c-0.2-0.2-0.4-0.4-0.6-0.5c-0.2-0.1-0.5-0.2-0.8-0.2c-0.3,0-0.6,0.1-0.8,0.2c-0.2,0.1-0.4,0.3-0.6,0.5c-0.2,0.2-0.3,0.4-0.4,0.7
					C20.7,60.9,20.6,61.2,20.6,61.6L20.6,61.6z"/>
				<path class="st7" d="M32.3,64.9c0,0.2-0.1,0.3-0.3,0.3h-0.2c-0.2,0-0.3-0.1-0.3-0.3V60L27.8,65c0,0-0.1,0.1-0.1,0.1
					c0,0-0.1,0.1-0.2,0.1h-0.2c-0.1,0-0.1,0-0.2-0.1c0,0-0.1-0.1-0.1-0.2V59c0-0.2,0.1-0.3,0.3-0.3h0.2c0.2,0,0.3,0.1,0.3,0.3v4.9
					l3.8-4.9c0,0,0.1-0.1,0.1-0.1c0,0,0.1-0.1,0.2-0.1h0.2c0.1,0,0.1,0,0.2,0.1c0,0,0.1,0.1,0.1,0.2V64.9z M28.3,56.4
					c0-0.1,0-0.1,0.1-0.2c0,0,0.1-0.1,0.2-0.1h0.2c0.1,0,0.1,0,0.2,0.1c0,0,0.1,0.1,0.1,0.2c0,0.1,0,0.2,0,0.3
					c0,0.1,0.1,0.2,0.1,0.3c0.1,0.1,0.1,0.1,0.2,0.2c0.1,0,0.2,0.1,0.3,0.1c0.1,0,0.3,0,0.3-0.1c0.1,0,0.2-0.1,0.2-0.2
					c0.1-0.1,0.1-0.2,0.1-0.3c0-0.1,0-0.2,0-0.3c0-0.1,0-0.1,0.1-0.2c0,0,0.1-0.1,0.2-0.1h0.2c0.1,0,0.1,0,0.2,0.1
					c0,0,0.1,0.1,0.1,0.2c0,0.2,0,0.3-0.1,0.5c0,0.2-0.1,0.3-0.2,0.5c-0.1,0.1-0.2,0.2-0.4,0.3c-0.2,0.1-0.4,0.1-0.7,0.1
					c-0.3,0-0.5,0-0.7-0.1c-0.2-0.1-0.3-0.2-0.4-0.3c-0.1-0.1-0.2-0.3-0.2-0.5C28.3,56.8,28.3,56.6,28.3,56.4z"/>
				<path class="st7" d="M34.8,61.5c0,0.1,0,0.3,0,0.4c0,0.2,0,0.3,0,0.4c0,0.8,0.2,1.3,0.6,1.7c0.4,0.3,0.8,0.5,1.4,0.5
					c0.4,0,0.8-0.1,1.1-0.3c0.3-0.2,0.5-0.5,0.7-1c0-0.1,0.1-0.2,0.1-0.2c0,0,0.1-0.1,0.2-0.1h0.2c0.1,0,0.1,0,0.2,0.1
					c0.1,0,0.1,0.1,0.1,0.2c0,0.2-0.1,0.5-0.2,0.7c-0.1,0.2-0.3,0.4-0.5,0.6c-0.2,0.2-0.5,0.4-0.8,0.5c-0.3,0.1-0.7,0.2-1.1,0.2
					c-0.9,0-1.5-0.3-2-0.8c-0.5-0.5-0.7-1.2-0.7-2.1c0-0.1,0-0.3,0-0.5c0-0.2,0-0.4,0-0.5c0-0.9,0.3-1.6,0.7-2.1
					c0.5-0.5,1.1-0.8,2-0.8c0.4,0,0.8,0.1,1.1,0.2c0.3,0.1,0.6,0.3,0.8,0.5c0.2,0.2,0.4,0.4,0.5,0.6c0.1,0.2,0.2,0.5,0.2,0.7
					c0,0.1,0,0.1-0.1,0.2c-0.1,0-0.1,0.1-0.2,0.1h-0.2c-0.1,0-0.2,0-0.2-0.1c0,0-0.1-0.1-0.1-0.2c-0.2-0.5-0.4-0.8-0.7-1
					c-0.3-0.2-0.7-0.3-1.1-0.3c-0.6,0-1,0.2-1.4,0.5C35,60.2,34.8,60.7,34.8,61.5z"/>
				<path class="st7" d="M42.7,64.9v-5.4h-2.3c-0.2,0-0.3-0.1-0.3-0.3V59c0-0.2,0.1-0.3,0.3-0.3h5.3c0.2,0,0.3,0.1,0.3,0.3v0.2
					c0,0.2-0.1,0.3-0.3,0.3h-2.3v5.4c0,0.2-0.1,0.3-0.3,0.3h-0.2C42.8,65.2,42.7,65.1,42.7,64.9z"/>
				<path class="st7" d="M47.1,59c0-0.2,0.1-0.3,0.3-0.3h2.8c0.7,0,1.2,0.2,1.6,0.5s0.6,0.7,0.6,1.2c0,0.2,0,0.4-0.1,0.5
					c0,0.1-0.1,0.3-0.1,0.4c-0.1,0.1-0.1,0.2-0.2,0.3c-0.1,0.1-0.2,0.1-0.3,0.2c0.2,0.1,0.3,0.2,0.4,0.4c0.1,0.1,0.2,0.2,0.2,0.4
					c0.1,0.1,0.1,0.3,0.1,0.4c0,0.1,0,0.3,0,0.5c0,0.6-0.2,1-0.6,1.3c-0.4,0.3-0.9,0.5-1.6,0.5h-2.9c-0.2,0-0.3-0.1-0.3-0.3V59z
					 M47.9,59.4v2.1h2.2c0.5,0,0.8-0.1,1.1-0.3c0.3-0.2,0.4-0.5,0.4-0.8c0-0.4-0.1-0.6-0.4-0.8c-0.3-0.1-0.6-0.2-1.1-0.2H47.9z
					 M47.9,62.3v2.2h2.3c0.5,0,0.8-0.1,1.1-0.3c0.3-0.2,0.4-0.4,0.4-0.8c0-0.4-0.1-0.7-0.4-0.8c-0.3-0.2-0.6-0.3-1.2-0.3H47.9z"/>
				<path class="st7" d="M59.6,64.9c0,0.2-0.1,0.3-0.3,0.3h-0.2c-0.2,0-0.3-0.1-0.3-0.3V60L55,65c0,0-0.1,0.1-0.1,0.1
					c0,0-0.1,0.1-0.2,0.1h-0.2c-0.1,0-0.1,0-0.2-0.1c0,0-0.1-0.1-0.1-0.2V59c0-0.2,0.1-0.3,0.3-0.3h0.2c0.2,0,0.3,0.1,0.3,0.3v4.9
					l3.8-4.9c0,0,0.1-0.1,0.1-0.1c0,0,0.1-0.1,0.2-0.1h0.2c0.1,0,0.1,0,0.2,0.1c0,0,0.1,0.1,0.1,0.2V64.9z"/>
				<path class="st7" d="M62.6,62.7c-0.4-0.1-0.7-0.4-1-0.7c-0.2-0.3-0.3-0.7-0.3-1.2c0-0.7,0.2-1.2,0.6-1.5c0.4-0.4,1-0.5,1.7-0.5
					H66c0.2,0,0.3,0.1,0.3,0.3v5.9c0,0.2-0.1,0.3-0.3,0.3h-0.2c-0.2,0-0.3-0.1-0.3-0.3v-2.1h-2.1L62,65c0,0-0.1,0.1-0.1,0.1
					c-0.1,0-0.1,0.1-0.2,0.1h-0.2c-0.1,0-0.1,0-0.2-0.1c0,0-0.1-0.1-0.1-0.2c0,0,0-0.1,0-0.1c0,0,0-0.1,0.1-0.1L62.6,62.7z
					 M65.5,62.1v-2.7h-1.8c-0.5,0-0.9,0.1-1.2,0.4c-0.2,0.2-0.4,0.6-0.4,1c0,0.4,0.1,0.7,0.4,1c0.2,0.2,0.6,0.4,1.2,0.4H65.5z"/>
				<path class="st7" d="M5.8,78.4c-0.2,0-0.3-0.1-0.3-0.3v-4.5L3.8,77c0,0.1-0.1,0.2-0.1,0.2c-0.1,0.1-0.1,0.1-0.3,0.1H3.2
					c-0.1,0-0.2,0-0.3-0.1c-0.1-0.1-0.1-0.2-0.1-0.2l-1.7-3.4v4.5c0,0.2-0.1,0.3-0.3,0.3H0.6c-0.2,0-0.3-0.1-0.3-0.3v-5.9
					c0-0.1,0-0.1,0.1-0.2c0,0,0.1-0.1,0.2-0.1h0.3c0.1,0,0.2,0.1,0.3,0.2l2.2,4.3l2.2-4.3C5.5,72.1,5.6,72,5.7,72H6
					c0.1,0,0.1,0,0.2,0.1c0,0,0.1,0.1,0.1,0.2v5.9c0,0.2-0.1,0.3-0.3,0.3H5.8z"/>
				<path class="st7" d="M13.7,78.2c0,0.2-0.1,0.3-0.3,0.3h-0.2c-0.2,0-0.3-0.1-0.3-0.3v-4.9l-3.8,4.9c0,0-0.1,0.1-0.1,0.1
					c0,0-0.1,0.1-0.2,0.1H8.5c-0.1,0-0.1,0-0.2-0.1c0,0-0.1-0.1-0.1-0.2v-5.9c0-0.2,0.1-0.3,0.3-0.3h0.2C8.9,72,9,72.1,9,72.3v4.9
					l3.8-4.9c0,0,0.1-0.1,0.1-0.1c0,0,0.1-0.1,0.2-0.1h0.2c0.1,0,0.1,0,0.2,0.1c0,0,0.1,0.1,0.1,0.2V78.2z"/>
				<path class="st7" d="M16.4,72.7v5.4c0,0.2-0.1,0.3-0.3,0.3h-0.2c-0.2,0-0.3-0.1-0.3-0.3v-5.9c0-0.2,0.1-0.3,0.3-0.3h4.4
					c0.2,0,0.3,0.1,0.3,0.3v0.2c0,0.2-0.1,0.3-0.3,0.3H16.4z"/>
				<path class="st7" d="M24.6,78.6c-0.5,0-0.9-0.1-1.3-0.3c-0.3-0.2-0.6-0.4-0.8-0.7v2.9c0,0.2-0.1,0.3-0.3,0.3H22
					c-0.2,0-0.3-0.1-0.3-0.3v-8.2c0-0.2,0.1-0.3,0.3-0.3h0.2c0.2,0,0.3,0.1,0.3,0.3v0.6c0.2-0.3,0.5-0.5,0.8-0.7
					c0.3-0.2,0.8-0.3,1.3-0.3c0.5,0,0.9,0.1,1.2,0.3c0.3,0.2,0.6,0.4,0.8,0.7c0.2,0.3,0.4,0.6,0.5,0.9c0.1,0.4,0.2,0.7,0.2,1.1
					c0,0.1,0,0.3,0,0.4s0,0.3,0,0.4c0,0.4-0.1,0.7-0.2,1.1c-0.1,0.4-0.2,0.7-0.5,0.9c-0.2,0.3-0.5,0.5-0.8,0.7
					C25.4,78.5,25,78.6,24.6,78.6z M22.5,74.8c0,0.1,0,0.3,0,0.5s0,0.4,0,0.5c0,0.2,0.1,0.5,0.1,0.7c0.1,0.3,0.2,0.5,0.4,0.7
					c0.2,0.2,0.4,0.4,0.6,0.5c0.2,0.1,0.5,0.2,0.9,0.2c0.4,0,0.7-0.1,0.9-0.2c0.2-0.1,0.4-0.3,0.6-0.5c0.2-0.2,0.3-0.5,0.3-0.7
					c0.1-0.3,0.1-0.6,0.1-0.9c0-0.2,0-0.5,0-0.7c0-0.3-0.1-0.6-0.1-0.9c-0.1-0.3-0.2-0.5-0.3-0.7c-0.2-0.2-0.4-0.4-0.6-0.5
					c-0.2-0.1-0.5-0.2-0.9-0.2c-0.4,0-0.7,0.1-0.9,0.2c-0.2,0.1-0.5,0.3-0.6,0.5s-0.3,0.4-0.4,0.7C22.5,74.3,22.5,74.5,22.5,74.8z"
					/>
				<path class="st7" d="M33.1,78.4c-0.2,0-0.3-0.1-0.3-0.3v-0.6c-0.1,0.1-0.2,0.2-0.3,0.3c-0.1,0.1-0.3,0.2-0.4,0.3
					c-0.2,0.1-0.4,0.2-0.6,0.2c-0.2,0.1-0.5,0.1-0.8,0.1c-0.3,0-0.6,0-0.8-0.1c-0.3-0.1-0.5-0.2-0.7-0.4s-0.4-0.4-0.5-0.6
					s-0.2-0.5-0.2-0.7c0-0.3,0.1-0.5,0.2-0.8s0.3-0.4,0.5-0.6c0.2-0.2,0.5-0.3,0.8-0.4c0.3-0.1,0.6-0.2,1-0.2l2-0.3V74
					c0-0.4-0.1-0.8-0.4-1c-0.3-0.2-0.7-0.4-1.3-0.4c-0.5,0-0.8,0.1-1.1,0.3c-0.3,0.2-0.4,0.4-0.5,0.6c0,0.1-0.1,0.2-0.1,0.2
					c0,0-0.1,0.1-0.2,0.1h-0.2c-0.1,0-0.1,0-0.2-0.1c-0.1-0.1-0.1-0.1-0.1-0.2c0-0.1,0-0.3,0.1-0.4c0.1-0.2,0.2-0.3,0.4-0.5
					c0.2-0.2,0.4-0.3,0.7-0.4c0.3-0.1,0.6-0.2,1.1-0.2c0.5,0,0.9,0.1,1.2,0.2c0.3,0.1,0.6,0.3,0.7,0.5c0.2,0.2,0.3,0.4,0.4,0.7
					c0.1,0.3,0.1,0.5,0.1,0.8v4.1c0,0.2-0.1,0.3-0.3,0.3H33.1z M30.8,77.8c0.3,0,0.5,0,0.8-0.1c0.3-0.1,0.5-0.2,0.7-0.4
					c0.2-0.2,0.3-0.4,0.4-0.7c0.1-0.3,0.2-0.6,0.2-1v-0.4l-1.6,0.2c-1.4,0.2-2.1,0.6-2.1,1.3c0,0.2,0,0.4,0.1,0.5
					c0.1,0.1,0.2,0.3,0.4,0.4c0.1,0.1,0.3,0.2,0.5,0.2C30.4,77.8,30.6,77.8,30.8,77.8z"/>
				<path class="st7" d="M36.3,77.7h3.9v-5.4c0-0.2,0.1-0.3,0.3-0.3h0.2c0.2,0,0.3,0.1,0.3,0.3v5.4h0.2c0.2,0,0.3,0.1,0.3,0.3v1.5
					c0,0.2-0.1,0.3-0.3,0.3h-0.2c-0.2,0-0.3-0.1-0.3-0.3v-1.1h-4.9c-0.2,0-0.3-0.1-0.3-0.3v-5.9c0-0.2,0.1-0.3,0.3-0.3H36
					c0.2,0,0.3,0.1,0.3,0.3V77.7z"/>
				<path class="st7" d="M48.4,78.2c0,0.2-0.1,0.3-0.3,0.3h-0.2c-0.2,0-0.3-0.1-0.3-0.3v-4.9l-3.8,4.9c0,0-0.1,0.1-0.1,0.1
					c0,0-0.1,0.1-0.2,0.1h-0.2c-0.1,0-0.1,0-0.2-0.1c0,0-0.1-0.1-0.1-0.2v-5.9c0-0.2,0.1-0.3,0.3-0.3h0.2c0.2,0,0.3,0.1,0.3,0.3v4.9
					l3.8-4.9c0,0,0.1-0.1,0.1-0.1c0,0,0.1-0.1,0.2-0.1h0.2c0.1,0,0.1,0,0.2,0.1c0,0,0.1,0.1,0.1,0.2V78.2z"/>
				<path class="st7" d="M55.8,78.2c0,0.2-0.1,0.3-0.3,0.3h-0.2c-0.2,0-0.3-0.1-0.3-0.3v-4.9l-3.8,4.9c0,0-0.1,0.1-0.1,0.1
					c0,0-0.1,0.1-0.2,0.1h-0.2c-0.1,0-0.1,0-0.2-0.1c0,0-0.1-0.1-0.1-0.2v-5.9c0-0.2,0.1-0.3,0.3-0.3h0.2c0.2,0,0.3,0.1,0.3,0.3v4.9
					l3.8-4.9c0,0,0.1-0.1,0.1-0.1c0,0,0.1-0.1,0.2-0.1h0.2c0.1,0,0.1,0,0.2,0.1c0,0,0.1,0.1,0.1,0.2V78.2z"/>
			</g>
		</g>
		<g>
			<path class="st2" d="M9.7,28V15.4c0-0.2,0.1-0.3,0.2-0.4c0.1-0.1,0.3-0.2,0.4-0.2h1.9c0.2,0,0.3,0.1,0.4,0.2
				c0.1,0.1,0.2,0.3,0.2,0.4V28h1.1c0.2,0,0.3,0.1,0.4,0.2c0.1,0.1,0.2,0.3,0.2,0.4v4.2c0,0.2-0.1,0.3-0.2,0.4
				c-0.1,0.1-0.3,0.2-0.4,0.2h-1.8c-0.2,0-0.3-0.1-0.4-0.2c-0.1-0.1-0.2-0.3-0.2-0.4v-1.9H0.7c-0.2,0-0.3-0.1-0.4-0.2
				c-0.1-0.1-0.2-0.3-0.2-0.4V15.4c0-0.2,0.1-0.3,0.2-0.4c0.1-0.1,0.3-0.2,0.4-0.2h1.9c0.2,0,0.3,0.1,0.4,0.2
				c0.1,0.1,0.2,0.3,0.2,0.4V28H9.7z"/>
			<path class="st2" d="M26.9,25.8c0-0.2,0.1-0.3,0.2-0.4c0.1-0.1,0.3-0.1,0.4-0.1h1.9c0.2,0,0.3,0.1,0.4,0.2
				c0.1,0.1,0.2,0.3,0.2,0.4c0,0.6-0.2,1.3-0.5,1.9c-0.3,0.6-0.7,1.2-1.2,1.7c-0.6,0.5-1.3,0.9-2.1,1.2c-0.8,0.3-1.9,0.5-3.1,0.5
				c-1.1,0-2-0.2-2.8-0.5c-0.8-0.3-1.5-0.8-2.1-1.3c-0.6-0.6-1-1.2-1.3-2c-0.3-0.8-0.5-1.6-0.6-2.6c0-0.6,0-1.2,0-1.9
				c0-0.7,0-1.4,0-1.9c0.1-0.9,0.2-1.8,0.6-2.6c0.3-0.8,0.8-1.5,1.3-2c0.6-0.6,1.3-1,2.1-1.3c0.8-0.3,1.8-0.5,2.8-0.5
				c1.2,0,2.2,0.2,3.1,0.5c0.8,0.3,1.5,0.7,2.1,1.2c0.6,0.5,1,1.1,1.2,1.7c0.3,0.6,0.4,1.3,0.5,1.9c0,0.2,0,0.3-0.2,0.4
				c-0.1,0.1-0.3,0.2-0.4,0.2h-1.9c-0.2,0-0.3,0-0.4-0.1c-0.1-0.1-0.2-0.2-0.3-0.4c0-0.3-0.2-0.6-0.3-0.9c-0.2-0.3-0.4-0.6-0.7-0.8
				c-0.3-0.2-0.7-0.4-1.1-0.6c-0.4-0.1-1-0.2-1.6-0.2c-0.6,0-1.1,0.1-1.6,0.3c-0.4,0.2-0.8,0.4-1.1,0.7c-0.3,0.3-0.5,0.7-0.7,1.1
				c-0.2,0.4-0.3,0.9-0.3,1.4c0,0.6,0,1.2,0,1.9c0,0.7,0,1.4,0,1.9c0,0.5,0.1,0.9,0.3,1.4c0.2,0.4,0.4,0.8,0.7,1.1
				c0.3,0.3,0.7,0.6,1.1,0.7c0.4,0.2,1,0.3,1.6,0.3c0.6,0,1.1-0.1,1.6-0.2c0.4-0.1,0.8-0.3,1.1-0.6c0.3-0.2,0.5-0.5,0.7-0.8
				C26.7,26.4,26.9,26.1,26.9,25.8z"/>
			<path class="st2" d="M40.3,23l4.4-7.6c0.1-0.1,0.2-0.2,0.3-0.4c0.1-0.2,0.4-0.3,0.7-0.3h1.6c0.2,0,0.3,0.1,0.4,0.2
				c0.1,0.1,0.2,0.3,0.2,0.4v14.9c0,0.2-0.1,0.3-0.2,0.4c-0.1,0.1-0.3,0.2-0.4,0.2h-1.9c-0.2,0-0.3-0.1-0.4-0.2
				c-0.1-0.1-0.2-0.3-0.2-0.4v-9l-3,5.2c-0.1,0.1-0.2,0.2-0.3,0.4C41.3,27,41.1,27,40.9,27h-1.2c-0.2,0-0.4-0.1-0.5-0.2
				c-0.1-0.1-0.2-0.3-0.3-0.4l-3-5.2v9c0,0.2-0.1,0.3-0.2,0.4c-0.1,0.1-0.3,0.2-0.4,0.2h-1.9c-0.2,0-0.3-0.1-0.4-0.2
				c-0.1-0.1-0.2-0.3-0.2-0.4V15.4c0-0.2,0.1-0.3,0.2-0.4c0.1-0.1,0.3-0.2,0.4-0.2h1.6c0.3,0,0.5,0.1,0.7,0.3
				c0.1,0.2,0.2,0.3,0.3,0.4L40.3,23z"/>
		</g>
	</g>
</g>
<g id="Слой_2">
</g>
<g id="Слой_3">
</g>
<g id="Слой_4">
</g>
<g id="Слой_5">
</g>
</svg>
